<svg width="32" height="32" viewBox="0 0 32 32" fill="none" xmlns="http://www.w3.org/2000/svg">
<path fill-rule="evenodd" clip-rule="evenodd" d="M12.5713 11.959H17.5233V14.4257C18.2367 13.007 20.066 11.7323 22.814 11.7323C28.082 11.7323 29.3327 14.5563 29.3327 19.7377V29.3337H23.9993V20.9177C23.9993 17.967 23.286 16.303 21.47 16.303C18.9513 16.303 17.9047 18.0963 17.9047 20.9163V29.3337H12.5713V11.959ZM3.42602 29.107H8.75935V11.7323H3.42602V29.107ZM9.52335 6.06699C9.52355 6.51403 9.43489 6.95664 9.26253 7.36911C9.09017 7.78158 8.83755 8.15568 8.51935 8.46966C7.87455 9.11049 7.00176 9.4692 6.09268 9.46699C5.1852 9.46638 4.31443 9.10859 3.66868 8.47099C3.35163 8.15594 3.09986 7.78142 2.92781 7.3689C2.75575 6.95638 2.66679 6.51396 2.66602 6.06699C2.66602 5.16433 3.02602 4.30033 3.67002 3.66299C4.3152 3.02454 5.18634 2.66659 6.09402 2.66699C7.00335 2.66699 7.87535 3.02566 8.51935 3.66299C9.16201 4.30033 9.52335 5.16433 9.52335 6.06699Z" fill="#0023CE"/>
</svg>
