<svg width="32" height="32" viewBox="0 0 32 32" fill="none" xmlns="http://www.w3.org/2000/svg">
<path d="M10.052 30.0004C22.128 30.0004 28.734 19.9944 28.734 11.3324C28.734 11.0524 28.734 10.7684 28.722 10.4884C30.0081 9.55738 31.1181 8.40471 32 7.08441C30.7986 7.61411 29.5255 7.96322 28.222 8.12041C29.5951 7.29969 30.6234 6.00835 31.116 4.48641C29.826 5.25066 28.414 5.78716 26.942 6.07241C25.9524 5.01846 24.6428 4.32025 23.2162 4.08592C21.7895 3.8516 20.3254 4.09425 19.0507 4.77628C17.7759 5.45832 16.7616 6.54167 16.1649 7.85853C15.5682 9.17539 15.4224 10.6523 15.75 12.0604C13.1395 11.9295 10.5856 11.2513 8.25409 10.0699C5.92254 8.88844 3.86537 7.2301 2.216 5.20241C1.37868 6.64858 1.12315 8.35921 1.50129 9.98694C1.87944 11.6147 2.86291 13.0375 4.252 13.9664C3.21108 13.931 2.19304 13.6515 1.28 13.1504V13.2404C1.28179 14.7554 1.80661 16.2233 2.76575 17.3959C3.72488 18.5686 5.0595 19.3742 6.544 19.6764C5.98053 19.8316 5.39846 19.909 4.814 19.9064C4.40197 19.9077 3.99076 19.8695 3.586 19.7924C4.00557 21.0965 4.82255 22.2367 5.92249 23.0534C7.02244 23.87 8.35027 24.3221 9.72 24.3464C7.39311 26.174 4.5188 27.1652 1.56 27.1604C1.03864 27.1626 0.517646 27.1326 0 27.0704C3.00303 28.9849 6.4906 30.0015 10.052 30.0004Z" fill="#0023CE"/>
</svg>
