<svg width="28" height="28" viewBox="0 0 28 28" fill="none" xmlns="http://www.w3.org/2000/svg">
<path d="M20.9786 24.8973H7.02156C6.78845 24.8973 6.59961 24.7084 6.59961 24.476V3.52352C6.59961 3.2904 6.78845 3.10156 7.02156 3.10156H17.1146C17.2266 3.10156 17.3334 3.14584 17.4128 3.22528L21.2768 7.08928C21.3556 7.16807 21.4005 7.27552 21.4005 7.38752V24.4753C21.4005 24.7084 21.2117 24.8973 20.9786 24.8973ZM7.44287 24.054H20.5573V7.56268L16.9401 3.94547H7.44287V24.054Z" fill="#020A4B"/>
<path d="M20.2888 7.67075H17.1405C16.9073 7.67075 16.7185 7.48191 16.7185 7.2488V3.64266C16.7185 3.40954 16.9073 3.2207 17.1405 3.2207C17.3736 3.2207 17.5624 3.40954 17.5624 3.64266V6.82749H20.2895C20.5226 6.82749 20.7114 7.01633 20.7114 7.24945C20.7114 7.48256 20.5213 7.67075 20.2888 7.67075Z" fill="#020A4B"/>
<path d="M18.5998 22.3422H9.5096C9.28299 22.3422 9.09937 22.1585 9.09937 21.9319V13.7716C9.09937 13.545 9.28299 13.3613 9.5096 13.3613H18.5998C18.8264 13.3613 19.0101 13.545 19.0101 13.7716V21.9313C19.0101 22.1585 18.8264 22.3422 18.5998 22.3422ZM9.92048 21.5217H18.1902V14.1818H9.92048V21.5217V21.5217Z" fill="#020A4B"/>
<path d="M18.4851 18.2619H9.73933C9.51273 18.2619 9.3291 18.0782 9.3291 17.8516C9.3291 17.625 9.51273 17.4414 9.73933 17.4414H18.4851C18.7117 17.4414 18.8953 17.625 18.8953 17.8516C18.8953 18.0782 18.7117 18.2619 18.4851 18.2619Z" fill="#020A4B"/>
<path d="M14.0833 22.3422C13.8567 22.3422 13.6731 22.1585 13.6731 21.9319V13.7716C13.6731 13.545 13.8567 13.3613 14.0833 13.3613C14.3099 13.3613 14.4936 13.545 14.4936 13.7716V21.9313C14.4936 22.1585 14.3099 22.3422 14.0833 22.3422Z" fill="#020A4B"/>
</svg>
