<svg width="28" height="28" viewBox="0 0 28 28" fill="none" xmlns="http://www.w3.org/2000/svg">
<path d="M9.31145 5.73456H9.30234C9.03276 5.73456 8.81396 5.51577 8.81396 5.24618C8.81396 4.9766 9.03276 4.75781 9.30234 4.75781H9.31145C9.58103 4.75781 9.79983 4.9766 9.79983 5.24618C9.79983 5.51577 9.58103 5.73456 9.31145 5.73456Z" fill="#020A4B"/>
<path d="M5.64544 5.73456H5.63632C5.36674 5.73456 5.14795 5.51577 5.14795 5.24618C5.14795 4.9766 5.36674 4.75781 5.63632 4.75781H5.64544C5.91502 4.75781 6.13381 4.9766 6.13381 5.24618C6.13381 5.51577 5.91567 5.73456 5.64544 5.73456Z" fill="#020A4B"/>
<path d="M7.47845 5.73456H7.46933C7.19975 5.73456 6.98096 5.51577 6.98096 5.24618C6.98096 4.9766 7.19975 4.75781 7.46933 4.75781H7.47845C7.74803 4.75781 7.96682 4.9766 7.96682 5.24618C7.96682 5.51577 7.74803 5.73456 7.47845 5.73456Z" fill="#020A4B"/>
<path d="M16.8951 19.0802H16.8873C16.6717 19.0802 16.4966 18.9051 16.4966 18.6895C16.4966 18.474 16.6717 18.2988 16.8873 18.2988H16.8951C17.1106 18.2988 17.2858 18.474 17.2858 18.6895C17.2858 18.9051 17.1113 19.0802 16.8951 19.0802Z" fill="#020A4B"/>
<path d="M13.7056 19.0802H13.6978C13.4823 19.0802 13.3071 18.9051 13.3071 18.6895C13.3071 18.474 13.4823 18.2988 13.6978 18.2988H13.7056C13.9212 18.2988 14.0963 18.474 14.0963 18.6895C14.0963 18.9051 13.9212 19.0802 13.7056 19.0802Z" fill="#020A4B"/>
<path d="M15.3004 19.0802H15.2926C15.077 19.0802 14.9019 18.9051 14.9019 18.6895C14.9019 18.474 15.077 18.2988 15.2926 18.2988H15.3004C15.5159 18.2988 15.6911 18.474 15.6911 18.6895C15.6911 18.9051 15.5166 19.0802 15.3004 19.0802Z" fill="#020A4B"/>
<path d="M21.9689 8.46484H13.6978C13.4823 8.46484 13.3071 8.64001 13.3071 8.85554V17.1266C13.3071 17.3421 13.4823 17.5173 13.6978 17.5173H13.7206H18.6851H20.3703H21.9669H21.9682C21.9845 17.5173 22.0008 17.516 22.0171 17.5141C22.0184 17.5141 22.0203 17.5134 22.0216 17.5134C22.2124 17.4874 22.3596 17.3246 22.3596 17.1266V8.85554C22.3596 8.64001 22.1844 8.46484 21.9689 8.46484ZM21.5782 9.24624V15.6706L20.6646 14.0889C20.5949 13.9678 20.466 13.8936 20.326 13.8936C20.186 13.8936 20.0577 13.9678 19.9874 14.0889L19.5277 14.8853L17.3834 11.1717C17.3137 11.0506 17.1848 10.9764 17.0448 10.9764C16.9048 10.9764 16.7765 11.0506 16.7062 11.1717L14.0879 15.7071V9.24559H21.5782V9.24624ZM17.0455 12.1491L19.0764 15.6674L18.4598 16.7359H14.3972L17.0455 12.1491ZM20.3703 16.7359H19.3623L20.326 15.0663L21.2897 16.7359H20.3703Z" fill="#020A4B"/>
<path d="M19.7282 12.326C19.0777 12.326 18.5476 11.7966 18.5476 11.1454C18.5476 10.4942 19.077 9.96484 19.7282 9.96484C20.3787 9.96484 20.9087 10.4942 20.9087 11.1454C20.9087 11.7966 20.3793 12.326 19.7282 12.326ZM19.7282 10.7469C19.5081 10.7469 19.329 10.926 19.329 11.1461C19.329 11.3661 19.5081 11.5452 19.7282 11.5452C19.9483 11.5452 20.1273 11.3661 20.1273 11.1461C20.1273 10.926 19.9483 10.7469 19.7282 10.7469Z" fill="#020A4B"/>
<path d="M21.9669 20.9689H13.6978C13.4823 20.9689 13.3071 20.7937 13.3071 20.5782C13.3071 20.3627 13.4823 20.1875 13.6978 20.1875H21.9669C22.1825 20.1875 22.3576 20.3627 22.3576 20.5782C22.3576 20.7937 22.1825 20.9689 21.9669 20.9689Z" fill="#020A4B"/>
<path d="M17.8328 22.7267H13.6986C13.483 22.7267 13.3079 22.5515 13.3079 22.336C13.3079 22.1205 13.483 21.9453 13.6986 21.9453H17.8328C18.0483 21.9453 18.2235 22.1205 18.2235 22.336C18.2235 22.5515 18.0483 22.7267 17.8328 22.7267Z" fill="#020A4B"/>
<path d="M22.9671 3.18359H5.03281C4.01309 3.18359 3.18286 4.01318 3.18286 5.03355V22.9679C3.18286 23.9876 4.01244 24.8178 5.03281 24.8178H22.9671C23.9869 24.8178 24.8171 23.9882 24.8171 22.9679V5.03355C24.8171 4.01318 23.9875 3.18359 22.9671 3.18359ZM5.03281 3.96499H22.9671C23.5564 3.96499 24.0357 4.44424 24.0357 5.03355V6.52927H3.96426V5.03355C3.96426 4.44424 4.44351 3.96499 5.03281 3.96499ZM3.96426 22.9679V7.31001H10.8536V24.0364H5.03216C4.44351 24.0364 3.96426 23.5572 3.96426 22.9679ZM22.9671 24.0364H11.6356V7.31001H24.0357V22.9679C24.0357 23.5572 23.5564 24.0364 22.9671 24.0364Z" fill="#020A4B"/>
<path d="M7.31176 13.6045C5.87595 13.6045 4.70776 12.4363 4.70776 11.0005C4.70776 9.56467 5.87595 8.39648 7.31176 8.39648C8.74758 8.39648 9.91576 9.56467 9.91576 11.0005C9.91576 12.4363 8.74758 13.6045 7.31176 13.6045ZM7.31176 9.17853C6.30702 9.17853 5.48916 9.99574 5.48916 11.0011C5.48916 12.0065 6.30637 12.8237 7.31176 12.8237C8.31716 12.8237 9.13437 12.0065 9.13437 11.0011C9.13437 9.99574 8.31651 9.17853 7.31176 9.17853Z" fill="#020A4B"/>
<path d="M9.31169 15.5705H5.3116C5.09606 15.5705 4.9209 15.3953 4.9209 15.1798C4.9209 14.9642 5.09606 14.7891 5.3116 14.7891H9.31169C9.52722 14.7891 9.70239 14.9642 9.70239 15.1798C9.70239 15.3953 9.52722 15.5705 9.31169 15.5705Z" fill="#020A4B"/>
<path d="M9.3116 17.3693H6.67439C6.45885 17.3693 6.28369 17.1941 6.28369 16.9786C6.28369 16.7631 6.45885 16.5879 6.67439 16.5879H9.3116C9.52713 16.5879 9.7023 16.7631 9.7023 16.9786C9.7023 17.1941 9.52713 17.3693 9.3116 17.3693Z" fill="#020A4B"/>
<path d="M5.36434 17.3693H5.3116C5.09606 17.3693 4.9209 17.1941 4.9209 16.9786C4.9209 16.7631 5.09606 16.5879 5.3116 16.5879H5.36434C5.57987 16.5879 5.75504 16.7631 5.75504 16.9786C5.75504 17.1941 5.57987 17.3693 5.36434 17.3693Z" fill="#020A4B"/>
<path d="M9.31169 19.1681H5.3116C5.09606 19.1681 4.9209 18.993 4.9209 18.7774C4.9209 18.5619 5.09606 18.3867 5.3116 18.3867H9.31169C9.52722 18.3867 9.70239 18.5619 9.70239 18.7774C9.70239 18.993 9.52722 19.1681 9.31169 19.1681Z" fill="#020A4B"/>
<path d="M9.31169 20.9689H5.3116C5.09606 20.9689 4.9209 20.7937 4.9209 20.5782C4.9209 20.3627 5.09606 20.1875 5.3116 20.1875H9.31169C9.52722 20.1875 9.70239 20.3627 9.70239 20.5782C9.70239 20.7937 9.52722 20.9689 9.31169 20.9689Z" fill="#020A4B"/>
</svg>
