<svg width="28" height="28" viewBox="0 0 28 28" fill="none" xmlns="http://www.w3.org/2000/svg">
<path d="M14.8764 19.5314L13.5213 17.6424C14.2213 16.9469 14.3893 15.9109 13.8697 15.1868C13.578 14.7805 13.1221 14.5344 12.5849 14.4934C12.1949 14.4641 11.7964 14.5474 11.4317 14.7297L10.0767 12.8407C9.99331 12.7248 9.85331 12.6636 9.712 12.6805C9.57005 12.6981 9.44958 12.7912 9.39619 12.9234C9.01656 13.8761 7.836 16.4892 6.94456 17.1286L4.76512 18.692C4.49879 18.8835 4.34056 19.2162 4.3321 19.6056C4.32819 19.7997 4.36075 19.9937 4.42326 20.1715L3.47061 20.8552C3.29545 20.9809 3.25507 21.2251 3.38075 21.4002L4.62186 23.1304C4.68242 23.2144 4.77358 23.271 4.87582 23.288C4.89665 23.2912 4.91814 23.2932 4.93898 23.2932C5.02038 23.2932 5.09982 23.2678 5.16689 23.2196L6.11758 22.5372C6.37675 22.7423 6.70884 22.8712 7.03051 22.8712C7.24345 22.8712 7.45182 22.8146 7.63089 22.6863L7.97861 22.4362L10.2375 24.6665C10.313 24.7407 10.412 24.7791 10.5123 24.7791C10.5872 24.7791 10.6627 24.7576 10.7291 24.7134L12.514 23.523C12.6116 23.4579 12.6748 23.3524 12.6859 23.2352C12.6969 23.118 12.6553 23.0027 12.5713 22.92L10.4947 20.8695C11.9839 20.3545 14.5593 20.1487 14.5879 20.1467C14.7286 20.1357 14.8523 20.0497 14.9115 19.9221C14.9708 19.7945 14.9584 19.646 14.8764 19.5314ZM12.5257 15.2728C12.8285 15.2956 13.0798 15.4271 13.2341 15.6427C13.5076 16.0236 13.4191 16.5758 13.057 16.9964L11.8954 15.3776C12.1011 15.2936 12.3167 15.2572 12.5257 15.2728ZM9.62475 20.3909C9.61238 20.3974 9.6 20.4046 9.58893 20.4124C9.58763 20.4131 9.58633 20.4144 9.58503 20.415C9.56419 20.4294 9.54465 20.445 9.52707 20.4626L9.52642 20.4632C9.52577 20.4639 9.52577 20.4639 9.52512 20.4645C9.50754 20.4827 9.49191 20.5023 9.47824 20.5231C9.47693 20.5251 9.47563 20.527 9.47433 20.529C9.46196 20.5485 9.45154 20.5687 9.44307 20.5902C9.44177 20.5934 9.44112 20.596 9.43982 20.5993C9.432 20.6201 9.42549 20.641 9.42158 20.6631C9.42093 20.6657 9.42093 20.6683 9.42028 20.6716C9.41638 20.6937 9.41442 20.7159 9.41442 20.7387C9.41442 20.7406 9.41442 20.7426 9.41442 20.7452C9.41507 20.768 9.41703 20.7907 9.42158 20.8135C9.42224 20.8155 9.42289 20.8181 9.42289 20.82C9.42745 20.8422 9.43396 20.8637 9.44242 20.8852C9.44372 20.8878 9.44503 20.8904 9.44568 20.893C9.44958 20.9014 9.45284 20.9099 9.4574 20.9184C9.46196 20.9275 9.46782 20.936 9.47368 20.9444C9.47693 20.9496 9.47954 20.9548 9.48279 20.9594C9.49647 20.9789 9.51145 20.9972 9.52772 21.0134C9.52838 21.0147 9.52903 21.0154 9.53033 21.0167L11.6824 23.1414L10.5611 23.889L8.29377 21.6503C8.29312 21.6496 8.29182 21.649 8.29117 21.6483C8.27358 21.6314 8.25535 21.6164 8.23517 21.6034C8.23321 21.6021 8.23126 21.6008 8.22931 21.5995C8.20977 21.5871 8.18958 21.5767 8.16875 21.5682C8.16614 21.5669 8.16354 21.5656 8.16093 21.565C8.1401 21.5572 8.11861 21.5507 8.09712 21.5467C8.09451 21.5461 8.09126 21.5454 8.08865 21.5448C8.06651 21.5409 8.04437 21.5389 8.02224 21.5389C8.01963 21.5389 8.01703 21.5389 8.01507 21.5389C7.99228 21.5389 7.97014 21.5415 7.948 21.5461C7.9454 21.5467 7.94344 21.5467 7.94084 21.5474C7.91935 21.552 7.89786 21.5585 7.87638 21.5669C7.87377 21.5682 7.87051 21.5689 7.86791 21.5702C7.84772 21.5787 7.82819 21.5891 7.80931 21.6014C7.80605 21.6034 7.80279 21.6054 7.80019 21.6073C7.79758 21.6093 7.79498 21.6106 7.79238 21.6119L7.17703 22.054C7.02791 22.1608 6.63721 22.0188 6.48028 21.8001C6.46465 21.7779 6.44707 21.7584 6.42819 21.7408C6.30772 21.6288 6.12735 21.6047 5.98084 21.6828C5.96521 21.6913 5.95024 21.6998 5.93526 21.7102L5.03144 22.3594L4.24549 21.2641L5.14996 20.6149C5.20465 20.5759 5.24633 20.5244 5.27368 20.4678C5.27628 20.4619 5.27889 20.456 5.28149 20.4502C5.2841 20.4443 5.2867 20.4391 5.28865 20.4333C5.29191 20.4248 5.29451 20.4157 5.29712 20.4066C5.29777 20.4033 5.29907 20.4007 5.29972 20.3974C5.31275 20.3493 5.316 20.2985 5.30949 20.2483C5.30819 20.2386 5.30624 20.2281 5.30428 20.2184C5.30363 20.2158 5.30363 20.2138 5.30298 20.2112C5.30168 20.2047 5.29907 20.1975 5.29712 20.191C5.29582 20.1858 5.29451 20.18 5.29256 20.1747C5.29126 20.1702 5.28865 20.165 5.28735 20.1604C5.28475 20.1533 5.28214 20.1461 5.27889 20.1389C5.27758 20.1363 5.27628 20.1331 5.27433 20.1305C5.26456 20.1096 5.25284 20.0894 5.23917 20.0706C5.16038 19.9605 5.11154 19.7854 5.11479 19.6252C5.11805 19.4878 5.15907 19.3745 5.22224 19.3295L7.40168 17.7661C8.35498 17.0824 9.36819 14.9681 9.85005 13.8656L13.8475 19.437C12.7653 19.5542 10.6842 19.8427 9.62475 20.3909Z" fill="#020A4B"/>
<path d="M12.3706 5.74038H10.1788C9.96325 5.74038 9.78809 5.56522 9.78809 5.34968C9.78809 5.13415 9.96325 4.95898 10.1788 4.95898H12.3706C12.5861 4.95898 12.7613 5.13415 12.7613 5.34968C12.7613 5.56522 12.5861 5.74038 12.3706 5.74038Z" fill="#020A4B"/>
<path d="M12.3706 7.47475H10.1788C9.96325 7.47475 9.78809 7.29959 9.78809 7.08406C9.78809 6.86852 9.96325 6.69336 10.1788 6.69336H12.3706C12.5861 6.69336 12.7613 6.86852 12.7613 7.08406C12.7613 7.29959 12.5861 7.47475 12.3706 7.47475Z" fill="#020A4B"/>
<path d="M11.3066 9.20913H10.1788C9.96325 9.20913 9.78809 9.03397 9.78809 8.81843C9.78809 8.6029 9.96325 8.42773 10.1788 8.42773H11.3066C11.5221 8.42773 11.6973 8.6029 11.6973 8.81843C11.6973 9.03397 11.5221 9.20913 11.3066 9.20913Z" fill="#020A4B"/>
<path d="M13.7909 10.9513H8.75935C8.54382 10.9513 8.36865 10.7761 8.36865 10.5606V3.60945C8.36865 3.39391 8.54382 3.21875 8.75935 3.21875H13.7909C14.0064 3.21875 14.1816 3.39391 14.1816 3.60945V10.5606C14.1816 10.7761 14.0064 10.9513 13.7909 10.9513ZM9.1494 10.1699H13.3995V4.00015H9.1494V10.1699Z" fill="#020A4B"/>
<path d="M21.3021 23.0885C19.4332 23.0885 17.9121 21.568 17.9121 19.6985C17.9121 17.8291 19.4326 16.3086 21.3021 16.3086C23.1716 16.3086 24.692 17.8291 24.692 19.6985C24.692 21.568 23.1716 23.0885 21.3021 23.0885ZM21.3021 17.0906C19.8636 17.0906 18.6935 18.2608 18.6935 19.6992C18.6935 21.1376 19.8636 22.3078 21.3021 22.3078C22.7405 22.3078 23.9106 21.1376 23.9106 19.6992C23.9106 18.2608 22.7405 17.0906 21.3021 17.0906Z" fill="#020A4B"/>
<path d="M20.4881 21.3419C20.4204 21.3419 20.3533 21.3243 20.2928 21.2898C20.1716 21.2202 20.0974 21.0912 20.0974 20.9512V18.4475C20.0974 18.3082 20.1716 18.1792 20.2928 18.1089C20.4139 18.0392 20.5623 18.0392 20.6835 18.1089L22.8518 19.3604C22.9729 19.4301 23.0472 19.559 23.0472 19.699C23.0472 19.839 22.9729 19.9673 22.8518 20.0376L20.6835 21.2892C20.6229 21.3243 20.5558 21.3419 20.4881 21.3419ZM20.8788 19.1241V20.274L21.8751 19.699L20.8788 19.1241Z" fill="#020A4B"/>
<path d="M21.2135 14.6034H17.093C16.4464 14.6034 15.9209 14.0773 15.9209 13.4313V9.31076C15.9209 8.66416 16.4464 8.13867 17.093 8.13867H21.2135C21.8602 8.13867 22.3856 8.66416 22.3856 9.31076V13.4313C22.3856 14.0779 21.8602 14.6034 21.2135 14.6034ZM17.093 8.92007C16.8775 8.92007 16.7023 9.09523 16.7023 9.31076V13.4313C16.7023 13.6469 16.8775 13.822 17.093 13.822H21.2135C21.4291 13.822 21.6042 13.6469 21.6042 13.4313V9.31076C21.6042 9.09523 21.4291 8.92007 21.2135 8.92007H17.093Z" fill="#020A4B"/>
<path d="M19.0211 13.2846C18.8055 13.2846 18.6304 13.1094 18.6304 12.8939V10.564C18.6304 9.95257 19.1279 9.45508 19.7393 9.45508C19.9548 9.45508 20.13 9.63024 20.13 9.84578C20.13 10.0613 19.9548 10.2365 19.7393 10.2365C19.5589 10.2365 19.4118 10.383 19.4118 10.564V12.8939C19.4118 13.1094 19.2366 13.2846 19.0211 13.2846Z" fill="#020A4B"/>
<path d="M19.5414 12.2013H18.5008C18.2853 12.2013 18.1101 12.0262 18.1101 11.8106C18.1101 11.5951 18.2853 11.4199 18.5008 11.4199H19.5414C19.7569 11.4199 19.9321 11.5951 19.9321 11.8106C19.9321 12.0262 19.7569 12.2013 19.5414 12.2013Z" fill="#020A4B"/>
</svg>
