<svg width="28" height="28" viewBox="0 0 28 28" fill="none" xmlns="http://www.w3.org/2000/svg">
<path d="M19.0831 10.3994C18.9425 10.3994 18.8057 10.3278 18.7289 10.1982L15.7537 5.18949L13.5932 6.61293C13.5131 6.66567 13.4212 6.68651 13.332 6.67935L15.2028 9.77172C15.3207 9.96642 15.2582 10.2191 15.0635 10.3369C14.8688 10.4548 14.6161 10.3923 14.4983 10.1976L10.8915 4.23553L5.03622 7.99795L6.04292 9.69553C6.15883 9.89088 6.09436 10.1435 5.89901 10.2594C5.70367 10.3753 5.45102 10.3109 5.33511 10.1155L4.12655 8.07739C4.01325 7.8866 4.07185 7.64111 4.25809 7.5213L10.8029 3.31544C10.8967 3.25553 11.0106 3.23535 11.1181 3.26074C11.2262 3.28549 11.3199 3.35386 11.3772 3.44893L12.9869 6.11023C13.0175 6.0373 13.069 5.97284 13.1399 5.92595L15.6606 4.26549C15.7544 4.20363 15.8696 4.18279 15.979 4.20818C16.0884 4.23358 16.1828 4.3026 16.2408 4.39897L18.064 7.4679C18.092 7.43014 18.1279 7.39693 18.1695 7.37023L20.8152 5.66223C20.9103 5.60102 21.0262 5.58149 21.1356 5.60818C21.2456 5.63488 21.3394 5.70521 21.3954 5.80353L23.6321 9.70204C23.7454 9.89935 23.6771 10.1507 23.4798 10.264C23.2825 10.3773 23.0311 10.3089 22.9178 10.1116L20.8972 6.58884L18.6162 8.06176C18.5654 8.09432 18.5101 8.11451 18.4534 8.12297L19.436 9.77758C19.5519 9.97293 19.4875 10.2256 19.2921 10.3415C19.227 10.3806 19.1547 10.3994 19.0831 10.3994Z" fill="#020A4B"/>
<path d="M8.67414 22.2769C8.48791 22.2769 8.31926 22.1499 8.27432 21.9604L6.57284 14.8243C6.52009 14.6029 6.65684 14.3815 6.87758 14.3288C7.09833 14.2754 7.32037 14.4128 7.37312 14.6335L9.0746 21.7696C9.12735 21.991 8.9906 22.2124 8.76986 22.2652C8.7373 22.2736 8.7054 22.2769 8.67414 22.2769ZM16.9478 22.2697C16.9315 22.2697 16.9146 22.2691 16.8983 22.2671C16.6724 22.2398 16.5115 22.0353 16.5389 21.8093L17.25 15.8877C17.2773 15.6624 17.4818 15.5015 17.7077 15.5282C17.9337 15.5556 18.0945 15.76 18.0672 15.986L17.3561 21.9077C17.3307 22.116 17.1529 22.2697 16.9478 22.2697ZM14.1328 22.2697C14.1322 22.2697 14.1315 22.2697 14.1309 22.2697C13.9036 22.2684 13.72 22.0835 13.7213 21.8562L13.7473 16.7244C13.7487 16.4978 13.9323 16.3148 14.1589 16.3148C14.1595 16.3148 14.1602 16.3148 14.1608 16.3148C14.3881 16.3161 14.5717 16.5011 14.5704 16.7283L14.5444 21.8601C14.5431 22.0867 14.3588 22.2697 14.1328 22.2697ZM19.6143 22.2671C19.5831 22.2671 19.5512 22.2638 19.5193 22.256C19.2979 22.2039 19.1611 21.9819 19.2132 21.7612L20.8978 14.6277C20.9499 14.4063 21.1719 14.2695 21.3927 14.3216C21.614 14.3737 21.7508 14.5958 21.6987 14.8165L20.0141 21.95C19.9699 22.1395 19.8006 22.2671 19.6143 22.2671ZM11.3465 22.2209C11.142 22.2209 10.9649 22.0685 10.9389 21.8601L10.2174 16.1012C10.1894 15.8759 10.3489 15.6702 10.5749 15.6415C10.8008 15.6135 11.006 15.7731 11.0346 15.999L11.7561 21.7579C11.7841 21.9832 11.6246 22.189 11.3986 22.2176C11.381 22.2202 11.3641 22.2209 11.3465 22.2209Z" fill="#020A4B"/>
<path d="M14.129 13.5572H14.1283C13.9453 13.5566 13.791 13.4374 13.7376 13.2727C13.5559 13.2297 13.4211 13.0669 13.4211 12.8722C13.4211 12.684 13.5468 12.5258 13.7194 12.4763L13.7389 3.77026C13.7396 3.543 13.9238 3.35938 14.1504 3.35938H14.1511C14.3784 3.36003 14.562 3.54431 14.562 3.77221L14.5418 12.5636C14.6264 12.6391 14.6798 12.7485 14.6798 12.8709C14.6798 12.9946 14.6251 13.1053 14.5392 13.1809C14.5216 13.3918 14.3445 13.5572 14.129 13.5572Z" fill="#020A4B"/>
<path d="M25.2001 13.2481H2.80012C2.10989 13.2481 1.54858 12.6868 1.54858 11.9965V10.8765C1.54858 10.1863 2.10989 9.625 2.80012 9.625H25.2001C25.8904 9.625 26.4517 10.1863 26.4517 10.8765V11.9965C26.4517 12.6868 25.8904 13.2481 25.2001 13.2481ZM2.80012 10.4481C2.56375 10.4481 2.37165 10.6402 2.37165 10.8765V11.9965C2.37165 12.2329 2.56375 12.425 2.80012 12.425H25.2001C25.4365 12.425 25.6286 12.2329 25.6286 11.9965V10.8765C25.6286 10.6402 25.4365 10.4481 25.2001 10.4481H2.80012Z" fill="#020A4B"/>
<path d="M20.3463 24.7497H7.75669C6.79948 24.7497 5.83576 24.0315 5.56162 23.1146L2.54543 13.0235C2.48032 12.8054 2.60404 12.5762 2.82218 12.5111C3.04032 12.446 3.26953 12.5697 3.33464 12.7878L6.35083 22.8782C6.52078 23.4461 7.16478 23.926 7.75734 23.926H20.3463C20.9375 23.926 21.575 23.4461 21.7385 22.8782L24.6648 12.7214C24.7279 12.5033 24.9559 12.3769 25.174 12.4401C25.3921 12.5033 25.5185 12.7312 25.4553 12.9493L22.529 23.1061C22.2633 24.0275 21.3048 24.7497 20.3463 24.7497Z" fill="#020A4B"/>
<path d="M14.0522 14.658C14.6877 14.658 15.2028 14.1784 15.2028 13.5868C15.2028 12.9952 14.6877 12.5156 14.0522 12.5156C13.4168 12.5156 12.9016 12.9952 12.9016 13.5868C12.9016 14.1784 13.4168 14.658 14.0522 14.658Z" fill="#020A4B"/>
</svg>
