<svg width="28" height="28" viewBox="0 0 28 28" fill="none" xmlns="http://www.w3.org/2000/svg">
<path d="M25.0372 15.2144C24.8106 15.2144 24.627 15.0308 24.627 14.8041C24.627 11.256 22.428 4.54507 14.1048 4.54507C6.27916 4.54507 3.43814 10.6471 3.43814 14.7488C3.43814 14.9754 3.25451 15.159 3.02791 15.159C2.8013 15.159 2.61768 14.9754 2.61768 14.7488C2.61768 12.1819 3.60614 9.47828 5.26075 7.51698C6.72065 5.78684 9.43991 3.72461 14.1048 3.72461C17.864 3.72461 20.9258 5.06275 22.96 7.59382C24.541 9.56098 25.4474 12.1891 25.4474 14.8041C25.4474 15.0308 25.2638 15.2144 25.0372 15.2144Z" fill="#020A4B"/>
<path d="M4.0046 13.8691H2.01855V15.8552H4.0046V13.8691Z" fill="#020A4B"/>
<path d="M4.00467 16.246H2.01863C1.80309 16.246 1.62793 16.0708 1.62793 15.8553V13.8692C1.62793 13.6537 1.80309 13.4785 2.01863 13.4785H4.00467C4.22021 13.4785 4.39537 13.6537 4.39537 13.8692V15.8553C4.39537 16.0708 4.22021 16.246 4.00467 16.246ZM2.40933 15.4646H3.61398V14.2599H2.40933V15.4646Z" fill="#020A4B"/>
<path d="M25.9814 13.8691H23.9954V15.8552H25.9814V13.8691Z" fill="#020A4B"/>
<path d="M25.9815 16.246H23.9954C23.7799 16.246 23.6047 16.0708 23.6047 15.8553V13.8692C23.6047 13.6537 23.7799 13.4785 23.9954 13.4785H25.9815C26.197 13.4785 26.3722 13.6537 26.3722 13.8692V15.8553C26.3722 16.0708 26.197 16.246 25.9815 16.246ZM24.3861 15.4646H25.5908V14.2599H24.3861V15.4646Z" fill="#020A4B"/>
<path d="M15.0745 5.52136H13.0884C12.8618 5.52136 12.6782 5.33773 12.6782 5.11112V4.54461H5.0661V4.60647C5.0661 4.83308 4.88247 5.0167 4.65586 5.0167H3.64656C3.41996 5.0167 3.23633 4.83308 3.23633 4.60647V3.59717C3.23633 3.37056 3.41996 3.18694 3.64656 3.18694H4.65586C4.88247 3.18694 5.0661 3.37056 5.0661 3.59717V3.72415H12.6782V3.12508C12.6782 2.89847 12.8618 2.71484 13.0884 2.71484H15.0745C15.3011 2.71484 15.4847 2.89847 15.4847 3.12508V3.72415H23.0968V3.59717C23.0968 3.37056 23.2804 3.18694 23.507 3.18694H24.5163C24.7429 3.18694 24.9266 3.37056 24.9266 3.59717V4.60647C24.9266 4.83308 24.7429 5.0167 24.5163 5.0167H23.507C23.2804 5.0167 23.0968 4.83308 23.0968 4.60647V4.54461H15.4847V5.11112C15.4847 5.33773 15.3011 5.52136 15.0745 5.52136ZM13.4987 4.70089H14.6642V4.54461H13.4987V4.70089ZM13.4987 3.72415H14.6642V3.53531H13.4987V3.72415Z" fill="#020A4B"/>
<path d="M15.0744 3.125H13.0884V5.11105H15.0744V3.125Z" fill="#020A4B"/>
<path d="M16.6047 20.0431H11.4605C11.2762 20.0431 11.1148 19.9207 11.0653 19.7429L9.7955 15.1848C9.76359 15.0695 9.78313 14.9458 9.84955 14.8468L13.7891 8.95381C13.8659 8.83921 13.9968 8.77148 14.1335 8.77148C14.2716 8.77279 14.3999 8.84311 14.4748 8.95967L18.3166 14.9178C18.3817 15.0194 18.3993 15.1444 18.3641 15.2597L16.9967 19.7527C16.9446 19.9253 16.7851 20.0431 16.6047 20.0431ZM11.7718 19.2226H16.3006L17.5241 15.2024L14.5405 10.5752V15.7259C14.5405 15.9525 14.3569 16.1361 14.1303 16.1361C13.9037 16.1361 13.7201 15.9525 13.7201 15.7259V10.5335L10.6368 15.1464L11.7718 19.2226Z" fill="#020A4B"/>
<path d="M14.1141 16.4938C13.7175 16.4938 13.3945 16.1708 13.3945 15.7742C13.3945 15.3777 13.7175 15.0547 14.1141 15.0547C14.5106 15.0547 14.8336 15.3777 14.8336 15.7742C14.8336 16.1708 14.5106 16.4938 14.1141 16.4938ZM14.1141 15.6733C14.0587 15.6733 14.0131 15.7189 14.0131 15.7742C14.0131 15.8296 14.0587 15.8752 14.1141 15.8752C14.1694 15.8752 14.215 15.8296 14.215 15.7742C14.215 15.7189 14.1694 15.6733 14.1141 15.6733Z" fill="#020A4B"/>
<path d="M17.1581 21.996H10.7767C10.5501 21.996 10.3665 21.8123 10.3665 21.5857V19.5997C10.3665 19.3731 10.5501 19.1895 10.7767 19.1895H17.1581C17.3847 19.1895 17.5683 19.3731 17.5683 19.5997V21.5857C17.5683 21.8123 17.3847 21.996 17.1581 21.996ZM11.1869 21.1755H16.7479V20.0099H11.1869V21.1755Z" fill="#020A4B"/>
<path d="M16.7022 25.2846H11.4278C11.2012 25.2846 11.0176 25.101 11.0176 24.8744V21.586C11.0176 21.3594 11.2012 21.1758 11.4278 21.1758H16.7022C16.9288 21.1758 17.1125 21.3594 17.1125 21.586V24.8744C17.1125 25.101 16.9288 25.2846 16.7022 25.2846ZM11.838 24.4642H16.292V21.9962H11.838V24.4642Z" fill="#020A4B"/>
</svg>
