<svg width="41" height="40" viewBox="0 0 41 40" fill="none" xmlns="http://www.w3.org/2000/svg">
<path d="M18.9398 8.07188H12.6892L11.9486 8.81187C11.2759 8.16704 10.5295 7.60377 9.72482 7.13375C9.15081 6.79901 8.55197 6.50878 7.93357 6.26562C7.41223 4.82444 7.0856 3.32012 6.96232 1.7925C6.93857 1.4975 6.7342 1.25 6.42045 1.25C6.14295 1.25 5.85295 1.4975 5.87732 1.7925C5.99045 3.16125 6.24795 4.51625 6.65295 5.82625C5.32857 5.4325 3.95232 5.20125 2.58107 5.08812C2.28607 5.06437 2.03857 5.35375 2.03857 5.63125C2.03857 5.94563 2.2867 6.15 2.58107 6.17437C4.12357 6.30125 5.66295 6.60188 7.1142 7.12875C7.2892 7.56938 7.47857 8.00437 7.69045 8.43C8.09865 9.25629 8.60275 10.0316 9.19232 10.74C9.3167 10.8881 9.4492 11.0331 9.58795 11.1737L8.85982 11.9019V18.1519L27.0842 38.75L39.5386 26.2963L18.9398 8.07188ZM9.96045 9.97188C9.4567 9.38125 9.00857 8.63125 8.63482 7.89312C8.61107 7.84562 8.59045 7.79625 8.56732 7.74875C9.15156 8.04117 9.71019 8.38216 10.2373 8.76813C10.5492 8.99688 10.8717 9.27625 11.1823 9.57875L10.3586 10.4025C10.2204 10.2641 10.0876 10.1205 9.96045 9.97188ZM10.0067 17.7169V12.375L11.9598 10.4219C12.0229 10.4975 12.0898 10.5725 12.1498 10.6481L12.1636 10.6656L12.1767 10.6838L12.2598 10.7969C12.4217 11.0208 12.5741 11.2514 12.7167 11.4881C12.7754 11.5863 12.8229 11.6906 12.8779 11.7912C12.8223 11.835 12.7636 11.8744 12.7129 11.9244C12.3518 12.2867 12.149 12.7775 12.149 13.2891C12.149 13.8007 12.3518 14.2914 12.7129 14.6537C12.8917 14.8337 13.1044 14.9764 13.3387 15.0735C13.573 15.1706 13.8243 15.2202 14.0779 15.2194C14.5936 15.2194 15.0786 15.0187 15.4429 14.6537C15.8043 14.2914 16.0072 13.8005 16.0072 13.2887C16.0072 12.777 15.8043 12.2861 15.4429 11.9237C15.0379 11.5181 14.4648 11.3469 13.9092 11.3925C13.8411 11.2669 13.7729 11.1412 13.7023 11.0206C13.4169 10.538 13.0911 10.0803 12.7286 9.6525L13.1636 9.2175H18.5061L37.8673 26.3475L27.1361 37.0781L10.0067 17.7169ZM13.4004 12.92C13.4186 12.9731 13.4398 13.0263 13.4573 13.0806C13.4929 13.1944 13.5286 13.31 13.5529 13.4269C13.6948 14.115 14.7442 13.8337 14.6029 13.1519C14.5645 12.9709 14.5157 12.7922 14.4567 12.6169C14.5179 12.6512 14.5811 12.6831 14.6323 12.7344C14.9386 13.0406 14.9386 13.5387 14.6323 13.8438C14.3354 14.14 13.8192 14.1406 13.5229 13.8438C13.2723 13.5925 13.2392 13.2175 13.4004 12.92Z" fill="#0023CE"/>
</svg>
