<svg width="41" height="40" viewBox="0 0 41 40" fill="none" xmlns="http://www.w3.org/2000/svg">
<path d="M24.0848 31.4565C23.7968 31.4565 23.5408 31.3605 23.3488 31.1685L18.6129 26.4323C18.4209 26.2404 18.2928 25.9524 18.2928 25.6643C18.2928 25.3763 18.4207 25.1203 18.6129 24.8962C19.0289 24.4802 19.733 24.4482 20.1488 24.8643L24.8528 29.5683C25.1729 29.8884 25.2367 30.3364 25.0769 30.7522C24.9166 31.1685 24.5008 31.4565 24.0847 31.4565L24.0848 31.4565ZM17.7808 31.4565C17.4928 31.4565 17.2368 31.3605 17.0448 31.1685C16.8207 30.9765 16.7247 30.6886 16.6928 30.4004C16.6928 30.1125 16.7888 29.8246 17.0129 29.6324L18.037 28.5764C18.229 28.3844 18.5169 28.2563 18.8051 28.2563C19.093 28.2563 19.349 28.3842 19.5731 28.5764C19.9892 28.9925 20.0211 29.6965 19.605 30.1123L18.5488 31.1364C18.4528 31.2324 18.3247 31.3284 18.1968 31.3606C18.0687 31.4246 17.9088 31.4565 17.7807 31.4565L17.7808 31.4565ZM27.7327 27.7763C27.4448 27.7763 27.1888 27.6804 26.9968 27.4884L25.9408 26.4324C25.5247 26.0163 25.5247 25.3444 25.9408 24.9284C26.3569 24.5123 27.0609 24.4804 27.4768 24.8965L28.5009 25.9206C28.821 26.2407 28.8848 26.6886 28.725 27.1045C28.5647 27.4885 28.1808 27.7764 27.7328 27.7764L27.7327 27.7763ZM14.1008 27.7763C13.8128 27.7763 13.5568 27.6804 13.3648 27.4884C13.1407 27.2964 13.0447 27.0085 13.0128 26.7203C13.0128 26.4324 13.1088 26.1445 13.3329 25.9523L18.0369 21.2483C18.2289 21.0563 18.5168 20.9282 18.8049 20.9282C19.0929 20.9282 19.3489 21.0561 19.573 21.2483C19.9891 21.6643 20.021 22.3684 19.6049 22.7842L14.8685 27.4566C14.7725 27.5525 14.6444 27.6485 14.5165 27.6807C14.3886 27.7445 14.2607 27.7764 14.1007 27.7764L14.1008 27.7763ZM23.0608 26.1763C22.7728 26.1763 22.5168 26.0804 22.2927 25.8563L22.2608 25.8243C21.8447 25.4083 21.8447 24.7364 22.2608 24.3203L25.3329 21.2482C25.749 20.8321 26.4208 20.8321 26.8369 21.2482C27.2529 21.6643 27.2849 22.3683 26.8688 22.7842L23.7967 25.8563C23.6047 26.0485 23.3487 26.1764 23.0608 26.1764V26.1763ZM31.4128 24.1283C31.1248 24.1283 30.8369 24.0004 30.6447 23.8083L25.9407 19.1045C25.5246 18.6884 25.5246 18.0165 25.9407 17.6005C26.1327 17.4085 26.4206 17.2804 26.7088 17.2804C26.9967 17.2804 27.2846 17.3764 27.4768 17.5683L32.1808 22.2723C32.5009 22.5924 32.5647 23.0404 32.4049 23.4563C32.2446 23.8404 31.8286 24.1284 31.4127 24.1284L31.4128 24.1283ZM10.4528 24.1283C10.1967 24.1283 9.90878 24.0324 9.71681 23.8404C9.4927 23.6484 9.3648 23.3605 9.3648 23.0723C9.3648 22.7844 9.46078 22.4965 9.68489 22.2723L10.709 21.2163C10.901 21.0244 11.1889 20.8962 11.4771 20.8962C11.765 20.8962 12.0529 21.0241 12.2451 21.2163C12.6612 21.6324 12.6931 22.3365 12.277 22.7523L11.2529 23.7764C11.1569 23.8724 11.0288 23.9684 10.9009 24.0005C10.7406 24.0965 10.5806 24.1284 10.4527 24.1284L10.4528 24.1283ZM22.4528 22.4964C22.1648 22.4964 21.9088 22.4004 21.7168 22.2085L18.6447 19.1363C18.2286 18.7203 18.2286 18.0484 18.6447 17.6323C18.8367 17.4404 19.1246 17.3122 19.4128 17.3122C19.7007 17.3122 19.9886 17.4082 20.1808 17.6002L23.2529 20.6723C23.4449 20.8643 23.573 21.1522 23.573 21.4404C23.573 21.7283 23.4451 21.9843 23.2529 22.2084C23.0286 22.3685 22.7406 22.4964 22.4527 22.4964L22.4528 22.4964ZM15.1248 22.4964C14.8368 22.4964 14.5808 22.4004 14.3888 22.2085L11.3167 19.1363C11.1247 18.9444 10.9966 18.6564 10.9966 18.3683C10.9966 18.0803 11.1245 17.8243 11.3167 17.6002C11.7328 17.1842 12.4368 17.1522 12.8526 17.5683L15.9248 20.6404C16.1167 20.8324 16.2448 21.1203 16.2448 21.4085C16.2448 21.6964 16.1169 21.9524 15.9248 22.1765C15.7009 22.3685 15.4129 22.4964 15.1248 22.4964V22.4964ZM35.0608 20.4803C34.7728 20.4803 34.4849 20.3524 34.2927 20.1602L33.2686 19.1044C33.0766 18.9125 32.9485 18.6245 32.9485 18.3364C32.9485 18.0484 33.0764 17.7924 33.2686 17.5683C33.6846 17.1522 34.3887 17.1203 34.8045 17.5364L35.8286 18.5605C36.1487 18.8806 36.2126 19.3286 36.0527 19.7444C35.8927 20.1605 35.5088 20.4804 35.0608 20.4804L35.0608 20.4803ZM6.80475 20.4803C6.54872 20.4803 6.26078 20.3844 6.06881 20.1924C5.8447 20.0004 5.7168 19.7125 5.7168 19.4243C5.7168 19.1364 5.81278 18.8485 6.03689 18.6563L10.7409 13.9523C10.9329 13.7603 11.2208 13.6322 11.5089 13.6322C11.7969 13.6322 12.0529 13.7601 12.277 13.9523C12.6931 14.3683 12.725 15.0724 12.3089 15.4882L7.57252 20.1606C7.47654 20.2565 7.34841 20.3525 7.22051 20.3847C7.09261 20.4485 6.93256 20.4804 6.80466 20.4804L6.80475 20.4803ZM23.0608 18.8484C22.7728 18.8484 22.5168 18.7524 22.2927 18.5283L22.2608 18.4964C22.0688 18.3044 21.9407 18.0165 21.9407 17.7283C21.9407 17.4404 22.0686 17.1844 22.2608 16.9603L25.3329 13.8882C25.749 13.4721 26.4208 13.4721 26.8369 13.8882C27.0289 14.0801 27.157 14.3681 27.157 14.6562C27.157 14.9442 27.061 15.2321 26.869 15.4243L23.7969 18.4964C23.6047 18.7524 23.3487 18.8484 23.0607 18.8484H23.0608ZM15.7328 18.8484C15.4448 18.8484 15.1888 18.7524 14.9647 18.5283L14.9328 18.4964C14.7408 18.3044 14.6127 18.0165 14.6127 17.7283C14.6127 17.4404 14.7406 17.1844 14.9328 16.9603L18.0049 13.8882C18.421 13.4721 19.0928 13.4721 19.5089 13.8882C19.7009 14.0801 19.829 14.3681 19.829 14.6562C19.829 14.9442 19.733 15.2321 19.541 15.4243L16.4689 18.4964C16.2767 18.7524 16.0207 18.8484 15.7327 18.8484H15.7328ZM30.3888 18.8484C30.1008 18.8484 29.8448 18.7205 29.6207 18.5283L29.5888 18.4964C29.1727 18.0803 29.1727 17.4084 29.5888 16.9924L34.2928 12.2884C34.7088 11.8723 35.3807 11.8723 35.7968 12.2884C36.2128 12.7045 36.2128 13.3763 35.7968 13.7924L31.1247 18.5283C30.9327 18.7205 30.6767 18.8484 30.3887 18.8484L30.3888 18.8484ZM7.82875 15.1685C7.5408 15.1685 7.25287 15.0725 7.06069 14.8484L6.03658 13.8243C5.62051 13.4082 5.62051 12.7364 6.03658 12.3203C6.45265 11.9043 7.12452 11.9042 7.54058 12.3203L8.59658 13.3444C8.78855 13.5364 8.91667 13.8243 8.91667 14.1125C8.91667 14.4004 8.82069 14.6884 8.59658 14.8805C8.37269 15.0404 8.11667 15.1685 7.82869 15.1685L7.82875 15.1685ZM15.1248 15.1685C14.8368 15.1685 14.5808 15.0725 14.3888 14.8484L9.68481 10.1763C9.26874 9.76024 9.26874 9.08837 9.68481 8.67231C10.1009 8.25625 10.7728 8.25624 11.1888 8.67231L15.8928 13.3444C16.0848 13.5364 16.2129 13.8243 16.2129 14.1125C16.2129 14.4004 16.085 14.6565 15.8928 14.8805C15.7008 15.0725 15.4129 15.1685 15.1248 15.1685V15.1685ZM22.4528 15.1685C22.1648 15.1685 21.9088 15.0725 21.7168 14.8806L18.6447 11.8085C18.4527 11.6165 18.3246 11.3285 18.3246 11.0404C18.3246 10.7524 18.4525 10.4964 18.6447 10.2723C19.0608 9.85627 19.7648 9.82435 20.1806 10.2404L23.2528 13.3125C23.4447 13.5045 23.5728 13.7924 23.5728 14.0806C23.5728 14.3685 23.4449 14.6246 23.2528 14.8486C23.0286 15.0725 22.7407 15.1685 22.4528 15.1685ZM29.7808 15.1685C29.4928 15.1685 29.2049 15.0725 29.0127 14.8806L25.9406 11.8085C25.5245 11.3924 25.5245 10.7205 25.9406 10.3045C26.1325 10.1125 26.4205 9.98436 26.7086 9.98436C26.9966 9.98436 27.2845 10.0803 27.4767 10.2723L30.5488 13.3444C30.9649 13.7605 30.9649 14.4324 30.5488 14.8484C30.3568 15.0404 30.0687 15.1685 29.7808 15.1685ZM15.7328 11.5205C15.4448 11.5205 15.1888 11.4245 14.9647 11.2004L14.9328 11.1685C14.5167 10.7524 14.5167 10.0806 14.9328 9.6645L18.0049 6.59239C18.1969 6.40042 18.4848 6.2723 18.7729 6.2723C19.0609 6.2723 19.3169 6.4002 19.541 6.59239C19.9571 7.00846 19.989 7.7125 19.5729 8.12833L16.5008 11.2004C16.2767 11.4246 16.0207 11.5205 15.7328 11.5205V11.5205ZM23.0608 11.5205C22.7728 11.5205 22.4849 11.3926 22.2927 11.2004L22.2608 11.1685C21.8447 10.7524 21.8447 10.0806 22.2608 9.6645L26.9648 4.9605C27.3808 4.54444 28.0527 4.54444 28.4688 4.9605C28.8848 5.37657 28.8848 6.04845 28.4688 6.4645L23.8286 11.2004C23.6047 11.3924 23.3487 11.5205 23.0607 11.5205L23.0608 11.5205ZM30.3568 11.5205C30.0688 11.5205 29.8128 11.3926 29.5887 11.2004C29.3967 11.0085 29.2686 10.7205 29.2686 10.4324C29.2686 10.1444 29.3965 9.88839 29.5887 9.66431L30.6128 8.64019C31.0289 8.22413 31.7008 8.22413 32.1168 8.64019C32.5329 9.05626 32.5329 9.72814 32.1168 10.1442L31.1246 11.2004C30.9327 11.3924 30.6766 11.5205 30.3568 11.5205C30.3568 11.5205 30.3887 11.5205 30.3568 11.5205ZM15.1248 7.87251C14.8368 7.87251 14.5808 7.77653 14.3567 7.55242L13.3326 6.52831C12.9165 6.11224 12.9165 5.44037 13.3326 5.02431C13.7486 4.60825 14.4205 4.60824 14.8366 5.02431L15.8926 6.04842C16.0845 6.24039 16.2127 6.52833 16.2127 6.81648C16.2127 7.10443 16.0848 7.39237 15.8926 7.58454C15.7008 7.74436 15.4129 7.87249 15.1247 7.87249L15.1248 7.87251ZM22.4528 7.84037C22.1648 7.84037 21.9088 7.74439 21.7168 7.55242L17.0128 2.84842C16.5967 2.43235 16.5967 1.76048 17.0128 1.34442C17.4289 0.928366 18.1008 0.928354 18.5168 1.34442L23.2208 6.01654C23.4128 6.2085 23.5409 6.49645 23.5409 6.78459C23.5409 7.07254 23.413 7.32857 23.2208 7.55265C23.0286 7.74439 22.7407 7.84038 22.4528 7.84038V7.84037ZM23.0608 4.19237C22.7729 4.19237 22.5168 4.06447 22.2928 3.87228C22.1008 3.68031 21.9727 3.39237 21.9727 3.10422C21.9727 2.81627 22.1006 2.56025 22.2928 2.33617L23.3169 1.31205C23.7329 0.895983 24.4048 0.895983 24.8209 1.31205C25.2369 1.72812 25.2369 2.39999 24.8209 2.81605L23.7968 3.87205C23.6048 4.06446 23.3488 4.19237 23.0608 4.19237V4.19237Z" fill="#0023CE"/>
</svg>
