<svg width="40" height="40" viewBox="0 0 40 40" fill="none" xmlns="http://www.w3.org/2000/svg">
<path d="M33.8264 24.8006C32.2999 30.7264 27.7471 34.129 20.8006 34.3716V31.1999C20.8006 28.1032 22.5045 26.4006 25.6 26.4006C29.6 26.4006 32 24.0006 32 20C32 16.0406 29.6432 13.6593 25.7174 13.609C23.5884 9.13676 16.2658 9.43805 14.2826 13.609C10.3561 13.6593 7.99999 16.0406 7.99999 20C7.99999 24.0084 10.4045 26.4135 14.4129 26.4135C17.5097 26.4135 19.2226 28.1058 19.2226 31.2129V34.387C10.5497 34.0645 5.60322 28.8987 5.60322 20C5.60322 10.8503 10.8516 5.6 20.0032 5.6C27.4077 5.6 32.2509 9.03225 33.8541 15.2006H35.4838C33.7987 8.09741 28.2722 4 19.9884 4C9.99999 4 4 10.0122 4 19.9884C4 30.009 10.0122 36.0219 19.9884 35.9999C28.2638 35.9999 33.7864 31.8832 35.4509 24.8006H33.8264ZM26.258 15.2471C28.9271 15.4697 30.4 17.118 30.4 20C30.4 23.0967 28.6948 24.8006 25.6 24.8006C23.7542 24.8006 22.4174 24.1819 21.6264 23.0374C26.9851 21.9696 26.5032 16.6071 26.258 15.2471ZM20.9884 21.5284C20.8296 20.8613 19.9348 15.9155 24.6161 15.2703C24.7625 15.9213 25.6819 20.8903 20.9864 21.5284H20.9884ZM20 12C21.8458 12 23.1613 12.6239 23.9638 13.7813C22.1342 14.1348 20.7793 15.1097 19.9903 16.5845C19.2013 15.1097 17.8464 14.1329 16.0161 13.7813C16.8168 12.64 18.1626 12.0168 19.9884 12.0168L20 12ZM15.3858 15.2722C20.1064 15.9542 19.1864 20.8729 19.0303 21.5303C14.3587 20.8955 15.2239 15.9206 15.4013 15.2722H15.3858ZM14.4 24.8006C11.3032 24.8006 9.59999 23.0974 9.59999 20C9.59999 17.138 11.0748 15.4838 13.7432 15.2471C13.3077 17.6471 13.6542 22.12 18.3658 23.0374C17.5826 24.1748 16.2471 24.7987 14.4213 24.7987L14.4 24.8006ZM17.8329 25.6C18.7557 25.1117 19.5107 24.3577 20 23.4354C20.5013 24.3703 21.2471 25.0832 22.1819 25.6C21.2554 26.0914 20.5 26.8525 20.0155 27.7825C19.4993 26.8471 18.7851 26.0903 17.8503 25.6H17.8329Z" fill="#0023CE"/>
</svg>
