<svg width="41" height="40" viewBox="0 0 41 40" fill="none" xmlns="http://www.w3.org/2000/svg">
<path d="M38.8197 10.125L31.1009 5.70313H31.0072L30.9447 5.67188H25.7884C25.6227 5.67188 25.4637 5.73772 25.3465 5.85493C25.2293 5.97214 25.1634 6.13111 25.1634 6.29687C25.1634 7.4572 24.7025 8.57 23.882 9.39047C23.0616 10.2109 21.9488 10.6719 20.7884 10.6719C19.6281 10.6719 18.5153 10.2109 17.6948 9.39047C16.8744 8.57 16.4134 7.4572 16.4134 6.29687C16.4134 6.13111 16.3476 5.97214 16.2304 5.85493C16.1132 5.73772 15.9542 5.67188 15.7884 5.67188H10.6322L10.5697 5.70313H10.4759L2.75719 10.125C2.34274 10.365 2.03481 10.7533 1.8956 11.2116C1.75639 11.6698 1.79627 12.1638 2.00719 12.5937L4.88219 18.3438C5.03824 18.6534 5.27712 18.9138 5.57227 19.0958C5.86742 19.2779 6.20728 19.3745 6.55406 19.375H10.1634V32.5C10.1634 32.9973 10.361 33.4742 10.7126 33.8258C11.0642 34.1775 11.5412 34.375 12.0384 34.375H29.5384C30.0357 34.375 30.5126 34.1775 30.8643 33.8258C31.2159 33.4742 31.4134 32.9973 31.4134 32.5V19.375H35.0228C35.3696 19.3745 35.7095 19.2779 36.0046 19.0958C36.2998 18.9138 36.5386 18.6534 36.6947 18.3438L39.5697 12.5937C39.7806 12.1638 39.8205 11.6698 39.6813 11.2116C39.5421 10.7533 39.2341 10.365 38.8197 10.125ZM6.55406 18.125C6.43905 18.1286 6.32556 18.0979 6.22814 18.0366C6.13071 17.9754 6.05378 17.8865 6.00719 17.7812L3.13219 12.0312C3.05902 11.8876 3.04418 11.7213 3.09077 11.5669C3.13736 11.4126 3.24176 11.2823 3.38219 11.2031L10.1634 7.32813V18.125H6.55406ZM30.1634 32.5C30.1634 32.6658 30.0976 32.8247 29.9804 32.9419C29.8632 33.0591 29.7042 33.125 29.5384 33.125H12.0384C11.8727 33.125 11.7137 33.0591 11.5965 32.9419C11.4793 32.8247 11.4134 32.6658 11.4134 32.5V6.875H15.1947C15.3409 8.25661 15.9933 9.53522 17.0261 10.4645C18.0589 11.3937 19.3991 11.9079 20.7884 11.9079C22.1778 11.9079 23.5179 11.3937 24.5508 10.4645C25.5836 9.53522 26.2359 8.25661 26.3822 6.875H30.1634V32.5ZM38.4447 12.0312L35.5697 17.7812C35.5231 17.8865 35.4462 17.9754 35.3487 18.0366C35.2513 18.0979 35.1378 18.1286 35.0228 18.125H31.4134V7.32813L38.1947 11.2031C38.3351 11.2823 38.4395 11.4126 38.4861 11.5669C38.5327 11.7213 38.5178 11.8876 38.4447 12.0312Z" fill="#001FBC"/>
</svg>
