<svg width="41" height="40" viewBox="0 0 41 40" fill="none" xmlns="http://www.w3.org/2000/svg">
<path d="M37.4042 17.9803C37.38 17.9803 37.3558 17.9784 37.3317 17.9756C37.0256 17.9366 36.8098 17.6566 36.8498 17.3505C36.8554 17.3031 37.4135 12.4854 33.5968 9.87145C29.5856 7.12354 25.6405 7.59238 23.6461 8.1161C23.3484 8.19424 23.0424 8.01656 22.9642 7.71796C22.8861 7.42028 23.0637 7.11424 23.3624 7.0361C25.541 6.464 29.8489 5.95145 34.2265 8.94958C38.6163 11.9552 37.9847 17.2677 37.9558 17.4928C37.9205 17.7756 37.6805 17.9803 37.4042 17.9803Z" fill="#0023CE"/>
<path d="M20.6947 35.4432C20.2966 35.4432 19.9738 35.153 19.9264 34.7521C19.9264 34.7493 19.9254 34.7465 19.9254 34.7446C17.2222 8.57348 17.2222 8.57348 17.2222 8.53255C17.2324 6.22929 18.6929 4.55859 20.6947 4.55859C22.6966 4.55859 24.1571 6.23022 24.1673 8.53255C24.1673 8.57348 24.1673 8.57348 21.464 34.7446C21.4166 35.1521 21.0929 35.4432 20.6947 35.4432ZM18.3384 8.50929C18.4147 9.2572 19.9859 24.4674 20.6947 31.327C21.4026 24.473 22.9747 9.2572 23.051 8.50929C23.0352 7.13906 22.2938 5.67487 20.6947 5.67487C19.0957 5.67487 18.3552 7.13813 18.3384 8.50929Z" fill="#0023CE"/>
<path d="M13.5475 10.8669C12.8341 10.8669 12.0824 10.8296 11.2982 10.7441C3.76801 9.92174 3.5801 6.00546 3.57638 5.83895C3.56801 5.53104 3.81173 5.2743 4.11964 5.26686C4.43034 5.25756 4.68429 5.50221 4.69173 5.81011C4.69359 5.83337 4.74196 6.57197 5.55127 7.40918C6.33173 8.21663 7.98289 9.25849 11.4192 9.6343C16.7596 10.2176 20.5736 8.37011 20.6117 8.35151C20.888 8.2157 21.2229 8.32825 21.3596 8.6036C21.4964 8.87895 21.3838 9.21383 21.1085 9.35151C20.9662 9.42314 18.0024 10.8669 13.5475 10.8669Z" fill="#0023CE"/>
<path d="M20.5287 10.772C20.4283 10.772 20.3269 10.7451 20.2357 10.6883C19.9734 10.5265 19.8924 10.1823 20.0552 9.91995C20.0757 9.88553 20.6022 8.98693 20.0552 8.10414C19.8934 7.84181 19.9734 7.49763 20.2357 7.33577C20.498 7.17298 20.8422 7.25484 21.0041 7.51623C21.9194 8.9953 21.0422 10.4465 21.0041 10.5079C20.898 10.6781 20.7157 10.772 20.5287 10.772Z" fill="#0023CE"/>
</svg>
