<svg width="41" height="40" viewBox="0 0 41 40" fill="none" xmlns="http://www.w3.org/2000/svg">
<g clip-path="url(#clip0_3996_18900)">
<path d="M38.7943 13.4531L31.0755 9.03125H30.9818L30.9193 9H25.763C25.5973 9 25.4383 9.06585 25.3211 9.18306C25.2039 9.30027 25.138 9.45924 25.138 9.625C25.138 10.7853 24.6771 11.8981 23.8566 12.7186C23.0362 13.5391 21.9234 14 20.763 14C19.6027 14 18.4899 13.5391 17.6695 12.7186C16.849 11.8981 16.388 10.7853 16.388 9.625C16.388 9.45924 16.3222 9.30027 16.205 9.18306C16.0878 9.06585 15.9288 9 15.763 9H10.6068L10.5443 9.03125H10.4505L2.73179 13.4531C2.31735 13.6931 2.00942 14.0814 1.87021 14.5397C1.731 14.9979 1.77088 15.4919 1.98179 15.9219L4.85679 21.6719C5.01285 21.9816 5.25173 22.2419 5.54688 22.424C5.84203 22.606 6.18189 22.7027 6.52867 22.7031H10.138V35.8281C10.138 36.3254 10.3356 36.8023 10.6872 37.1539C11.0388 37.5056 11.5158 37.7031 12.013 37.7031H29.513C30.0103 37.7031 30.4872 37.5056 30.8389 37.1539C31.1905 36.8023 31.388 36.3254 31.388 35.8281V22.7031H34.9974C35.3442 22.7027 35.6841 22.606 35.9792 22.424C36.2744 22.2419 36.5132 21.9816 36.6693 21.6719L39.5443 15.9219C39.7552 15.4919 39.7951 14.9979 39.6559 14.5397C39.5167 14.0814 39.2087 13.6931 38.7943 13.4531ZM6.52867 21.4531C6.41365 21.4568 6.30017 21.426 6.20275 21.3647C6.10532 21.3035 6.02839 21.2146 5.98179 21.1094L3.10679 15.3594C3.03363 15.2157 3.01879 15.0494 3.06538 14.8951C3.11197 14.7408 3.21637 14.6104 3.35679 14.5312L10.138 10.6563V21.4531H6.52867ZM30.138 35.8281C30.138 35.9939 30.0722 36.1529 29.955 36.2701C29.8378 36.3873 29.6788 36.4531 29.513 36.4531H12.013C11.8473 36.4531 11.6883 36.3873 11.5711 36.2701C11.4539 36.1529 11.388 35.9939 11.388 35.8281V10.2031H15.1693C15.3155 11.5847 15.9679 12.8633 17.0007 13.7926C18.0335 14.7219 19.3737 15.236 20.763 15.236C22.1524 15.236 23.4925 14.7219 24.5254 13.7926C25.5582 12.8633 26.2106 11.5847 26.3568 10.2031H30.138V35.8281ZM38.4193 15.3594L35.5443 21.1094C35.4977 21.2146 35.4208 21.3035 35.3233 21.3647C35.2259 21.426 35.1124 21.4568 34.9974 21.4531H31.388V10.6563L38.1693 14.5312C38.3097 14.6104 38.4141 14.7408 38.4607 14.8951C38.5073 15.0494 38.4925 15.2157 38.4193 15.3594Z" fill="#001FBC"/>
<path d="M16.8307 1.18329C16.7726 1.12518 16.7036 1.07908 16.6277 1.04764C16.5517 1.01619 16.4704 1 16.3882 1C16.306 1 16.2246 1.01619 16.1487 1.04764C16.0728 1.07908 16.0038 1.12518 15.9457 1.18329C15.8876 1.2414 15.8415 1.31039 15.81 1.38631C15.7786 1.46223 15.7624 1.54361 15.7624 1.62579C15.7624 1.70797 15.7786 1.78935 15.81 1.86527C15.8415 1.94119 15.8876 2.01018 15.9457 2.06829L17.3794 3.50079H12.6382C12.4724 3.50079 12.3135 3.56664 12.1962 3.68385C12.079 3.80106 12.0132 3.96003 12.0132 4.12579C12.0132 4.29155 12.079 4.45052 12.1962 4.56773C12.3135 4.68494 12.4724 4.75079 12.6382 4.75079H17.3794L15.9457 6.18329C15.8876 6.2414 15.8415 6.31039 15.81 6.38631C15.7786 6.46223 15.7624 6.54361 15.7624 6.62579C15.7624 6.70797 15.7786 6.78934 15.81 6.86527C15.8415 6.94119 15.8876 7.01018 15.9457 7.06829C16.0038 7.1264 16.0728 7.1725 16.1487 7.20394C16.2246 7.23539 16.306 7.25158 16.3882 7.25158C16.4704 7.25158 16.5517 7.23539 16.6277 7.20394C16.7036 7.1725 16.7726 7.1264 16.8307 7.06829L19.3307 4.56829C19.3889 4.51023 19.4351 4.44126 19.4666 4.36533C19.4981 4.2894 19.5143 4.208 19.5143 4.12579C19.5143 4.04358 19.4981 3.96218 19.4666 3.88625C19.4351 3.81032 19.3889 3.74135 19.3307 3.68329L16.8307 1.18329ZM25.5807 2.06829C25.698 1.95093 25.764 1.79176 25.764 1.62579C25.764 1.45982 25.698 1.30065 25.5807 1.18329C25.4633 1.06593 25.3042 1 25.1382 1C24.9722 1 24.813 1.06593 24.6957 1.18329L22.1957 3.68329C22.1375 3.74135 22.0913 3.81032 22.0598 3.88625C22.0283 3.96218 22.0121 4.04358 22.0121 4.12579C22.0121 4.208 22.0283 4.2894 22.0598 4.36533C22.0913 4.44126 22.1375 4.51023 22.1957 4.56829L24.6957 7.06829C24.813 7.18565 24.9722 7.25158 25.1382 7.25158C25.3042 7.25158 25.4633 7.18565 25.5807 7.06829C25.698 6.95093 25.764 6.79176 25.764 6.62579C25.764 6.45982 25.698 6.30065 25.5807 6.18329L24.1469 4.75079H28.8882C29.0539 4.75079 29.2129 4.68494 29.3301 4.56773C29.4473 4.45052 29.5132 4.29155 29.5132 4.12579C29.5132 3.96003 29.4473 3.80106 29.3301 3.68385C29.2129 3.56664 29.0539 3.50079 28.8882 3.50079H24.1469L25.5807 2.06829Z" fill="#0023CE"/>
</g>
<defs>
<clipPath id="clip0_3996_18900">
<rect width="40" height="40" fill="white" transform="translate(0.788574)"/>
</clipPath>
</defs>
</svg>
