<svg width="51" height="50" viewBox="0 0 51 50" fill="none" xmlns="http://www.w3.org/2000/svg">
<path d="M25.1401 45.2676C13.9017 45.2676 4.75879 36.1757 4.75879 25.0001C4.75879 13.8245 13.9017 4.73267 25.1401 4.73267C36.3785 4.73267 45.5214 13.8245 45.5214 25.0001C45.5214 36.1757 36.3785 45.2676 25.1401 45.2676ZM25.1401 6.05011C14.6326 6.05011 6.08363 14.5513 6.08363 25.0001C6.08363 35.4489 14.6326 43.9501 25.1401 43.9501C35.6476 43.9501 44.1966 35.4489 44.1966 25.0001C44.1966 14.5513 35.6476 6.05011 25.1401 6.05011Z" fill="#0023CE"/>
<path d="M39.3494 39.2711C39.3424 39.2711 39.3354 39.2711 39.3284 39.2711C38.953 39.2595 38.6583 38.9479 38.67 38.5758L38.6887 37.9792C38.6829 33.3851 34.9224 29.6479 30.3012 29.6479H19.9328C15.3081 29.6479 11.5452 33.3897 11.5452 37.9885C11.5452 37.9955 11.5452 38.0037 11.5452 38.0106L11.5277 38.5292C11.5172 38.8932 11.2178 39.1851 10.8483 39.1851C10.473 39.1851 10.1689 38.8839 10.1689 38.5106V38.5095C10.1689 38.5025 10.1689 38.4944 10.1689 38.4874L10.1865 37.9781C10.1923 32.6397 14.5621 28.2979 19.9328 28.2979H30.3012C35.6754 28.2979 40.0475 32.6455 40.0475 37.9897C40.0475 37.9967 40.0475 38.0037 40.0475 38.0106L40.0288 38.6176C40.0171 38.9816 39.7154 39.2711 39.3494 39.2711Z" fill="#0023CE"/>
<path d="M25.1168 26.0594C21.1236 26.0594 17.874 22.828 17.874 18.8571C17.874 14.8862 21.1236 11.6548 25.1168 11.6548C27.2625 11.6548 29.2843 12.5932 30.6653 14.228C31.7574 15.5211 32.3596 17.1652 32.3596 18.8571C32.3596 22.828 29.1112 26.0594 25.1168 26.0594ZM25.1168 13.0059C21.8719 13.0059 19.2328 15.6315 19.2328 18.8571C19.2328 22.0827 21.8719 24.7083 25.1168 24.7083C28.3617 24.7083 31.0008 22.0839 31.0008 18.8571C31.0008 17.4827 30.5121 16.1466 29.6257 15.0966C28.5032 13.7676 26.8603 13.0059 25.1168 13.0059Z" fill="#0023CE"/>
</svg>
