<svg width="47" height="50" viewBox="0 0 47 50" fill="none" xmlns="http://www.w3.org/2000/svg">
<path d="M30.5764 26.5022C30.2202 26.5022 29.9307 26.1906 29.9307 25.8045V25.8034C29.9307 25.4185 30.2202 25.1057 30.5764 25.1057C30.9326 25.1057 31.2221 25.4185 31.2221 25.8034C31.2221 26.1883 30.9326 26.5022 30.5764 26.5022Z" fill="#0023CE"/>
<path d="M20.0681 46.2862C19.8991 46.2862 19.7345 46.2141 19.6118 46.0815L15.4263 41.5571C15.1745 41.285 15.1745 40.8443 15.4252 40.571L22.3207 33.0908L23.2247 25.2687C23.2688 24.8862 23.5917 24.6152 23.9458 24.6629C24.2998 24.7106 24.5506 25.0594 24.5065 25.442L23.5755 33.5013C23.5583 33.6548 23.4937 33.7978 23.3926 33.9071L16.7953 41.0629L20.1327 44.6699C20.3479 44.1129 20.1929 42.9164 20.0025 42.2001C19.9357 41.9478 20.0046 41.6757 20.1822 41.4966L26.0304 35.6013L27.3079 32.3443C27.4467 31.9897 27.8256 31.8234 28.1549 31.9745C28.4831 32.1245 28.637 32.535 28.4971 32.8897L27.1658 36.2827C27.1303 36.3722 27.0776 36.4536 27.0119 36.5199L21.3424 42.235C21.4973 42.985 21.718 44.5083 21.2111 45.4559C20.9872 45.8734 20.645 46.1536 20.222 46.2652C20.1703 46.2804 20.1187 46.2862 20.0681 46.2862Z" fill="#0023CE"/>
<path d="M35.6028 47.4605H29.8052C29.4511 47.4605 29.1638 47.1524 29.1594 46.7698L29.0551 36.0443L23.3123 25.7152C23.1282 25.3849 23.2273 24.9559 23.5329 24.7582C23.8386 24.5594 24.2357 24.6663 24.4187 24.9966L30.2518 35.4884C30.311 35.5954 30.3433 35.7163 30.3444 35.8408L30.4445 46.0652H35.1347C35.1325 46.0524 35.1293 46.0384 35.1261 46.0245C34.9862 45.4477 34.0272 44.6966 33.3912 44.3477C33.163 44.2233 33.0242 43.964 33.0371 43.6884L33.4547 35.0908L30.3885 26.2884C30.3616 26.2094 30.3476 26.1268 30.3476 26.0431C30.3476 25.6582 30.6371 25.3454 30.9933 25.3454C31.2796 25.3454 31.5218 25.5454 31.6068 25.8233L34.7117 34.7361C34.7429 34.8256 34.7569 34.9222 34.7526 35.0187L34.349 43.3268C34.9657 43.7233 36.113 44.5873 36.3756 45.6675C36.5015 46.1849 36.4208 46.6977 36.141 47.1501C36.0204 47.3442 35.8181 47.4605 35.6028 47.4605Z" fill="#0023CE"/>
<path d="M33.8339 21.4919C33.7413 21.4919 33.6477 21.4709 33.5584 21.4244L33.4604 21.3744C33.3485 21.3174 33.2538 21.2256 33.1882 21.1116L29.9272 15.4442C29.925 15.4407 29.9229 15.4372 29.9218 15.4337L29.7453 15.1279C29.557 14.8012 29.6484 14.3709 29.9519 14.1663C30.2544 13.9616 30.6526 14.0616 30.842 14.3895L31.0088 14.6779C31.0163 14.6895 31.0239 14.7023 31.0303 14.7151L34.1934 20.2116C34.457 20.4 34.5603 20.7733 34.4215 21.0919C34.3074 21.3442 34.076 21.4919 33.8339 21.4919Z" fill="#0023CE"/>
<path d="M29.4567 10.8023H27.3516C25.7459 10.8023 24.4404 9.39071 24.4404 7.65699V5.6849C24.4404 3.95002 25.747 2.53955 27.3516 2.53955H27.8682C29.474 2.53955 30.7794 3.95118 30.7794 5.6849V9.37211C30.7794 10.1605 30.1864 10.8023 29.4567 10.8023ZM27.3516 3.9349C26.4584 3.9349 25.7319 4.71978 25.7319 5.6849V7.65583C25.7319 8.62094 26.4584 9.40583 27.3516 9.40583H29.4567C29.4729 9.40583 29.489 9.38839 29.489 9.37094V5.6849C29.489 4.71978 28.7626 3.9349 27.8693 3.9349H27.3516Z" fill="#0023CE"/>
<path d="M29.7985 26.0536H23.8674C23.5112 26.0536 23.2217 25.7408 23.2217 25.3559V16.5524C23.2217 14.1163 25.0567 12.1338 27.3114 12.1338C28.4037 12.1338 29.4315 12.5931 30.2032 13.428C30.5616 13.8163 30.8457 14.264 31.0491 14.7594C31.0523 14.7675 31.0566 14.7756 31.0599 14.7826C31.0609 14.7861 31.062 14.7884 31.0631 14.7919C31.2869 15.3489 31.401 15.9408 31.401 16.5524V21.7745C31.401 22.1594 31.1115 22.4722 30.7553 22.4722C30.3991 22.4722 30.1096 22.1594 30.1096 21.7745V16.5524C30.1096 16.1419 30.0353 15.7443 29.8878 15.371C29.8835 15.3617 29.8803 15.3536 29.876 15.3443C29.7361 14.9977 29.5392 14.6838 29.2884 14.4129C28.761 13.8431 28.0583 13.528 27.3103 13.528C25.767 13.528 24.5121 14.8838 24.5121 16.5512V24.657H29.7974C30.1537 24.657 30.4432 24.9698 30.4432 25.3547C30.4432 25.7396 30.1548 26.0536 29.7985 26.0536Z" fill="#0023CE"/>
<path d="M42.7605 28.2278H33.8342C33.478 28.2278 33.1885 27.915 33.1885 27.5302C33.1885 27.1453 33.478 26.8313 33.8342 26.8313C33.8471 26.8313 33.859 26.8313 33.8719 26.8325H42.1147V18.5848H34.48V23.5441C34.48 23.929 34.1904 24.2418 33.8342 24.2418C33.478 24.2418 33.1885 23.929 33.1885 23.5441V17.8871C33.1885 17.5022 33.478 17.1895 33.8342 17.1895H42.7605C43.1167 17.1895 43.4062 17.5022 43.4062 17.8871V27.5302C43.4062 27.9162 43.1167 28.2278 42.7605 28.2278Z" fill="#0023CE"/>
<path d="M33.9726 28.229C33.9522 28.229 33.9295 28.229 33.9069 28.2278C33.8768 28.2278 33.8456 28.2267 33.8144 28.2255C33.8112 28.2255 33.8047 28.2255 33.8015 28.2255C33.6842 28.2185 33.5615 28.2057 33.4259 28.186C33.3495 28.1755 33.2763 28.1488 33.2085 28.1104L30.6901 26.6604C30.6804 26.6546 30.6707 26.6488 30.661 26.643L30.2747 26.422C30.2639 26.4162 30.2531 26.4092 30.2435 26.4023L27.9715 25.0941C27.893 25.0488 27.8241 24.9871 27.7692 24.9116L23.4611 19.0441C23.2394 18.7418 23.2867 18.3034 23.5655 18.0639C23.8453 17.8243 24.251 17.8755 24.4727 18.1767L28.6969 23.9302L30.8806 25.1871C30.8903 25.1929 30.9 25.1988 30.9096 25.2046L31.296 25.4255C31.3068 25.4313 31.3175 25.4383 31.3272 25.4453L33.7089 26.8162C33.7649 26.8232 33.8176 26.8278 33.8682 26.8302C33.8865 26.8302 33.9145 26.8313 33.9392 26.8313C33.9608 26.8325 33.9801 26.8325 34.0006 26.8313C35.0542 26.8116 35.4944 25.9499 35.6687 25.3871L30.2004 22.2441C30.124 22.1988 30.0562 22.1383 30.0024 22.0639L26.5229 17.3104C26.3023 17.0081 26.3497 16.5697 26.6295 16.3302C26.9093 16.0906 27.315 16.1429 27.5367 16.4453L30.9322 21.0871L31.056 21.1581L36.717 24.4116C36.9559 24.5488 37.0894 24.8313 37.0538 25.1209C36.9215 26.179 36.1197 28.1895 34.0339 28.2278C34.0146 28.229 33.9941 28.229 33.9726 28.229Z" fill="#0023CE"/>
</svg>
