<svg width="50" height="50" viewBox="0 0 50 50" fill="none" xmlns="http://www.w3.org/2000/svg">
<path d="M25.0268 41.7929C24.9442 41.7929 24.8617 41.7789 24.7838 41.751L9.33375 36.5499C9.03608 36.4499 8.83608 36.1696 8.83724 35.8557C8.83724 35.8092 8.86166 31.108 8.79887 25.2696C8.73608 19.3662 8.75701 14.0103 8.75817 13.9569C8.75934 13.7592 8.84073 13.5708 8.98143 13.4359C9.0698 13.2999 9.20468 13.1917 9.37213 13.1382L24.8605 8.24173C25.0058 8.19639 25.1617 8.19639 25.3058 8.24406L40.6361 13.2417C40.7442 13.2603 40.8477 13.3022 40.9396 13.3685C41.1303 13.5045 41.2431 13.7243 41.2442 13.9592C41.2442 14.022 41.2605 20.3092 41.2012 26.0034C41.1407 31.6859 41.1652 35.815 41.1652 35.8569C41.1675 36.1708 40.9675 36.451 40.6698 36.5522L25.271 41.7534C25.1919 41.7789 25.1093 41.7929 25.0268 41.7929ZM10.2965 35.3359L24.2977 40.0499C24.2977 37.9569 24.2989 33.0906 24.2989 29.9185C24.2977 26.4848 24.2989 21.3429 24.3 19.701L10.2128 14.972C10.2093 16.7999 10.2093 20.8766 10.257 25.2534C10.307 29.9708 10.3012 33.9476 10.2965 35.3359ZM25.7593 19.6975L25.7558 27.2138L25.757 29.8662C25.7582 33.2964 25.757 38.0034 25.7558 40.0476L39.7047 35.3359C39.7 34.0464 39.6942 30.5057 39.7431 25.9859C39.7884 21.6557 39.7896 16.9824 39.7872 14.9731L35.3 16.4848C34.9186 16.6138 34.5047 16.408 34.3768 16.0266C34.2477 15.6452 34.4535 15.2313 34.8349 15.1034L38.1849 13.9743L25.0756 9.70104L11.6942 13.9313L25.0256 18.4069L30.5291 16.5534C30.9105 16.4255 31.3245 16.6301 31.4524 17.0115C31.5814 17.3929 31.3756 17.8069 30.9942 17.9348L25.7593 19.6975Z" fill="#0023CE"/>
<path d="M32.9881 28.1197C32.8369 28.1197 32.6892 28.0732 32.5648 27.9837L30.2974 26.3663C30.1044 26.229 29.9904 26.007 29.9916 25.7697C29.9916 25.7697 30.0009 23.5837 30.0102 21.8558C30.0171 20.579 30.0253 18.6465 30.0299 17.7244L15.0997 12.6535C14.8009 12.5523 14.602 12.2697 14.6055 11.9546C14.609 11.6395 14.8148 11.3616 15.116 11.2674L19.7125 9.82323C19.8625 9.77556 20.023 9.77904 20.1706 9.83021L35.3392 15.1163C35.6357 15.2197 35.8323 15.5011 35.8288 15.8151C35.8288 15.8337 35.8032 17.7023 35.8206 19.9174C35.8381 22.1488 35.8113 24.3011 35.8113 24.3221C35.8102 24.4651 35.766 24.6046 35.6857 24.7232L33.5927 27.7988C33.4823 27.9604 33.3113 28.0721 33.1183 28.1058C33.0741 28.1151 33.0311 28.1197 32.9881 28.1197ZM31.452 25.3988L32.8055 26.3639L34.3555 24.086C34.3613 23.4849 34.3764 21.7337 34.3625 19.9302C34.3509 18.4023 34.359 17.0372 34.3648 16.3221L19.9183 11.2883L17.6799 11.9918L30.995 16.5139C31.2916 16.6151 31.4904 16.8942 31.4892 17.2069C31.4892 17.2069 31.4764 20.1372 31.4683 21.8639C31.4613 23.1535 31.4544 24.6988 31.452 25.3988Z" fill="#0023CE"/>
</svg>
