<svg width="50" height="50" viewBox="0 0 50 50" fill="none" xmlns="http://www.w3.org/2000/svg">
<path d="M25.0003 41.0966C24.8479 41.0966 24.6968 41.0466 24.57 40.9477L22.9142 39.6512C22.07 38.9791 21.47 38.0361 21.22 36.9919C21.2154 36.9745 21.2131 36.9582 21.2096 36.9408L20.6828 33.6698C20.6235 33.3024 20.8631 32.9536 21.227 32.8768C22.7084 32.564 24.2293 32.0698 24.4828 31.8198C24.6154 31.6722 24.8026 31.5896 25.0014 31.5896C25.1991 31.5896 25.3875 31.6756 25.5189 31.8233C25.77 32.071 27.291 32.5652 28.7712 32.878C29.1352 32.9547 29.3747 33.3036 29.3154 33.671L28.7886 36.9419C28.7863 36.9594 28.7828 36.9768 28.7782 36.9931C28.5282 38.0373 27.9282 38.9815 27.0875 39.6501L25.4282 40.9512C25.3038 41.0477 25.1526 41.0966 25.0003 41.0966ZM22.5828 36.6908C22.7642 37.4245 23.1886 38.0849 23.7793 38.5559L25.0003 39.5129L26.2247 38.5524C26.8119 38.0849 27.2352 37.4233 27.4166 36.6908L27.8352 34.0954C26.9573 33.8861 25.7479 33.5501 25.0003 33.1361C24.2526 33.5489 23.0433 33.8861 22.1654 34.0954L22.5828 36.6908Z" fill="#0023CE"/>
<path d="M38.8852 14.1152C38.8852 14.107 38.884 14.1001 38.884 14.0919C38.8817 14.0617 38.8782 14.0326 38.8736 14.0035C38.8677 13.9733 38.8596 13.9454 38.8491 13.9163C38.8468 13.9094 38.8445 13.9024 38.8422 13.8954C38.8317 13.8675 38.8201 13.8408 38.8073 13.8152C38.8073 13.814 38.8061 13.8128 38.8061 13.8117C38.7922 13.7849 38.7747 13.7594 38.7573 13.7338C38.7526 13.728 38.7491 13.7221 38.7445 13.7163C38.7259 13.6919 38.7061 13.6675 38.684 13.6454L30.9259 5.88726C30.9038 5.86517 30.8805 5.8454 30.8561 5.8268C30.8503 5.82215 30.8433 5.81749 30.8375 5.81284C30.8131 5.7954 30.7875 5.77912 30.7608 5.76517C30.7584 5.76401 30.7573 5.76401 30.755 5.76284C30.7294 5.75005 30.7038 5.73843 30.677 5.72912C30.6701 5.7268 30.6619 5.72331 30.655 5.72098C30.627 5.71168 30.598 5.70354 30.5689 5.69773C30.5677 5.69773 30.5677 5.69773 30.5666 5.69773C30.5375 5.69191 30.5084 5.68842 30.4794 5.68726C30.4712 5.68726 30.4631 5.6861 30.455 5.6861C30.4468 5.6861 30.4398 5.68494 30.4317 5.68494H11.8119C11.427 5.68494 11.1143 5.99773 11.1143 6.38261V43.6198C11.1143 44.0047 11.427 44.3175 11.8119 44.3175H38.1887C38.5736 44.3175 38.8864 44.0047 38.8864 43.6198V14.1396C38.8864 14.1314 38.8852 14.1233 38.8852 14.1152ZM36.5038 13.4419H31.1282V8.06633L36.5038 13.4419ZM12.5096 42.921V7.07912H29.7329V14.1396C29.7329 14.5245 30.0457 14.8373 30.4305 14.8373H37.491V42.921H12.5096Z" fill="#0023CE"/>
<path d="M33.7246 19.1477H16.2758C15.8909 19.1477 15.5781 18.8349 15.5781 18.45C15.5781 18.0651 15.8909 17.7523 16.2758 17.7523H33.7246C34.1095 17.7523 34.4223 18.0651 34.4223 18.45C34.4223 18.8349 34.1095 19.1477 33.7246 19.1477Z" fill="#0023CE"/>
<path d="M33.7246 23.8465H16.2758C15.8909 23.8465 15.5781 23.5337 15.5781 23.1488C15.5781 22.764 15.8909 22.4512 16.2758 22.4512H33.7246C34.1095 22.4512 34.4223 22.764 34.4223 23.1488C34.4223 23.5337 34.1095 23.8465 33.7246 23.8465Z" fill="#0023CE"/>
<path d="M25.2549 28.5465H16.2758C15.8909 28.5465 15.5781 28.2337 15.5781 27.8488C15.5781 27.4639 15.8909 27.1511 16.2758 27.1511H25.2549C25.6398 27.1511 25.9525 27.4639 25.9525 27.8488C25.9525 28.2337 25.6398 28.5465 25.2549 28.5465Z" fill="#0023CE"/>
<path d="M33.7245 28.5465H28.9594C28.5745 28.5465 28.2617 28.2337 28.2617 27.8488C28.2617 27.4639 28.5745 27.1511 28.9594 27.1511H33.7245C34.1094 27.1511 34.4222 27.4639 34.4222 27.8488C34.4222 28.2337 34.1094 28.5465 33.7245 28.5465Z" fill="#0023CE"/>
</svg>
