<svg width="62" height="63" viewBox="0 0 62 63" fill="none" xmlns="http://www.w3.org/2000/svg">
<path d="M30.9829 38.3295C29.3012 38.3295 27.721 37.6733 26.5332 36.4841L7.60615 17.5208C7.23969 17.1544 7.24114 16.5605 7.6076 16.194C7.97406 15.8276 8.56793 15.829 8.93439 16.1955L27.86 35.1588C28.6929 35.9931 29.8024 36.4537 30.9829 36.4537C32.1634 36.4537 33.2715 35.9945 34.1058 35.1588L53.0299 16.2013C53.3964 15.8348 53.9903 15.8334 54.3567 16.1998C54.7232 16.5663 54.7232 17.1602 54.3582 17.5266L35.4326 36.4841C34.2448 37.6733 32.6646 38.3295 30.9829 38.3295Z" fill="white"/>
<path d="M54.0568 47.9415H7.94642C7.42787 47.9415 7.00781 47.5215 7.00781 47.0044V16.465C7.00781 16.2158 7.10631 15.9783 7.28302 15.8016C7.45828 15.6263 7.69728 15.5264 7.94642 15.5264L54.0568 15.5307C54.5753 15.5307 54.9939 15.9508 54.9939 16.4679V47.0029C54.9954 47.5229 54.5753 47.9415 54.0568 47.9415ZM8.88357 46.0672H53.1196V17.4065L8.88357 17.4036V46.0672Z" fill="white"/>
<path d="M53.3572 44.2945C53.1384 44.2945 52.9197 44.2192 52.7416 44.0642L41.3479 34.1466C40.5354 33.4398 39.6315 32.8198 38.6639 32.3042C38.2062 32.0608 38.0324 31.493 38.2758 31.0353C38.5191 30.5776 39.0869 30.4038 39.5446 30.6471C40.6382 31.228 41.6579 31.929 42.5791 32.73L53.9728 42.6476C54.3638 42.988 54.4044 43.5805 54.064 43.9701C53.8801 44.1859 53.6193 44.2945 53.3572 44.2945ZM8.87631 44.1019C8.61414 44.1019 8.35341 43.9918 8.16656 43.7789C7.82762 43.3878 7.86963 42.7954 8.26071 42.4564L19.5022 32.7097C20.3916 31.9377 21.3823 31.2555 22.4455 30.6819C22.9018 30.4357 23.471 30.6066 23.7158 31.0628C23.962 31.5191 23.7911 32.0884 23.3349 32.3331C22.3934 32.8401 21.517 33.4441 20.7305 34.1263L9.49046 43.873C9.3123 44.0266 9.09358 44.1019 8.87631 44.1019Z" fill="white"/>
</svg>
