<svg width="80" height="81" viewBox="0 0 80 81" fill="none" xmlns="http://www.w3.org/2000/svg">
<path d="M52.0249 58.9178H12.6865C12.0753 58.9178 11.5752 58.4177 11.5752 57.8065V38.5448C11.5752 29.6177 18.8354 22.3575 27.7625 22.3575H52.0249C60.8779 22.3575 68.064 29.5621 68.064 38.3966V42.8602C68.064 51.7132 60.8594 58.9178 52.0249 58.9178ZM13.7977 56.6953H52.0249C59.6555 56.6953 65.8415 50.4908 65.8415 42.8787V38.4151C65.8415 30.7845 59.637 24.5985 52.0249 24.5985H27.7625C20.0578 24.5985 13.7977 30.8586 13.7977 38.5633V56.6953Z" fill="white"/>
<path d="M27.6509 43.6195C29.2671 43.6195 30.5772 42.3094 30.5772 40.6932C30.5772 39.0771 29.2671 37.7669 27.6509 37.7669C26.0348 37.7669 24.7246 39.0771 24.7246 40.6932C24.7246 42.3094 26.0348 43.6195 27.6509 43.6195Z" fill="white"/>
<path d="M39.6529 43.6195C41.269 43.6195 42.5792 42.3094 42.5792 40.6932C42.5792 39.0771 41.269 37.7669 39.6529 37.7669C38.0367 37.7669 36.7266 39.0771 36.7266 40.6932C36.7266 42.3094 38.0367 43.6195 39.6529 43.6195Z" fill="white"/>
<path d="M51.1177 43.6195C52.7339 43.6195 54.044 42.3094 54.044 40.6932C54.044 39.0771 52.7339 37.7669 51.1177 37.7669C49.5016 37.7669 48.1914 39.0771 48.1914 40.6932C48.1914 42.3094 49.5016 43.6195 51.1177 43.6195Z" fill="white"/>
</svg>
