<svg width="62" height="62" viewBox="0 0 62 62" fill="none" xmlns="http://www.w3.org/2000/svg">
<path d="M30.9819 37.5951C29.3003 37.5951 27.72 36.9389 26.5322 35.7497L7.60518 16.7865C7.23872 16.42 7.24016 15.8261 7.60663 15.4597C7.97309 15.0932 8.56696 15.0947 8.93342 15.4611L27.859 34.4244C28.6919 35.2587 29.8014 35.7193 30.9819 35.7193C32.1624 35.7193 33.2705 35.2602 34.1048 34.4244L53.029 15.4669C53.3954 15.1005 53.9893 15.099 54.3558 15.4655C54.7222 15.8319 54.7222 16.4258 54.3572 16.7923L35.4316 35.7497C34.2439 36.9389 32.6636 37.5951 30.9819 37.5951Z" fill="white"/>
<path d="M54.0558 47.2074H7.94544C7.42689 47.2074 7.00684 46.7873 7.00684 46.2702V15.7308C7.00684 15.4817 7.10533 15.2442 7.28204 15.0674C7.45731 14.8922 7.6963 14.7922 7.94544 14.7922L54.0558 14.7966C54.5744 14.7966 54.993 15.2166 54.993 15.7337V46.2688C54.9944 46.7888 54.5744 47.2074 54.0558 47.2074ZM8.8826 45.3331H53.1187V16.6723L8.8826 16.6694V45.3331Z" fill="white"/>
<path d="M53.3572 43.5605C53.1384 43.5605 52.9197 43.4852 52.7416 43.3302L41.3479 33.4125C40.5354 32.7057 39.6315 32.0858 38.6639 31.5701C38.2062 31.3268 38.0324 30.759 38.2758 30.3013C38.5191 29.8435 39.0869 29.6697 39.5446 29.9131C40.6382 30.4939 41.6579 31.195 42.5791 31.996L53.9728 41.9136C54.3638 42.254 54.4044 42.8464 54.064 43.236C53.8801 43.4518 53.6193 43.5605 53.3572 43.5605ZM8.87631 43.3678C8.61414 43.3678 8.35341 43.2578 8.16656 43.0448C7.82762 42.6537 7.86963 42.0613 8.26071 41.7224L19.5022 31.9757C20.3916 31.2036 21.3823 30.5214 22.4455 29.9478C22.9018 29.7016 23.471 29.8725 23.7158 30.3288C23.962 30.785 23.7911 31.3543 23.3349 31.5991C22.3934 32.106 21.517 32.71 20.7305 33.3923L9.49046 43.139C9.3123 43.2925 9.09358 43.3678 8.87631 43.3678Z" fill="white"/>
</svg>
