<svg width="120" height="120" viewBox="0 0 120 120" fill="none" xmlns="http://www.w3.org/2000/svg">
<path d="M60.0647 100.303C59.8665 100.303 59.6684 100.27 59.4814 100.203L22.4014 87.7199C21.687 87.4799 21.207 86.8074 21.2098 86.0539C21.2098 85.9423 21.2684 74.6595 21.1177 60.6474C20.967 46.479 21.0172 33.6251 21.02 33.4967C21.0228 33.0223 21.2181 32.5702 21.5558 32.2465C21.7679 31.9199 22.0916 31.6604 22.4935 31.532L59.6656 19.7804C60.0144 19.6716 60.3884 19.6716 60.7344 19.786L97.527 31.7804C97.7865 31.8251 98.0349 31.9255 98.2554 32.0846C98.713 32.4111 98.9837 32.9385 98.9865 33.5023C98.9865 33.653 99.0256 48.7423 98.8833 62.4083C98.7381 76.0465 98.7968 85.9562 98.7968 86.0567C98.8023 86.8102 98.3223 87.4827 97.6079 87.7255L60.6507 100.208C60.4609 100.27 60.2628 100.303 60.0647 100.303ZM24.7121 84.8065L58.3149 96.1199C58.3149 91.0967 58.3177 79.4176 58.3177 71.8046C58.3149 63.5637 58.3177 51.2232 58.3205 47.2827L24.5112 35.933C24.5028 40.3199 24.5028 50.1041 24.6172 60.6083C24.7372 71.9302 24.7233 81.4744 24.7121 84.8065ZM61.8228 47.2744L61.8144 65.3134L61.8172 71.679C61.82 79.9116 61.8172 91.2083 61.8144 96.1144L95.2916 84.8065C95.2805 81.7116 95.2665 73.2139 95.3837 62.3665C95.4926 51.9739 95.4954 40.7581 95.4898 35.9358L84.7205 39.5637C83.8051 39.8734 82.8116 39.3795 82.5047 38.4641C82.1949 37.5488 82.6888 36.5553 83.6042 36.2483L91.6442 33.5385L60.1819 23.2827L28.0665 33.4353L60.0619 44.1767L73.2702 39.7283C74.1856 39.4213 75.1791 39.9125 75.4861 40.8279C75.7958 41.7432 75.3019 42.7367 74.3865 43.0437L61.8228 47.2744Z" fill="#0023CE"/>
<path d="M79.1729 67.4873C78.8101 67.4873 78.4557 67.3757 78.1571 67.1608L72.7153 63.279C72.252 62.9497 71.9785 62.4166 71.9813 61.8473C71.9813 61.8473 72.0036 56.6008 72.026 52.4538C72.0427 49.3897 72.0622 44.7515 72.0734 42.5385L36.2408 30.3683C35.5236 30.1255 35.0464 29.4473 35.0548 28.6911C35.0632 27.9348 35.5571 27.2678 36.2799 27.0417L47.3115 23.5757C47.6715 23.4613 48.0567 23.4697 48.4111 23.5924L84.8157 36.279C85.5274 36.5273 85.999 37.2027 85.9906 37.9562C85.9906 38.0008 85.9292 42.4855 85.9711 47.8017C86.0129 53.1571 85.9488 58.3227 85.9488 58.3729C85.946 58.7162 85.8399 59.0511 85.6474 59.3357L80.6241 66.7171C80.359 67.105 79.9488 67.3729 79.4855 67.4538C79.3794 67.4762 79.2762 67.4873 79.1729 67.4873ZM75.4864 60.9571L78.7348 63.2734L82.4548 57.8064C82.4687 56.3636 82.505 52.1608 82.4715 47.8324C82.4436 44.1655 82.4632 40.8892 82.4771 39.1729L47.8055 27.092L42.4334 28.7804L74.3897 39.6334C75.1013 39.8762 75.5785 40.5459 75.5757 41.2966C75.5757 41.2966 75.545 48.3292 75.5255 52.4734C75.5088 55.5683 75.492 59.2771 75.4864 60.9571Z" fill="#0023CE"/>
</svg>
