<svg width="112" height="121" viewBox="0 0 112 121" fill="none" xmlns="http://www.w3.org/2000/svg">
<path d="M59.2451 63.9088C58.3901 63.9088 57.6953 63.1608 57.6953 62.2343V62.2315C57.6953 61.3078 58.3901 60.5571 59.2451 60.5571C60.1 60.5571 60.7949 61.3078 60.7949 62.2315C60.7949 63.1553 60.1 63.9088 59.2451 63.9088Z" fill="#0023CE"/>
<path d="M34.0256 111.389C33.62 111.389 33.2248 111.216 32.9304 110.898L22.8853 100.04C22.2809 99.3865 22.2809 98.3289 22.8827 97.6731L39.4317 79.7205L41.6014 60.9475C41.7073 60.0293 42.4821 59.3791 43.3319 59.4935C44.1817 59.6079 44.7836 60.4452 44.6777 61.3633L42.4434 80.7056C42.4021 81.074 42.2471 81.4172 42.0043 81.6796L26.1708 98.8535L34.1805 107.51C34.6971 106.174 34.3252 103.302 33.868 101.583C33.7078 100.977 33.8732 100.324 34.2993 99.8944L48.3351 85.7456L51.4011 77.9289C51.7343 77.0777 52.6435 76.6786 53.4339 77.0414C54.2217 77.4014 54.591 78.3865 54.2552 79.2377L51.0601 87.381C50.9749 87.5958 50.8483 87.7912 50.6908 87.9503L37.0838 101.667C37.4557 103.467 37.9852 107.122 36.7686 109.397C36.2314 110.399 35.41 111.071 34.3949 111.339C34.2709 111.375 34.147 111.389 34.0256 111.389Z" fill="#0023CE"/>
<path d="M71.3083 114.208H57.394C56.5442 114.208 55.8545 113.468 55.8442 112.55L55.5936 86.8089L41.811 62.0192C41.3693 61.2266 41.607 60.1968 42.3405 59.7224C43.0741 59.2452 44.0272 59.502 44.4663 60.2945L58.4659 85.475C58.608 85.7317 58.6854 86.022 58.688 86.3206L58.9282 110.859H70.1848C70.1796 110.828 70.1718 110.795 70.1641 110.761C69.8283 109.377 67.5269 107.575 66.0004 106.737C65.4528 106.439 65.1196 105.816 65.1506 105.155L66.1528 84.5206L58.7939 63.395C58.7294 63.2052 58.6958 63.0071 58.6958 62.8062C58.6958 61.8824 59.3906 61.1317 60.2455 61.1317C60.9326 61.1317 61.5138 61.6117 61.7178 62.2787L69.1696 83.6694C69.2445 83.8843 69.2781 84.1159 69.2678 84.3475L68.2992 104.287C69.7792 105.239 72.5327 107.312 73.1629 109.905C73.4651 111.147 73.2714 112.377 72.5998 113.463C72.3105 113.929 71.8249 114.208 71.3083 114.208Z" fill="#0023CE"/>
<path d="M67.064 51.8837C66.8419 51.8837 66.6172 51.8334 66.4028 51.7218L66.1678 51.6018C65.8991 51.4651 65.6718 51.2446 65.5143 50.9711L57.6879 37.3693C57.6828 37.3609 57.6776 37.3525 57.675 37.3441L57.2514 36.6102C56.7994 35.826 57.0189 34.7934 57.7473 34.3023C58.4731 33.8111 59.4288 34.0511 59.8834 34.8381L60.2838 35.5302C60.3019 35.5581 60.3199 35.5888 60.3354 35.6195L67.9267 48.8111C68.5596 49.2632 68.8075 50.159 68.4743 50.9237C68.2005 51.5293 67.6452 51.8837 67.064 51.8837Z" fill="#0023CE"/>
<path d="M56.5597 26.2286H51.5074C47.6536 26.2286 44.5205 22.8407 44.5205 18.6798V13.9468C44.5205 9.78307 47.6562 6.39795 51.5074 6.39795H52.7472C56.601 6.39795 59.7341 9.78586 59.7341 13.9468V22.7961C59.7341 24.6882 58.3109 26.2286 56.5597 26.2286ZM51.5074 9.74679C49.3635 9.74679 47.6201 11.6305 47.6201 13.9468V18.677C47.6201 20.9933 49.3635 22.877 51.5074 22.877H56.5597C56.5984 22.877 56.6371 22.8352 56.6371 22.7933V13.9468C56.6371 11.6305 54.8936 9.74679 52.7498 9.74679H51.5074Z" fill="#0023CE"/>
<path d="M57.3782 62.8313H43.1435C42.2886 62.8313 41.5938 62.0806 41.5938 61.1568V40.0285C41.5938 34.182 45.9977 29.4238 51.409 29.4238C54.0307 29.4238 56.4974 30.5262 58.3494 32.5299C59.2095 33.462 59.8914 34.5364 60.3796 35.7252C60.3873 35.7448 60.3976 35.7643 60.4054 35.781C60.408 35.7894 60.4106 35.795 60.4131 35.8034C60.9504 37.1401 61.2242 38.5606 61.2242 40.0285V52.5615C61.2242 53.4852 60.5294 54.2359 59.6744 54.2359C58.8195 54.2359 58.1247 53.4852 58.1247 52.5615V40.0285C58.1247 39.0434 57.9464 38.0889 57.5926 37.1931C57.5822 37.1708 57.5745 37.1513 57.5641 37.1289C57.2284 36.2973 56.7557 35.5438 56.1539 34.8936C54.8882 33.5262 53.2015 32.7699 51.4064 32.7699C47.7024 32.7699 44.6907 36.0238 44.6907 40.0257V59.4796H57.3756C58.2305 59.4796 58.9254 60.2303 58.9254 61.1541C58.9254 62.0778 58.2331 62.8313 57.3782 62.8313Z" fill="#0023CE"/>
<path d="M88.4874 68.0502H67.0644C66.2095 68.0502 65.5146 67.2995 65.5146 66.3758C65.5146 65.4521 66.2095 64.6986 67.0644 64.6986C67.0954 64.6986 67.1238 64.6986 67.1548 64.7014H86.9377V44.9069H68.6142V56.8093C68.6142 57.733 67.9194 58.4837 67.0644 58.4837C66.2095 58.4837 65.5146 57.733 65.5146 56.8093V43.2325C65.5146 42.3088 66.2095 41.5581 67.0644 41.5581H88.4874C89.3424 41.5581 90.0372 42.3088 90.0372 43.2325V66.3758C90.0372 67.3023 89.3424 68.0502 88.4874 68.0502Z" fill="#0023CE"/>
<path d="M67.3971 68.0526C67.3481 68.0526 67.2938 68.0526 67.2396 68.0498C67.1672 68.0498 67.0923 68.047 67.0174 68.0442C67.0097 68.0442 66.9942 68.0442 66.9864 68.0442C66.7049 68.0275 66.4104 67.9968 66.085 67.9494C65.9016 67.9242 65.726 67.8601 65.5632 67.768L59.5191 64.288C59.4959 64.274 59.4726 64.2601 59.4494 64.2461L58.5221 63.7159C58.4963 63.7019 58.4704 63.6852 58.4472 63.6684L52.9946 60.5289C52.806 60.4201 52.6407 60.2722 52.509 60.0908L42.1694 46.0089C41.6373 45.2833 41.751 44.2312 42.42 43.6563C43.0915 43.0815 44.0653 43.2042 44.5974 43.927L54.7355 57.7354L59.9763 60.7522C59.9996 60.7661 60.0228 60.7801 60.046 60.794L60.9733 61.3242C60.9992 61.3382 61.025 61.3549 61.0482 61.3717L66.7643 64.6619C66.8986 64.6787 67.0252 64.6898 67.1466 64.6954C67.1905 64.6954 67.2577 64.6982 67.3171 64.6982C67.3687 64.701 67.4152 64.701 67.4643 64.6982C69.993 64.6508 71.0494 62.5829 71.4679 61.2322L58.3439 53.6889C58.1605 53.5801 57.9978 53.4349 57.8686 53.2563L49.5179 41.848C48.9884 41.1224 49.1021 40.0703 49.7736 39.4954C50.4452 38.9205 51.419 39.0461 51.9511 39.7717L60.1003 50.9122L60.3973 51.0824L73.9837 58.8908C74.5571 59.2201 74.8774 59.8982 74.7921 60.5931C74.4744 63.1326 72.5501 67.9577 67.5444 68.0498C67.4979 68.0526 67.4488 68.0526 67.3971 68.0526Z" fill="#0023CE"/>
</svg>
