<svg width="121" height="120" viewBox="0 0 121 120" fill="none" xmlns="http://www.w3.org/2000/svg">
<path d="M60.1999 98.6314C59.8343 98.6314 59.4715 98.5114 59.1673 98.2742L55.1934 95.1626C53.1673 93.5496 51.7273 91.2863 51.1273 88.7803C51.1162 88.7384 51.1106 88.6993 51.1022 88.6575L49.838 80.8073C49.6957 79.9254 50.2706 79.0882 51.1441 78.904C54.6994 78.1533 58.3496 76.9672 58.958 76.3672C59.2762 76.0128 59.7255 75.8147 60.2027 75.8147C60.6771 75.8147 61.1292 76.0212 61.4445 76.3756C62.0473 76.97 65.6976 78.1561 69.2501 78.9068C70.1236 79.091 70.6985 79.9282 70.5562 80.81L69.292 88.6603C69.2864 88.7021 69.278 88.744 69.2669 88.7831C68.6669 91.2891 67.2269 93.5552 65.2092 95.1598L61.2269 98.2826C60.9282 98.5142 60.5655 98.6314 60.1999 98.6314ZM54.398 88.0575C54.8334 89.8184 55.852 91.4035 57.2696 92.5338L60.1999 94.8305L63.1385 92.5254C64.5478 91.4035 65.5636 89.8156 65.9989 88.0575L67.0036 81.8286C64.8966 81.3263 61.9943 80.5198 60.1999 79.5263C58.4055 80.517 55.5031 81.3263 53.3962 81.8286L54.398 88.0575Z" fill="#0023CE"/>
<path d="M93.5233 33.8761C93.5233 33.8566 93.5205 33.8398 93.5205 33.8203C93.5149 33.7477 93.5065 33.678 93.4954 33.6082C93.4814 33.5356 93.4619 33.4687 93.4368 33.3989C93.4312 33.3822 93.4256 33.3654 93.42 33.3487C93.3949 33.2817 93.367 33.2175 93.3363 33.1561C93.3363 33.1533 93.3335 33.1505 93.3335 33.1477C93.3 33.0836 93.2582 33.0222 93.2163 32.9608C93.2051 32.9468 93.1968 32.9329 93.1856 32.9189C93.141 32.8603 93.0935 32.8017 93.0405 32.7487L74.4209 14.1291C74.3679 14.0761 74.3121 14.0287 74.2535 13.984C74.2396 13.9729 74.2228 13.9617 74.2089 13.9505C74.1503 13.9087 74.0889 13.8696 74.0247 13.8361C74.0191 13.8333 74.0163 13.8333 74.0107 13.8305C73.9493 13.7998 73.8879 13.7719 73.8237 13.7496C73.807 13.744 73.7875 13.7356 73.7707 13.7301C73.7037 13.7077 73.634 13.6882 73.5642 13.6743C73.5614 13.6743 73.5614 13.6743 73.5586 13.6743C73.4889 13.6603 73.4191 13.6519 73.3493 13.6491C73.3298 13.6491 73.3103 13.6463 73.2907 13.6463C73.2712 13.6463 73.2544 13.6436 73.2349 13.6436H28.5475C27.6237 13.6436 26.873 14.3943 26.873 15.318V104.687C26.873 105.611 27.6237 106.362 28.5475 106.362H91.8517C92.7754 106.362 93.5261 105.611 93.5261 104.687V33.9347C93.5261 33.9152 93.5233 33.8956 93.5233 33.8761ZM87.8079 32.2603H74.9065V19.3589L87.8079 32.2603ZM30.2219 103.01V16.9896H71.5577V33.9347C71.5577 34.8584 72.3084 35.6091 73.2321 35.6091H90.1772V103.01H30.2219Z" fill="#0023CE"/>
<path d="M81.1385 45.9543H39.2613C38.3376 45.9543 37.5869 45.2036 37.5869 44.2799C37.5869 43.3562 38.3376 42.6055 39.2613 42.6055H81.1385C82.0623 42.6055 82.813 43.3562 82.813 44.2799C82.813 45.2036 82.0623 45.9543 81.1385 45.9543Z" fill="#0023CE"/>
<path d="M81.1385 57.2314H39.2613C38.3376 57.2314 37.5869 56.4807 37.5869 55.557C37.5869 54.6333 38.3376 53.8826 39.2613 53.8826H81.1385C82.0623 53.8826 82.813 54.6333 82.813 55.557C82.813 56.4807 82.0623 57.2314 81.1385 57.2314Z" fill="#0023CE"/>
<path d="M60.8111 68.5114H39.2613C38.3376 68.5114 37.5869 67.7607 37.5869 66.837C37.5869 65.9133 38.3376 65.1626 39.2613 65.1626H60.8111C61.7348 65.1626 62.4855 65.9133 62.4855 66.837C62.4855 67.7607 61.7348 68.5114 60.8111 68.5114Z" fill="#0023CE"/>
<path d="M81.139 68.5114H69.7027C68.779 68.5114 68.0283 67.7607 68.0283 66.837C68.0283 65.9133 68.779 65.1626 69.7027 65.1626H81.139C82.0627 65.1626 82.8134 65.9133 82.8134 66.837C82.8134 67.7607 82.0627 68.5114 81.139 68.5114Z" fill="#0023CE"/>
</svg>
