<svg width="122" height="120" viewBox="0 0 122 120" fill="none" xmlns="http://www.w3.org/2000/svg">
<path d="M61.1358 108.642C34.1638 108.642 12.2207 86.8212 12.2207 59.9998C12.2207 33.1784 34.1638 11.3579 61.1358 11.3579C88.1079 11.3579 110.051 33.1784 110.051 59.9998C110.051 86.8212 88.1079 108.642 61.1358 108.642ZM61.1358 14.5198C35.9177 14.5198 15.4003 34.9226 15.4003 59.9998C15.4003 85.077 35.9177 105.48 61.1358 105.48C86.3539 105.48 106.871 85.077 106.871 59.9998C106.871 34.9226 86.3539 14.5198 61.1358 14.5198Z" fill="#0023CE"/>
<path d="M95.2392 94.2501C95.2223 94.2501 95.2055 94.2501 95.1887 94.2501C94.2878 94.2222 93.5806 93.4743 93.6087 92.5813L93.6536 91.1497C93.6395 80.1236 84.6142 71.1543 73.5234 71.1543H48.6393C37.5401 71.1543 28.5092 80.1348 28.5092 91.172C28.5092 91.1887 28.5092 91.2083 28.5092 91.225L28.4671 92.4697C28.4418 93.3431 27.7234 94.0436 26.8366 94.0436C25.9357 94.0436 25.2061 93.3208 25.2061 92.425V92.4222C25.2061 92.4055 25.2061 92.3859 25.2061 92.3692L25.2482 91.1469C25.2622 78.3348 35.7496 67.9143 48.6393 67.9143H73.5234C86.4215 67.9143 96.9146 78.3487 96.9146 91.1748C96.9146 91.1915 96.9146 91.2083 96.9146 91.225L96.8697 92.6817C96.8416 93.5552 96.1176 94.2501 95.2392 94.2501Z" fill="#0023CE"/>
<path d="M61.08 62.5421C51.4962 62.5421 43.6973 54.7868 43.6973 45.2565C43.6973 35.7263 51.4962 27.9709 61.08 27.9709C66.2297 27.9709 71.0819 30.223 74.3962 34.1468C77.0174 37.25 78.4626 41.1961 78.4626 45.2565C78.4626 54.7868 70.6665 62.5421 61.08 62.5421ZM61.08 31.2137C53.2923 31.2137 46.9583 37.5151 46.9583 45.2565C46.9583 52.9979 53.2923 59.2993 61.08 59.2993C68.8677 59.2993 75.2016 53.0007 75.2016 45.2565C75.2016 41.9579 74.0286 38.7514 71.9013 36.2314C69.2072 33.0416 65.2643 31.2137 61.08 31.2137Z" fill="#0023CE"/>
</svg>
