<svg width="121" height="120" viewBox="0 0 121 120" fill="none" xmlns="http://www.w3.org/2000/svg">
<path d="M106.445 107.805H60.3984C34.0375 107.805 12.5938 86.3609 12.5938 60C12.5938 33.639 34.0375 12.1953 60.3984 12.1953C86.7593 12.1953 108.203 33.639 108.203 60V106.046C108.203 107.018 107.416 107.805 106.445 107.805ZM60.3984 15.7116C35.977 15.7116 16.11 35.5786 16.11 60C16.11 84.4214 35.977 104.288 60.3984 104.288H104.687V60C104.687 35.5786 84.8198 15.7116 60.3984 15.7116Z" fill="#0023CE"/>
<path d="M58.9473 71.9692C58.0738 71.9692 57.3176 71.3218 57.2059 70.4315C57.072 69.3878 56.5976 63.985 60.2897 60.1199C61.1966 59.1711 62.299 58.292 63.4655 57.3627C66.6859 54.798 70.0124 52.1441 70.0124 47.5701C70.0124 42.3097 65.6422 38.7738 61.5594 38.7738C56.6562 38.7738 54.5492 41.7766 54.4627 41.905C53.9324 42.7171 52.8469 42.9404 52.0348 42.4073C51.2227 41.8771 50.9994 40.7804 51.5297 39.9655C51.6552 39.7729 54.6887 35.2576 61.5594 35.2576C67.3166 35.2576 73.5287 39.9655 73.5287 47.5701C73.5287 53.8408 69.1641 57.318 65.6562 60.1143C64.5845 60.9683 63.5743 61.772 62.832 62.5506C60.1864 65.319 60.6329 69.519 60.6943 69.9878C60.8171 70.9506 60.1362 71.8325 59.1734 71.9524C59.0952 71.9636 59.0227 71.9692 58.9473 71.9692Z" fill="#0023CE"/>
<path d="M62.3882 82.0549C62.3882 83.8214 60.9566 85.2559 59.1873 85.2559C57.4207 85.2559 55.9863 83.8242 55.9863 82.0549C55.9863 80.2884 57.418 78.854 59.1873 78.854C60.9566 78.8568 62.3882 80.2884 62.3882 82.0549Z" fill="#0023CE"/>
</svg>
