<svg width="124" height="124" viewBox="0 0 124 124" fill="none" xmlns="http://www.w3.org/2000/svg">
<path d="M86.5807 91.8582H37.4248C36.4703 91.8582 35.6946 91.0824 35.6946 90.1279C35.6946 89.1734 36.4703 88.3977 37.4248 88.3977H86.5807C87.5352 88.3977 88.311 89.1734 88.311 90.1279C88.311 91.0824 87.5381 91.8582 86.5807 91.8582Z" fill="#FFBA5A"/>
<path d="M86.5807 82.7224H37.4248C36.4703 82.7224 35.6946 81.9467 35.6946 80.9922C35.6946 80.0377 36.4703 79.262 37.4248 79.262H86.5807C87.5352 79.262 88.311 80.0377 88.311 80.9922C88.311 81.9467 87.5381 82.7224 86.5807 82.7224Z" fill="#FFBA5A"/>
<path d="M61.9998 38.247C52.4605 38.247 44.6975 31.2193 44.6975 22.5797C44.6975 22.4874 44.6975 22.3894 44.7033 22.2971C44.7494 21.3426 45.5626 20.6044 46.5143 20.6505C47.4688 20.6966 48.207 21.507 48.1609 22.4615C48.158 22.499 48.1609 22.5422 48.1609 22.5797C48.1609 29.3103 54.3695 34.7865 62.0027 34.7865C69.6359 34.7865 75.8446 29.3103 75.8446 22.5797C75.8446 22.5422 75.8446 22.5018 75.8446 22.4644C75.7984 21.5098 76.5338 20.6966 77.4883 20.6505C78.4399 20.6044 79.256 21.3397 79.3022 22.2942C79.3079 22.3894 79.3079 22.4874 79.3079 22.5797C79.3022 31.2193 71.5392 38.247 61.9998 38.247Z" fill="#FFBA5A"/>
<path d="M61.9999 46.4567C47.8754 46.4567 36.2627 36.5021 35.5619 23.7907C35.51 22.8362 36.2396 22.0201 37.1941 21.9682C38.1515 21.9192 38.9647 22.6459 39.0166 23.6004C39.6164 34.4778 49.7124 42.9963 61.9999 42.9963C74.2874 42.9963 84.3862 34.4778 84.986 23.6004C85.0379 22.6459 85.8569 21.9163 86.8085 21.9682C87.7631 22.0201 88.4926 22.8362 88.4407 23.7907C87.7371 36.4993 76.1244 46.4567 61.9999 46.4567Z" fill="#FFBA5A"/>
<path d="M37.4018 104.022H21.0078C20.0533 104.022 19.2776 103.246 19.2776 102.291V45.6061C19.2776 33.1283 28.5632 22.6373 40.8767 21.2041C47.8466 20.3909 54.9319 19.9785 61.9278 19.9785C61.9509 19.9785 61.974 19.9785 61.9999 19.9785C62.9544 19.9785 63.7301 20.7542 63.7301 21.7087C63.7301 22.6633 62.9544 23.439 61.9999 23.439C61.9711 23.439 61.9509 23.439 61.9278 23.439C55.0617 23.439 48.1148 23.8427 41.2775 24.6415C30.7087 25.8728 22.7381 34.8874 22.7381 45.6061V100.558H35.6715V47.1489C35.6715 46.1944 36.4473 45.4187 37.4018 45.4187C38.3563 45.4187 39.132 46.1944 39.132 47.1489V102.291C39.132 103.246 38.3563 104.022 37.4018 104.022Z" fill="#FFBA5A"/>
<path d="M102.992 104.022H86.5981C85.6436 104.022 84.8679 103.246 84.8679 102.291V47.1489C84.8679 46.1944 85.6436 45.4187 86.5981 45.4187C87.5527 45.4187 88.3284 46.1944 88.3284 47.1489V100.561H101.262V45.6061C101.262 34.8845 93.2913 25.8728 82.7224 24.6415C75.8822 23.8456 68.9354 23.439 62.0721 23.439C62.049 23.439 62.0202 23.4476 62 23.439C61.0455 23.439 60.2698 22.6661 60.2698 21.7087C60.2698 20.7514 61.0426 19.9785 62 19.9785C62.0231 19.9785 62.049 19.9785 62.0721 19.9785C69.0709 19.9785 76.1533 20.3909 83.1233 21.2041C95.4368 22.6402 104.722 33.1312 104.722 45.6061V102.289C104.722 103.246 103.947 104.022 102.992 104.022Z" fill="#FFBA5A"/>
</svg>
