<svg width="124" height="124" viewBox="0 0 124 124" fill="none" xmlns="http://www.w3.org/2000/svg">
<path d="M98.8395 41.1536C96.4604 41.1536 94.1448 40.0463 92.6309 38.1344C92.0368 37.3846 92.1637 36.2974 92.9106 35.7034C93.6603 35.1093 94.7475 35.2362 95.3415 35.9831C96.2989 37.1914 97.8763 37.8489 99.3615 37.6586C99.7767 37.6066 100.368 37.4653 100.815 37.0962C101.118 36.8453 101.317 36.4906 101.325 36.1879C101.348 35.2593 100.803 34.9075 98.2599 34.2039C96.123 33.6127 92.5472 32.6236 92.9596 28.7392C93.1615 26.8417 94.5975 25.1461 96.5325 24.5203C99.4249 23.5831 102.828 24.9586 104.445 27.7241C104.927 28.5489 104.65 29.6101 103.825 30.0917C103.001 30.5733 101.939 30.2964 101.458 29.4717C100.671 28.1221 98.9376 27.3781 97.5995 27.8106C96.9737 28.0154 96.4576 28.5691 96.3999 29.1054C96.322 29.8379 96.521 30.1349 99.1798 30.8703C101.446 31.496 104.875 32.4448 104.783 36.2744C104.751 37.5951 104.108 38.8668 103.018 39.7666C102.159 40.4759 101.046 40.9345 99.7969 41.0931C99.4768 41.1334 99.1567 41.1536 98.8395 41.1536Z" fill="#FFBA5A"/>
<path d="M98.5193 44.4324C97.5648 44.4324 96.7891 43.6567 96.7891 42.7022V39.4119C96.7891 38.4574 97.5648 37.6816 98.5193 37.6816C99.4738 37.6816 100.25 38.4574 100.25 39.4119V42.7022C100.25 43.6567 99.4738 44.4324 98.5193 44.4324Z" fill="#FFBA5A"/>
<path d="M98.5193 27.6867C97.5648 27.6867 96.7891 26.911 96.7891 25.9565V22.6748C96.7891 21.7203 97.5648 20.9446 98.5193 20.9446C99.4738 20.9446 100.25 21.7203 100.25 22.6748V25.9565C100.25 26.911 99.4738 27.6867 98.5193 27.6867Z" fill="#FFBA5A"/>
<path d="M98.5193 51.4947C88.1494 51.4947 79.7117 43.0569 79.7117 32.687C79.7117 22.3172 88.1494 13.8794 98.5193 13.8794C108.889 13.8794 117.327 22.3172 117.327 32.687C117.327 43.0569 108.889 51.4947 98.5193 51.4947ZM98.5193 17.3399C90.0556 17.3399 83.1721 24.2233 83.1721 32.687C83.1721 41.1507 90.0556 48.0342 98.5193 48.0342C106.98 48.0342 113.866 41.1507 113.866 32.687C113.866 24.2233 106.98 17.3399 98.5193 17.3399Z" fill="#FFBA5A"/>
<path d="M99.1135 90.0729C96.4519 89.3376 96.2558 89.0406 96.3336 88.3081C96.3913 87.7746 96.9046 87.2181 97.5333 87.0162C98.8713 86.5836 100.602 87.3276 101.392 88.6743C101.873 89.4991 102.934 89.7788 103.759 89.2943C104.584 88.8127 104.861 87.7515 104.379 86.9268C103.436 85.3148 101.888 84.1786 100.186 83.6941V81.8745C100.186 80.92 99.4106 80.1443 98.4561 80.1443C97.5015 80.1443 96.7258 80.92 96.7258 81.8745V83.6509C96.6393 83.674 96.5528 83.6941 96.4663 83.7201C94.5313 84.3488 93.0952 86.0444 92.8934 87.939C92.481 91.8262 96.0568 92.8154 98.1936 93.4065C100.737 94.1101 101.282 94.462 101.259 95.3905C101.25 95.6933 101.051 96.0509 100.749 96.2989C100.302 96.668 99.7134 96.8064 99.2952 96.8612C97.8101 97.0487 96.2298 96.3912 95.2753 95.1858C94.6813 94.436 93.5941 94.3091 92.8443 94.906C92.0946 95.5001 91.9706 96.5873 92.5646 97.337C93.6374 98.6895 95.1109 99.6382 96.7258 100.079V101.908C96.7258 102.862 97.5015 103.638 98.4561 103.638C99.4106 103.638 100.186 102.862 100.186 101.908V100.227C101.25 100.025 102.202 99.595 102.955 98.9721C104.042 98.0724 104.685 96.7978 104.72 95.4799C104.809 91.6474 101.383 90.6987 99.1135 90.0729Z" fill="#FFBA5A"/>
<path d="M98.4531 110.121C88.0833 110.121 79.6455 101.683 79.6455 91.313C79.6455 80.9431 88.0833 72.5054 98.4531 72.5054C108.823 72.5054 117.261 80.9431 117.261 91.313C117.261 101.683 108.823 110.121 98.4531 110.121ZM98.4531 75.9658C89.9923 75.9658 83.106 82.8493 83.106 91.313C83.106 99.7767 89.9894 106.66 98.4531 106.66C106.917 106.66 113.8 99.7767 113.8 91.313C113.8 82.8493 106.914 75.9658 98.4531 75.9658Z" fill="#FFBA5A"/>
<path d="M33.2117 88.6024C18.5797 88.6024 6.67285 76.6984 6.67285 62.0635C6.67285 47.4287 18.5769 35.5247 33.2117 35.5247C47.8466 35.5247 59.7506 47.4287 59.7506 62.0635C59.7506 76.6984 47.8437 88.6024 33.2117 88.6024ZM33.2117 38.988C20.4859 38.988 10.1333 49.3406 10.1333 62.0664C10.1333 74.7923 20.4859 85.1448 33.2117 85.1448C45.9376 85.1448 56.2902 74.7923 56.2902 62.0664C56.2902 49.3406 45.9347 38.988 33.2117 38.988Z" fill="#FFBA5A"/>
<path d="M24.177 73.0677C23.7329 73.0677 23.2917 72.8975 22.9543 72.5601C22.2795 71.8853 22.2795 70.7895 22.9543 70.1118L41.3928 51.6733C42.0676 50.9985 43.1635 50.9985 43.8411 51.6733C44.5159 52.3481 44.5159 53.4439 43.8411 54.1216L25.4026 72.5601C25.0652 72.8975 24.6211 73.0677 24.177 73.0677Z" fill="#FFBA5A"/>
<path d="M40.4181 74.5731C37.4767 74.5731 35.0833 72.1796 35.0833 69.2382C35.0833 66.2968 37.4767 63.9033 40.4181 63.9033C43.3595 63.9033 45.753 66.2968 45.753 69.2382C45.753 72.1825 43.3595 74.5731 40.4181 74.5731ZM40.4181 67.3667C39.3858 67.3667 38.5437 68.2058 38.5437 69.2411C38.5437 70.2735 39.3829 71.1155 40.4181 71.1155C41.4505 71.1155 42.2926 70.2763 42.2926 69.2411C42.2926 68.2087 41.4505 67.3667 40.4181 67.3667Z" fill="#FFBA5A"/>
<path d="M26.0053 60.2208C23.0639 60.2208 20.6704 57.8273 20.6704 54.8859C20.6704 51.9445 23.0639 49.551 26.0053 49.551C28.9467 49.551 31.3402 51.9445 31.3402 54.8859C31.3373 57.8273 28.9467 60.2208 26.0053 60.2208ZM26.0053 53.0144C24.9729 53.0144 24.1309 53.8535 24.1309 54.8888C24.1309 55.9212 24.97 56.7632 26.0053 56.7632C27.0377 56.7632 27.8797 55.924 27.8797 54.8888C27.8768 53.8535 27.0377 53.0144 26.0053 53.0144Z" fill="#FFBA5A"/>
<path d="M62.444 44.7266C61.7346 44.7266 61.0685 44.2853 60.8147 43.5788C60.4946 42.6791 60.9618 41.69 61.8615 41.367L72.4361 37.5893C73.3358 37.2692 74.3249 37.7364 74.6479 38.6361C74.968 39.5359 74.5008 40.525 73.6011 40.8479L63.0265 44.6256C62.8333 44.6948 62.6372 44.7266 62.444 44.7266Z" fill="#FFBA5A"/>
<path d="M73.0158 86.6415C72.8226 86.6415 72.6265 86.6098 72.4333 86.5406L61.8587 82.7629C60.959 82.4399 60.4889 81.4508 60.8119 80.5511C61.1349 79.6514 62.124 79.1813 63.0237 79.5043L73.5983 83.282C74.4981 83.6049 74.9681 84.5941 74.6451 85.4938C74.3942 86.2003 73.7281 86.6415 73.0158 86.6415Z" fill="#FFBA5A"/>
</svg>
