<svg width="124" height="124" viewBox="0 0 124 124" fill="none" xmlns="http://www.w3.org/2000/svg">
<path d="M62.0002 111.56C53.5105 111.56 45.586 106.297 39.6946 96.7373C33.956 87.4315 30.7954 75.095 30.7954 62C30.7954 48.905 33.956 36.5656 39.6946 27.2598C45.5889 17.7032 53.5105 12.4375 62.0002 12.4375C62.9258 12.4375 63.6756 13.1873 63.6756 14.1129C63.6756 15.0386 62.9258 15.7884 62.0002 15.7884C54.7159 15.7884 47.8065 20.486 42.5466 29.016C37.1309 37.7998 34.1463 49.5106 34.1463 61.9942C34.1463 74.4779 37.1281 86.1915 42.5466 94.9725C47.8065 103.503 54.7159 108.2 62.0002 108.2C62.9258 108.2 63.6756 108.95 63.6756 109.876C63.6756 110.801 62.9258 111.56 62.0002 111.56Z" fill="#FFBA5A"/>
<path d="M62.0002 111.56C61.9944 111.56 61.9886 111.56 61.9829 111.56C61.0572 111.551 60.3132 110.793 60.3219 109.867C60.3911 102.669 60.4805 89.8769 60.4805 61.9971C60.4805 41.0498 60.4286 32.5226 60.3709 22.6516C60.3565 20.013 60.3392 17.2562 60.3219 14.1216C60.3161 13.1959 61.063 12.4404 61.9886 12.4375C61.9915 12.4375 61.9944 12.4375 61.9973 12.4375C62.9201 12.4375 63.667 13.1815 63.6727 14.1043C63.69 17.236 63.7045 19.9928 63.7218 22.6315C63.7823 32.5082 63.8313 41.0411 63.8313 61.9971C63.8313 89.8885 63.7419 102.692 63.6727 109.896C63.667 110.819 62.9172 111.56 62.0002 111.56Z" fill="#FFBA5A"/>
<path d="M62.0001 111.56C61.0745 111.56 60.3247 110.81 60.3247 109.884C60.3247 108.959 61.0745 108.209 62.0001 108.209C77.8866 108.209 90.8114 87.4806 90.8114 62.0001C90.8114 36.5195 77.8866 15.7913 62.0001 15.7913C61.0745 15.7913 60.3247 15.0415 60.3247 14.1159C60.3247 13.1902 61.0745 12.4404 62.0001 12.4404C70.7349 12.4404 78.893 17.6975 84.9719 27.2426C90.8979 36.5512 94.1623 48.8964 94.1623 62.0029C94.1623 75.1095 90.8979 87.4518 84.9719 96.7633C78.893 106.303 70.7349 111.56 62.0001 111.56Z" fill="#FFBA5A"/>
<path d="M109.884 63.6753H14.1159C13.1902 63.6753 12.4404 62.9256 12.4404 61.9999C12.4404 61.0742 13.1902 60.3245 14.1159 60.3245H109.884C110.81 60.3245 111.56 61.0742 111.56 61.9999C111.56 62.9256 110.81 63.6753 109.884 63.6753Z" fill="#FFBA5A"/>
<path d="M62.0058 34.1518C50.4075 34.1518 39.135 31.5968 30.2676 26.9598C29.4486 26.5301 29.1314 25.518 29.5582 24.699C29.9879 23.88 31 23.5628 31.819 23.9896C40.2164 28.3815 50.9352 30.8009 62.0029 30.8009C73.0735 30.8009 83.7894 28.3815 92.1782 23.9925C92.9972 23.5628 94.0093 23.88 94.439 24.699C94.8687 25.518 94.5515 26.533 93.7325 26.9598C84.8766 31.5968 73.6099 34.1518 62.0058 34.1518Z" fill="#FFBA5A"/>
<path d="M92.9568 100.201C92.6944 100.201 92.4291 100.14 92.1811 100.01C83.7837 95.6185 73.0649 93.199 61.9972 93.199C50.9266 93.199 40.2106 95.6185 31.8219 100.007C31 100.437 29.9879 100.12 29.5611 99.301C29.1314 98.482 29.4486 97.4669 30.2676 97.0401C39.1264 92.4031 50.3931 89.8481 61.9972 89.8481C73.5955 89.8481 84.8679 92.4031 93.7354 97.0401C94.5544 97.4698 94.8716 98.482 94.4448 99.301C94.1449 99.8748 93.5624 100.201 92.9568 100.201Z" fill="#FFBA5A"/>
<path d="M62.0001 111.56C34.6739 111.56 12.4404 89.3262 12.4404 62.0001C12.4404 34.6739 34.6739 12.4404 62.0001 12.4404C89.3291 12.4404 111.56 34.6739 111.56 62.0001C111.56 89.3262 89.3291 111.56 62.0001 111.56ZM62.0001 15.7913C36.5195 15.7913 15.7913 36.5195 15.7913 62.0001C15.7913 87.4806 36.5224 108.209 62.0001 108.209C87.4806 108.209 108.209 87.4806 108.209 62.0001C108.209 36.5195 87.4806 15.7913 62.0001 15.7913Z" fill="#FFBA5A"/>
</svg>
