<svg width="24" height="24" viewBox="0 0 24 24" fill="none" xmlns="http://www.w3.org/2000/svg">
<path d="M12.0005 22.1001C6.43137 22.1001 1.90039 17.5691 1.90039 12C1.90039 6.43088 6.43137 1.8999 12.0005 1.8999C17.5696 1.8999 22.1006 6.43088 22.1006 12C22.1006 17.5691 17.5696 22.1001 12.0005 22.1001ZM12.0005 2.56967C6.8003 2.56967 2.57016 6.79981 2.57016 12C2.57016 17.2002 6.8003 21.4303 12.0005 21.4303C17.2007 21.4303 21.4308 17.2002 21.4308 12C21.4308 6.79981 17.2007 2.56967 12.0005 2.56967Z" fill="#0023CE"/>
<path d="M6.33075 8.91682C6.24815 8.91682 6.16554 8.88668 6.1008 8.82529C5.96629 8.69803 5.9607 8.48594 6.08796 8.35198C6.14991 8.28668 7.62842 6.7518 9.47475 7.10343C9.6567 7.13803 9.77559 7.31329 9.74098 7.49524C9.70638 7.67719 9.53056 7.79608 9.34917 7.76147C7.85838 7.47738 6.58694 8.79905 6.5741 8.81245C6.50824 8.88166 6.41949 8.91682 6.33075 8.91682Z" fill="#0023CE"/>
<path d="M17.7541 8.91685C17.6653 8.91685 17.5772 8.88168 17.5113 8.81247C17.494 8.79461 16.2159 7.47908 14.7357 7.76094C14.5537 7.79554 14.3785 7.6761 14.3439 7.49471C14.3093 7.31331 14.4287 7.1375 14.6101 7.10289C16.4564 6.75127 17.9349 8.28559 17.9969 8.35145C18.1241 8.48596 18.118 8.6975 17.984 8.82475C17.9193 8.88671 17.8367 8.91685 17.7541 8.91685Z" fill="#0023CE"/>
<path d="M11.9378 18.2701C11.4595 18.2701 11.0353 18.2043 10.6797 18.115C9.56459 17.8353 8.87919 17.2783 8.85073 17.2549C8.70784 17.1371 8.68719 16.9261 8.80496 16.7833C8.92217 16.6409 9.13259 16.6197 9.27547 16.7369C9.28161 16.7419 9.89333 17.2331 10.8712 17.472C12.1689 17.7885 13.4738 17.5339 14.7497 16.714C14.9054 16.6141 15.1125 16.6593 15.2124 16.8151C15.3123 16.9708 15.2671 17.1779 15.1114 17.2778C13.9331 18.0352 12.8403 18.2701 11.9378 18.2701Z" fill="#0023CE"/>
<path d="M8.41451 9.75629C7.90382 9.75629 7.49023 10.1699 7.49023 10.6806C7.49023 11.1913 7.90382 11.6048 8.41451 11.6048C8.92521 11.6048 9.33879 11.1913 9.33879 10.6806C9.33879 10.1699 8.92521 9.75629 8.41451 9.75629Z" fill="#0023CE"/>
<path d="M15.6528 9.75629C15.1421 9.75629 14.7285 10.1699 14.7285 10.6806C14.7285 11.1913 15.1421 11.6048 15.6528 11.6048C16.1635 11.6048 16.5771 11.1913 16.5771 10.6806C16.5771 10.1699 16.1629 9.75629 15.6528 9.75629Z" fill="#0023CE"/>
</svg>
