<svg width="24" height="24" viewBox="0 0 24 24" fill="none" xmlns="http://www.w3.org/2000/svg">
<path d="M12.0005 22.1001C6.43137 22.1001 1.90039 17.5691 1.90039 12C1.90039 6.43088 6.43137 1.8999 12.0005 1.8999C17.5696 1.8999 22.1006 6.43088 22.1006 12C22.1006 17.5691 17.5696 22.1001 12.0005 22.1001ZM12.0005 2.56967C6.8003 2.56967 2.57016 6.79981 2.57016 12C2.57016 17.2002 6.8003 21.4303 12.0005 21.4303C17.2007 21.4303 21.4308 17.2002 21.4308 12C21.4308 6.79981 17.2007 2.56967 12.0005 2.56967Z" fill="#0023CE"/>
<path d="M6.33075 8.86104C6.24815 8.86104 6.16554 8.8309 6.1008 8.7695C5.96629 8.64225 5.9607 8.43015 6.08796 8.2962C6.14991 8.2309 7.62842 6.69601 9.47475 7.04764C9.6567 7.08225 9.77559 7.2575 9.74098 7.43945C9.70638 7.62141 9.53056 7.74029 9.34917 7.70569C7.85838 7.42159 6.58694 8.74327 6.5741 8.75666C6.50824 8.82587 6.41949 8.86104 6.33075 8.86104Z" fill="#0023CE"/>
<path d="M17.7541 8.86103C17.6653 8.86103 17.5772 8.82587 17.5113 8.75666C17.494 8.7388 16.2159 7.42326 14.7357 7.70512C14.5537 7.73973 14.3785 7.62029 14.3439 7.43889C14.3093 7.25749 14.4287 7.08168 14.6101 7.04708C16.4564 6.69545 17.9349 8.22977 17.9969 8.29563C18.1241 8.43015 18.118 8.64168 17.984 8.76894C17.9193 8.83089 17.8367 8.86103 17.7541 8.86103Z" fill="#0023CE"/>
<path d="M9.33897 16.8452C9.23738 16.8452 9.13692 16.7995 9.07162 16.7124C8.96055 16.565 8.98901 16.3557 9.1358 16.2441C9.16092 16.2251 9.76706 15.7708 10.7734 15.5392C11.6943 15.3271 13.146 15.2651 14.8311 16.176C14.994 16.2642 15.0543 16.4674 14.9661 16.6298C14.8779 16.7928 14.6748 16.853 14.5124 16.7648C13.3179 16.1191 12.1207 15.9237 10.9542 16.1844C10.0785 16.3797 9.54548 16.7738 9.5399 16.7777C9.47962 16.8235 9.40873 16.8452 9.33897 16.8452Z" fill="#0023CE"/>
<path d="M8.41451 9.70047C7.90382 9.70047 7.49023 10.1141 7.49023 10.6247C7.49023 10.8882 7.60075 11.1254 7.77768 11.2934H9.05135C9.22828 11.1248 9.33879 10.8882 9.33879 10.6247C9.33879 10.1141 8.92521 9.70047 8.41451 9.70047Z" fill="#0023CE"/>
<path d="M15.6528 9.70047C15.1421 9.70047 14.7285 10.1141 14.7285 10.6247C14.7285 10.8882 14.839 11.1254 15.016 11.2934H16.2896C16.4666 11.1248 16.5771 10.8882 16.5771 10.6247C16.5771 10.1141 16.1629 9.70047 15.6528 9.70047Z" fill="#0023CE"/>
</svg>
