<svg width="40" height="40" viewBox="0 0 40 40" fill="none" xmlns="http://www.w3.org/2000/svg">
<path fill-rule="evenodd" clip-rule="evenodd" d="M20 40C31.0457 40 40 31.0457 40 20C40 8.9543 31.0457 0 20 0C8.9543 0 0 8.9543 0 20C0 31.0457 8.9543 40 20 40ZM10.3984 12.381H28.9601C29.3704 12.381 29.7638 12.544 30.0539 12.8343C30.344 13.1245 30.507 13.5181 30.507 13.9286V26.3096C30.507 26.72 30.344 27.1136 30.0539 27.4039C29.7638 27.6941 29.3704 27.8572 28.9601 27.8572H10.3984C9.98814 27.8572 9.5947 27.6941 9.30461 27.4039C9.01453 27.1136 8.85156 26.72 8.85156 26.3096V13.9286C8.85156 13.5181 9.01453 13.1245 9.30461 12.8343C9.5947 12.544 9.98814 12.381 10.3984 12.381ZM19.6793 19.175L27.2586 13.9286H12.0999L19.6793 19.175ZM10.3984 14.6328V26.3096H28.9601V14.6328L20.1201 20.7536C19.9906 20.8435 19.8368 20.8916 19.6793 20.8916C19.5217 20.8916 19.3679 20.8435 19.2384 20.7536L10.3984 14.6328Z" fill="#0023CE"/>
</svg>
