<svg width="40" height="40" viewBox="0 0 40 40" fill="none" xmlns="http://www.w3.org/2000/svg">
<path d="M20.1531 0.952393C9.54913 0.952393 0.953125 9.54839 0.953125 20.1524C0.953125 30.7564 9.54913 39.3524 20.1531 39.3524C30.7571 39.3524 39.3531 30.7564 39.3531 20.1524C39.3531 9.54839 30.7571 0.952393 20.1531 0.952393ZM15.4531 28.1104H11.5651V15.5984H15.4531V28.1104ZM13.4851 14.0624C12.2571 14.0624 11.4631 13.1924 11.4631 12.1164C11.4631 11.0184 12.2811 10.1744 13.5351 10.1744C14.7891 10.1744 15.5571 11.0184 15.5811 12.1164C15.5811 13.1924 14.7891 14.0624 13.4851 14.0624ZM29.6531 28.1104H25.7651V21.1764C25.7651 19.5624 25.2011 18.4664 23.7951 18.4664C22.7211 18.4664 22.0831 19.2084 21.8011 19.9224C21.6971 20.1764 21.6711 20.5364 21.6711 20.8944V28.1084H17.7811V19.5884C17.7811 18.0264 17.7311 16.7204 17.6791 15.5964H21.0571L21.2351 17.3344H21.3131C21.8251 16.5184 23.0791 15.3144 25.1771 15.3144C27.7351 15.3144 29.6531 17.0284 29.6531 20.7124V28.1104Z" fill="#0023CE"/>
</svg>
