<svg width="42" height="42" viewBox="0 0 42 42" fill="none" xmlns="http://www.w3.org/2000/svg">
<path d="M21 24.675C19.0312 24.675 17.325 23.1 17.325 21C17.325 19.0312 18.9 17.325 21 17.325C22.9688 17.325 24.675 18.9 24.675 21C24.675 22.9687 22.9688 24.675 21 24.675Z" fill="#0038D7" fill-opacity="0.8"/>
<path fill-rule="evenodd" clip-rule="evenodd" d="M25.4625 12.075H16.5375C15.4875 12.2062 14.9625 12.3375 14.5688 12.4687C14.0438 12.6 13.65 12.8625 13.2563 13.2562C12.9447 13.5678 12.7975 13.8794 12.6195 14.256C12.5726 14.3552 12.5235 14.4593 12.4688 14.5687C12.4484 14.6297 12.425 14.6937 12.3999 14.7624C12.2626 15.1375 12.075 15.6499 12.075 16.5375V25.4625C12.2063 26.5125 12.3375 27.0375 12.4688 27.4312C12.6 27.9562 12.8625 28.35 13.2563 28.7437C13.5678 29.0553 13.8794 29.2025 14.256 29.3805C14.3553 29.4274 14.4592 29.4765 14.5688 29.5312C14.6297 29.5515 14.6937 29.575 14.7624 29.6001C15.1375 29.7374 15.6499 29.925 16.5375 29.925H25.4625C26.5125 29.7937 27.0375 29.6625 27.4312 29.5312C27.9562 29.4 28.35 29.1375 28.7437 28.7437C29.0553 28.4322 29.2025 28.1206 29.3805 27.744C29.4274 27.6447 29.4765 27.5408 29.5312 27.4312C29.5516 27.3703 29.575 27.3063 29.6001 27.2376C29.7374 26.8625 29.925 26.3501 29.925 25.4625V16.5375C29.7937 15.4875 29.6625 14.9625 29.5312 14.5687C29.4 14.0437 29.1375 13.65 28.7437 13.2562C28.4322 12.9447 28.1206 12.7975 27.744 12.6195C27.6448 12.5727 27.5406 12.5234 27.4312 12.4687C27.3703 12.4484 27.3063 12.425 27.2376 12.3999C26.8625 12.2626 26.3501 12.075 25.4625 12.075ZM21 15.3562C17.85 15.3562 15.3562 17.85 15.3562 21C15.3562 24.15 17.85 26.6437 21 26.6437C24.15 26.6437 26.6437 24.15 26.6437 21C26.6437 17.85 24.15 15.3562 21 15.3562ZM28.0875 15.225C28.0875 15.9499 27.4999 16.5375 26.775 16.5375C26.0501 16.5375 25.4625 15.9499 25.4625 15.225C25.4625 14.5001 26.0501 13.9125 26.775 13.9125C27.4999 13.9125 28.0875 14.5001 28.0875 15.225Z" fill="#0038D7" fill-opacity="0.8"/>
<path fill-rule="evenodd" clip-rule="evenodd" d="M0 21C0 9.40202 9.40202 0 21 0C32.598 0 42 9.40202 42 21C42 32.598 32.598 42 21 42C9.40202 42 0 32.598 0 21ZM16.5375 10.1062H25.4625C26.6437 10.2375 27.4312 10.3687 28.0875 10.6312C28.875 11.025 29.4 11.2875 30.0562 11.9437C30.7125 12.6 31.1063 13.2562 31.3688 13.9125C31.6313 14.5687 31.8937 15.3562 31.8937 16.5375V25.4625C31.7625 26.6437 31.6313 27.4312 31.3688 28.0875C30.975 28.875 30.7125 29.4 30.0562 30.0562C29.4 30.7125 28.7437 31.1062 28.0875 31.3687C27.4312 31.6312 26.6437 31.8937 25.4625 31.8937H16.5375C15.3563 31.7625 14.5688 31.6312 13.9125 31.3687C13.125 30.975 12.6 30.7125 11.9438 30.0562C11.2875 29.4 10.8938 28.7437 10.6313 28.0875C10.3688 27.4312 10.1062 26.6437 10.1062 25.4625V16.5375C10.2375 15.3562 10.3688 14.5687 10.6313 13.9125C11.025 13.125 11.2875 12.6 11.9438 11.9437C12.6 11.2875 13.2563 10.8937 13.9125 10.6312C14.5688 10.3687 15.3563 10.1062 16.5375 10.1062Z" fill="#0038D7" fill-opacity="0.8"/>
</svg>
