<svg width="42" height="42" viewBox="0 0 42 42" fill="none" xmlns="http://www.w3.org/2000/svg">
<path fill-rule="evenodd" clip-rule="evenodd" d="M21 0C9.40203 0 0 9.40202 0 21C0 32.598 9.40203 42 21 42C32.598 42 42 32.598 42 21C42 9.40202 32.598 0 21 0ZM25.0927 10.5C25.0927 10.8121 25.1218 11.1194 25.1755 11.4168C25.4338 12.7917 26.2474 13.9716 27.3777 14.7078C28.1669 15.2246 29.1023 15.5221 30.1107 15.5221L30.1105 16.3265V19.1301C28.2397 19.1301 26.5055 18.5304 25.0926 17.5162V24.8543C25.0926 28.516 22.1112 31.5 18.4526 31.5C17.0398 31.5 15.7244 31.0513 14.6477 30.2956C12.9329 29.0913 11.8125 27.102 11.8125 24.8543C11.8125 21.1877 14.7891 18.2086 18.4477 18.2134C18.7546 18.2134 19.0518 18.2378 19.3441 18.2769V19.1301L19.3334 19.1352L19.3441 19.135V21.9629C19.0615 21.8752 18.7595 21.8215 18.4477 21.8215C16.7767 21.8215 15.4175 23.1819 15.4175 24.8543C15.4175 26.0196 16.08 27.0289 17.0446 27.5409C17.0536 27.5532 17.0628 27.5655 17.072 27.5777L17.0881 27.599C17.077 27.5776 17.0642 27.5565 17.0496 27.536C17.4734 27.7603 17.9508 27.887 18.4575 27.887C20.0894 27.887 21.4243 26.5852 21.4827 24.9665L21.4876 10.5H25.0927Z" fill="#0038D7" fill-opacity="0.8"/>
</svg>
