<svg width="42" height="42" viewBox="0 0 42 42" fill="none" xmlns="http://www.w3.org/2000/svg">
<path fill-rule="evenodd" clip-rule="evenodd" d="M0 21C0 9.40202 9.40202 0 21 0C32.598 0 42 9.40202 42 21C42 32.598 32.598 42 21 42C9.40202 42 0 32.598 0 21ZM29.0063 15.0938C29.925 14.9625 30.7125 14.8313 31.5 14.4375C30.975 15.3562 30.1875 16.1438 29.2687 16.6687C29.5312 22.8375 25.0688 29.5312 17.0625 29.5312C14.7 29.5312 12.4688 28.7437 10.5 27.5625C12.7312 27.825 15.0938 27.1687 16.6687 25.9875C14.7 25.9875 13.125 24.675 12.6 22.9688C13.2563 23.1 13.9125 22.9688 14.5688 22.8375C12.6 22.3125 11.1562 20.475 11.1562 18.5063C11.8125 18.7688 12.4688 19.0312 13.125 19.0312C11.2875 17.7188 10.6313 15.225 11.8125 13.2563C14.0437 15.8813 17.1938 17.5875 20.7375 17.7188C20.0813 15.0938 22.1812 12.4688 24.9375 12.4688C26.1187 12.4688 27.3 12.9937 28.0875 13.7812C29.1375 13.5188 30.0562 13.2562 30.8438 12.7312C30.5812 13.7812 29.925 14.5688 29.0063 15.0938Z" fill="#0038D7" fill-opacity="0.8"/>
</svg>
