<svg width="236" height="165" viewBox="0 0 236 165" fill="none" xmlns="http://www.w3.org/2000/svg">
<path d="M111.939 55.8486V72.9128H162.381C162.381 72.9128 159.74 106.135 121.551 125.822C160.909 123.145 186.369 90.1604 179.961 55.8486H111.939Z" fill="url(#paint0_linear_1501_5900)"/>
<path d="M159.74 78.6328C159.74 78.6328 153.289 100.954 124.799 107.948C96.3083 114.943 73.0138 102.163 65.0474 96.6367C70.2436 105.53 88.1682 126.599 119.863 125.822C136.552 116.121 155.713 100.349 159.74 78.6328Z" fill="#19ACDC"/>
<path d="M62.4494 34.5093C62.4494 34.5093 52.2465 45.5914 55.8246 71.9399C57.5137 84.3742 63.2285 94.0884 63.2285 94.0884C63.2285 94.0884 91.8054 115.718 124.669 106.91C99.8586 107.688 61.9299 92.923 62.4494 34.5093Z" fill="url(#paint1_linear_1501_5900)"/>
<path d="M83.8392 91.0238C83.8392 91.0238 67.6451 76.474 65.0477 52.8583C62.9619 33.8955 64.0088 30.2356 64.0088 30.2356C64.0088 30.2356 78.2964 2.57551 114.927 0C81.2841 21.0394 59.5918 56.5277 83.8392 91.0238Z" fill="#19ACDC"/>
<path d="M77.1279 46.2964C77.1279 46.2964 88.0821 18.0611 120.642 18.8381C142.293 19.3544 153.116 35.416 153.116 35.416H175.068C175.068 35.416 160.13 0 118.824 0C112.676 2.86468 87.3897 15.4705 77.1279 46.2964Z" fill="url(#paint2_linear_1501_5900)"/>
<path d="M11.9614 164.662C10.246 164.662 8.65977 164.342 7.20416 163.699C5.74855 163.057 4.48495 162.178 3.41256 161.062C2.34018 159.947 1.50521 158.624 0.906874 157.09C0.307739 155.558 0.00976562 153.902 0.00976562 152.121C0.00976562 150.318 0.309333 148.673 0.908467 147.186C1.50681 145.698 2.34336 144.43 3.41655 143.383C4.49053 142.335 5.75652 141.524 7.21372 140.949C8.67172 140.373 10.2596 140.087 11.9773 140.087H25.3352V144.38H11.9773C10.8699 144.38 9.84609 144.577 8.90914 144.971C7.97061 145.366 7.16353 145.913 6.48472 146.611C5.80671 147.31 5.27609 148.144 4.89128 149.113C4.50646 150.082 4.31525 151.152 4.31525 152.324C4.31525 153.473 4.50646 154.543 4.89128 155.536C5.27609 156.527 5.80591 157.378 6.48472 158.087C7.16353 158.798 7.97061 159.355 8.90914 159.761C9.84609 160.166 10.8691 160.37 11.9773 160.37H22.5203V153.981H11.4005V150.363H26.8266V164.663H11.9614V164.662Z" fill="url(#paint3_linear_1501_5900)"/>
<path d="M30.8254 164.663V140.087H52.862V144.38H35.1309V160.37H52.8954V164.663H30.8254ZM38.2501 153.981V150.363H51.9131V153.981H38.2501Z" fill="url(#paint4_linear_1501_5900)"/>
<path d="M82.2549 164.664L78.5589 158.478H66.8973L68.9314 154.996H76.4914L70.9996 145.801L59.8113 164.664H54.8955L69.0668 141.137C69.3154 140.709 69.6086 140.371 69.9488 140.122C70.2874 139.874 70.6945 139.75 71.1685 139.75C71.6434 139.75 72.0449 139.874 72.3724 140.122C72.699 140.371 72.9875 140.709 73.2368 141.137L87.4408 164.664H82.2549Z" fill="url(#paint5_linear_1501_5900)"/>
<path d="M112.972 164.663L106.734 157.835H97.5128V154.049H107.785C109.344 154.049 110.52 153.631 111.31 152.798C112.102 151.965 112.498 150.736 112.498 149.114C112.498 147.491 112.085 146.297 111.262 145.53C110.439 144.764 109.283 144.381 107.794 144.381H94.3936V164.664H90.0881V140.087H107.785C109.186 140.087 110.441 140.296 111.549 140.713C112.655 141.13 113.593 141.726 114.363 142.504C115.131 143.282 115.719 144.222 116.126 145.327C116.532 146.432 116.735 147.671 116.735 149.045C116.735 151.096 116.295 152.814 115.414 154.2C114.532 155.586 113.278 156.584 111.651 157.192L119.075 164.663H112.972Z" fill="url(#paint6_linear_1501_5900)"/>
<path d="M151.993 164.662L147.281 147.389L140.297 163.377C140.049 163.896 139.749 164.296 139.398 164.578C139.048 164.859 138.613 164.999 138.093 164.999C137.098 164.999 136.365 164.459 135.89 163.377L128.941 147.389L124.227 164.662H119.99L126.33 141.54C126.623 140.369 127.335 139.782 128.466 139.782C128.918 139.782 129.341 139.906 129.737 140.155C130.132 140.403 130.431 140.763 130.636 141.236L138.23 158.612L145.824 141.236C146.23 140.268 146.919 139.782 147.891 139.782C148.93 139.782 149.62 140.369 149.961 141.54L156.266 164.662H151.993Z" fill="url(#paint7_linear_1501_5900)"/>
<path d="M159.11 164.663V140.087H181.147V144.38H163.416V160.37H181.18V164.663H159.11ZM166.535 153.981V150.363H180.197V153.981H166.535Z" fill="url(#paint8_linear_1501_5900)"/>
<path d="M188.844 146.679V164.662H184.742V142.351C184.742 141.563 184.94 140.937 185.336 140.475C185.731 140.013 186.268 139.782 186.946 139.782C187.262 139.782 187.567 139.85 187.861 139.986C188.154 140.12 188.46 140.345 188.777 140.661L206.168 157.867V139.883H210.271V162.397C210.271 163.208 210.072 163.839 209.677 164.289C209.281 164.741 208.767 164.966 208.134 164.966C207.433 164.966 206.778 164.661 206.168 164.053L188.844 146.679Z" fill="url(#paint9_linear_1501_5900)"/>
<path d="M222.337 164.663V144.38H212.981V140.087H236V144.38H226.643V164.663H222.337Z" fill="url(#paint10_linear_1501_5900)"/>
<defs>
<linearGradient id="paint0_linear_1501_5900" x1="145.483" y1="125.922" x2="146.516" y2="55.9814" gradientUnits="userSpaceOnUse">
<stop stop-color="#0C619B"/>
<stop offset="1" stop-color="#13A0D2"/>
</linearGradient>
<linearGradient id="paint1_linear_1501_5900" x1="107.338" y1="118.75" x2="50.917" y2="41.4" gradientUnits="userSpaceOnUse">
<stop stop-color="#0C619B"/>
<stop offset="1" stop-color="#13A0D2"/>
</linearGradient>
<linearGradient id="paint2_linear_1501_5900" x1="125.882" y1="36.4764" x2="124.333" y2="4.87344" gradientUnits="userSpaceOnUse">
<stop stop-color="#0C619B"/>
<stop offset="1" stop-color="#13A0D2"/>
</linearGradient>
<linearGradient id="paint3_linear_1501_5900" x1="-2.68088" y1="152.374" x2="239.199" y2="152.374" gradientUnits="userSpaceOnUse">
<stop offset="0.22" stop-color="#0A5F9A"/>
<stop offset="0.76" stop-color="#12ABDD"/>
<stop offset="0.9619" stop-color="#12ABDD"/>
</linearGradient>
<linearGradient id="paint4_linear_1501_5900" x1="-1.79181" y1="152.375" x2="235.66" y2="152.375" gradientUnits="userSpaceOnUse">
<stop offset="0.22" stop-color="#0A5F9A"/>
<stop offset="0.76" stop-color="#12ABDD"/>
<stop offset="0.9619" stop-color="#12ABDD"/>
</linearGradient>
<linearGradient id="paint5_linear_1501_5900" x1="-2.44578" y1="152.207" x2="239.769" y2="152.207" gradientUnits="userSpaceOnUse">
<stop offset="0.22" stop-color="#0A5F9A"/>
<stop offset="0.76" stop-color="#12ABDD"/>
<stop offset="0.9619" stop-color="#12ABDD"/>
</linearGradient>
<linearGradient id="paint6_linear_1501_5900" x1="-2.44466" y1="152.375" x2="239.771" y2="152.375" gradientUnits="userSpaceOnUse">
<stop offset="0.22" stop-color="#0A5F9A"/>
<stop offset="0.76" stop-color="#12ABDD"/>
<stop offset="0.9619" stop-color="#12ABDD"/>
</linearGradient>
<linearGradient id="paint7_linear_1501_5900" x1="-2.44531" y1="152.391" x2="239.772" y2="152.391" gradientUnits="userSpaceOnUse">
<stop offset="0.22" stop-color="#0A5F9A"/>
<stop offset="0.76" stop-color="#12ABDD"/>
<stop offset="0.9619" stop-color="#12ABDD"/>
</linearGradient>
<linearGradient id="paint8_linear_1501_5900" x1="0.727892" y1="152.375" x2="238.183" y2="152.375" gradientUnits="userSpaceOnUse">
<stop offset="0.22" stop-color="#0A5F9A"/>
<stop offset="0.76" stop-color="#12ABDD"/>
<stop offset="0.9619" stop-color="#12ABDD"/>
</linearGradient>
<linearGradient id="paint9_linear_1501_5900" x1="1.01116" y1="152.374" x2="238.755" y2="152.374" gradientUnits="userSpaceOnUse">
<stop offset="0.22" stop-color="#0A5F9A"/>
<stop offset="0.76" stop-color="#12ABDD"/>
<stop offset="0.9619" stop-color="#12ABDD"/>
</linearGradient>
<linearGradient id="paint10_linear_1501_5900" x1="-2.05544" y1="152.375" x2="239.281" y2="152.375" gradientUnits="userSpaceOnUse">
<stop offset="0.22" stop-color="#0A5F9A"/>
<stop offset="0.76" stop-color="#12ABDD"/>
<stop offset="0.9619" stop-color="#12ABDD"/>
</linearGradient>
</defs>
</svg>
