<svg width="254" height="333" viewBox="0 0 254 333" fill="none" xmlns="http://www.w3.org/2000/svg">
<path d="M1.44595 48.226C1.32111 48.4723 1.02022 48.5707 0.773911 48.4459C0.527603 48.321 0.429153 48.0201 0.554016 47.7738L1.44595 48.226ZM251.996 330.437L251.994 329.937L252.994 329.933L252.996 330.433L251.996 330.437ZM252.962 325.332L252.967 325.832L251.967 325.842L251.962 325.342L252.962 325.332ZM251.894 320.289L251.886 319.789L252.885 319.772L252.894 320.272L251.894 320.289ZM252.792 315.255L252.804 315.755L251.805 315.778L251.793 315.278L252.792 315.255ZM251.658 310.31L251.643 309.81L252.643 309.78L252.658 310.279L251.658 310.31ZM252.491 305.346L252.509 305.846L251.51 305.883L251.491 305.383L252.491 305.346ZM251.284 300.331L251.262 299.831L252.261 299.787L252.283 300.286L251.284 300.331ZM252.038 295.2L252.064 295.7L251.065 295.752L251.039 295.252L252.038 295.2ZM250.759 290.22L250.73 289.721L251.728 289.661L251.758 290.161L250.759 290.22ZM251.442 285.167L251.476 285.666L250.478 285.732L250.445 285.233L251.442 285.167ZM250.096 280.293L250.058 279.794L251.056 279.72L251.093 280.219L250.096 280.293ZM250.706 275.275L250.747 275.773L249.75 275.855L249.709 275.356L250.706 275.275ZM249.271 270.268L249.226 269.77L250.222 269.681L250.267 270.179L249.271 270.268ZM249.791 265.133L249.84 265.631L248.845 265.728L248.796 265.231L249.791 265.133ZM248.285 260.244L248.232 259.746L249.227 259.64L249.28 260.138L248.285 260.244ZM248.732 255.193L248.789 255.689L247.796 255.803L247.739 255.307L248.732 255.193ZM247.157 250.42L247.096 249.924L248.088 249.801L248.149 250.298L247.157 250.42ZM247.503 245.234L247.568 245.73L246.577 245.861L246.511 245.365L247.503 245.234ZM245.825 240.342L245.755 239.847L246.746 239.708L246.815 240.203L245.825 240.342ZM246.091 235.227L246.165 235.721L245.176 235.87L245.102 235.375L246.091 235.227ZM244.341 230.463L244.262 229.969L245.25 229.812L245.329 230.305L244.341 230.463ZM244.53 225.439L244.613 225.932L243.627 226.099L243.544 225.605L244.53 225.439ZM242.673 220.588L242.585 220.096L243.569 219.92L243.657 220.412L242.673 220.588ZM242.741 215.42L242.834 215.911L241.851 216.097L241.758 215.605L242.741 215.42ZM240.805 210.683L240.708 210.192L241.688 209.997L241.786 210.488L240.805 210.683ZM240.793 205.616L240.895 206.105L239.916 206.31L239.814 205.82L240.793 205.616ZM238.779 200.989L238.672 200.501L239.649 200.286L239.756 200.775L238.779 200.989ZM238.633 195.784L238.745 196.271L237.771 196.495L237.658 196.008L238.633 195.784ZM236.498 191.093L236.38 190.607L237.352 190.372L237.47 190.858L236.498 191.093ZM236.267 185.999L236.39 186.484L235.421 186.729L235.298 186.245L236.267 185.999ZM234.06 181.462L233.932 180.978L234.898 180.723L235.026 181.206L234.06 181.462ZM233.709 176.341L233.842 176.823L232.878 177.089L232.745 176.608L233.709 176.341ZM231.362 171.723L231.223 171.242L232.184 170.964L232.323 171.445L231.362 171.723ZM230.896 166.621L231.041 167.1L230.083 167.389L229.939 166.91L230.896 166.621ZM228.476 162.17L228.325 161.693L229.279 161.393L229.429 161.869L228.476 162.17ZM227.904 157.13L228.06 157.605L227.11 157.917L226.954 157.442L227.904 157.13ZM225.333 152.614L225.171 152.141L226.117 151.817L226.279 152.29L225.333 152.614ZM224.613 147.528L224.781 147.999L223.84 148.335L223.671 147.864L224.613 147.528ZM221.969 143.194L221.795 142.726L222.732 142.377L222.907 142.846L221.969 143.194ZM221.148 138.21L221.328 138.676L220.395 139.037L220.215 138.571L221.148 138.21ZM218.342 133.83L218.155 133.366L219.082 132.992L219.269 133.456L218.342 133.83ZM217.349 128.788L217.543 129.249L216.62 129.636L216.427 129.175L217.349 128.788ZM214.472 124.608L214.271 124.15L215.188 123.749L215.388 124.208L214.472 124.608ZM213.364 119.662L213.57 120.117L212.66 120.53L212.453 120.075L213.364 119.662ZM210.313 115.457L210.099 115.005L211.003 114.578L211.217 115.03L210.313 115.457ZM209.029 110.494L209.25 110.942L208.353 111.384L208.132 110.935L209.029 110.494ZM205.91 106.509L205.683 106.063L206.573 105.608L206.801 106.053L205.91 106.509ZM204.473 101.594L204.708 102.035L203.825 102.506L203.59 102.064L204.473 101.594ZM201.171 97.6133L200.929 97.1761L201.803 96.6911L202.046 97.1283L201.171 97.6133ZM199.578 92.7672L199.828 93.2002L198.962 93.7002L198.712 93.2672L199.578 92.7672ZM196.214 89.0255L195.956 88.5969L196.813 88.0819L197.071 88.5105L196.214 89.0255ZM194.397 84.1516L194.662 84.5754L193.815 85.1062L193.549 84.6825L194.397 84.1516ZM190.841 80.4484L190.568 80.0298L191.405 79.483L191.679 79.9017L190.841 80.4484ZM188.922 75.7665L189.203 76.1798L188.377 76.7425L188.095 76.3291L188.922 75.7665ZM185.224 72.1996L184.935 71.792L185.75 71.2129L186.039 71.6205L185.224 72.1996ZM183.062 67.5186L183.36 67.9201L182.557 68.516L182.259 68.1144L183.062 67.5186ZM179.257 64.1552L178.95 63.76L179.741 63.1474L180.047 63.5426L179.257 64.1552ZM176.931 59.6114L177.246 59.9998L176.469 60.6295L176.154 60.241L176.931 59.6114ZM172.925 56.3475L172.601 55.9664L173.363 55.3191L173.687 55.7003L172.925 56.3475ZM170.408 51.9274L170.74 52.3009L169.993 52.9657L169.661 52.5922L170.408 51.9274ZM166.301 48.9064L165.96 48.541L166.691 47.8585L167.032 48.2239L166.301 48.9064ZM163.517 44.5534L163.868 44.9101L163.154 45.6108L162.804 45.2541L163.517 44.5534ZM159.276 41.7531L158.917 41.4055L159.612 40.6867L159.971 41.0343L159.276 41.7531ZM156.309 37.5856L156.678 37.9234L156.002 38.6606L155.633 38.3228L156.309 37.5856ZM151.87 34.9685L151.492 34.6411L152.147 33.8853L152.525 34.2127L151.87 34.9685ZM148.715 31.0056L149.102 31.3221L148.469 32.0963L148.082 31.7798L148.715 31.0056ZM144.133 28.6487L143.736 28.344L144.346 27.5511L144.742 27.8557L144.133 28.6487ZM140.696 24.8456L141.102 25.1377L140.518 25.9493L140.112 25.6571L140.696 24.8456ZM136.052 22.8316L135.637 22.5526L136.195 21.7227L136.61 22.0017L136.052 22.8316ZM132.332 19.2295L132.756 19.4941L132.227 20.3426L131.803 20.0779L132.332 19.2295ZM127.542 17.5217L127.109 17.2721L127.608 16.4057L128.042 16.6553L127.542 17.5217ZM123.618 14.2126L124.06 14.4462L123.593 15.3304L123.151 15.0968L123.618 14.2126ZM118.679 12.8418L118.228 12.6253L118.661 11.7239L119.112 11.9403L118.679 12.8418ZM114.56 9.86311L115.019 10.0615L114.622 10.9794L114.163 10.781L114.56 9.86311ZM109.498 8.8782L109.031 8.6992L109.389 7.76548L109.855 7.94447L109.498 8.8782ZM105.162 6.25902L105.636 6.41775L105.318 7.36602L104.844 7.20729L105.162 6.25902ZM100.024 5.71483L99.5433 5.57802L99.8169 4.61618L100.298 4.75299L100.024 5.71483ZM95.4459 3.49473L95.9327 3.60872L95.7047 4.58239L95.2179 4.4684L95.4459 3.49473ZM90.3051 3.44545L89.8132 3.35582L89.9924 2.37202L90.4844 2.46165L90.3051 3.44545ZM85.515 1.68685L86.0108 1.75105L85.8824 2.74277L85.3866 2.67857L85.515 1.68685ZM80.4105 2.16921L79.9119 2.13179L79.9867 1.1346L80.4853 1.17201L80.4105 2.16921ZM75.4517 0.934355L75.9516 0.943912L75.9325 1.94373L75.4326 1.93417L75.4517 0.934355ZM70.4389 1.9826L69.9393 2.00202L69.9005 1.00277L70.4001 0.983354L70.4389 1.9826ZM65.368 1.32909L65.8655 1.27984L65.964 2.27497L65.4664 2.32422L65.368 1.32909ZM60.5183 2.96788L60.0247 3.0477L59.8651 2.06052L60.3587 1.9807L60.5183 2.96788ZM55.4045 2.94275L55.8921 2.83192L56.1137 3.80704L55.6262 3.91787L55.4045 2.94275ZM50.8016 5.179L50.3222 5.32103L50.0382 4.36223L50.5176 4.22019L50.8016 5.179ZM45.7249 5.81215L46.194 5.63906L46.5402 6.57723L46.0711 6.75032L45.7249 5.81215ZM41.4564 8.62818L40.9998 8.83183L40.5924 7.91854L41.0491 7.71489L41.4564 8.62818ZM36.5019 9.92634L36.944 9.69289L37.411 10.5772L36.9688 10.8106L36.5019 9.92634ZM32.6482 13.2773L32.2224 13.5393L31.6983 12.6877L32.1242 12.4256L32.6482 13.2773ZM27.8995 15.2204L28.3073 14.9311L28.8859 15.7466L28.4781 16.0359L27.8995 15.2204ZM24.5223 19.0381L24.1338 19.3529L23.5042 18.576L23.8927 18.2612L24.5223 19.0381ZM20.0533 21.5794L20.4211 21.2408L21.0985 21.9765L20.7306 22.3151L20.0533 21.5794ZM17.1874 25.7826L16.8408 26.143L16.1201 25.4497L16.4668 25.0893L17.1874 25.7826ZM13.0562 28.8534L13.3809 28.4731L14.1414 29.1224L13.8168 29.5027L13.0562 28.8534ZM10.7083 33.3606L10.4056 33.7586L9.60966 33.1532L9.91234 32.7552L10.7083 33.3606ZM6.95303 36.8778L7.23344 36.4639L8.06139 37.0247L7.78098 37.4387L6.95303 36.8778ZM5.10571 41.6195L4.84714 42.0474L3.99124 41.5303L4.24982 41.1023L5.10571 41.6195ZM1.74442 45.4947L1.98132 45.0544L2.86195 45.5282L2.62505 45.9685L1.74442 45.4947ZM252 333C252 332.144 251.999 331.289 251.996 330.437L252.996 330.433C252.999 331.287 253 332.143 253 333H252ZM251.962 325.342C251.945 323.651 251.922 321.966 251.894 320.289L252.894 320.272C252.922 321.952 252.945 323.638 252.962 325.332L251.962 325.342ZM251.793 315.278C251.753 313.615 251.709 311.959 251.658 310.31L252.658 310.279C252.708 311.931 252.753 313.589 252.792 315.255L251.793 315.278ZM251.491 305.383C251.428 303.692 251.359 302.008 251.284 300.331L252.283 300.286C252.358 301.965 252.427 303.652 252.491 305.346L251.491 305.383ZM251.039 295.252C250.952 293.567 250.858 291.89 250.759 290.22L251.758 290.161C251.857 291.833 251.95 293.513 252.038 295.2L251.039 295.252ZM250.445 285.233C250.334 283.579 250.218 281.932 250.096 280.293L251.093 280.219C251.215 281.86 251.332 283.51 251.442 285.167L250.445 285.233ZM249.709 275.356C249.569 273.652 249.423 271.956 249.271 270.268L250.267 270.179C250.419 271.869 250.566 273.567 250.706 275.275L249.709 275.356ZM248.796 265.231C248.632 263.56 248.462 261.898 248.285 260.244L249.28 260.138C249.456 261.794 249.627 263.459 249.791 265.133L248.796 265.231ZM247.739 255.307C247.551 253.669 247.357 252.04 247.157 250.42L248.149 250.298C248.349 251.921 248.544 253.553 248.732 255.193L247.739 255.307ZM246.511 245.365C246.289 243.682 246.06 242.007 245.825 240.342L246.815 240.203C247.051 241.871 247.28 243.548 247.503 245.234L246.511 245.365ZM245.102 235.375C244.854 233.729 244.601 232.091 244.341 230.463L245.329 230.305C245.589 231.937 245.843 233.577 246.091 235.227L245.102 235.375ZM243.544 225.605C243.26 223.923 242.97 222.251 242.673 220.588L243.657 220.412C243.955 222.078 244.246 223.754 244.53 225.439L243.544 225.605ZM241.758 215.605C241.447 213.954 241.129 212.313 240.805 210.683L241.786 210.488C242.111 212.122 242.429 213.766 242.741 215.42L241.758 215.605ZM239.814 205.82C239.475 204.2 239.13 202.589 238.779 200.989L239.756 200.775C240.108 202.378 240.453 203.992 240.793 205.616L239.814 205.82ZM237.658 196.008C237.278 194.359 236.891 192.721 236.498 191.093L237.47 190.858C237.864 192.489 238.252 194.131 238.633 195.784L237.658 196.008ZM235.298 186.245C234.892 184.639 234.479 183.045 234.06 181.462L235.026 181.206C235.446 182.793 235.86 184.39 236.267 185.999L235.298 186.245ZM232.745 176.608C232.291 174.967 231.83 173.339 231.362 171.723L232.323 171.445C232.792 173.065 233.254 174.697 233.709 176.341L232.745 176.608ZM229.939 166.91C229.458 165.318 228.97 163.738 228.476 162.17L229.429 161.869C229.925 163.441 230.414 165.025 230.896 166.621L229.939 166.91ZM226.954 157.442C226.421 155.82 225.88 154.21 225.333 152.614L226.279 152.29C226.828 153.89 227.369 155.503 227.904 157.13L226.954 157.442ZM223.671 147.864C223.111 146.295 222.543 144.738 221.969 143.194L222.907 142.846C223.482 144.393 224.051 145.954 224.613 147.528L223.671 147.864ZM220.215 138.571C219.598 136.976 218.973 135.396 218.342 133.83L219.269 133.456C219.902 135.026 220.529 136.611 221.148 138.21L220.215 138.571ZM216.427 129.175C215.782 127.638 215.13 126.116 214.472 124.608L215.388 124.208C216.048 125.72 216.702 127.247 217.349 128.788L216.427 129.175ZM212.453 120.075C211.747 118.52 211.033 116.981 210.313 115.457L211.217 115.03C211.94 116.558 212.655 118.102 213.364 119.662L212.453 120.075ZM208.132 110.935C207.398 109.444 206.657 107.968 205.91 106.509L206.801 106.053C207.55 107.517 208.293 108.998 209.029 110.494L208.132 110.935ZM203.59 102.064C202.791 100.563 201.984 99.0795 201.171 97.6133L202.046 97.1283C202.861 98.5995 203.671 100.088 204.473 101.594L203.59 102.064ZM198.712 93.2672C197.885 91.8359 197.053 90.422 196.214 89.0255L197.071 88.5105C197.913 89.912 198.749 91.3309 199.578 92.7672L198.712 93.2672ZM193.549 84.6825C192.653 83.252 191.75 81.8406 190.841 80.4484L191.679 79.9017C192.591 81.2992 193.497 82.7158 194.397 84.1516L193.549 84.6825ZM188.095 76.3291C187.145 74.9323 186.187 73.5558 185.224 72.1996L186.039 71.6205C187.007 72.9822 187.968 74.3642 188.922 75.7665L188.095 76.3291ZM182.259 68.1144C181.264 66.7737 180.263 65.454 179.257 64.1552L180.047 63.5426C181.058 64.8469 182.063 66.1723 183.062 67.5186L182.259 68.1144ZM176.154 60.241C175.084 58.9201 174.007 57.6223 172.925 56.3475L173.687 55.7003C174.774 56.9809 175.856 58.2846 176.931 59.6114L176.154 60.241ZM169.661 52.5922C168.546 51.3397 167.426 50.1112 166.301 48.9064L167.032 48.2239C168.163 49.4346 169.288 50.6691 170.408 51.9274L169.661 52.5922ZM162.804 45.2541C161.633 44.0619 160.457 42.8949 159.276 41.7531L159.971 41.0343C161.158 42.1821 162.34 43.3551 163.517 44.5534L162.804 45.2541ZM155.633 38.3228C154.383 37.177 153.129 36.059 151.87 34.9685L152.525 34.2127C153.791 35.3093 155.052 36.4336 156.309 37.5856L155.633 38.3228ZM148.082 31.7798C146.769 30.7066 145.453 29.6629 144.133 28.6487L144.742 27.8557C146.07 28.8761 147.395 29.9261 148.715 31.0056L148.082 31.7798ZM140.112 25.6571C138.761 24.6849 137.408 23.743 136.052 22.8316L136.61 22.0017C137.975 22.9192 139.337 23.8671 140.696 24.8456L140.112 25.6571ZM131.803 20.0779C130.384 19.193 128.964 18.341 127.542 17.5217L128.042 16.6553C129.473 17.4805 130.904 18.3385 132.332 19.2295L131.803 20.0779ZM123.151 15.0968C121.661 14.3093 120.17 13.5577 118.679 12.8418L119.112 11.9403C120.614 12.6619 122.117 13.4193 123.618 14.2126L123.151 15.0968ZM114.163 10.781C112.606 10.108 111.051 9.47376 109.498 8.8782L109.855 7.94447C111.422 8.5451 112.99 9.1846 114.56 9.86311L114.163 10.781ZM104.844 7.20729C103.234 6.66826 101.627 6.17084 100.024 5.71483L100.298 4.75299C101.916 5.21324 103.537 5.7152 105.162 6.25902L104.844 7.20729ZM95.2179 4.4684C93.5746 4.08365 91.9366 3.74274 90.3051 3.44545L90.4844 2.46165C92.1324 2.76194 93.7866 3.10625 95.4459 3.49473L95.2179 4.4684ZM85.3866 2.67857C83.7196 2.46273 82.0605 2.29302 80.4105 2.16921L80.4853 1.17201C82.1534 1.29718 83.8304 1.46873 85.515 1.68685L85.3866 2.67857ZM75.4326 1.93417C73.7568 1.90213 72.0918 1.91836 70.4389 1.9826L70.4001 0.983354C72.0725 0.918352 73.7568 0.901952 75.4517 0.934355L75.4326 1.93417ZM65.4664 2.32422C63.8027 2.4889 62.1528 2.70353 60.5183 2.96788L60.3587 1.9807C62.0137 1.71305 63.6839 1.49577 65.368 1.32909L65.4664 2.32422ZM55.6262 3.91787C54.0004 4.28742 52.3918 4.70788 50.8016 5.179L50.5176 4.22019C52.1285 3.74292 53.7579 3.31703 55.4045 2.94275L55.6262 3.91787ZM46.0711 6.75032C44.5124 7.32547 42.9737 7.95151 41.4564 8.62818L41.0491 7.71489C42.5865 7.02923 44.1456 6.3949 45.7249 5.81215L46.0711 6.75032ZM36.9688 10.8106C35.5056 11.5832 34.065 12.4055 32.6482 13.2773L32.1242 12.4256C33.5596 11.5423 35.0193 10.7091 36.5019 9.92634L36.9688 10.8106ZM28.4781 16.0359C27.1347 16.9892 25.8157 17.99 24.5223 19.0381L23.8927 18.2612C25.2025 17.1997 26.5386 16.186 27.8995 15.2204L28.4781 16.0359ZM20.7306 22.3151C19.5236 23.4264 18.3422 24.5823 17.1874 25.7826L16.4668 25.0893C17.6354 23.8745 18.8313 22.7045 20.0533 21.5794L20.7306 22.3151ZM13.8168 29.5027C12.7542 30.7474 11.7176 32.0334 10.7083 33.3606L9.91234 32.7552C10.933 31.4133 11.9813 30.1126 13.0562 28.8534L13.8168 29.5027ZM7.78098 37.4387C6.8627 38.7943 5.97061 40.188 5.10571 41.6195L4.24982 41.1023C5.12354 39.6562 6.02493 38.248 6.95303 36.8778L7.78098 37.4387ZM2.62505 45.9685C2.22511 46.7119 1.83205 47.4643 1.44595 48.226L0.554016 47.7738C0.943756 47.005 1.34061 46.2453 1.74442 45.4947L2.62505 45.9685ZM1.89194 48.452C1.64223 48.9447 1.04045 49.1416 0.547836 48.8919C0.0552368 48.6421 -0.141678 48.0404 0.108032 47.5478L1.89194 48.452ZM251.496 330.438L251.492 329.438L253.492 329.432L253.496 330.432L251.496 330.438ZM253.462 325.327L253.472 326.327L251.472 326.347L251.462 325.347L253.462 325.327ZM251.394 320.297L251.377 319.298L253.377 319.264L253.394 320.264L251.394 320.297ZM253.292 315.243L253.316 316.243L251.316 316.29L251.293 315.29L253.292 315.243ZM251.159 310.325L251.128 309.326L253.127 309.265L253.158 310.264L251.159 310.325ZM252.99 305.327L253.028 306.327L251.029 306.401L250.992 305.402L252.99 305.327ZM250.785 300.353L250.74 299.354L252.738 299.265L252.783 300.264L250.785 300.353ZM252.537 295.175L252.589 296.173L250.592 296.277L250.54 295.278L252.537 295.175ZM250.26 290.25L250.201 289.251L252.197 289.133L252.257 290.131L250.26 290.25ZM251.941 285.133L252.008 286.131L250.012 286.265L249.946 285.267L251.941 285.133ZM249.597 280.33L249.523 279.333L251.517 279.184L251.591 280.182L249.597 280.33ZM251.204 275.234L251.286 276.23L249.293 276.394L249.211 275.397L251.204 275.234ZM248.773 270.313L248.683 269.317L250.675 269.138L250.765 270.134L248.773 270.313ZM250.289 265.084L250.387 266.079L248.396 266.275L248.299 265.28L250.289 265.084ZM247.788 260.297L247.682 259.302L249.671 259.09L249.777 260.085L247.788 260.297ZM249.229 255.135L249.343 256.129L247.356 256.357L247.242 255.364L249.229 255.135ZM246.661 250.481L246.538 249.489L248.523 249.244L248.646 250.236L246.661 250.481ZM247.998 245.168L248.129 246.16L246.147 246.422L246.016 245.43L247.998 245.168ZM245.33 240.412L245.19 239.422L247.171 239.143L247.31 240.133L245.33 240.412ZM246.585 235.152L246.734 236.141L244.756 236.438L244.607 235.449L246.585 235.152ZM243.847 230.542L243.69 229.554L245.665 229.239L245.822 230.227L243.847 230.542ZM245.023 225.356L245.19 226.342L243.218 226.675L243.051 225.689L245.023 225.356ZM242.181 220.676L242.005 219.692L243.974 219.34L244.15 220.325L242.181 220.676ZM243.232 215.327L243.418 216.31L241.452 216.681L241.267 215.698L243.232 215.327ZM240.315 210.78L240.12 209.799L242.081 209.409L242.276 210.39L240.315 210.78ZM241.282 205.513L241.487 206.492L239.529 206.901L239.324 205.922L241.282 205.513ZM238.291 201.096L238.076 200.12L240.03 199.691L240.244 200.668L238.291 201.096ZM239.12 195.671L239.345 196.646L237.396 197.095L237.171 196.121L239.12 195.671ZM236.012 191.211L235.777 190.239L237.721 189.769L237.956 190.741L236.012 191.211ZM236.752 185.876L236.998 186.846L235.059 187.337L234.813 186.367L236.752 185.876ZM233.576 181.59L233.32 180.623L235.254 180.111L235.51 181.078L233.576 181.59ZM234.191 176.207L234.458 177.171L232.53 177.705L232.263 176.741L234.191 176.207ZM230.882 171.862L230.604 170.901L232.525 170.345L232.803 171.306L230.882 171.862ZM231.375 166.476L231.664 167.434L229.749 168.012L229.46 167.055L231.375 166.476ZM227.999 162.32L227.698 161.367L229.606 160.765L229.906 161.719L227.999 162.32ZM228.379 156.974L228.691 157.924L226.791 158.549L226.479 157.599L228.379 156.974ZM224.86 152.776L224.536 151.83L226.428 151.181L226.752 152.127L224.86 152.776ZM225.084 147.36L225.42 148.302L223.537 148.974L223.201 148.033L225.084 147.36ZM221.501 143.369L221.152 142.431L223.027 141.734L223.375 142.672L221.501 143.369ZM221.614 138.03L221.975 138.962L220.11 139.684L219.749 138.752L221.614 138.03ZM217.878 134.017L217.504 133.089L219.359 132.341L219.733 133.269L217.878 134.017ZM217.81 128.595L218.197 129.517L216.353 130.291L215.966 129.369L217.81 128.595ZM214.013 124.808L213.613 123.891L215.446 123.091L215.846 124.008L214.013 124.808ZM213.819 119.455L214.232 120.365L212.411 121.192L211.998 120.282L213.819 119.455ZM209.861 115.671L209.434 114.767L211.242 113.912L211.669 114.816L209.861 115.671ZM209.478 110.273L209.919 111.17L208.125 112.053L207.683 111.156L209.478 110.273ZM205.465 106.736L205.01 105.846L206.79 104.935L207.246 105.825L205.465 106.736ZM204.914 101.359L205.384 102.242L203.619 103.182L203.149 102.299L204.914 101.359ZM200.734 97.8558L200.249 96.9813L201.998 96.0113L202.483 96.8858L200.734 97.8558ZM200.011 92.5172L200.511 93.3832L198.779 94.3832L198.279 93.5172L200.011 92.5172ZM195.785 89.283L195.27 88.4259L196.984 87.3958L197.499 88.253L195.785 89.283ZM194.82 83.8862L195.351 84.7337L193.656 85.7954L193.125 84.9479L194.82 83.8862ZM190.423 80.7218L189.876 79.8845L191.55 78.791L192.097 79.6283L190.423 80.7218ZM189.335 75.4851L189.898 76.3118L188.245 77.4371L187.682 76.6104L189.335 75.4851ZM184.816 72.4892L184.237 71.6739L185.868 70.5157L186.447 71.331L184.816 72.4892ZM183.463 67.2207L184.059 68.0238L182.453 69.2154L181.857 68.4123L183.463 67.2207ZM178.861 64.4615L178.249 63.6711L179.83 62.4459L180.442 63.2363L178.861 64.4615ZM177.32 59.2965L177.949 60.0734L176.396 61.3327L175.766 60.5559L177.32 59.2965ZM172.543 56.6711L171.896 55.9089L173.421 54.6144L174.068 55.3767L172.543 56.6711ZM170.781 51.595L171.446 52.3421L169.952 53.6716L169.287 52.9245L170.781 51.595ZM165.936 49.2477L165.253 48.5168L166.715 47.1518L167.398 47.8827L165.936 49.2477ZM163.874 44.203L164.575 44.9164L163.148 46.3179L162.447 45.6045L163.874 44.203ZM158.929 42.1125L158.21 41.4173L159.6 39.9797L160.319 40.6749L158.929 42.1125ZM156.647 37.217L157.384 37.8927L156.033 39.367L155.296 38.6914L156.647 37.217ZM151.543 35.3464L150.787 34.6916L152.096 33.18L152.852 33.8348L151.543 35.3464ZM149.032 30.6185L149.806 31.2515L148.54 32.7999L147.766 32.1669L149.032 30.6185ZM143.828 29.0451L143.035 28.4358L144.254 26.8499L145.047 27.4592L143.828 29.0451ZM140.988 24.4398L141.8 25.024L140.631 26.6472L139.82 26.0629L140.988 24.4398ZM135.773 23.2465L134.943 22.6886L136.059 21.0288L136.889 21.5868L135.773 23.2465ZM132.597 18.8053L133.445 19.3346L132.386 21.0314L131.538 20.5022L132.597 18.8053ZM127.293 17.955L126.426 17.4556L127.425 15.7228L128.291 16.2221L127.293 17.955ZM123.852 13.7705L124.736 14.2377L123.802 16.006L122.918 15.5389L123.852 13.7705ZM118.463 13.2925L117.561 12.8595L118.427 11.0567L119.329 11.4896L118.463 13.2925ZM114.758 9.40417L115.676 9.80106L114.882 11.6368L113.964 11.2399L114.758 9.40417ZM109.319 9.34506L108.385 8.98707L109.101 7.11962L110.035 7.47761L109.319 9.34506ZM105.32 5.78489L106.269 6.10235L105.634 7.99889L104.685 7.68143L105.32 5.78489ZM99.8874 6.19575L98.9255 5.92212L99.4728 3.99845L100.435 4.27208L99.8874 6.19575ZM95.5599 3.0079L96.5335 3.23587L96.0776 5.1832L95.1039 4.95524L95.5599 3.0079ZM90.2155 3.93735L89.2317 3.7581L89.5902 1.79049L90.574 1.96975L90.2155 3.93735ZM85.5792 1.19099L86.5709 1.31939L86.3141 3.30283L85.3224 3.17443L85.5792 1.19099ZM80.3731 2.6678L79.3759 2.59298L79.5255 0.598585L80.5227 0.673412L80.3731 2.6678ZM75.4613 0.434446L76.4611 0.453561L76.4228 2.4532L75.423 2.43408L75.4613 0.434446ZM70.4583 2.48222L69.4591 2.52106L69.3814 0.522569L70.3806 0.483731L70.4583 2.48222ZM65.3187 0.831517L66.3138 0.73302L66.5108 2.72329L65.5157 2.82179L65.3187 0.831517ZM60.5981 3.46146L59.6109 3.62111L59.2917 1.64676L60.2788 1.48711L60.5981 3.46146ZM55.2937 2.45518L56.2688 2.23353L56.7121 4.18378L55.737 4.40543L55.2937 2.45518ZM50.9437 5.6584L49.9848 5.94247L49.4167 4.02486L50.3755 3.74079L50.9437 5.6584ZM45.5518 5.34307L46.49 4.99689L47.1823 6.87323L46.2442 7.2194L45.5518 5.34307ZM41.66 9.08482L40.7468 9.49213L39.9321 7.66555L40.8454 7.25824L41.66 9.08482ZM36.2684 9.48419L37.1527 9.01728L38.0866 10.7859L37.2023 11.2528L36.2684 9.48419ZM32.9103 13.7031L32.0586 14.2272L31.0105 12.5239L31.8621 11.9998L32.9103 13.7031ZM27.6101 14.8126L28.4257 14.2339L29.583 15.8651L28.7675 16.4437L27.6101 14.8126ZM24.8371 19.4266L24.0602 20.0562L22.8009 18.5024L23.5779 17.8727L24.8371 19.4266ZM19.7146 21.2116L20.4503 20.5343L21.805 22.0056L21.0693 22.683L19.7146 21.2116ZM17.5478 26.1293L16.8545 26.8499L15.4132 25.4634L16.1064 24.7427L17.5478 26.1293ZM12.676 28.5288L13.3253 27.7682L14.8464 29.0668L14.1971 29.8273L12.676 28.5288ZM11.1063 33.6633L10.5009 34.4592L8.90901 33.2485L9.51436 32.4526L11.1063 33.6633ZM6.53906 36.5974L7.09987 35.7695L8.75577 36.8911L8.19495 37.7191L6.53906 36.5974ZM5.53366 41.878L5.01653 42.7339L3.30472 41.6996L3.82187 40.8437L5.53366 41.878ZM1.30411 45.2578L1.77792 44.3772L3.53917 45.3248L3.06535 46.2055L1.30411 45.2578ZM251.5 333C251.5 332.144 251.499 331.291 251.496 330.438L253.496 330.432C253.499 331.286 253.5 332.142 253.5 333H251.5ZM251.462 325.347C251.445 323.657 251.422 321.974 251.394 320.297L253.394 320.264C253.422 321.944 253.445 323.632 253.462 325.327L251.462 325.347ZM251.293 315.29C251.254 313.628 251.209 311.973 251.159 310.325L253.158 310.264C253.208 311.917 253.253 313.576 253.292 315.243L251.293 315.29ZM250.992 305.402C250.929 303.712 250.86 302.029 250.785 300.353L252.783 300.264C252.858 301.944 252.927 303.632 252.99 305.327L250.992 305.402ZM250.54 295.278C250.453 293.594 250.359 291.918 250.26 290.25L252.257 290.131C252.356 291.804 252.45 293.486 252.537 295.175L250.54 295.278ZM249.946 285.267C249.835 283.613 249.719 281.968 249.597 280.33L251.591 280.182C251.714 281.824 251.83 283.475 251.941 285.133L249.946 285.267ZM249.211 275.397C249.071 273.694 248.925 272 248.773 270.313L250.765 270.134C250.917 271.825 251.064 273.525 251.204 275.234L249.211 275.397ZM248.299 265.28C248.134 263.61 247.964 261.949 247.788 260.297L249.777 260.085C249.954 261.743 250.124 263.409 250.289 265.084L248.299 265.28ZM247.242 255.364C247.054 253.728 246.86 252.1 246.661 250.481L248.646 250.236C248.846 251.861 249.04 253.494 249.229 255.135L247.242 255.364ZM246.016 245.43C245.793 243.749 245.565 242.076 245.33 240.412L247.31 240.133C247.546 241.802 247.775 243.481 247.998 245.168L246.016 245.43ZM244.607 235.449C244.36 233.804 244.107 232.168 243.847 230.542L245.822 230.227C246.083 231.859 246.337 233.501 246.585 235.152L244.607 235.449ZM243.051 225.689C242.767 224.008 242.477 222.337 242.181 220.676L244.15 220.325C244.447 221.992 244.739 223.669 245.023 225.356L243.051 225.689ZM241.267 215.698C240.956 214.049 240.638 212.409 240.315 210.78L242.276 210.39C242.601 212.026 242.92 213.672 243.232 215.327L241.267 215.698ZM239.324 205.922C238.986 204.304 238.642 202.695 238.291 201.096L240.244 200.668C240.596 202.273 240.942 203.888 241.282 205.513L239.324 205.922ZM237.171 196.121C236.791 194.473 236.405 192.836 236.012 191.211L237.956 190.741C238.351 192.373 238.739 194.017 239.12 195.671L237.171 196.121ZM234.813 186.367C234.407 184.764 233.995 183.171 233.576 181.59L235.51 181.078C235.93 182.666 236.344 184.266 236.752 185.876L234.813 186.367ZM232.263 176.741C231.81 175.102 231.349 173.476 230.882 171.862L232.803 171.306C233.272 172.927 233.735 174.561 234.191 176.207L232.263 176.741ZM229.46 167.055C228.979 165.465 228.492 163.887 227.999 162.32L229.906 161.719C230.402 163.293 230.892 164.879 231.375 166.476L229.46 167.055ZM226.479 157.599C225.946 155.978 225.407 154.37 224.86 152.776L226.752 152.127C227.302 153.73 227.844 155.345 228.379 156.974L226.479 157.599ZM223.201 148.033C222.641 146.465 222.074 144.91 221.501 143.369L223.375 142.672C223.951 144.221 224.521 145.784 225.084 147.36L223.201 148.033ZM219.749 138.752C219.132 137.159 218.509 135.58 217.878 134.017L219.733 133.269C220.367 134.841 220.994 136.428 221.614 138.03L219.749 138.752ZM215.966 129.369C215.322 127.834 214.671 126.314 214.013 124.808L215.846 124.008C216.508 125.522 217.162 127.051 217.81 128.595L215.966 129.369ZM211.998 120.282C211.293 118.729 210.58 117.192 209.861 115.671L211.669 114.816C212.393 116.347 213.109 117.893 213.819 119.455L211.998 120.282ZM207.683 111.156C206.951 109.667 206.211 108.194 205.465 106.736L207.246 105.825C207.996 107.292 208.74 108.775 209.478 110.273L207.683 111.156ZM203.149 102.299C202.351 100.801 201.546 99.3195 200.734 97.8558L202.483 96.8858C203.3 98.3595 204.111 99.8505 204.914 101.359L203.149 102.299ZM198.279 93.5172C197.454 92.0884 196.622 90.677 195.785 89.283L197.499 88.253C198.343 89.657 199.18 91.0784 200.011 92.5172L198.279 93.5172ZM193.125 84.9479C192.231 83.52 191.33 82.1114 190.423 80.7218L192.097 79.6283C193.011 81.0285 193.919 82.4478 194.82 83.8862L193.125 84.9479ZM187.682 76.6104C186.733 75.2164 185.778 73.8426 184.816 72.4892L186.447 71.331C187.416 72.6954 188.379 74.0801 189.335 75.4851L187.682 76.6104ZM181.857 68.4123C180.864 67.0744 179.866 65.7575 178.861 64.4615L180.442 63.2363C181.455 64.5434 182.462 65.8716 183.463 67.2207L181.857 68.4123ZM175.766 60.5559C174.698 59.2379 173.623 57.943 172.543 56.6711L174.068 55.3767C175.158 56.6602 176.242 57.9668 177.32 59.2965L175.766 60.5559ZM169.287 52.9245C168.175 51.6751 167.058 50.4495 165.936 49.2477L167.398 47.8827C168.531 49.0963 169.659 50.3337 170.781 51.595L169.287 52.9245ZM162.447 45.6045C161.279 44.4153 160.106 43.2513 158.929 42.1125L160.319 40.6749C161.509 41.8257 162.694 43.0017 163.874 44.203L162.447 45.6045ZM155.296 38.6914C154.049 37.5487 152.798 36.4338 151.543 35.3464L152.852 33.8348C154.122 34.9345 155.387 36.0619 156.647 37.217L155.296 38.6914ZM147.766 32.1669C146.457 31.0968 145.144 30.0563 143.828 29.0451L145.047 27.4592C146.379 28.4828 147.707 29.5358 149.032 30.6185L147.766 32.1669ZM139.82 26.0629C138.474 25.0937 137.125 24.155 135.773 23.2465L136.889 21.5868C138.258 22.5073 139.625 23.4582 140.988 24.4398L139.82 26.0629ZM131.538 20.5022C130.124 19.6203 128.709 18.7713 127.293 17.955L128.291 16.2221C129.728 17.0502 131.163 17.9112 132.597 18.8053L131.538 20.5022ZM122.918 15.5389C121.433 14.7544 119.948 14.0056 118.463 13.2925L119.329 11.4896C120.837 12.214 122.345 12.9742 123.852 13.7705L122.918 15.5389ZM113.964 11.2399C112.414 10.5696 110.865 9.93808 109.319 9.34506L110.035 7.47761C111.608 8.08078 113.183 8.72293 114.758 9.40417L113.964 11.2399ZM104.685 7.68143C103.083 7.14479 101.483 6.64964 99.8874 6.19575L100.435 4.27208C102.06 4.73444 103.689 5.23867 105.32 5.78489L104.685 7.68143ZM95.1039 4.95524C93.4686 4.57235 91.8388 4.23313 90.2155 3.93735L90.574 1.96975C92.2303 2.27155 93.8926 2.61755 95.5599 3.0079L95.1039 4.95524ZM85.3224 3.17443C83.6642 2.95973 82.014 2.79094 80.3731 2.6678L80.5227 0.673412C82.1999 0.799261 83.8858 0.971731 85.5792 1.19099L85.3224 3.17443ZM75.423 2.43408C73.7568 2.40223 72.1015 2.41836 70.4583 2.48222L70.3806 0.483731C72.0628 0.41835 73.7568 0.40186 75.4613 0.434446L75.423 2.43408ZM65.5157 2.82179C63.8621 2.98546 62.2224 3.19878 60.5981 3.46146L60.2788 1.48711C61.9441 1.2178 63.6245 0.999204 65.3187 0.831517L65.5157 2.82179ZM55.737 4.40543C54.1217 4.77261 52.5235 5.19035 50.9437 5.6584L50.3755 3.74079C51.9968 3.26045 53.6367 2.83184 55.2937 2.45518L55.737 4.40543ZM46.2442 7.2194C44.6957 7.79076 43.1672 8.41265 41.66 9.08482L40.8454 7.25824C42.3929 6.56809 43.9622 5.92961 45.5518 5.34307L46.2442 7.2194ZM37.2023 11.2528C35.7488 12.0202 34.3177 12.8371 32.9103 13.7031L31.8621 11.9998C33.3069 11.1107 34.7761 10.2721 36.2684 9.48419L37.2023 11.2528ZM28.7675 16.4437C27.4328 17.3907 26.1222 18.3851 24.8371 19.4266L23.5779 17.8727C24.896 16.8045 26.2405 15.7844 27.6101 14.8126L28.7675 16.4437ZM21.0693 22.683C19.8698 23.7873 18.6955 24.9361 17.5478 26.1293L16.1064 24.7427C17.282 23.5207 18.4852 22.3436 19.7146 21.2116L21.0693 22.683ZM14.1971 29.8273C13.1406 31.0648 12.11 32.3435 11.1063 33.6633L9.51436 32.4526C10.5406 31.1032 11.5948 29.7952 12.676 28.5288L14.1971 29.8273ZM8.19495 37.7191C7.28157 39.0675 6.39415 40.4539 5.53366 41.878L3.82187 40.8437C4.7 39.3904 5.60606 37.9749 6.53906 36.5974L8.19495 37.7191ZM3.06535 46.2055C2.66737 46.9451 2.27618 47.694 1.89194 48.452L0.108032 47.5478C0.499619 46.7753 0.898346 46.012 1.30411 45.2578L3.06535 46.2055Z" fill="#4C4EF8"/>
</svg>
