<svg width="1761" height="906" viewBox="0 0 1761 906" fill="none" xmlns="http://www.w3.org/2000/svg">
<path d="M944.704 227C936.529 227.061 929.95 234.004 930 242.51C930.058 251.015 945.031 277 945.031 277C945.031 277 959.662 250.804 959.604 242.298C959.553 233.793 952.879 226.94 944.704 227ZM944.849 249.31C940.932 249.34 937.733 246.057 937.704 241.981C937.675 237.906 940.83 234.578 944.748 234.548C948.665 234.517 951.864 237.8 951.893 241.876C951.922 245.951 948.774 249.279 944.849 249.31Z" fill="#FFBA5A"/>
<path d="M1324.7 343C1316.53 343.061 1309.95 350.004 1310 358.51C1310.06 367.015 1325.03 393 1325.03 393C1325.03 393 1339.66 366.804 1339.6 358.298C1339.55 349.793 1332.88 342.94 1324.7 343ZM1324.85 365.31C1320.93 365.34 1317.73 362.057 1317.7 357.981C1317.67 353.906 1320.83 350.578 1324.75 350.548C1328.66 350.517 1331.86 353.8 1331.89 357.876C1331.92 361.951 1328.77 365.279 1324.85 365.31Z" fill="#FFBA5A"/>
<path d="M988.704 661C980.529 661.061 973.95 668.004 974 676.51C974.058 685.015 989.031 711 989.031 711C989.031 711 1003.66 684.804 1003.6 676.298C1003.55 667.793 996.879 660.94 988.704 661ZM988.849 683.31C984.932 683.34 981.733 680.057 981.704 675.981C981.675 671.906 984.83 668.578 988.748 668.548C992.665 668.517 995.864 671.8 995.893 675.876C995.922 679.951 992.774 683.279 988.849 683.31Z" fill="#FFBA5A"/>
<path d="M537.704 624C529.529 624.061 522.95 631.004 523 639.51C523.058 648.015 538.031 674 538.031 674C538.031 674 552.662 647.804 552.604 639.298C552.553 630.793 545.879 623.94 537.704 624ZM537.849 646.31C533.932 646.34 530.733 643.057 530.704 638.981C530.675 634.906 533.83 631.578 537.748 631.548C541.665 631.517 544.864 634.8 544.893 638.876C544.922 642.951 541.774 646.279 537.849 646.31Z" fill="#FFBA5A"/>
<path d="M914.409 303V291.364H921.432V292.614H915.818V296.545H921.068V297.795H915.818V301.75H921.523V303H914.409ZM931.608 291.364H933.017V299.068C933.017 299.864 932.83 300.574 932.455 301.199C932.083 301.82 931.559 302.311 930.881 302.67C930.203 303.027 929.407 303.205 928.494 303.205C927.581 303.205 926.786 303.027 926.108 302.67C925.43 302.311 924.903 301.82 924.528 301.199C924.157 300.574 923.972 299.864 923.972 299.068V291.364H925.381V298.955C925.381 299.523 925.506 300.028 925.756 300.472C926.006 300.911 926.362 301.258 926.824 301.511C927.29 301.761 927.847 301.886 928.494 301.886C929.142 301.886 929.699 301.761 930.165 301.511C930.631 301.258 930.987 300.911 931.233 300.472C931.483 300.028 931.608 299.523 931.608 298.955V291.364ZM935.831 303V291.364H939.763C940.672 291.364 941.418 291.519 942.001 291.83C942.585 292.136 943.017 292.559 943.297 293.097C943.577 293.634 943.717 294.246 943.717 294.932C943.717 295.617 943.577 296.225 943.297 296.756C943.017 297.286 942.587 297.703 942.007 298.006C941.428 298.305 940.687 298.455 939.786 298.455H936.604V297.182H939.74C940.361 297.182 940.861 297.091 941.24 296.909C941.623 296.727 941.899 296.47 942.07 296.136C942.244 295.799 942.331 295.398 942.331 294.932C942.331 294.466 942.244 294.059 942.07 293.71C941.895 293.362 941.617 293.093 941.234 292.903C940.852 292.71 940.346 292.614 939.717 292.614H937.24V303H935.831ZM941.308 297.773L944.172 303H942.536L939.717 297.773H941.308ZM955.884 297.182C955.884 298.409 955.662 299.47 955.219 300.364C954.776 301.258 954.168 301.947 953.395 302.432C952.622 302.917 951.74 303.159 950.747 303.159C949.755 303.159 948.872 302.917 948.099 302.432C947.327 301.947 946.719 301.258 946.276 300.364C945.832 299.47 945.611 298.409 945.611 297.182C945.611 295.955 945.832 294.894 946.276 294C946.719 293.106 947.327 292.417 948.099 291.932C948.872 291.447 949.755 291.205 950.747 291.205C951.74 291.205 952.622 291.447 953.395 291.932C954.168 292.417 954.776 293.106 955.219 294C955.662 294.894 955.884 295.955 955.884 297.182ZM954.52 297.182C954.52 296.174 954.351 295.324 954.014 294.631C953.681 293.938 953.228 293.413 952.656 293.057C952.088 292.701 951.452 292.523 950.747 292.523C950.043 292.523 949.404 292.701 948.832 293.057C948.264 293.413 947.812 293.938 947.474 294.631C947.141 295.324 946.974 296.174 946.974 297.182C946.974 298.189 947.141 299.04 947.474 299.733C947.812 300.426 948.264 300.951 948.832 301.307C949.404 301.663 950.043 301.841 950.747 301.841C951.452 301.841 952.088 301.663 952.656 301.307C953.228 300.951 953.681 300.426 954.014 299.733C954.351 299.04 954.52 298.189 954.52 297.182ZM958.253 303V291.364H962.185C963.098 291.364 963.844 291.528 964.423 291.858C965.007 292.184 965.438 292.625 965.719 293.182C965.999 293.739 966.139 294.36 966.139 295.045C966.139 295.731 965.999 296.354 965.719 296.915C965.442 297.475 965.014 297.922 964.435 298.256C963.855 298.585 963.113 298.75 962.207 298.75H959.389V297.5H962.162C962.787 297.5 963.289 297.392 963.668 297.176C964.046 296.96 964.321 296.669 964.491 296.301C964.666 295.93 964.753 295.511 964.753 295.045C964.753 294.58 964.666 294.163 964.491 293.795C964.321 293.428 964.045 293.14 963.662 292.932C963.279 292.72 962.772 292.614 962.139 292.614H959.662V303H958.253ZM968.409 303V291.364H975.432V292.614H969.818V296.545H975.068V297.795H969.818V301.75H975.523V303H968.409Z" fill="#011171"/>
<path d="M478.773 692.273C478.705 691.697 478.428 691.25 477.943 690.932C477.458 690.614 476.864 690.455 476.159 690.455C475.644 690.455 475.193 690.538 474.807 690.705C474.424 690.871 474.125 691.1 473.909 691.392C473.697 691.684 473.591 692.015 473.591 692.386C473.591 692.697 473.665 692.964 473.812 693.188C473.964 693.407 474.157 693.591 474.392 693.739C474.627 693.883 474.873 694.002 475.131 694.097C475.388 694.187 475.625 694.261 475.841 694.318L477.023 694.636C477.326 694.716 477.663 694.826 478.034 694.966C478.409 695.106 478.767 695.297 479.108 695.54C479.453 695.778 479.737 696.085 479.96 696.46C480.184 696.835 480.295 697.295 480.295 697.841C480.295 698.47 480.131 699.038 479.801 699.545C479.475 700.053 478.998 700.456 478.369 700.756C477.744 701.055 476.985 701.205 476.091 701.205C475.258 701.205 474.536 701.07 473.926 700.801C473.32 700.532 472.843 700.157 472.494 699.676C472.15 699.195 471.955 698.636 471.909 698H473.364C473.402 698.439 473.549 698.803 473.807 699.091C474.068 699.375 474.398 699.587 474.795 699.727C475.197 699.864 475.629 699.932 476.091 699.932C476.629 699.932 477.112 699.845 477.54 699.67C477.968 699.492 478.307 699.246 478.557 698.932C478.807 698.614 478.932 698.242 478.932 697.818C478.932 697.432 478.824 697.117 478.608 696.875C478.392 696.633 478.108 696.436 477.756 696.284C477.403 696.133 477.023 696 476.614 695.886L475.182 695.477C474.273 695.216 473.553 694.843 473.023 694.358C472.492 693.873 472.227 693.239 472.227 692.455C472.227 691.803 472.403 691.235 472.756 690.75C473.112 690.261 473.589 689.883 474.188 689.614C474.79 689.341 475.462 689.205 476.205 689.205C476.955 689.205 477.621 689.339 478.205 689.608C478.788 689.873 479.25 690.237 479.591 690.699C479.936 691.161 480.117 691.686 480.136 692.273H478.773ZM492.43 695.182C492.43 696.409 492.209 697.47 491.766 698.364C491.322 699.258 490.714 699.947 489.942 700.432C489.169 700.917 488.286 701.159 487.294 701.159C486.302 701.159 485.419 700.917 484.646 700.432C483.874 699.947 483.266 699.258 482.822 698.364C482.379 697.47 482.158 696.409 482.158 695.182C482.158 693.955 482.379 692.894 482.822 692C483.266 691.106 483.874 690.417 484.646 689.932C485.419 689.447 486.302 689.205 487.294 689.205C488.286 689.205 489.169 689.447 489.942 689.932C490.714 690.417 491.322 691.106 491.766 692C492.209 692.894 492.43 693.955 492.43 695.182ZM491.067 695.182C491.067 694.174 490.898 693.324 490.561 692.631C490.228 691.938 489.775 691.413 489.203 691.057C488.635 690.701 487.999 690.523 487.294 690.523C486.589 690.523 485.951 690.701 485.379 691.057C484.811 691.413 484.358 691.938 484.021 692.631C483.688 693.324 483.521 694.174 483.521 695.182C483.521 696.189 483.688 697.04 484.021 697.733C484.358 698.426 484.811 698.951 485.379 699.307C485.951 699.663 486.589 699.841 487.294 699.841C487.999 699.841 488.635 699.663 489.203 699.307C489.775 698.951 490.228 698.426 490.561 697.733C490.898 697.04 491.067 696.189 491.067 695.182ZM502.436 689.364H503.845V697.068C503.845 697.864 503.658 698.574 503.283 699.199C502.911 699.82 502.387 700.311 501.709 700.67C501.031 701.027 500.235 701.205 499.322 701.205C498.41 701.205 497.614 701.027 496.936 700.67C496.258 700.311 495.732 699.82 495.357 699.199C494.985 698.574 494.8 697.864 494.8 697.068V689.364H496.209V696.955C496.209 697.523 496.334 698.028 496.584 698.472C496.834 698.911 497.19 699.258 497.652 699.511C498.118 699.761 498.675 699.886 499.322 699.886C499.97 699.886 500.527 699.761 500.993 699.511C501.459 699.258 501.815 698.911 502.061 698.472C502.311 698.028 502.436 697.523 502.436 696.955V689.364ZM506.023 690.614V689.364H514.75V690.614H511.091V701H509.682V690.614H506.023ZM516.925 701V689.364H518.334V694.545H524.538V689.364H525.947V701H524.538V695.795H518.334V701H516.925ZM533.746 701H532.268L536.541 689.364H537.996L542.268 701H540.791L537.314 691.205H537.223L533.746 701ZM534.291 696.455H540.246V697.705H534.291V696.455ZM544.081 689.364H545.763L549.717 699.023H549.854L553.808 689.364H555.49V701H554.172V692.159H554.058L550.422 701H549.149L545.513 692.159H545.399V701H544.081V689.364ZM558.315 701V689.364H565.338V690.614H559.724V694.545H564.974V695.795H559.724V699.75H565.429V701H558.315ZM567.878 701V689.364H571.81C572.719 689.364 573.465 689.519 574.048 689.83C574.632 690.136 575.063 690.559 575.344 691.097C575.624 691.634 575.764 692.246 575.764 692.932C575.764 693.617 575.624 694.225 575.344 694.756C575.063 695.286 574.634 695.703 574.054 696.006C573.474 696.305 572.734 696.455 571.832 696.455H568.651V695.182H571.787C572.408 695.182 572.908 695.091 573.287 694.909C573.67 694.727 573.946 694.47 574.116 694.136C574.291 693.799 574.378 693.398 574.378 692.932C574.378 692.466 574.291 692.059 574.116 691.71C573.942 691.362 573.664 691.093 573.281 690.903C572.899 690.71 572.393 690.614 571.764 690.614H569.287V701H567.878ZM573.355 695.773L576.219 701H574.582L571.764 695.773H573.355ZM579.521 689.364V701H578.112V689.364H579.521ZM591.71 693H590.301C590.218 692.595 590.072 692.239 589.864 691.932C589.659 691.625 589.409 691.367 589.114 691.159C588.822 690.947 588.498 690.788 588.142 690.682C587.786 690.576 587.415 690.523 587.028 690.523C586.324 690.523 585.686 690.701 585.114 691.057C584.545 691.413 584.093 691.938 583.756 692.631C583.422 693.324 583.256 694.174 583.256 695.182C583.256 696.189 583.422 697.04 583.756 697.733C584.093 698.426 584.545 698.951 585.114 699.307C585.686 699.663 586.324 699.841 587.028 699.841C587.415 699.841 587.786 699.788 588.142 699.682C588.498 699.576 588.822 699.419 589.114 699.21C589.409 698.998 589.659 698.739 589.864 698.432C590.072 698.121 590.218 697.765 590.301 697.364H591.71C591.604 697.958 591.411 698.491 591.131 698.96C590.85 699.43 590.502 699.83 590.085 700.159C589.669 700.485 589.201 700.733 588.682 700.903C588.167 701.074 587.616 701.159 587.028 701.159C586.036 701.159 585.153 700.917 584.381 700.432C583.608 699.947 583 699.258 582.557 698.364C582.114 697.47 581.892 696.409 581.892 695.182C581.892 693.955 582.114 692.894 582.557 692C583 691.106 583.608 690.417 584.381 689.932C585.153 689.447 586.036 689.205 587.028 689.205C587.616 689.205 588.167 689.29 588.682 689.46C589.201 689.631 589.669 689.881 590.085 690.21C590.502 690.536 590.85 690.934 591.131 691.403C591.411 691.869 591.604 692.402 591.71 693ZM594.464 701H592.987L597.26 689.364H598.714L602.987 701H601.51L598.033 691.205H597.942L594.464 701ZM595.01 696.455H600.964V697.705H595.01V696.455Z" fill="#011171"/>
<path d="M937.773 732.273C937.705 731.697 937.428 731.25 936.943 730.932C936.458 730.614 935.864 730.455 935.159 730.455C934.644 730.455 934.193 730.538 933.807 730.705C933.424 730.871 933.125 731.1 932.909 731.392C932.697 731.684 932.591 732.015 932.591 732.386C932.591 732.697 932.665 732.964 932.812 733.188C932.964 733.407 933.157 733.591 933.392 733.739C933.627 733.883 933.873 734.002 934.131 734.097C934.388 734.187 934.625 734.261 934.841 734.318L936.023 734.636C936.326 734.716 936.663 734.826 937.034 734.966C937.409 735.106 937.767 735.297 938.108 735.54C938.453 735.778 938.737 736.085 938.96 736.46C939.184 736.835 939.295 737.295 939.295 737.841C939.295 738.47 939.131 739.038 938.801 739.545C938.475 740.053 937.998 740.456 937.369 740.756C936.744 741.055 935.985 741.205 935.091 741.205C934.258 741.205 933.536 741.07 932.926 740.801C932.32 740.532 931.843 740.157 931.494 739.676C931.15 739.195 930.955 738.636 930.909 738H932.364C932.402 738.439 932.549 738.803 932.807 739.091C933.068 739.375 933.398 739.587 933.795 739.727C934.197 739.864 934.629 739.932 935.091 739.932C935.629 739.932 936.112 739.845 936.54 739.67C936.968 739.492 937.307 739.246 937.557 738.932C937.807 738.614 937.932 738.242 937.932 737.818C937.932 737.432 937.824 737.117 937.608 736.875C937.392 736.633 937.108 736.436 936.756 736.284C936.403 736.133 936.023 736 935.614 735.886L934.182 735.477C933.273 735.216 932.553 734.843 932.023 734.358C931.492 733.873 931.227 733.239 931.227 732.455C931.227 731.803 931.403 731.235 931.756 730.75C932.112 730.261 932.589 729.883 933.188 729.614C933.79 729.341 934.462 729.205 935.205 729.205C935.955 729.205 936.621 729.339 937.205 729.608C937.788 729.873 938.25 730.237 938.591 730.699C938.936 731.161 939.117 731.686 939.136 732.273H937.773ZM951.43 735.182C951.43 736.409 951.209 737.47 950.766 738.364C950.322 739.258 949.714 739.947 948.942 740.432C948.169 740.917 947.286 741.159 946.294 741.159C945.302 741.159 944.419 740.917 943.646 740.432C942.874 739.947 942.266 739.258 941.822 738.364C941.379 737.47 941.158 736.409 941.158 735.182C941.158 733.955 941.379 732.894 941.822 732C942.266 731.106 942.874 730.417 943.646 729.932C944.419 729.447 945.302 729.205 946.294 729.205C947.286 729.205 948.169 729.447 948.942 729.932C949.714 730.417 950.322 731.106 950.766 732C951.209 732.894 951.43 733.955 951.43 735.182ZM950.067 735.182C950.067 734.174 949.898 733.324 949.561 732.631C949.228 731.938 948.775 731.413 948.203 731.057C947.635 730.701 946.999 730.523 946.294 730.523C945.589 730.523 944.951 730.701 944.379 731.057C943.811 731.413 943.358 731.938 943.021 732.631C942.688 733.324 942.521 734.174 942.521 735.182C942.521 736.189 942.688 737.04 943.021 737.733C943.358 738.426 943.811 738.951 944.379 739.307C944.951 739.663 945.589 739.841 946.294 739.841C946.999 739.841 947.635 739.663 948.203 739.307C948.775 738.951 949.228 738.426 949.561 737.733C949.898 737.04 950.067 736.189 950.067 735.182ZM961.436 729.364H962.845V737.068C962.845 737.864 962.658 738.574 962.283 739.199C961.911 739.82 961.387 740.311 960.709 740.67C960.031 741.027 959.235 741.205 958.322 741.205C957.41 741.205 956.614 741.027 955.936 740.67C955.258 740.311 954.732 739.82 954.357 739.199C953.985 738.574 953.8 737.864 953.8 737.068V729.364H955.209V736.955C955.209 737.523 955.334 738.028 955.584 738.472C955.834 738.911 956.19 739.258 956.652 739.511C957.118 739.761 957.675 739.886 958.322 739.886C958.97 739.886 959.527 739.761 959.993 739.511C960.459 739.258 960.815 738.911 961.061 738.472C961.311 738.028 961.436 737.523 961.436 736.955V729.364ZM965.023 730.614V729.364H973.75V730.614H970.091V741H968.682V730.614H965.023ZM975.925 741V729.364H977.334V734.545H983.538V729.364H984.947V741H983.538V735.795H977.334V741H975.925ZM992.746 741H991.268L995.541 729.364H996.996L1001.27 741H999.791L996.314 731.205H996.223L992.746 741ZM993.291 736.455H999.246V737.705H993.291V736.455ZM1003.08 741V729.364H1010.06V730.614H1004.49V734.545H1009.54V735.795H1004.49V741H1003.08ZM1012.47 741V729.364H1016.4C1017.31 729.364 1018.06 729.519 1018.64 729.83C1019.23 730.136 1019.66 730.559 1019.94 731.097C1020.22 731.634 1020.36 732.246 1020.36 732.932C1020.36 733.617 1020.22 734.225 1019.94 734.756C1019.66 735.286 1019.23 735.703 1018.65 736.006C1018.07 736.305 1017.33 736.455 1016.43 736.455H1013.24V735.182H1016.38C1017 735.182 1017.5 735.091 1017.88 734.909C1018.26 734.727 1018.54 734.47 1018.71 734.136C1018.88 733.799 1018.97 733.398 1018.97 732.932C1018.97 732.466 1018.88 732.059 1018.71 731.71C1018.54 731.362 1018.26 731.093 1017.88 730.903C1017.49 730.71 1016.99 730.614 1016.36 730.614H1013.88V741H1012.47ZM1017.95 735.773L1020.81 741H1019.18L1016.36 735.773H1017.95ZM1024.12 729.364V741H1022.71V729.364H1024.12ZM1036.3 733H1034.89C1034.81 732.595 1034.67 732.239 1034.46 731.932C1034.25 731.625 1034 731.367 1033.71 731.159C1033.42 730.947 1033.09 730.788 1032.74 730.682C1032.38 730.576 1032.01 730.523 1031.62 730.523C1030.92 730.523 1030.28 730.701 1029.71 731.057C1029.14 731.413 1028.69 731.938 1028.35 732.631C1028.02 733.324 1027.85 734.174 1027.85 735.182C1027.85 736.189 1028.02 737.04 1028.35 737.733C1028.69 738.426 1029.14 738.951 1029.71 739.307C1030.28 739.663 1030.92 739.841 1031.62 739.841C1032.01 739.841 1032.38 739.788 1032.74 739.682C1033.09 739.576 1033.42 739.419 1033.71 739.21C1034 738.998 1034.25 738.739 1034.46 738.432C1034.67 738.121 1034.81 737.765 1034.89 737.364H1036.3C1036.2 737.958 1036 738.491 1035.72 738.96C1035.44 739.43 1035.1 739.83 1034.68 740.159C1034.26 740.485 1033.79 740.733 1033.28 740.903C1032.76 741.074 1032.21 741.159 1031.62 741.159C1030.63 741.159 1029.75 740.917 1028.97 740.432C1028.2 739.947 1027.59 739.258 1027.15 738.364C1026.71 737.47 1026.49 736.409 1026.49 735.182C1026.49 733.955 1026.71 732.894 1027.15 732C1027.59 731.106 1028.2 730.417 1028.97 729.932C1029.75 729.447 1030.63 729.205 1031.62 729.205C1032.21 729.205 1032.76 729.29 1033.28 729.46C1033.79 729.631 1034.26 729.881 1034.68 730.21C1035.1 730.536 1035.44 730.934 1035.72 731.403C1036 731.869 1036.2 732.402 1036.3 733ZM1039.06 741H1037.58L1041.85 729.364H1043.31L1047.58 741H1046.1L1042.63 731.205H1042.54L1039.06 741ZM1039.6 736.455H1045.56V737.705H1039.6V736.455Z" fill="#011171"/>
<path d="M1312.89 419H1311.41L1315.68 407.364H1317.14L1321.41 419H1319.93L1316.45 409.205H1316.36L1312.89 419ZM1313.43 414.455H1319.39V415.705H1313.43V414.455ZM1329.59 410.273C1329.52 409.697 1329.24 409.25 1328.76 408.932C1328.27 408.614 1327.68 408.455 1326.97 408.455C1326.46 408.455 1326.01 408.538 1325.62 408.705C1325.24 408.871 1324.94 409.1 1324.72 409.392C1324.51 409.684 1324.4 410.015 1324.4 410.386C1324.4 410.697 1324.48 410.964 1324.62 411.188C1324.78 411.407 1324.97 411.591 1325.2 411.739C1325.44 411.883 1325.69 412.002 1325.94 412.097C1326.2 412.187 1326.44 412.261 1326.65 412.318L1327.84 412.636C1328.14 412.716 1328.48 412.826 1328.85 412.966C1329.22 413.106 1329.58 413.297 1329.92 413.54C1330.27 413.778 1330.55 414.085 1330.77 414.46C1331 414.835 1331.11 415.295 1331.11 415.841C1331.11 416.47 1330.94 417.038 1330.61 417.545C1330.29 418.053 1329.81 418.456 1329.18 418.756C1328.56 419.055 1327.8 419.205 1326.9 419.205C1326.07 419.205 1325.35 419.07 1324.74 418.801C1324.13 418.532 1323.66 418.157 1323.31 417.676C1322.96 417.195 1322.77 416.636 1322.72 416H1324.18C1324.21 416.439 1324.36 416.803 1324.62 417.091C1324.88 417.375 1325.21 417.587 1325.61 417.727C1326.01 417.864 1326.44 417.932 1326.9 417.932C1327.44 417.932 1327.92 417.845 1328.35 417.67C1328.78 417.492 1329.12 417.246 1329.37 416.932C1329.62 416.614 1329.74 416.242 1329.74 415.818C1329.74 415.432 1329.64 415.117 1329.42 414.875C1329.2 414.633 1328.92 414.436 1328.57 414.284C1328.22 414.133 1327.84 414 1327.43 413.886L1325.99 413.477C1325.09 413.216 1324.37 412.843 1323.84 412.358C1323.3 411.873 1323.04 411.239 1323.04 410.455C1323.04 409.803 1323.22 409.235 1323.57 408.75C1323.92 408.261 1324.4 407.883 1325 407.614C1325.6 407.341 1326.27 407.205 1327.02 407.205C1327.77 407.205 1328.43 407.339 1329.02 407.608C1329.6 407.873 1330.06 408.237 1330.4 408.699C1330.75 409.161 1330.93 409.686 1330.95 410.273H1329.59ZM1334.83 407.364V419H1333.42V407.364H1334.83ZM1338.14 419H1336.66L1340.93 407.364H1342.39L1346.66 419H1345.18L1341.7 409.205H1341.61L1338.14 419ZM1338.68 414.455H1344.64V415.705H1338.68V414.455Z" fill="#011171"/>
</svg>
