<svg width="98" height="80" viewBox="0 0 98 80" fill="none" xmlns="http://www.w3.org/2000/svg">
<path d="M1.5 79C1.5 79.2762 1.27615 79.5 1 79.5C0.723854 79.5 0.5 79.2762 0.5 79H1.5ZM94.7492 7.90431L94.3531 7.5992L94.9633 6.80697L95.3594 7.11208L94.7492 7.90431ZM90.9636 4.34329L91.4091 4.57037L90.9549 5.46129L90.5095 5.23422L90.9636 4.34329ZM85.8507 3.32703L85.3746 3.17455L85.6795 2.22218L86.1557 2.37466L85.8507 3.32703ZM81.132 1.14897L81.6246 1.23471L81.4531 2.2199L80.9605 2.13416L81.132 1.14897ZM75.9348 1.56982L75.4356 1.54268L75.4898 0.544152L75.9891 0.571293L75.9348 1.56982ZM70.8247 0.560917L71.3242 0.536896L71.3722 1.53574L70.8728 1.55976L70.8247 0.560917ZM65.8329 2.03579L65.3377 2.10486L65.1995 1.11445L65.6947 1.04538L65.8329 2.03579ZM60.6204 1.96985L61.1083 1.86044L61.3271 2.8362L60.8392 2.94561L60.6204 1.96985ZM55.9249 4.24726L55.4466 4.39327L55.1546 3.43685L55.6328 3.29085L55.9249 4.24726ZM50.7702 4.96812L51.2368 4.78855L51.596 5.72183L51.1293 5.9014L50.7702 4.96812ZM46.4563 7.88544L46.0029 8.09625L45.5813 7.18948L46.0346 6.97867L46.4563 7.88544ZM41.4425 9.30149L41.881 9.06129L42.3614 9.93835L41.9229 10.1785L41.4425 9.30149ZM37.5469 12.7631L37.1248 13.0311L36.5888 12.1869L37.0109 11.9189L37.5469 12.7631ZM32.7563 14.8158L33.1604 14.5213L33.7494 15.3294L33.3453 15.6239L32.7563 14.8158ZM29.3352 18.7478L28.9508 19.0675L28.3113 18.2987L28.6957 17.979L29.3352 18.7478ZM24.8461 21.396L25.2092 21.0522L25.8968 21.7783L25.5337 22.1221L24.8461 21.396ZM21.9582 25.7345L21.6182 26.1012L20.885 25.4212L21.225 25.0545L21.9582 25.7345ZM17.8502 28.9412L18.1654 28.5531L18.9416 29.1836L18.6264 29.5717L17.8502 28.9412ZM15.5562 33.6181L15.2674 34.0262L14.4511 33.4486L14.74 33.0404L15.5562 33.6181ZM11.9092 37.3381L12.1701 36.9116L13.0232 37.4333L12.7623 37.8599L11.9092 37.3381ZM10.2593 42.2798L10.0277 42.7229L9.14143 42.2598L9.37302 41.8166L10.2593 42.2798ZM7.14423 46.4565L7.34539 45.9988L8.26089 46.4011L8.05973 46.8588L7.14423 46.4565ZM6.17329 51.5768L6.00336 52.047L5.06288 51.7072L5.23281 51.2369L6.17329 51.5768ZM3.64578 56.1342L3.78403 55.6537L4.74504 55.9302L4.6068 56.4107L3.64578 56.1342ZM3.36401 61.3329L3.25747 61.8214L2.28043 61.6084L2.38697 61.1199L3.36401 61.3329ZM1.45353 66.174L1.52866 65.6797L2.51731 65.83L2.44218 66.3243L1.45353 66.174ZM1.83609 71.3638L1.79169 71.8618L0.795647 71.773L0.840042 71.275L1.83609 71.3638ZM0.537804 76.4035L0.552414 75.9037L1.55199 75.9329L1.53738 76.4327L0.537804 76.4035ZM96.657 9.53034C96.0489 8.9571 95.4124 8.41516 94.7492 7.90431L95.3594 7.11208C96.0485 7.64284 96.7103 8.20629 97.343 8.80268L96.657 9.53034ZM90.5095 5.23422C89.0395 4.48491 87.4825 3.84953 85.8507 3.32703L86.1557 2.37466C87.8357 2.91261 89.4429 3.56809 90.9636 4.34329L90.5095 5.23422ZM80.9605 2.13416C79.3348 1.8512 77.6562 1.6634 75.9348 1.56982L75.9891 0.571293C77.7477 0.66689 79.4654 0.858906 81.132 1.14897L80.9605 2.13416ZM70.8728 1.55976C69.218 1.63935 67.5353 1.79831 65.8329 2.03579L65.6947 1.04538C67.426 0.803888 69.1387 0.642013 70.8247 0.560917L70.8728 1.55976ZM60.8392 2.94561C59.2094 3.31111 57.569 3.74525 55.9249 4.24726L55.6328 3.29085C57.3006 2.78162 58.9654 2.34099 60.6204 1.96985L60.8392 2.94561ZM51.1293 5.9014C49.5672 6.50252 48.0076 7.1641 46.4563 7.88544L46.0346 6.97867C47.6063 6.24786 49.1868 5.57743 50.7702 4.96812L51.1293 5.9014ZM41.9229 10.1785C40.4496 10.9855 38.9892 11.8472 37.5469 12.7631L37.0109 11.9189C38.4714 10.9914 39.9504 10.1188 41.4425 9.30149L41.9229 10.1785ZM33.3453 15.6239C31.9853 16.6151 30.6471 17.6566 29.3352 18.7478L28.6957 17.979C30.0241 16.874 31.3792 15.8194 32.7563 14.8158L33.3453 15.6239ZM25.5337 22.1221C24.3111 23.2799 23.1178 24.4842 21.9582 25.7345L21.225 25.0545C22.3995 23.7881 23.608 22.5684 24.8461 21.396L25.5337 22.1221ZM18.6264 29.5717C17.5658 30.8775 16.5411 32.2265 15.5562 33.6181L14.74 33.0404C15.7377 31.6306 16.7758 30.264 17.8502 28.9412L18.6264 29.5717ZM12.7623 37.8599C11.8854 39.2935 11.0499 40.7669 10.2593 42.2798L9.37302 41.8166C10.1741 40.2837 11.0208 38.7907 11.9092 37.3381L12.7623 37.8599ZM8.05973 46.8588C7.38456 48.3952 6.75466 49.968 6.17329 51.5768L5.23281 51.2369C5.82185 49.6069 6.4601 48.0133 7.14423 46.4565L8.05973 46.8588ZM4.6068 56.4107C4.14412 58.0188 3.72889 59.6597 3.36401 61.3329L2.38697 61.1199C2.75651 59.4253 3.17708 57.7633 3.64578 56.1342L4.6068 56.4107ZM2.44218 66.3243C2.19126 67.9752 1.9884 69.6551 1.83609 71.3638L0.840042 71.275C0.994179 69.5458 1.1995 67.8454 1.45353 66.174L2.44218 66.3243ZM1.53738 76.4327C1.51255 77.2819 1.5 78.1377 1.5 79H0.5C0.5 78.128 0.512695 77.2624 0.537804 76.4035L1.53738 76.4327ZM2 79C2 79.5523 1.55228 80 1 80C0.447716 80 0 79.5523 0 79H2ZM94.4441 8.30043L93.6518 7.69021L94.8723 6.10575L95.6645 6.71596L94.4441 8.30043ZM91.1907 3.89783L92.0816 4.35198L91.1733 6.13383L90.2824 5.67968L91.1907 3.89783ZM85.6983 3.80321L84.7459 3.49825L85.3558 1.59352L86.3082 1.89848L85.6983 3.80321ZM81.2177 0.656381L82.2029 0.827856L81.86 2.79823L80.8748 2.62676L81.2177 0.656381ZM75.9077 2.06908L74.9092 2.0148L75.0177 0.0177487L76.0162 0.0720297L75.9077 2.06908ZM70.8007 0.0614942L71.7996 0.0134522L71.8956 2.01114L70.8968 2.05918L70.8007 0.0614942ZM65.9019 2.53099L64.9115 2.66915L64.6352 0.688323L65.6256 0.550172L65.9019 2.53099ZM60.511 1.48196L61.4868 1.26315L61.9244 3.21468L60.9486 3.4335L60.511 1.48196ZM56.0709 4.72546L55.1144 5.01748L54.5304 3.10466L55.4868 2.81264L56.0709 4.72546ZM50.5906 4.50147L51.5239 4.14234L52.2422 6.00891L51.3089 6.36804L50.5906 4.50147ZM46.6671 8.33882L45.7603 8.76045L44.9171 6.94691L45.8238 6.52528L46.6671 8.33882ZM41.2023 8.86296L42.0794 8.38257L43.0401 10.1367L42.1631 10.6171L41.2023 8.86296ZM37.8149 13.1852L36.9707 13.7212L35.8986 12.0328L36.7428 11.4968L37.8149 13.1852ZM32.4618 14.4117L33.27 13.8227L34.4479 15.439L33.6398 16.028L32.4618 14.4117ZM29.6549 19.1322L28.8861 19.7717L27.6072 18.234L28.376 17.5946L29.6549 19.1322ZM24.5023 21.033L25.2284 20.3454L26.6036 21.7976L25.8775 22.4852L24.5023 21.033ZM22.3248 26.0745L21.6448 26.8078L20.1784 25.4478L20.8584 24.7145L22.3248 26.0745ZM17.4621 28.626L18.0926 27.8498L19.645 29.1107L19.0145 29.887L17.4621 28.626ZM15.9644 33.9069L15.3867 34.7232L13.7542 33.5679L14.3318 32.7516L15.9644 33.9069ZM11.4827 37.0772L12.0044 36.2241L13.7106 37.2677L13.1888 38.1208L11.4827 37.0772ZM10.7024 42.5114L10.2393 43.3976L8.46671 42.4713L8.92988 41.585L10.7024 42.5114ZM6.68649 46.2554L7.08881 45.3399L8.9198 46.1445L8.51748 47.06L6.68649 46.2554ZM6.64353 51.7467L6.30367 52.6872L4.42271 52.0075L4.76257 51.067L6.64353 51.7467ZM3.16528 55.996L3.44177 55.035L5.3638 55.588L5.0873 56.549L3.16528 55.996ZM3.85252 61.4394L3.63946 62.4165L1.68539 61.9904L1.89845 61.0133L3.85252 61.4394ZM0.959206 66.0989L1.10947 65.1102L3.08676 65.4108L2.9365 66.3994L0.959206 66.0989ZM2.33411 71.4082L2.24533 72.4042L0.253227 72.2266L0.342018 71.2306L2.33411 71.4082ZM0.0380173 76.3888L0.0672379 75.3893L2.06638 75.4477L2.03716 76.4473L0.0380173 76.3888ZM96.3141 9.89418C95.7182 9.33251 95.0944 8.80132 94.4441 8.30043L95.6645 6.71596C96.3665 7.25667 97.041 7.83088 97.6859 8.43885L96.3141 9.89418ZM90.2824 5.67968C88.8378 4.94331 87.3059 4.31799 85.6983 3.80321L86.3082 1.89848C88.0123 2.44415 89.6446 3.10969 91.1907 3.89783L90.2824 5.67968ZM80.8748 2.62676C79.2695 2.34735 77.6105 2.16165 75.9077 2.06908L76.0162 0.0720297C77.7934 0.168637 79.5308 0.362758 81.2177 0.656381L80.8748 2.62676ZM70.8968 2.05918C69.2576 2.13802 67.59 2.29552 65.9019 2.53099L65.6256 0.550172C67.3713 0.306677 69.099 0.143342 70.8007 0.0614942L70.8968 2.05918ZM60.9486 3.4335C59.3313 3.79618 57.7032 4.22707 56.0709 4.72546L55.4868 2.81264C57.1664 2.29981 58.8434 1.85593 60.511 1.48196L60.9486 3.4335ZM51.3089 6.36804C49.7574 6.96507 48.2082 7.62222 46.6671 8.33882L45.8238 6.52528C47.4057 5.78974 48.9966 5.11489 50.5906 4.50147L51.3089 6.36804ZM42.1631 10.6171C40.6992 11.4189 39.2481 12.2751 37.8149 13.1852L36.7428 11.4968C38.2125 10.5636 39.7007 9.68541 41.2023 8.86296L42.1631 10.6171ZM33.6398 16.028C32.2884 17.0129 30.9586 18.0479 29.6549 19.1322L28.376 17.5946C29.7127 16.4827 31.0762 15.4216 32.4618 14.4117L33.6398 16.028ZM25.8775 22.4852C24.6626 23.6356 23.477 24.8322 22.3248 26.0745L20.8584 24.7145C22.0403 23.4401 23.2564 22.2127 24.5023 21.033L25.8775 22.4852ZM19.0145 29.887C17.9608 31.1843 16.9427 32.5244 15.9644 33.9069L14.3318 32.7516C15.336 31.3326 16.3808 29.9572 17.4621 28.626L19.0145 29.887ZM13.1888 38.1208C12.3178 39.5449 11.4878 41.0086 10.7024 42.5114L8.92988 41.585C9.73625 40.042 10.5884 38.5393 11.4827 37.0772L13.1888 38.1208ZM8.51748 47.06C7.84679 48.5862 7.22106 50.1485 6.64353 51.7467L4.76257 51.067C5.35545 49.4264 5.99786 47.8223 6.68649 46.2554L8.51748 47.06ZM5.0873 56.549C4.62764 58.1466 4.21508 59.7769 3.85252 61.4394L1.89845 61.0133C2.27032 59.3081 2.69356 57.6355 3.16528 55.996L5.0873 56.549ZM2.9365 66.3994C2.68714 68.0401 2.48551 69.7097 2.33411 71.4082L0.342018 71.2306C0.497063 69.4912 0.703621 67.7805 0.959206 66.0989L2.9365 66.3994ZM2.03716 76.4473C2.01248 77.2916 2 78.1425 2 79H0C0 78.1231 0.012764 77.2527 0.0380173 76.3888L2.03716 76.4473Z" fill="#4C4EF8"/>
</svg>
