<svg width="1034" height="243" viewBox="0 0 1034 243" fill="none" xmlns="http://www.w3.org/2000/svg">
<path d="M1.5 242C1.5 242.276 1.27612 242.5 1 242.5C0.723877 242.5 0.5 242.276 0.5 242H1.5ZM1031.17 217.564L1030.89 217.15L1031.72 216.588L1032 217.002L1031.17 217.564ZM1029.14 212.837L1029.42 213.247L1028.6 213.819L1028.32 213.409L1029.14 212.837ZM1025.41 209.299L1025.12 208.893L1025.93 208.311L1026.23 208.717L1025.41 209.299ZM1023.27 204.643L1023.56 205.046L1022.76 205.638L1022.46 205.235L1023.27 204.643ZM1019.47 201.217L1019.16 200.818L1019.96 200.215L1020.26 200.614L1019.47 201.217ZM1017.22 196.631L1017.52 197.026L1016.73 197.639L1016.43 197.243L1017.22 196.631ZM1013.34 193.315L1013.03 192.924L1013.81 192.301L1014.12 192.692L1013.34 193.315ZM1010.98 188.799L1011.3 189.186L1010.52 189.819L1010.21 189.431L1010.98 188.799ZM1007.02 185.58L1006.7 185.196L1007.47 184.554L1007.79 184.937L1007.02 185.58ZM1004.53 181.094L1004.85 181.473L1004.1 182.125L1003.77 181.745L1004.53 181.094ZM1000.47 177.956L1000.14 177.581L1000.89 176.92L1001.22 177.295L1000.47 177.956ZM997.875 173.542L998.21 173.913L997.468 174.584L997.133 174.213L997.875 173.542ZM993.749 170.514L993.41 170.147L994.143 169.468L994.483 169.834L993.749 170.514ZM991.048 166.172L991.393 166.534L990.667 167.223L990.323 166.86L991.048 166.172ZM986.855 163.251L986.506 162.893L987.223 162.195L987.572 162.554L986.855 163.251ZM984.053 158.98L984.406 159.335L983.698 160.041L983.345 159.686L984.053 158.98ZM979.791 156.164L979.433 155.814L980.133 155.099L980.49 155.449L979.791 156.164ZM976.878 151.954L977.239 152.299L976.548 153.022L976.187 152.677L976.878 151.954ZM972.542 149.234L972.177 148.893L972.859 148.162L973.224 148.503L972.542 149.234ZM969.531 145.097L969.9 145.434L969.227 146.173L968.857 145.836L969.531 145.097ZM965.133 142.482L964.759 142.149L965.424 141.402L965.798 141.735L965.133 142.482ZM962.025 138.417L962.402 138.745L961.746 139.499L961.369 139.171L962.025 138.417ZM957.566 135.905L957.185 135.581L957.832 134.819L958.214 135.142L957.566 135.905ZM954.364 131.912L954.749 132.231L954.11 133.001L953.725 132.682L954.364 131.912ZM949.848 129.503L949.46 129.189L950.089 128.412L950.478 128.726L949.848 129.503ZM946.563 125.591L946.955 125.902L946.335 126.686L945.943 126.375L946.563 125.591ZM942 123.29L941.605 122.984L942.216 122.193L942.612 122.499L942 123.29ZM938.624 119.45L939.023 119.752L938.42 120.549L938.021 120.248L938.624 119.45ZM934.007 117.248L933.604 116.951L934.199 116.147L934.601 116.444L934.007 117.248ZM930.542 113.48L930.947 113.773L930.362 114.584L929.957 114.291L930.542 113.48ZM925.872 111.376L925.463 111.088L926.039 110.271L926.448 110.559L925.872 111.376ZM922.32 107.68L922.731 107.964L922.164 108.787L921.752 108.503L922.32 107.68ZM917.601 105.673L917.186 105.394L917.745 104.565L918.16 104.844L917.601 105.673ZM913.993 102.068L914.411 102.344L913.861 103.179L913.443 102.904L913.993 102.068ZM909.253 100.175L908.832 99.9042L909.374 99.0634L909.794 99.334L909.253 100.175ZM905.563 96.6407L905.986 96.907L905.453 97.7533L905.03 97.487L905.563 96.6407ZM900.776 94.84L900.35 94.578L900.874 93.7263L901.3 93.9882L900.776 94.84ZM897.005 91.3765L897.434 91.6342L896.919 92.4912L896.49 92.2336L897.005 91.3765ZM892.173 89.6676L891.742 89.4143L892.249 88.5522L892.68 88.8055L892.173 89.6676ZM888.325 86.2749L888.758 86.5239L888.26 87.3911L887.827 87.142L888.325 86.2749ZM883.45 84.6566L883.014 84.4118L883.503 83.5398L883.939 83.7846L883.45 84.6566ZM879.564 81.3564L880.003 81.5969L879.522 82.4736L879.083 82.2331L879.564 81.3564ZM874.691 79.8505L874.251 79.6141L874.723 78.7329L875.164 78.9692L874.691 79.8505ZM870.736 76.6211L871.179 76.8533L870.714 77.7389L870.271 77.5068L870.736 76.6211ZM865.824 75.2019L865.379 74.974L865.835 74.084L866.28 74.3119L865.824 75.2019ZM861.797 72.0415L862.244 72.2654L861.796 73.1596L861.349 72.9357L861.797 72.0415ZM856.848 70.7081L856.399 70.4884L856.838 69.5901L857.287 69.8098L856.848 70.7081ZM852.751 67.6165L853.202 67.8321L852.771 68.7344L852.32 68.5188L852.751 67.6165ZM847.766 66.3677L847.313 66.1562L847.736 65.2501L848.189 65.4616L847.766 66.3677ZM843.638 63.3613L844.093 63.5688L843.678 64.4786L843.223 64.2711L843.638 63.3613ZM838.671 62.2187L838.214 62.0152L838.621 61.1018L839.078 61.3053L838.671 62.2187ZM834.493 59.2864L834.952 59.4859L834.553 60.4028L834.094 60.2033L834.493 59.2864ZM829.494 58.2247L829.034 58.0291L829.425 57.1088L829.885 57.3044L829.494 58.2247ZM825.254 55.3591L825.716 55.5508L825.333 56.4744L824.871 56.2827L825.254 55.3591ZM820.225 54.3773L819.762 54.1895L820.137 53.2627L820.6 53.4505L820.225 54.3773ZM815.924 51.5784L816.389 51.7623L816.021 52.6922L815.557 52.5083L815.924 51.5784ZM810.866 50.6755L810.4 50.4954L810.76 49.5625L811.226 49.7425L810.866 50.6755ZM806.528 47.9507L806.996 48.127L806.643 49.0628L806.175 48.8865L806.528 47.9507ZM801.497 47.1456L801.027 46.9731L801.372 46.0345L801.842 46.207L801.497 47.1456ZM797.136 44.4984L797.606 44.6671L797.269 45.6085L796.798 45.4397L797.136 44.4984ZM792.08 43.7686L791.608 43.6036L791.938 42.6596L792.41 42.8247L792.08 43.7686ZM787.665 41.1858L788.138 41.3472L787.815 42.2937L787.342 42.1323L787.665 41.1858ZM782.585 40.5306L782.11 40.3728L782.426 39.4239L782.9 39.5816L782.585 40.5306ZM778.118 38.012L778.593 38.1661L778.285 39.1174L777.81 38.9633L778.118 38.012ZM773.016 37.4303L772.539 37.2798L772.84 36.3262L773.317 36.4767L773.016 37.4303ZM768.499 34.9757L768.977 35.1226L768.683 36.0785L768.205 35.9315L768.499 34.9757ZM763.427 34.4819L762.948 34.3385L763.234 33.3805L763.713 33.5239L763.427 34.4819ZM758.914 32.106L759.394 32.2459L759.114 33.2059L758.634 33.066L758.914 32.106ZM753.825 31.6832L753.344 31.5467L753.616 30.5847L754.097 30.7211L753.825 31.6832ZM749.266 29.3693L749.748 29.5023L749.482 30.4663L749 30.3333L749.266 29.3693ZM744.159 29.0161L743.676 28.8865L743.936 27.9207L744.418 28.0503L744.159 29.0161ZM739.556 26.764L740.04 26.8902L739.788 27.8578L739.304 27.7316L739.556 26.764ZM734.434 26.4796L733.949 26.3568L734.195 25.3874L734.68 25.5103L734.434 26.4796ZM729.789 24.289L730.274 24.4084L730.036 25.3795L729.55 25.26L729.789 24.289ZM724.673 24.0777L724.187 23.9616L724.419 22.9889L724.906 23.1051L724.673 24.0777ZM720.034 21.9589L720.521 22.0718L720.295 23.046L719.808 22.9331L720.034 21.9589ZM714.93 21.8198L714.442 21.7102L714.662 20.7345L715.15 20.8441L714.93 21.8198ZM710.253 19.7607L710.741 19.8671L710.529 20.8442L710.04 20.7378L710.253 19.7607ZM705.138 19.6869L704.649 19.5837L704.855 18.6053L705.344 18.7085L705.138 19.6869ZM700.424 17.6873L700.914 17.7873L700.714 18.7671L700.224 18.667L700.424 17.6873ZM695.299 17.6781L694.808 17.5812L695.002 16.6001L695.492 16.697L695.299 17.6781ZM690.55 15.7375L691.041 15.8312L690.854 16.8135L690.363 16.7198L690.55 15.7375ZM685.416 15.7922L684.924 15.7016L685.106 14.7181L685.597 14.8087L685.416 15.7922ZM680.666 13.9161L681.159 14.0037L680.984 14.9882L680.491 14.9007L680.666 13.9161ZM675.562 14.04L675.069 13.9555L675.238 12.9699L675.731 13.0544L675.562 14.04ZM670.786 12.2224L671.279 12.3039L671.116 13.2905L670.623 13.2091L670.786 12.2224ZM665.675 12.4078L665.182 12.3294L665.339 11.3418L665.832 11.4202L665.675 12.4078ZM660.87 10.6476L661.365 10.723L661.214 11.7115L660.719 11.6361L660.87 10.6476ZM655.755 10.8938L655.261 10.8213L655.406 9.83189L655.9 9.90435L655.755 10.8938ZM650.923 9.19047L651.418 9.25997L651.279 10.2503L650.784 10.1808L650.923 9.19047ZM645.804 9.49689L645.309 9.43032L645.442 8.43922L645.938 8.50579L645.804 9.49689ZM640.951 7.85086L641.447 7.91452L641.32 8.90638L640.824 8.84273L640.951 7.85086ZM635.855 8.21973L635.359 8.15896L635.481 7.16637L635.977 7.22714L635.855 8.21973ZM630.997 6.63195L631.493 6.68986L631.378 7.68313L630.881 7.62523L630.997 6.63195ZM625.901 7.0591L625.404 7.00405L625.514 6.01013L626.011 6.06518L625.901 7.0591ZM621.02 5.52669L621.517 5.5789L621.413 6.57343L620.915 6.52122L621.02 5.52669ZM615.925 6.01146L615.427 5.96206L615.526 4.96695L616.023 5.01635L615.925 6.01146ZM611.023 4.53405L611.52 4.58065L611.427 5.5763L610.929 5.5297L611.023 4.53405ZM605.93 5.07581L605.432 5.032L605.519 4.03584L606.018 4.07966L605.93 5.07581ZM601.009 3.65305L601.507 3.6941L601.425 4.69073L600.926 4.64968L601.009 3.65305ZM595.925 4.25156L595.426 4.21326L595.503 3.2162L596.001 3.2545L595.925 4.25156ZM590.995 2.88376L591.494 2.91932L591.423 3.91679L590.924 3.88122L590.995 2.88376ZM585.921 3.53816L585.422 3.50531L585.488 2.50747L585.987 2.54032L585.921 3.53816ZM580.976 2.22405L581.475 2.25419L581.415 3.25237L580.916 3.22223L580.976 2.22405ZM575.908 2.93332L575.409 2.90587L575.464 1.90738L575.963 1.93483L575.908 2.93332ZM570.948 1.67254L571.448 1.69732L571.398 2.69609L570.899 2.67131L570.948 1.67254ZM565.888 2.43608L565.389 2.41396L565.433 1.41494L565.933 1.43706L565.888 2.43608ZM560.916 1.22825L561.415 1.24772L561.376 2.24696L560.877 2.22749L560.916 1.22825ZM555.865 2.04543L555.365 2.0286L555.399 1.02916L555.898 1.046L555.865 2.04543ZM550.875 0.890022L551.375 0.904229L551.347 1.90383L550.847 1.88962L550.875 0.890022ZM545.828 1.76011L545.329 1.74852L545.352 0.748789L545.852 0.760381L545.828 1.76011ZM540.828 0.656988L541.328 0.665976L541.31 1.66581L540.81 1.65683L540.828 0.656988ZM535.793 1.57964L535.293 1.57324L535.306 0.573321L535.806 0.579717L535.793 1.57964ZM530.785 0.528446L531.285 0.532261L531.277 1.53223L530.777 1.52842L530.785 0.528446ZM525.763 1.50304L525.263 1.5018L525.265 0.501801L525.765 0.503047L525.763 1.50304ZM520.748 0.503396L521.248 0.502082L521.251 1.50208L520.751 1.50339L520.748 0.503396ZM515.741 1.52934L515.241 1.5332L515.233 0.533232L515.733 0.529369L515.741 1.52934ZM510.718 0.580876L511.218 0.574471L511.231 1.57439L510.731 1.58079L510.718 0.580876ZM505.702 1.65801L505.202 1.66696L505.185 0.667117L505.684 0.658169L505.702 1.65801ZM500.655 0.760955L501.155 0.749473L501.177 1.74921L500.678 1.76069L500.655 0.760955ZM495.657 1.88871L495.157 1.90272L495.129 0.903114L495.629 0.889107L495.657 1.88871ZM490.607 1.0425L491.107 1.02597L491.14 2.02543L490.64 2.04195L490.607 1.0425ZM485.628 2.22028L485.129 2.23931L485.091 1.24004L485.59 1.22101L485.628 2.22028ZM480.578 1.4245L481.078 1.40296L481.121 2.40204L480.621 2.42357L480.578 1.4245ZM475.62 2.65169L475.12 2.67572L475.072 1.67688L475.572 1.65285L475.62 2.65169ZM470.571 1.90593L471.07 1.87942L471.123 2.87801L470.624 2.90453L470.571 1.90593ZM465.615 3.18309L465.115 3.2121L465.057 2.21378L465.557 2.18478L465.615 3.18309ZM460.525 2.48977L461.024 2.45827L461.087 3.45628L460.588 3.48779L460.525 2.48977ZM455.569 3.81723L455.07 3.85123L455.002 2.85354L455.501 2.81955L455.569 3.81723ZM450.484 3.17397L450.983 3.13749L451.056 4.13482L450.557 4.1713L450.484 3.17397ZM445.553 4.54986L445.055 4.58882L444.977 3.59186L445.475 3.5529L445.553 4.54986ZM440.475 3.95622L440.973 3.91479L441.056 4.91135L440.557 4.95278L440.475 3.95622ZM435.57 5.37994L435.072 5.42384L434.984 4.42771L435.482 4.3838L435.57 5.37994ZM430.499 4.83551L430.997 4.78914L431.09 5.78483L430.592 5.8312L430.499 4.83551ZM425.623 6.30643L425.125 6.35527L425.027 5.36005L425.525 5.31121L425.623 6.30643ZM420.505 5.8165L421.003 5.76517L421.105 6.75989L420.608 6.81121L420.505 5.8165ZM415.596 7.3411L415.099 7.39492L414.991 6.40072L415.488 6.34691L415.596 7.3411ZM410.482 6.90153L410.978 6.84524L411.091 7.83888L410.594 7.89517L410.482 6.90153ZM405.604 8.4733L405.107 8.53208L404.99 7.53902L405.486 7.48024L405.604 8.4733ZM400.502 8.08289L400.999 8.02162L401.121 9.01408L400.625 9.07535L400.502 8.08289ZM395.658 9.70118L395.162 9.76493L395.035 8.77309L395.531 8.70934L395.658 9.70118ZM390.571 9.35947L391.067 9.29324L391.199 10.2844L390.704 10.3507L390.571 9.35947ZM385.762 11.0236L385.267 11.0924L385.129 10.1018L385.624 10.0331L385.762 11.0236ZM380.657 10.735L381.152 10.6638L381.294 11.6536L380.799 11.7249L380.657 10.735ZM375.8 12.4572L375.306 12.5309L375.158 11.5419L375.653 11.4681L375.8 12.4572ZM370.663 12.2251L371.157 12.1489L371.31 13.1372L370.815 13.2134L370.663 12.2251ZM365.846 13.9934L365.352 14.0722L365.194 13.0847L365.688 13.0059L365.846 13.9934ZM360.728 13.8103L361.222 13.729L361.384 14.7157L360.891 14.797L360.728 13.8103ZM355.952 15.6241L355.459 15.708L355.292 14.7221L355.784 14.6383L355.952 15.6241ZM350.857 15.4896L351.349 15.4032L351.522 16.3882L351.029 16.4745L350.857 15.4896ZM346.123 17.3482L345.631 17.4371L345.453 16.453L345.945 16.3641L346.123 17.3482ZM341.044 17.263L341.535 17.1716L341.718 18.1547L341.227 18.2461L341.044 17.263ZM336.249 19.1861L335.758 19.2802L335.569 18.2981L336.061 18.204L336.249 19.1861ZM331.096 19.1688L331.586 19.0721L331.78 20.0532L331.289 20.1499L331.096 19.1688ZM326.349 21.1373L325.859 21.2365L325.66 20.2565L326.15 20.1572L326.349 21.1373ZM321.224 21.1691L321.713 21.0672L321.917 22.0462L321.428 22.1481L321.224 21.1691ZM316.527 23.1822L316.038 23.2868L315.829 22.3089L316.318 22.2043L316.527 23.1822ZM311.432 23.2628L311.92 23.1556L312.135 24.1324L311.646 24.2396L311.432 23.2628ZM306.786 25.3199L306.299 25.4297L306.079 24.4541L306.567 24.3443L306.786 25.3199ZM301.723 25.4487L302.21 25.3362L302.435 26.3106L301.948 26.4231L301.723 25.4487ZM297.014 27.5769L296.527 27.6921L296.297 26.719L296.783 26.6038L297.014 27.5769ZM291.855 27.7853L292.341 27.6673L292.577 28.6391L292.091 28.757L291.855 27.7853ZM287.193 29.9608L286.708 30.0815L286.466 29.1111L286.951 28.9904L287.193 29.9608ZM282.072 30.2191L282.556 30.0956L282.803 31.0646L282.319 31.1881L282.072 30.2191ZM277.469 32.4387L276.986 32.5649L276.733 31.5973L277.217 31.4711L277.469 32.4387ZM272.387 32.7462L272.87 32.6172L273.129 33.5833L272.646 33.7123L272.387 32.7462ZM267.847 35.009L267.365 35.1408L267.102 34.1762L267.584 34.0444L267.847 35.009ZM262.807 35.3653L263.288 35.2307L263.557 36.1937L263.076 36.3284L262.807 35.3653ZM258.183 37.7128L257.702 37.8504L257.427 36.889L257.908 36.7514L258.183 37.7128ZM253.034 38.1627L253.513 38.0222L253.795 38.9819L253.315 39.1224L253.034 38.1627ZM248.476 40.5558L247.997 40.6993L247.71 39.7413L248.189 39.5978L248.476 40.5558ZM243.375 41.0566L243.853 40.9101L244.146 41.8662L243.668 42.0127L243.375 41.0566ZM238.89 43.493L238.413 43.6425L238.114 42.6882L238.591 42.5387L238.89 43.493ZM233.839 44.0441L234.315 43.8916L234.62 44.844L234.144 44.9965L233.839 44.0441ZM229.429 46.523L228.954 46.6786L228.643 45.7282L229.118 45.5726L229.429 46.523ZM224.38 47.1406L224.855 46.9819L225.172 47.9303L224.698 48.0889L224.38 47.1406ZM219.873 49.7213L219.4 49.8831L219.076 48.9369L219.549 48.7751L219.873 49.7213ZM214.754 50.4339L215.226 50.2688L215.556 51.2128L215.084 51.3778L214.754 50.4339ZM210.332 53.0584L209.861 53.2268L209.525 52.2851L209.995 52.1168L210.332 53.0584ZM205.274 53.8236L205.744 53.6519L206.087 54.5912L205.617 54.7628L205.274 53.8236ZM200.94 56.4908L200.472 56.6657L200.122 55.729L200.59 55.554L200.94 56.4908ZM195.945 57.3079L196.412 57.1296L196.769 58.0639L196.301 58.2422L195.945 57.3079ZM191.702 60.0168L191.236 60.1985L190.873 59.2668L191.338 59.0851L191.702 60.0168ZM186.598 60.9545L187.062 60.7693L187.433 61.6982L186.968 61.8834L186.598 60.9545ZM182.252 63.7853L181.789 63.9741L181.412 63.0481L181.875 62.8593L182.252 63.7853ZM177.196 64.7888L177.657 64.5964L178.042 65.5193L177.581 65.7118L177.196 64.7888ZM172.954 67.6626L172.494 67.8587L172.102 66.9389L172.562 66.7427L172.954 67.6626ZM167.974 68.7209L168.432 68.5211L168.832 69.4378L168.373 69.6376L167.974 68.7209ZM163.839 71.6365L163.383 71.8401L162.975 70.9267L163.432 70.7231L163.839 71.6365ZM158.938 72.7491L159.393 72.5417L159.807 73.4517L159.353 73.659L158.938 72.7491ZM154.743 75.7846L154.29 75.996L153.867 75.0898L154.32 74.8784L154.743 75.7846ZM149.704 77.0572L150.155 76.8417L150.586 77.7441L150.135 77.9596L149.704 77.0572ZM145.581 80.1599L145.132 80.3795L144.693 79.4811L145.142 79.2615L145.581 80.1599ZM140.635 81.491L141.082 81.2672L141.53 82.1614L141.083 82.3852L140.635 81.491ZM136.64 84.6353L136.195 84.8634L135.739 83.9734L136.184 83.7454L136.64 84.6353ZM131.79 86.0245L132.233 85.7921L132.698 86.6776L132.255 86.9099L131.79 86.0245ZM127.925 89.21L127.484 89.4468L127.011 88.566L127.451 88.3292L127.925 89.21ZM122.931 90.79L123.369 90.5486L123.852 91.4243L123.414 91.6657L122.931 90.79ZM118.97 94.1478L118.534 94.394L118.042 93.5236L118.477 93.2774L118.97 94.1478ZM114.09 95.7912L114.523 95.5402L115.025 96.405L114.592 96.6561L114.09 95.7912ZM110.283 99.1901L109.853 99.446L109.342 98.587L109.771 98.331L110.283 99.1901ZM105.521 100.897L105.947 100.636L106.469 101.489L106.042 101.75L105.521 100.897ZM101.872 104.335L101.448 104.6L100.917 103.754L101.34 103.488L101.872 104.335ZM97.072 106.206L97.4921 105.935L98.0346 106.775L97.6146 107.046L97.072 106.206ZM93.3375 109.848L92.9211 110.125L92.3675 109.292L92.7839 109.016L93.3375 109.848ZM88.5777 111.853L88.9902 111.571L89.5551 112.396L89.1426 112.678L88.5777 111.853ZM85.0311 115.535L84.6224 115.823L84.0461 115.006L84.4547 114.718L85.0311 115.535ZM80.416 117.609L80.8204 117.315L81.4084 118.124L81.004 118.418L80.416 117.609ZM77.0624 121.328L76.6624 121.628L76.0626 120.827L76.4626 120.528L77.0624 121.328ZM72.4387 123.594L72.8339 123.287L73.4463 124.078L73.051 124.384L72.4387 123.594ZM69.0323 127.55L68.6422 127.863L68.0168 127.083L68.4069 126.77L69.0323 127.55ZM64.4768 129.976L64.8615 129.656L65.5002 130.426L65.1155 130.745L64.4768 129.976ZM61.3016 133.968L60.9226 134.294L60.2704 133.536L60.6495 133.21L61.3016 133.968ZM56.9264 136.472L57.2994 136.139L57.9653 136.885L57.5923 137.218L56.9264 136.472ZM53.9886 140.495L53.6219 140.835L52.9422 140.102L53.3089 139.762L53.9886 140.495ZM49.5565 143.313L49.916 142.965L50.6109 143.684L50.2513 144.032L49.5565 143.313ZM46.6312 147.605L46.2792 147.96L45.569 147.256L45.921 146.901L46.6312 147.605ZM42.412 150.52L42.756 150.157L43.4816 150.845L43.1376 151.208L42.412 150.52ZM39.7723 154.84L39.4367 155.211L38.6954 154.54L39.0309 154.169L39.7723 154.84ZM35.7796 157.847L36.1063 157.468L36.8633 158.121L36.5367 158.5L35.7796 157.847ZM33.2759 162.379L32.9592 162.766L32.1854 162.133L32.5021 161.746L33.2759 162.379ZM29.3137 165.751L29.6197 165.355L30.4106 165.967L30.1046 166.363L29.3137 165.751ZM27.0884 170.377L26.7938 170.781L25.9858 170.191L26.2804 169.787L27.0884 170.377ZM23.4044 173.855L23.687 173.442L24.512 174.008L24.2294 174.42L23.4044 173.855ZM21.5295 178.492L21.2597 178.913L20.4178 178.374L20.6876 177.953L21.5295 178.492ZM18.0018 182.299L18.2574 181.87L19.1168 182.381L18.8612 182.811L18.0018 182.299ZM16.348 187.206L16.1075 187.645L15.2307 187.164L15.4713 186.725L16.348 187.206ZM13.1286 191.183L13.3531 190.736L14.2466 191.185L14.0222 191.632L13.1286 191.183ZM11.8862 196.087L11.6786 196.542L10.7689 196.127L10.9765 195.672L11.8862 196.087ZM8.99841 200.238L9.18811 199.775L10.1133 200.155L9.92358 200.617L8.99841 200.238ZM8.09998 205.34L7.92969 205.81L6.98938 205.469L7.15967 204.999L8.09998 205.34ZM5.53833 209.792L5.68835 209.315L6.64233 209.615L6.49231 210.092L5.53833 209.792ZM5.10352 214.872L4.97473 215.356L4.00842 215.098L4.13733 214.615L5.10352 214.872ZM2.95947 219.467L3.06641 218.978L4.04333 219.192L3.9364 219.68L2.95947 219.467ZM2.98169 224.584L2.89771 225.077L1.91187 224.909L1.99597 224.416L2.98169 224.584ZM1.26624 229.409L1.32678 228.912L2.31946 229.033L2.25891 229.53L1.26624 229.409ZM1.77417 234.501L1.73767 234.999L0.740356 234.926L0.776855 234.428L1.77417 234.501ZM0.530884 239.472L0.542969 238.972L1.54272 238.997L1.53052 239.497L0.530884 239.472ZM1032.58 219.658C1032.12 218.958 1031.65 218.26 1031.17 217.564L1032 217.002C1032.47 217.7 1032.95 218.4 1033.42 219.102L1032.58 219.658ZM1028.32 213.409C1027.36 212.031 1026.39 210.661 1025.41 209.299L1026.23 208.717C1027.2 210.083 1028.17 211.456 1029.14 212.837L1028.32 213.409ZM1022.46 205.235C1021.47 203.888 1020.47 202.549 1019.47 201.217L1020.26 200.614C1021.27 201.949 1022.27 203.292 1023.27 204.643L1022.46 205.235ZM1016.43 197.243C1015.4 195.926 1014.38 194.617 1013.34 193.315L1014.12 192.692C1015.16 193.998 1016.19 195.31 1017.22 196.631L1016.43 197.243ZM1010.21 189.431C1009.15 188.14 1008.09 186.856 1007.02 185.58L1007.79 184.937C1008.86 186.217 1009.93 187.504 1010.98 188.799L1010.21 189.431ZM1003.77 181.745C1002.68 180.475 1001.58 179.212 1000.47 177.956L1001.22 177.295C1002.33 178.554 1003.43 179.82 1004.53 181.094L1003.77 181.745ZM997.133 174.213C996.012 172.972 994.884 171.739 993.749 170.514L994.483 169.834C995.621 171.063 996.752 172.299 997.875 173.542L997.133 174.213ZM990.323 166.86C989.174 165.65 988.018 164.447 986.855 163.251L987.572 162.554C988.738 163.752 989.897 164.958 991.048 166.172L990.323 166.86ZM983.345 159.686C982.167 158.505 980.982 157.331 979.791 156.164L980.49 155.449C981.685 156.619 982.872 157.796 984.053 158.98L983.345 159.686ZM976.187 152.677C974.979 151.522 973.764 150.374 972.542 149.234L973.224 148.503C974.449 149.646 975.667 150.796 976.878 151.954L976.187 152.677ZM968.857 145.836C967.622 144.71 966.381 143.592 965.133 142.482L965.798 141.735C967.049 142.848 968.293 143.969 969.531 145.097L968.857 145.836ZM961.369 139.171C960.108 138.075 958.84 136.986 957.566 135.905L958.214 135.142C959.49 136.226 960.761 137.318 962.025 138.417L961.369 139.171ZM953.725 132.682C952.439 131.615 951.147 130.556 949.848 129.503L950.478 128.726C951.779 129.781 953.075 130.843 954.364 131.912L953.725 132.682ZM945.943 126.375C944.634 125.34 943.32 124.312 942 123.29L942.612 122.499C943.935 123.523 945.252 124.554 946.563 125.591L945.943 126.375ZM938.021 120.248C936.689 119.241 935.351 118.241 934.007 117.248L934.601 116.444C935.948 117.439 937.289 118.441 938.624 119.45L938.021 120.248ZM929.957 114.291C928.601 113.312 927.239 112.341 925.872 111.376L926.448 110.559C927.818 111.525 929.183 112.499 930.542 113.48L929.957 114.291ZM921.752 108.503C920.374 107.553 918.99 106.61 917.601 105.673L918.16 104.844C919.552 105.782 920.939 106.728 922.32 107.68L921.752 108.503ZM913.443 102.904C912.052 101.987 910.655 101.078 909.253 100.175L909.794 99.334C911.199 100.239 912.599 101.15 913.993 102.068L913.443 102.904ZM905.03 97.487C903.617 96.5979 902.199 95.7155 900.776 94.84L901.3 93.9882C902.726 94.8656 904.147 95.7497 905.563 96.6407L905.03 97.487ZM896.49 92.2336C895.056 91.3715 893.617 90.5162 892.173 89.6676L892.68 88.8055C894.127 89.6558 895.569 90.5128 897.005 91.3765L896.49 92.2336ZM887.827 87.142C886.373 86.3069 884.914 85.4784 883.45 84.6566L883.939 83.7846C885.406 84.608 886.868 85.4381 888.325 86.2749L887.827 87.142ZM879.083 82.2331C877.624 81.4324 876.16 80.6382 874.691 79.8505L875.164 78.9692C876.635 79.7584 878.102 80.5541 879.564 81.3564L879.083 82.2331ZM870.271 77.5068C868.794 76.732 867.311 75.9638 865.824 75.2019L866.28 74.3119C867.77 75.0752 869.255 75.8449 870.736 76.6211L870.271 77.5068ZM861.349 72.9357C859.853 72.1868 858.353 71.4442 856.848 70.7081L857.287 69.8098C858.795 70.5473 860.298 71.2912 861.797 72.0415L861.349 72.9357ZM852.32 68.5188C850.806 67.7954 849.288 67.0784 847.766 66.3677L848.189 65.4616C849.714 66.1735 851.235 66.8918 852.751 67.6165L852.32 68.5188ZM843.223 64.2711C841.71 63.5808 840.192 62.8967 838.671 62.2187L839.078 61.3053C840.602 61.9844 842.122 62.6698 843.638 63.3613L843.223 64.2711ZM834.094 60.2033C832.565 59.5376 831.031 58.8781 829.494 58.2247L829.885 57.3044C831.425 57.9589 832.961 58.6196 834.493 59.2864L834.094 60.2033ZM824.871 56.2827C823.326 55.6415 821.777 55.0064 820.225 54.3773L820.6 53.4505C822.156 54.0806 823.707 54.7168 825.254 55.3591L824.871 56.2827ZM815.557 52.5083C813.997 51.8913 812.433 51.2804 810.866 50.6755L811.226 49.7425C812.796 50.3484 814.362 50.9604 815.924 51.5784L815.557 52.5083ZM806.175 48.8865C804.619 48.3004 803.06 47.7201 801.497 47.1456L801.842 46.207C803.407 46.7824 804.969 47.3636 806.528 47.9507L806.175 48.8865ZM796.798 45.4397C795.228 44.8769 793.656 44.3199 792.08 43.7686L792.41 42.8247C793.988 43.3768 795.564 43.9347 797.136 44.4984L796.798 45.4397ZM787.342 42.1323C785.759 41.5926 784.174 41.0587 782.585 40.5306L782.9 39.5816C784.492 40.1106 786.08 40.6453 787.665 41.1858L787.342 42.1323ZM777.81 38.9633C776.215 38.4466 774.617 37.9356 773.016 37.4303L773.317 36.4767C774.92 36.9827 776.521 37.4945 778.118 38.012L777.81 38.9633ZM768.205 35.9315C766.615 35.4428 765.022 34.9596 763.427 34.4819L763.713 33.5239C765.311 34.0023 766.906 34.4862 768.499 34.9757L768.205 35.9315ZM758.634 33.066C757.033 32.5996 755.43 32.1386 753.825 31.6832L754.097 30.7211C755.705 31.1773 757.311 31.6389 758.914 32.106L758.634 33.066ZM749 30.3333C747.389 29.8888 745.775 29.4497 744.159 29.0161L744.418 28.0503C746.037 28.4845 747.652 28.9241 749.266 29.3693L749 30.3333ZM739.304 27.7316C737.683 27.3089 736.06 26.8915 734.434 26.4796L734.68 25.5103C736.308 25.9227 737.933 26.3406 739.556 26.764L739.304 27.7316ZM729.55 25.26C727.927 24.8606 726.301 24.4665 724.673 24.0777L724.906 23.1051C726.536 23.4944 728.163 23.889 729.789 24.289L729.55 25.26ZM719.808 22.9331C718.184 22.5568 716.558 22.1857 714.93 21.8198L715.15 20.8441C716.78 21.2105 718.408 21.5821 720.034 21.9589L719.808 22.9331ZM710.04 20.7378C708.408 20.3823 706.774 20.032 705.138 19.6869L705.344 18.7085C706.982 19.054 708.619 19.4048 710.253 19.7607L710.04 20.7378ZM700.224 18.667C698.584 18.3322 696.942 18.0026 695.299 17.6781L695.492 16.697C697.138 17.0219 698.782 17.352 700.424 17.6873L700.224 18.667ZM690.363 16.7198C688.716 16.4055 687.067 16.0963 685.416 15.7922L685.597 14.8087C687.25 15.1132 688.901 15.4228 690.55 15.7375L690.363 16.7198ZM680.491 14.9007C678.85 14.6088 677.207 14.3219 675.562 14.04L675.731 13.0544C677.378 13.3366 679.023 13.6239 680.666 13.9161L680.491 14.9007ZM670.623 13.2091C668.975 12.9371 667.326 12.67 665.675 12.4078L665.832 11.4202C667.485 11.6827 669.136 11.9501 670.786 12.2224L670.623 13.2091ZM660.719 11.6361C659.066 11.3838 657.411 11.1363 655.755 10.8938L655.9 9.90435C657.558 10.1472 659.215 10.3949 660.87 10.6476L660.719 11.6361ZM650.784 10.1808C649.125 9.94795 647.465 9.72 645.804 9.49689L645.938 8.50579C647.6 8.72916 649.262 8.95738 650.923 9.19047L650.784 10.1808ZM640.824 8.84273C639.169 8.6303 637.513 8.42264 635.855 8.21973L635.977 7.22714C637.636 7.43029 639.294 7.63819 640.951 7.85086L640.824 8.84273ZM630.881 7.62523C629.222 7.4318 627.562 7.24309 625.901 7.0591L626.011 6.06518C627.674 6.24938 629.336 6.4383 630.997 6.63195L630.881 7.62523ZM620.915 6.52122C619.253 6.34662 617.589 6.1767 615.925 6.01146L616.023 5.01635C617.69 5.18178 619.355 5.35189 621.02 5.52669L620.915 6.52122ZM610.929 5.5297C609.264 5.37377 607.597 5.22248 605.93 5.07581L606.018 4.07966C607.687 4.22649 609.355 4.37794 611.023 4.53405L610.929 5.5297ZM600.926 4.64968C599.26 4.51238 597.592 4.37969 595.925 4.25156L596.001 3.2545C597.671 3.38276 599.34 3.51561 601.009 3.65305L600.926 4.64968ZM590.924 3.88122C589.257 3.76233 587.589 3.64798 585.921 3.53816L585.987 2.54032C587.657 2.65026 589.326 2.76473 590.995 2.88376L590.924 3.88122ZM580.916 3.22223C579.247 3.12143 577.578 3.02514 575.908 2.93332L575.963 1.93483C577.634 2.02674 579.305 2.12314 580.976 2.22405L580.916 3.22223ZM570.899 2.67131C569.229 2.58845 567.559 2.51004 565.888 2.43608L565.933 1.43706C567.605 1.5111 569.277 1.58959 570.948 1.67254L570.899 2.67131ZM560.877 2.22749C559.206 2.16239 557.535 2.10171 555.865 2.04543L555.898 1.046C557.571 1.10234 559.243 1.16308 560.916 1.22825L560.877 2.22749ZM550.847 1.88962C549.174 1.84207 547.501 1.7989 545.828 1.76011L545.852 0.760381C547.526 0.799213 549.201 0.84242 550.875 0.890022L550.847 1.88962ZM540.81 1.65683C539.138 1.62675 537.465 1.60103 535.793 1.57964L535.806 0.579717C537.48 0.601134 539.154 0.626884 540.828 0.656988L540.81 1.65683ZM530.777 1.52842C529.105 1.51566 527.434 1.50721 525.763 1.50304L525.765 0.503047C527.438 0.507215 529.111 0.515674 530.785 0.528446L530.777 1.52842ZM520.751 1.50339C519.08 1.50778 517.41 1.51644 515.741 1.52934L515.733 0.529369C517.404 0.516455 519.076 0.50779 520.748 0.503396L520.751 1.50339ZM510.731 1.58079C509.054 1.60227 507.378 1.62802 505.702 1.65801L505.684 0.658169C507.362 0.628149 509.039 0.602378 510.718 0.580876L510.731 1.58079ZM500.678 1.76069C499.003 1.79915 497.33 1.84183 495.657 1.88871L495.629 0.889107C497.303 0.842176 498.979 0.799451 500.655 0.760955L500.678 1.76069ZM490.64 2.04195C488.969 2.09722 487.298 2.15667 485.628 2.22028L485.59 1.22101C487.262 1.15733 488.934 1.09782 490.607 1.0425L490.64 2.04195ZM480.621 2.42357C478.953 2.49548 477.286 2.57153 475.62 2.65169L475.572 1.65285C477.24 1.5726 478.908 1.49648 480.578 1.4245L480.621 2.42357ZM470.624 2.90453C468.953 2.99326 467.283 3.08612 465.615 3.18309L465.557 2.18478C467.227 2.08771 468.898 1.99476 470.571 1.90593L470.624 2.90453ZM460.588 3.48779C458.914 3.59348 457.241 3.70331 455.569 3.81723L455.501 2.81955C457.175 2.70551 458.849 2.59558 460.525 2.48977L460.588 3.48779ZM450.557 4.1713C448.888 4.29341 447.22 4.41961 445.553 4.54986L445.475 3.5529C447.144 3.42252 448.813 3.2962 450.484 3.17397L450.557 4.1713ZM440.557 4.95278C438.894 5.09114 437.231 5.23353 435.57 5.37994L435.482 4.3838C437.145 4.23725 438.809 4.09471 440.475 3.95622L440.557 4.95278ZM430.592 5.8312C428.934 5.98562 427.277 6.14404 425.623 6.30643L425.525 5.31121C427.181 5.14866 428.839 4.99008 430.499 4.83551L430.592 5.8312ZM420.608 6.81121C418.935 6.9838 417.265 7.16044 415.596 7.3411L415.488 6.34691C417.159 6.16606 418.831 5.98925 420.505 5.8165L420.608 6.81121ZM410.594 7.89517C408.929 8.08388 407.265 8.2766 405.604 8.4733L405.486 7.48024C407.149 7.28334 408.815 7.09043 410.482 6.90153L410.594 7.89517ZM400.625 9.07535C398.967 9.28 397.312 9.48862 395.658 9.70118L395.531 8.70934C397.186 8.49657 398.843 8.28774 400.502 8.08289L400.625 9.07535ZM390.704 10.3507C389.054 10.5711 387.407 10.7954 385.762 11.0236L385.624 10.0331C387.271 9.80467 388.92 9.58011 390.571 9.35947L390.704 10.3507ZM380.799 11.7249C379.131 11.965 377.464 12.2091 375.8 12.4572L375.653 11.4681C377.319 11.2198 378.987 10.9754 380.657 10.735L380.799 11.7249ZM370.815 13.2134C369.156 13.4695 367.5 13.7295 365.846 13.9934L365.688 13.0059C367.344 12.7417 369.002 12.4814 370.663 12.2251L370.815 13.2134ZM360.891 14.797C359.242 15.0688 357.596 15.3445 355.952 15.6241L355.784 14.6383C357.43 14.3584 359.078 14.0824 360.728 13.8103L360.891 14.797ZM351.029 16.4745C349.391 16.7619 347.756 17.0531 346.123 17.3482L345.945 16.3641C347.58 16.0687 349.217 15.7772 350.857 15.4896L351.029 16.4745ZM341.227 18.2461C339.564 18.5555 337.905 18.8688 336.249 19.1861L336.061 18.204C337.719 17.8864 339.38 17.5727 341.044 17.263L341.227 18.2461ZM331.289 20.1499C329.639 20.4751 327.992 20.8042 326.349 21.1373L326.15 20.1572C327.795 19.8238 329.444 19.4943 331.096 19.1688L331.289 20.1499ZM321.428 22.1481C319.791 22.4889 318.157 22.8337 316.527 23.1822L316.318 22.2043C317.95 21.8554 319.585 21.5103 321.224 21.1691L321.428 22.1481ZM311.646 24.2396C310.023 24.5958 308.403 24.956 306.786 25.3199L306.567 24.3443C308.185 23.98 309.807 23.6195 311.432 23.2628L311.646 24.2396ZM301.948 26.4231C300.299 26.8037 298.655 27.1883 297.014 27.5769L296.783 26.6038C298.426 26.2148 300.073 25.8298 301.723 25.4487L301.948 26.4231ZM292.091 28.757C290.454 29.1544 288.821 29.5557 287.193 29.9608L286.951 28.9904C288.582 28.5848 290.217 28.1831 291.855 27.7853L292.091 28.757ZM282.319 31.1881C280.698 31.6011 279.082 32.0179 277.469 32.4387L277.217 31.4711C278.831 31.0499 280.449 30.6325 282.072 30.2191L282.319 31.1881ZM272.646 33.7123C271.042 34.1407 269.442 34.5729 267.847 35.009L267.584 34.0444C269.181 33.6078 270.782 33.1751 272.387 32.7462L272.646 33.7123ZM263.076 36.3284C261.44 36.7859 259.809 37.2474 258.183 37.7128L257.908 36.7514C259.536 36.2854 261.169 35.8234 262.807 35.3653L263.076 36.3284ZM253.315 39.1224C251.697 39.5963 250.084 40.074 248.476 40.5558L248.189 39.5978C249.799 39.1155 251.414 38.6371 253.034 38.1627L253.315 39.1224ZM243.668 42.0127C242.07 42.5022 240.478 42.9957 238.89 43.493L238.591 42.5387C240.181 42.0408 241.775 41.5467 243.375 41.0566L243.668 42.0127ZM234.144 44.9965C232.567 45.5015 230.995 46.0103 229.429 46.523L229.118 45.5726C230.686 45.0593 232.26 44.5498 233.839 44.0441L234.144 44.9965ZM224.698 48.0889C223.084 48.629 221.475 49.1731 219.873 49.7213L219.549 48.7751C221.154 48.2262 222.764 47.6813 224.38 47.1406L224.698 48.0889ZM215.084 51.3778C213.494 51.934 211.91 52.4942 210.332 53.0584L209.995 52.1168C211.576 51.5518 213.162 50.9909 214.754 50.4339L215.084 51.3778ZM205.617 54.7628C204.052 55.3349 202.493 55.9109 200.94 56.4908L200.59 55.554C202.145 54.9733 203.706 54.3964 205.274 53.8236L205.617 54.7628ZM196.301 58.2422C194.762 58.8299 193.228 59.4214 191.702 60.0168L191.338 59.0851C192.867 58.4889 194.403 57.8965 195.945 57.3079L196.301 58.2422ZM186.968 61.8834C185.389 62.5132 183.817 63.1472 182.252 63.7853L181.875 62.8593C183.442 62.2203 185.016 61.5853 186.598 60.9545L186.968 61.8834ZM177.581 65.7118C176.031 66.358 174.489 67.0083 172.954 67.6626L172.562 66.7427C174.099 66.0874 175.643 65.436 177.196 64.7888L177.581 65.7118ZM168.373 69.6376C166.854 70.2999 165.343 70.9662 163.839 71.6365L163.432 70.7231C164.938 70.0518 166.452 69.3843 167.974 68.7209L168.373 69.6376ZM159.353 73.659C157.807 74.3634 156.271 75.0719 154.743 75.7846L154.32 74.8784C155.851 74.1644 157.39 73.4547 158.938 72.7491L159.353 73.659ZM150.135 77.9596C148.608 78.6888 147.09 79.4223 145.581 80.1599L145.142 79.2615C146.654 78.5225 148.174 77.7877 149.704 77.0572L150.135 77.9596ZM141.083 82.3852C139.593 83.1311 138.112 83.8812 136.64 84.6353L136.184 83.7454C137.659 82.9898 139.142 82.2383 140.635 81.491L141.083 82.3852ZM132.255 86.9099C130.802 87.6726 129.358 88.4393 127.925 89.21L127.451 88.3292C128.888 87.5569 130.334 86.7887 131.79 86.0245L132.255 86.9099ZM123.414 91.6657C121.921 92.4887 120.44 93.3161 118.97 94.1478L118.477 93.2774C119.951 92.4439 121.435 91.6147 122.931 90.79L123.414 91.6657ZM114.592 96.6561C113.144 97.4965 111.708 98.3412 110.283 99.1901L109.771 98.331C111.199 97.4801 112.639 96.6335 114.09 95.7912L114.592 96.6561ZM106.042 101.75C104.641 102.607 103.25 103.469 101.872 104.335L101.34 103.488C102.722 102.62 104.115 101.756 105.521 100.897L106.042 101.75ZM97.6146 107.046C96.1753 107.975 94.7495 108.91 93.3375 109.848L92.7839 109.016C94.1996 108.074 95.6291 107.138 97.072 106.206L97.6146 107.046ZM89.1426 112.678C87.7581 113.626 86.3875 114.578 85.0311 115.535L84.4547 114.718C85.8151 113.758 87.1894 112.803 88.5777 111.853L89.1426 112.678ZM81.004 118.418C79.6758 119.384 78.3619 120.354 77.0624 121.328L76.4626 120.528C77.7661 119.55 79.0839 118.578 80.416 117.609L81.004 118.418ZM73.051 124.384C71.6946 125.435 70.355 126.49 69.0323 127.55L68.4069 126.77C69.734 125.706 71.078 124.648 72.4387 123.594L73.051 124.384ZM65.1155 130.745C63.827 131.815 62.5556 132.889 61.3016 133.968L60.6495 133.21C61.9079 132.127 63.1838 131.049 64.4768 129.976L65.1155 130.745ZM57.5923 137.218C56.3734 138.306 55.1721 139.398 53.9886 140.495L53.3089 139.762C54.4969 138.661 55.7029 137.564 56.9264 136.472L57.5923 137.218ZM50.2513 144.032C49.0237 145.218 47.817 146.409 46.6312 147.605L45.921 146.901C47.1119 145.7 48.3238 144.504 49.5565 143.313L50.2513 144.032ZM43.1376 151.208C41.9944 152.414 40.8725 153.625 39.7723 154.84L39.0309 154.169C40.1364 152.948 41.2635 151.731 42.412 150.52L43.1376 151.208ZM36.5367 158.5C35.4254 159.788 34.3384 161.081 33.2759 162.379L32.5021 161.746C33.5701 160.441 34.6628 159.141 35.7796 157.847L36.5367 158.5ZM30.1046 166.363C29.0732 167.696 28.0677 169.034 27.0884 170.377L26.2804 169.787C27.2654 168.437 28.2766 167.091 29.3137 165.751L30.1046 166.363ZM24.2294 174.42C23.3028 175.773 22.4027 177.13 21.5295 178.492L20.6876 177.953C21.5664 176.582 22.4721 175.216 23.4044 173.855L24.2294 174.42ZM18.8612 182.811C17.9925 184.271 17.1546 185.736 16.348 187.206L15.4713 186.725C16.2836 185.245 17.1273 183.769 18.0018 182.299L18.8612 182.811ZM14.0222 191.632C13.2784 193.112 12.5663 194.598 11.8862 196.087L10.9765 195.672C11.6618 194.171 12.3793 192.674 13.1286 191.183L14.0222 191.632ZM9.92358 200.617C9.27997 202.187 8.672 203.761 8.09998 205.34L7.15967 204.999C7.73657 203.407 8.34961 201.82 8.99841 200.238L9.92358 200.617ZM6.49231 210.092C5.9928 211.681 5.52966 213.274 5.10352 214.872L4.13733 214.615C4.56726 213.002 5.03442 211.395 5.53833 209.792L6.49231 210.092ZM3.9364 219.68C3.57947 221.311 3.26111 222.945 2.98169 224.584L1.99597 224.416C2.27795 222.762 2.59937 221.112 2.95947 219.467L3.9364 219.68ZM2.25891 229.53C2.0575 231.182 1.89575 232.839 1.77417 234.501L0.776855 234.428C0.899658 232.75 1.06299 231.077 1.26624 229.409L2.25891 229.53ZM1.53052 239.497C1.51025 240.33 1.5 241.165 1.5 242H0.5C0.5 241.156 0.510254 240.314 0.530884 239.472L1.53052 239.497ZM2 242C2 242.552 1.55225 243 1 243C0.447754 243 0 242.552 0 242H2ZM1030.76 217.844L1030.2 217.017L1031.85 215.894L1032.41 216.722L1030.76 217.844ZM1029.55 212.551L1030.12 213.371L1028.48 214.515L1027.91 213.695L1029.55 212.551ZM1025.01 209.59L1024.42 208.777L1026.05 207.613L1026.63 208.426L1025.01 209.59ZM1023.67 204.347L1024.26 205.152L1022.65 206.337L1022.06 205.532L1023.67 204.347ZM1019.07 201.518L1018.46 200.72L1020.06 199.515L1020.66 200.313L1019.07 201.518ZM1017.61 196.324L1018.22 197.114L1016.64 198.34L1016.03 197.55L1017.61 196.324ZM1012.95 193.626L1012.33 192.844L1013.89 191.598L1014.51 192.381L1012.95 193.626ZM1011.37 188.483L1012 189.257L1010.45 190.522L1009.82 189.748L1011.37 188.483ZM1006.64 185.901L1006 185.134L1007.53 183.85L1008.17 184.616L1006.64 185.901ZM1004.91 180.768L1005.56 181.526L1004.04 182.83L1003.39 182.071L1004.91 180.768ZM1000.1 178.287L999.437 177.537L1000.94 176.214L1001.6 176.965L1000.1 178.287ZM998.246 173.207L998.916 173.949L997.432 175.29L996.762 174.548L998.246 173.207ZM993.383 170.854L992.703 170.12L994.17 168.761L994.85 169.495L993.383 170.854ZM991.411 165.827L992.1 166.553L990.649 167.93L989.961 167.204L991.411 165.827ZM986.496 163.6L985.799 162.883L987.233 161.488L987.93 162.205L986.496 163.6ZM984.407 158.628L985.113 159.336L983.697 160.748L982.991 160.039L984.407 158.628ZM979.441 156.521L978.726 155.821L980.126 154.392L980.84 155.092L979.441 156.521ZM977.223 151.593L977.946 152.284L976.564 153.729L975.841 153.038L977.223 151.593ZM972.201 149.6L971.47 148.917L972.834 147.455L973.566 148.138L972.201 149.6ZM969.868 144.727L970.607 145.401L969.26 146.879L968.52 146.205L969.868 144.727ZM964.8 142.855L964.053 142.19L965.383 140.696L966.13 141.361L964.8 142.855ZM962.353 138.039L963.108 138.695L961.796 140.205L961.041 139.549L962.353 138.039ZM957.243 136.286L956.48 135.639L957.775 134.114L958.537 134.761L957.243 136.286ZM954.683 131.527L955.453 132.165L954.176 133.705L953.406 133.066L954.683 131.527ZM949.533 129.892L948.756 129.262L950.016 127.708L950.793 128.338L949.533 129.892ZM946.874 125.199L947.658 125.82L946.416 127.388L945.632 126.767L946.874 125.199ZM941.694 123.686L940.903 123.074L942.127 121.492L942.918 122.104L941.694 123.686ZM938.926 119.051L939.723 119.654L938.517 121.25L937.72 120.647L938.926 119.051ZM933.71 117.65L932.905 117.056L934.093 115.448L934.898 116.042L933.71 117.65ZM930.834 113.075L931.645 113.66L930.475 115.282L929.664 114.696L930.834 113.075ZM925.583 111.784L924.766 111.208L925.919 109.574L926.736 110.15L925.583 111.784ZM922.604 107.268L923.427 107.836L922.292 109.482L921.468 108.915L922.604 107.268ZM917.321 106.088L916.492 105.529L917.61 103.871L918.439 104.43L917.321 106.088ZM914.268 101.651L915.103 102.201L914.003 103.871L913.168 103.321L914.268 101.651ZM908.982 100.595L908.141 100.054L909.224 98.3723L910.065 98.9136L908.982 100.595ZM905.829 96.2175L906.675 96.7501L905.61 98.4428L904.764 97.9102L905.829 96.2175ZM900.514 95.2659L899.662 94.7419L900.71 93.0384L901.562 93.5624L900.514 95.2659ZM897.263 90.948L898.12 91.4633L897.089 93.1774L896.232 92.6621L897.263 90.948ZM891.92 90.0987L891.058 89.592L892.071 87.8677L892.934 88.3744L891.92 90.0987ZM888.574 85.8413L889.441 86.3394L888.445 88.0737L887.578 87.5756L888.574 85.8413ZM883.205 85.0926L882.333 84.6031L883.312 82.8591L884.184 83.3486L883.205 85.0926ZM879.805 80.9181L880.682 81.3991L879.719 83.1525L878.843 82.6714L879.805 80.9181ZM874.455 80.2911L873.574 79.8184L874.519 78.0559L875.4 78.5286L874.455 80.2911ZM870.968 76.1783L871.854 76.6426L870.925 78.4139L870.039 77.9496L870.968 76.1783ZM865.596 75.6469L864.706 75.191L865.618 73.411L866.508 73.8669L865.596 75.6469ZM862.021 71.5944L862.915 72.0421L862.02 73.8305L861.125 73.3829L862.021 71.5944ZM856.628 71.1572L855.73 70.7178L856.609 68.9212L857.507 69.3606L856.628 71.1572ZM852.967 67.1654L853.869 67.5966L853.007 69.4011L852.104 68.9699L852.967 67.1654ZM847.555 66.8208L846.649 66.3977L847.495 64.5855L848.401 65.0085L847.555 66.8208ZM843.846 62.9064L844.755 63.3214L843.925 65.141L843.016 64.726L843.846 62.9064ZM838.467 62.6754L837.554 62.2684L838.368 60.4416L839.281 60.8486L838.467 62.6754ZM834.693 58.8279L835.61 59.227L834.812 61.0608L833.895 60.6618L834.693 58.8279ZM829.299 58.6848L828.378 58.2936L829.161 56.453L830.081 56.8442L829.299 58.6848ZM825.446 54.8973L826.37 55.2807L825.603 57.1279L824.679 56.7445L825.446 54.8973ZM820.037 54.8407L819.11 54.4651L819.861 52.6115L820.788 52.9871L820.037 54.8407ZM816.108 51.1134L817.038 51.4812L816.303 53.341L815.373 52.9732L816.108 51.1134ZM810.686 51.1419L809.753 50.7818L810.474 48.916L811.406 49.2761L810.686 51.1419ZM806.704 47.4828L807.64 47.8353L806.935 49.7069L805.999 49.3544L806.704 47.4828ZM801.324 47.6149L800.386 47.2699L801.076 45.3927L802.014 45.7377L801.324 47.6149ZM797.304 44.0277L798.246 44.3653L797.571 46.2479L796.629 45.9103L797.304 44.0277ZM791.915 44.2406L790.971 43.9105L791.631 42.0226L792.575 42.3527L791.915 44.2406ZM787.826 40.7126L788.772 41.0354L788.127 42.9283L787.18 42.6055L787.826 40.7126ZM782.427 41.005L781.478 40.6896L782.109 38.7917L783.058 39.1072L782.427 41.005ZM778.272 37.5363L779.223 37.8445L778.607 39.7472L777.655 39.4389L778.272 37.5363ZM772.866 37.9071L771.912 37.6061L772.514 35.6989L773.468 35.9999L772.866 37.9071ZM768.646 34.4978L769.601 34.7916L769.014 36.7033L768.058 36.4095L768.646 34.4978ZM763.283 34.9609L762.325 34.6741L762.899 32.7581L763.857 33.0449L763.283 34.9609ZM759.053 31.626L760.013 31.9058L759.454 33.8259L758.494 33.5461L759.053 31.626ZM753.688 32.1642L752.726 31.8913L753.272 29.9672L754.234 30.2401L753.688 32.1642ZM749.399 28.8873L750.363 29.1533L749.831 31.0812L748.867 30.8152L749.399 28.8873ZM744.03 29.499L743.064 29.2399L743.582 27.3082L744.548 27.5674L744.03 29.499ZM739.683 26.2802L740.65 26.5325L740.145 28.4678L739.178 28.2154L739.683 26.2802ZM734.311 26.9643L733.342 26.7187L733.833 24.78L734.803 25.0256L734.311 26.9643ZM729.908 23.8035L730.879 24.0424L730.402 25.9845L729.431 25.7455L729.908 23.8035ZM724.557 24.5641L723.584 24.3318L724.049 22.3865L725.022 22.6188L724.557 24.5641ZM720.147 21.4718L721.121 21.6976L720.669 23.6459L719.695 23.4202L720.147 21.4718ZM714.821 22.3076L713.845 22.0884L714.284 20.137L715.259 20.3563L714.821 22.3076ZM710.359 19.2722L711.336 19.485L710.911 21.4392L709.934 21.2264L710.359 19.2722ZM705.035 20.1762L704.056 19.9698L704.469 18.0128L705.447 18.2192L705.035 20.1762ZM700.524 17.1974L701.504 17.3974L701.104 19.357L700.124 19.1569L700.524 17.1974ZM695.202 18.1686L694.221 17.9749L694.608 16.0127L695.589 16.2065L695.202 18.1686ZM690.644 15.2464L691.626 15.4338L691.251 17.3984L690.269 17.2109L690.644 15.2464ZM685.326 16.2839L684.342 16.1027L684.704 14.1358L685.688 14.317L685.326 16.2839ZM680.754 13.4239L681.739 13.5989L681.388 15.568L680.404 15.393L680.754 13.4239ZM675.477 14.5328L674.492 14.3639L674.83 12.3926L675.815 12.5616L675.477 14.5328ZM670.867 11.7291L671.854 11.892L671.528 13.8653L670.542 13.7024L670.867 11.7291ZM665.597 12.9016L664.609 12.7448L664.923 10.7695L665.911 10.9264L665.597 12.9016ZM660.946 10.1533L661.934 10.3041L661.633 12.2813L660.644 12.1304L660.946 10.1533ZM655.683 11.3885L654.693 11.2436L654.983 9.26471L655.973 9.40963L655.683 11.3885ZM650.992 8.69532L651.982 8.83433L651.704 10.8149L650.714 10.6759L650.992 8.69532ZM645.738 9.99243L644.747 9.8593L645.013 7.8771L646.004 8.01024L645.738 9.99243ZM641.015 7.35493L642.007 7.48224L641.752 9.46597L640.76 9.33866L641.015 7.35493ZM635.795 8.71602L634.802 8.59448L635.045 6.60931L636.038 6.73085L635.795 8.71602ZM631.055 6.13532L632.048 6.25112L631.816 8.23767L630.823 8.12186L631.055 6.13532ZM625.846 7.55606L624.852 7.44596L625.072 5.45812L626.066 5.56822L625.846 7.55606ZM621.072 5.02942L622.066 5.13385L621.858 7.12292L620.863 7.01848L621.072 5.02942ZM615.875 6.50901L614.88 6.41021L615.078 4.42L616.073 4.5188L615.875 6.50901ZM611.069 4.03623L612.065 4.12943L611.878 6.12072L610.883 6.02752L611.069 4.03623ZM605.886 5.57389L604.89 5.48626L605.065 3.49395L606.061 3.58158L605.886 5.57389ZM601.05 3.15474L602.046 3.23684L601.882 5.23009L600.885 5.14799L601.05 3.15474ZM595.886 4.75009L594.889 4.6735L595.042 2.67937L596.04 2.75597L595.886 4.75009ZM591.031 2.38502L592.029 2.45615L591.886 4.45109L590.889 4.37996L591.031 2.38502ZM585.888 4.03708L584.891 3.97138L585.022 1.9757L586.02 2.0414L585.888 4.03708ZM581.006 1.72496L582.004 1.78525L581.884 3.78161L580.886 3.72132L581.006 1.72496ZM575.881 3.43257L574.882 3.37766L574.992 1.38068L575.991 1.43559L575.881 3.43257ZM570.973 1.17316L571.972 1.22272L571.873 3.22026L570.874 3.1707L570.973 1.17316ZM565.866 2.93559L564.867 2.89135L564.956 0.89331L565.955 0.937546L565.866 2.93559ZM560.935 0.728628L561.934 0.767566L561.857 2.76605L560.857 2.72711L560.935 0.728628ZM555.848 2.54515L554.848 2.51148L554.916 0.512613L555.915 0.54628L555.848 2.54515ZM550.89 0.390224L551.889 0.418638L551.832 2.41783L550.833 2.38942L550.89 0.390224ZM545.817 2.25998L544.817 2.23679L544.863 0.237332L545.863 0.260515L545.817 2.25998ZM540.837 0.157069L541.837 0.175046L541.801 2.17472L540.801 2.15675L540.837 0.157069ZM535.787 2.07959L534.787 2.0668L534.812 0.0669652L535.812 0.0797584L535.787 2.07959ZM530.789 0.0284601L531.789 0.0360918L531.773 2.03603L530.773 2.0284L530.789 0.0284601ZM525.762 2.00304L524.762 2.00055L524.767 0.000556588L525.767 0.00304818L525.762 2.00304ZM520.747 0.0033977L521.747 0.000769913L521.752 2.00076L520.752 2.00339L520.747 0.0033977ZM515.745 2.02932L514.745 2.03705L514.729 0.0371109L515.729 0.0293837L515.745 2.02932ZM510.711 0.0809174L511.711 0.0681073L511.737 2.06794L510.737 2.08075L510.711 0.0809174ZM505.711 2.15793L504.711 2.17582L504.676 0.176145L505.676 0.158249L505.711 2.15793ZM500.643 0.261086L501.643 0.238123L501.689 2.2376L500.689 2.26056L500.643 0.261086ZM495.671 2.38852L494.671 2.41653L494.615 0.417317L495.615 0.389303L495.671 2.38852ZM490.591 0.542772L491.59 0.509724L491.656 2.50863L490.657 2.54168L490.591 0.542772ZM485.647 2.71992L484.648 2.75798L484.572 0.759434L485.571 0.721368L485.647 2.71992ZM480.557 0.924961L481.556 0.881893L481.642 2.88004L480.643 2.92311L480.557 0.924961ZM475.644 3.15112L474.645 3.19917L474.549 1.20148L475.548 1.15343L475.644 3.15112ZM470.544 1.40664L471.543 1.35361L471.649 3.35079L470.651 3.40382L470.544 1.40664ZM465.644 3.68225L464.645 3.74026L464.529 1.74363L465.528 1.68562L465.644 3.68225ZM460.494 1.99077L461.492 1.92776L461.618 3.92379L460.62 3.98679L460.494 1.99077ZM455.603 4.31608L454.605 4.38406L454.469 2.38869L455.467 2.3207L455.603 4.31608ZM450.448 2.6753L451.445 2.60234L451.591 4.59701L450.594 4.66997L450.448 2.6753ZM445.592 5.04834L444.595 5.12626L444.439 3.13234L445.436 3.05442L445.592 5.04834ZM440.433 3.45794L441.43 3.37508L441.595 5.3682L440.599 5.45106L440.433 3.45794ZM435.614 5.87801L434.618 5.96581L434.442 3.97354L435.438 3.88573L435.614 5.87801ZM430.453 4.33766L431.448 4.24492L431.634 6.2363L430.638 6.32904L430.453 4.33766ZM425.672 6.80404L424.676 6.90171L424.481 4.91127L425.476 4.8136L425.672 6.80404ZM420.454 5.31914L421.449 5.21649L421.654 7.20593L420.659 7.30857L420.454 5.31914ZM415.649 7.8382L414.655 7.94582L414.44 5.95744L415.434 5.84982L415.649 7.8382ZM410.425 6.40471L411.419 6.29212L411.644 8.2794L410.651 8.39199L410.425 6.40471ZM405.663 8.96984L404.669 9.0874L404.434 7.10127L405.427 6.98371L405.663 8.96984ZM400.441 7.58665L401.434 7.46412L401.679 9.44905L400.686 9.57158L400.441 7.58665ZM395.722 10.1971L394.73 10.3246L394.475 8.34092L395.467 8.21342L395.722 10.1971ZM390.505 8.86387L391.496 8.73142L391.761 10.7138L390.77 10.8463L390.505 8.86387ZM385.831 11.5189L384.84 11.6563L384.565 9.6753L385.556 9.53788L385.831 11.5189ZM380.586 10.2401L381.576 10.0977L381.861 12.0773L380.871 12.2198L380.586 10.2401ZM375.874 12.9517L374.885 13.0992L374.59 11.121L375.579 10.9736L375.874 12.9517ZM370.587 11.731L371.575 11.5784L371.88 13.555L370.892 13.7076L370.587 11.731ZM365.924 14.4872L364.937 14.6447L364.622 12.6697L365.609 12.5121L365.924 14.4872ZM360.647 13.317L361.634 13.1543L361.959 15.1277L360.972 15.2904L360.647 13.317ZM356.036 16.117L355.05 16.2847L354.715 14.313L355.701 14.1453L356.036 16.117ZM350.77 14.9971L351.755 14.8243L352.101 16.7942L351.116 16.967L350.77 14.9971ZM346.212 17.8402L345.228 18.018L344.872 16.0499L345.856 15.8721L346.212 17.8402ZM340.952 16.7715L341.936 16.5885L342.301 18.5548L341.318 18.7377L340.952 16.7715ZM336.343 19.6772L335.361 19.8654L334.984 17.9011L335.966 17.7129L336.343 19.6772ZM330.999 18.6782L331.98 18.4848L332.367 20.4471L331.386 20.6405L330.999 18.6782ZM326.448 21.6273L325.468 21.8259L325.071 19.8657L326.051 19.6671L326.448 21.6273ZM321.122 20.6796L322.101 20.4757L322.509 22.4338L321.53 22.6376L321.122 20.6796ZM316.631 23.6712L315.653 23.8803L315.235 21.9245L316.213 21.7154L316.631 23.6712ZM311.325 22.7744L312.301 22.5601L312.73 24.5136L311.753 24.7279L311.325 22.7744ZM306.896 25.8077L305.921 26.0273L305.481 24.0762L306.457 23.8565L306.896 25.8077ZM301.611 24.9615L302.585 24.7366L303.035 26.6853L302.061 26.9103L301.611 24.9615ZM297.129 28.0634L296.156 28.2938L295.695 26.3476L296.668 26.1172L297.129 28.0634ZM291.737 27.2994L292.709 27.0635L293.181 29.007L292.209 29.2429L291.737 27.2994ZM287.313 30.4461L286.343 30.6875L285.86 28.7466L286.831 28.5052L287.313 30.4461ZM281.948 29.7346L282.917 29.4876L283.411 31.4257L282.442 31.6726L281.948 29.7346ZM277.596 32.9225L276.628 33.175L276.123 31.2398L277.091 30.9873L277.596 32.9225ZM272.258 32.2631L273.225 32.0051L273.741 33.9373L272.775 34.1954L272.258 32.2631ZM267.979 35.4913L267.015 35.755L266.487 33.8258L267.452 33.5621L267.979 35.4913ZM262.672 34.8838L263.635 34.6145L264.174 36.5406L263.211 36.8099L262.672 34.8838ZM258.32 38.1935L257.359 38.4687L256.809 36.5459L257.77 36.2708L258.32 38.1935ZM252.893 37.6829L253.853 37.4018L254.415 39.3212L253.455 39.6023L252.893 37.6829ZM248.62 41.0347L247.662 41.3217L247.088 39.4059L248.046 39.1189L248.62 41.0347ZM243.228 40.5785L244.185 40.2855L244.77 42.1978L243.814 42.4907L243.228 40.5785ZM239.04 43.9701L238.085 44.2691L237.487 42.3605L238.442 42.0616L239.04 43.9701ZM233.686 43.568L234.639 43.2629L235.249 45.1676L234.296 45.4727L233.686 43.568ZM229.585 46.9982L228.634 47.3093L228.012 45.4085L228.963 45.0974L229.585 46.9982ZM224.222 46.6664L225.17 46.3491L225.805 48.2458L224.856 48.5631L224.222 46.6664ZM220.035 50.1943L219.089 50.518L218.441 48.6257L219.387 48.302L220.035 50.1943ZM214.589 49.962L215.533 49.6318L216.193 51.5196L215.249 51.8498L214.589 49.962ZM210.5 53.5292L209.559 53.8659L208.886 51.9827L209.827 51.646L210.5 53.5292ZM205.102 53.3539L206.042 53.0107L206.728 54.8892L205.789 55.2324L205.102 53.3539ZM201.115 56.9592L200.178 57.3091L199.479 55.4355L200.415 55.0856L201.115 56.9592ZM195.767 56.8408L196.701 56.4842L197.414 58.3527L196.48 58.7093L195.767 56.8408ZM191.883 60.4826L190.952 60.846L190.225 58.9826L191.157 58.6193L191.883 60.4826ZM186.413 60.4901L187.342 60.1197L188.083 61.9774L187.154 62.3478L186.413 60.4901ZM182.441 64.2483L181.515 64.6259L180.76 62.7739L181.686 62.3963L182.441 64.2483ZM177.003 64.3273L177.926 63.9424L178.696 65.7884L177.773 66.1732L177.003 64.3273ZM173.15 68.1226L172.23 68.5148L171.446 66.675L172.366 66.2828L173.15 68.1226ZM167.774 68.2626L168.691 67.8629L169.49 69.6963L168.573 70.0959L167.774 68.2626ZM164.043 72.0932L163.13 72.5003L162.315 70.6736L163.229 70.2665L164.043 72.0932ZM158.73 72.2941L159.64 71.8794L160.47 73.6992L159.56 74.114L158.73 72.2941ZM154.954 76.2378L154.048 76.6605L153.203 74.848L154.109 74.4253L154.954 76.2378ZM149.488 76.606L150.391 76.1751L151.253 77.9799L150.35 78.4108L149.488 76.606ZM145.801 80.6091L144.902 81.0483L144.024 79.2515L144.922 78.8123L145.801 80.6091ZM140.411 81.0439L141.306 80.5962L142.201 82.3847L141.307 82.8323L140.411 81.0439ZM136.868 85.0803L135.979 85.5364L135.066 83.7565L135.956 83.3004L136.868 85.0803ZM131.558 85.5818L132.443 85.117L133.373 86.8879L132.487 87.3527L131.558 85.5818ZM128.161 89.6504L127.281 90.1239L126.333 88.3623L127.214 87.8888L128.161 89.6504ZM122.69 90.3521L123.565 89.8693L124.531 91.6207L123.655 92.1035L122.69 90.3521ZM119.216 94.583L118.345 95.0754L117.361 93.3346L118.231 92.8422L119.216 94.583ZM113.839 95.3588L114.704 94.8568L115.708 96.5865L114.843 97.0885L113.839 95.3588ZM110.539 99.6197L109.68 100.132L108.656 98.4133L109.515 97.9015L110.539 99.6197ZM105.26 100.47L106.113 99.9483L107.156 101.655L106.303 102.176L105.26 100.47ZM102.138 104.758L101.291 105.29L100.227 103.596L101.074 103.064L102.138 104.758ZM96.8008 105.786L97.6408 105.243L98.7259 106.923L97.8859 107.466L96.8008 105.786ZM93.6143 110.265L92.7815 110.818L91.6743 109.153L92.507 108.599L93.6143 110.265ZM88.2952 111.44L89.1204 110.875L90.2502 112.526L89.425 113.091L88.2952 111.44ZM85.3192 115.943L84.502 116.52L83.3493 114.885L84.1665 114.309L85.3192 115.943ZM80.1219 117.205L80.9308 116.617L82.1068 118.235L81.298 118.823L80.1219 117.205ZM77.3624 121.728L76.5623 122.328L75.3625 120.727L76.1627 120.127L77.3624 121.728ZM72.1324 123.198L72.923 122.586L74.1478 124.167L73.3572 124.78L72.1324 123.198ZM69.3451 127.941L68.5648 128.566L67.314 127.005L68.0942 126.38L69.3451 127.941ZM64.1574 129.591L64.9269 128.952L66.2043 130.491L65.4348 131.13L64.1574 129.591ZM61.6277 134.347L60.8697 134.999L59.5653 133.483L60.3234 132.831L61.6277 134.347ZM56.5934 136.099L57.3395 135.433L58.6713 136.925L57.9252 137.591L56.5934 136.099ZM54.3286 140.862L53.5952 141.542L52.2356 140.075L52.969 139.395L54.3286 140.862ZM49.209 142.953L49.9282 142.258L51.3179 143.696L50.5988 144.391L49.209 142.953ZM46.9863 147.957L46.2823 148.667L44.8619 147.259L45.566 146.549L46.9863 147.957ZM42.0491 150.176L42.7371 149.451L44.1885 150.827L43.5005 151.552L42.0491 150.176ZM40.1429 155.176L39.4718 155.917L37.9891 154.575L38.6603 153.833L40.1429 155.176ZM35.4011 157.52L36.0543 156.763L37.5685 158.07L36.9153 158.827L35.4011 157.52ZM33.6628 162.696L33.0294 163.47L31.4818 162.203L32.1152 161.429L33.6628 162.696ZM28.9183 165.445L29.5302 164.654L31.112 165.878L30.5001 166.669L28.9183 165.445ZM27.4924 170.671L26.9032 171.479L25.2872 170.301L25.8764 169.493L27.4924 170.671ZM22.9919 173.572L23.557 172.747L25.207 173.878L24.6418 174.703L22.9919 173.572ZM21.9504 178.762L21.4108 179.604L19.7271 178.525L20.2667 177.683L21.9504 178.762ZM17.5721 182.044L18.0834 181.184L19.8022 182.207L19.2909 183.066L17.5721 182.044ZM16.7863 187.447L16.3054 188.324L14.5519 187.362L15.0328 186.485L16.7863 187.447ZM12.6818 190.959L13.1308 190.065L14.9179 190.963L14.4689 191.857L12.6818 190.959ZM12.3411 196.295L11.9258 197.205L10.1064 196.374L10.5216 195.465L12.3411 196.295ZM8.53577 200.048L8.91516 199.123L10.7656 199.882L10.3862 200.807L8.53577 200.048ZM8.57007 205.51L8.22949 206.45L6.349 205.769L6.68958 204.829L8.57007 205.51ZM5.0614 209.642L5.36133 208.688L7.26929 209.288L6.96924 210.242L5.0614 209.642ZM5.58667 215.001L5.32898 215.968L3.39648 215.452L3.65417 214.486L5.58667 215.001ZM2.47107 219.36L2.68494 218.383L4.63867 218.81L4.4248 219.787L2.47107 219.36ZM3.47461 224.668L3.30652 225.654L1.33496 225.318L1.50305 224.332L3.47461 224.668ZM0.769897 229.348L0.890869 228.355L2.87622 228.597L2.75525 229.59L0.769897 229.348ZM2.27283 234.537L2.19995 235.534L0.2052 235.389L0.278198 234.391L2.27283 234.537ZM0.0310059 239.46L0.0554199 238.46L2.05481 238.509L2.0304 239.509L0.0310059 239.46ZM1032.17 219.936C1031.7 219.237 1031.23 218.54 1030.76 217.844L1032.41 216.722C1032.89 217.42 1033.36 218.121 1033.83 218.824L1032.17 219.936ZM1027.91 213.695C1026.95 212.319 1025.98 210.951 1025.01 209.59L1026.63 208.426C1027.61 209.793 1028.58 211.168 1029.55 212.551L1027.91 213.695ZM1022.06 205.532C1021.07 204.186 1020.07 202.849 1019.07 201.518L1020.66 200.313C1021.67 201.65 1022.68 202.994 1023.67 204.347L1022.06 205.532ZM1016.03 197.55C1015.01 196.235 1013.98 194.927 1012.95 193.626L1014.51 192.381C1015.55 193.688 1016.59 195.002 1017.61 196.324L1016.03 197.55ZM1009.82 189.748C1008.77 188.458 1007.71 187.175 1006.64 185.901L1008.17 184.616C1009.25 185.898 1010.31 187.186 1011.37 188.483L1009.82 189.748ZM1003.39 182.071C1002.3 180.802 1001.2 179.541 1000.1 178.287L1001.6 176.965C1002.71 178.225 1003.81 179.492 1004.91 180.768L1003.39 182.071ZM996.762 174.548C995.643 173.309 994.516 172.078 993.383 170.854L994.85 169.495C995.989 170.725 997.121 171.962 998.246 173.207L996.762 174.548ZM989.961 167.204C988.813 165.995 987.658 164.794 986.496 163.6L987.93 162.205C989.097 163.405 990.258 164.612 991.411 165.827L989.961 167.204ZM982.991 160.039C981.814 158.859 980.631 157.686 979.441 156.521L980.84 155.092C982.036 156.263 983.225 157.442 984.407 158.628L982.991 160.039ZM975.841 153.038C974.634 151.885 973.421 150.739 972.201 149.6L973.566 148.138C974.791 149.282 976.011 150.433 977.223 151.593L975.841 153.038ZM968.52 146.205C967.287 145.081 966.047 143.965 964.8 142.855L966.13 141.361C967.382 142.476 968.628 143.598 969.868 144.727L968.52 146.205ZM961.041 139.549C959.781 138.454 958.515 137.366 957.243 136.286L958.537 134.761C959.816 135.847 961.087 136.939 962.353 138.039L961.041 139.549ZM953.406 133.066C952.122 132.001 950.831 130.943 949.533 129.892L950.793 128.338C952.096 129.394 953.392 130.457 954.683 131.527L953.406 133.066ZM945.632 126.767C944.326 125.733 943.013 124.706 941.694 123.686L942.918 122.104C944.242 123.129 945.561 124.16 946.874 125.199L945.632 126.767ZM937.72 120.647C936.389 119.641 935.052 118.642 933.71 117.65L934.898 116.042C936.246 117.038 937.589 118.041 938.926 119.051L937.72 120.647ZM929.664 114.696C928.31 113.719 926.949 112.748 925.583 111.784L926.736 110.15C928.108 111.118 929.474 112.093 930.834 113.075L929.664 114.696ZM921.468 108.915C920.092 107.965 918.709 107.023 917.321 106.088L918.439 104.43C919.833 105.369 921.221 106.315 922.604 107.268L921.468 108.915ZM913.168 103.321C911.778 102.406 910.383 101.497 908.982 100.595L910.065 98.9136C911.471 99.8192 912.872 100.732 914.268 101.651L913.168 103.321ZM904.764 97.9102C903.352 97.022 901.936 96.1405 900.514 95.2659L901.562 93.5624C902.989 94.4406 904.412 95.3256 905.829 96.2175L904.764 97.9102ZM896.232 92.6621C894.8 91.8009 893.363 90.9464 891.92 90.0987L892.934 88.3744C894.382 89.2255 895.825 90.0834 897.263 90.948L896.232 92.6621ZM887.578 87.5756C886.125 86.7412 884.667 85.9136 883.205 85.0926L884.184 83.3486C885.652 84.1728 887.115 85.0037 888.574 85.8413L887.578 87.5756ZM878.843 82.6714C877.385 81.8715 875.922 81.078 874.455 80.2911L875.4 78.5286C876.873 79.3186 878.341 80.115 879.805 80.9181L878.843 82.6714ZM870.039 77.9496C868.563 77.1756 867.082 76.4081 865.596 75.6469L866.508 73.8669C867.999 74.6309 869.486 75.4013 870.968 76.1783L870.039 77.9496ZM861.125 73.3829C859.631 72.6346 858.132 71.8927 856.628 71.1572L857.507 69.3606C859.016 70.0988 860.521 70.8434 862.021 71.5944L861.125 73.3829ZM852.104 68.9699C850.592 68.2472 849.076 67.5308 847.555 66.8208L848.401 65.0085C849.927 65.7211 851.449 66.4401 852.967 67.1654L852.104 68.9699ZM843.016 64.726C841.503 64.0363 839.987 63.3528 838.467 62.6754L839.281 60.8486C840.807 61.5283 842.328 62.2142 843.846 62.9064L843.016 64.726ZM833.895 60.6618C832.367 59.9967 830.835 59.3377 829.299 58.6848L830.081 56.8442C831.622 57.4993 833.159 58.1605 834.693 58.8279L833.895 60.6618ZM824.679 56.7445C823.136 56.1038 821.588 55.4692 820.037 54.8407L820.788 52.9871C822.345 53.6177 823.897 54.2545 825.446 54.8973L824.679 56.7445ZM815.373 52.9732C813.814 52.3567 812.252 51.7463 810.686 51.1419L811.406 49.2761C812.977 49.8825 814.545 50.4949 816.108 51.1134L815.373 52.9732ZM805.999 49.3544C804.444 48.7687 802.886 48.1889 801.324 47.6149L802.014 45.7377C803.581 46.3135 805.144 46.8952 806.704 47.4828L805.999 49.3544ZM796.629 45.9103C795.061 45.348 793.489 44.7914 791.915 44.2406L792.575 42.3527C794.155 42.9052 795.731 43.4636 797.304 44.0277L796.629 45.9103ZM787.18 42.6055C785.599 42.0663 784.015 41.5328 782.427 41.005L783.058 39.1072C784.65 39.6365 786.24 40.1717 787.826 40.7126L787.18 42.6055ZM777.655 39.4389C776.062 38.9226 774.465 38.412 772.866 37.9071L773.468 35.9999C775.072 36.5063 776.673 37.0184 778.272 37.5363L777.655 39.4389ZM768.058 36.4095C766.469 35.9211 764.878 35.4382 763.283 34.9609L763.857 33.0449C765.456 33.5237 767.052 34.0079 768.646 34.4978L768.058 36.4095ZM758.494 33.5461C756.895 33.08 755.293 32.6193 753.688 32.1642L754.234 30.2401C755.843 30.6966 757.45 31.1585 759.053 31.626L758.494 33.5461ZM748.867 30.8152C747.257 30.3711 745.645 29.9323 744.03 29.499L744.548 27.5674C746.167 28.0019 747.784 28.4418 749.399 28.8873L748.867 30.8152ZM739.178 28.2154C737.558 27.793 735.936 27.3759 734.311 26.9643L734.803 25.0256C736.432 25.4383 738.058 25.8565 739.683 26.2802L739.178 28.2154ZM729.431 25.7455C727.808 25.3464 726.184 24.9526 724.557 24.5641L725.022 22.6188C726.653 23.0083 728.282 23.4032 729.908 23.8035L729.431 25.7455ZM719.695 23.4202C718.073 23.0441 716.448 22.6733 714.821 22.3076L715.259 20.3563C716.891 20.7229 718.52 21.0947 720.147 21.4718L719.695 23.4202ZM709.934 21.2264C708.303 20.8711 706.67 20.5211 705.035 20.1762L705.447 18.2192C707.087 18.565 708.724 18.916 710.359 19.2722L709.934 21.2264ZM700.124 19.1569C698.485 18.8224 696.844 18.4929 695.202 18.1686L695.589 16.2065C697.236 16.5316 698.881 16.8619 700.524 17.1974L700.124 19.1569ZM690.269 17.2109C688.623 16.8968 686.975 16.5878 685.326 16.2839L685.688 14.317C687.342 14.6217 688.994 14.9315 690.644 15.2464L690.269 17.2109ZM680.404 15.393C678.763 15.1013 677.121 14.8146 675.477 14.5328L675.815 12.5616C677.463 12.844 679.109 13.1314 680.754 13.4239L680.404 15.393ZM670.542 13.7024C668.895 13.4305 667.247 13.1636 665.597 12.9016L665.911 10.9264C667.564 11.189 669.217 11.4566 670.867 11.7291L670.542 13.7024ZM660.644 12.1304C658.992 11.8782 657.338 11.6309 655.683 11.3885L655.973 9.40963C657.632 9.65261 659.289 9.90049 660.946 10.1533L660.644 12.1304ZM650.714 10.6759C649.056 10.4432 647.398 10.2154 645.738 9.99243L646.004 8.01024C647.668 8.23375 649.331 8.4621 650.992 8.69532L650.714 10.6759ZM640.76 9.33866C639.106 9.12635 637.451 8.91881 635.795 8.71602L636.038 6.73085C637.698 6.93411 639.357 7.14213 641.015 7.35493L640.76 9.33866ZM630.823 8.12186C629.165 7.92854 627.506 7.73995 625.846 7.55606L626.066 5.56822C627.73 5.75253 629.393 5.94155 631.055 6.13532L630.823 8.12186ZM620.863 7.01848C619.201 6.84398 617.539 6.67417 615.875 6.50901L616.073 4.5188C617.74 4.68432 619.406 4.85452 621.072 5.02942L620.863 7.01848ZM610.883 6.02752C609.218 5.87168 607.552 5.72047 605.886 5.57389L606.061 3.58158C607.731 3.72849 609.401 3.88003 611.069 4.03623L610.883 6.02752ZM600.885 5.14799C599.22 5.01077 597.553 4.87815 595.886 4.75009L596.04 2.75597C597.71 2.8843 599.38 3.01722 601.05 3.15474L600.885 5.14799ZM590.889 4.37996C589.222 4.26113 587.556 4.14684 585.888 4.03708L586.02 2.0414C587.691 2.1514 589.361 2.26594 591.031 2.38502L590.889 4.37996ZM580.886 3.72132C579.218 3.62057 577.549 3.52433 575.881 3.43257L575.991 1.43559C577.663 1.52755 579.335 1.624 581.006 1.72496L580.886 3.72132ZM570.874 3.1707C569.205 3.08788 567.536 3.00951 565.866 2.93559L565.955 0.937546C567.628 1.01163 569.301 1.09016 570.973 1.17316L570.874 3.1707ZM560.857 2.72711C559.188 2.66204 557.518 2.6014 555.848 2.54515L555.915 0.54628C557.589 0.602648 559.262 0.663424 560.935 0.728628L560.857 2.72711ZM550.833 2.38942C549.161 2.34189 547.489 2.29875 545.817 2.25998L545.863 0.260515C547.539 0.299368 549.214 0.342597 550.89 0.390224L550.833 2.38942ZM540.801 2.15675C539.13 2.12669 537.458 2.10098 535.787 2.07959L535.812 0.0797584C537.487 0.101186 539.162 0.126949 540.837 0.157069L540.801 2.15675ZM530.773 2.0284C529.102 2.01565 527.432 2.0072 525.762 2.00304L525.767 0.00304818C527.44 0.0072183 529.114 0.015682 530.789 0.0284601L530.773 2.0284ZM520.752 2.00339C519.082 2.00778 517.413 2.01643 515.745 2.02932L515.729 0.0293837C517.401 0.0164629 519.074 0.00779396 520.747 0.0033977L520.752 2.00339ZM510.737 2.08075C509.061 2.10222 507.386 2.12795 505.711 2.15793L505.676 0.158249C507.354 0.128214 509.032 0.10243 510.711 0.0809174L510.737 2.08075ZM500.689 2.26056C499.016 2.299 497.343 2.34166 495.671 2.38852L495.615 0.389303C497.29 0.342348 498.966 0.299602 500.643 0.261086L500.689 2.26056ZM490.657 2.54168C488.986 2.59692 487.316 2.65634 485.647 2.71992L485.571 0.721368C487.243 0.657662 488.917 0.598123 490.591 0.542772L490.657 2.54168ZM480.643 2.92311C478.976 2.99498 477.309 3.07099 475.644 3.15112L475.548 1.15343C477.216 1.07314 478.886 0.996978 480.557 0.924961L480.643 2.92311ZM470.651 3.40382C468.981 3.49251 467.312 3.58533 465.644 3.68225L465.528 1.68562C467.199 1.5885 468.871 1.4955 470.544 1.40664L470.651 3.40382ZM460.62 3.98679C458.946 4.09244 457.274 4.20221 455.603 4.31608L455.467 2.3207C457.142 2.20661 458.817 2.09662 460.494 1.99077L460.62 3.98679ZM450.594 4.66997C448.925 4.79202 447.258 4.91815 445.592 5.04834L445.436 3.05442C447.106 2.92397 448.776 2.79759 450.448 2.6753L450.594 4.66997ZM440.599 5.45106C438.936 5.58935 437.274 5.73167 435.614 5.87801L435.438 3.88573C437.102 3.73911 438.767 3.5965 440.433 3.45794L440.599 5.45106ZM430.638 6.32904C428.981 6.48339 427.325 6.64173 425.672 6.80404L425.476 4.8136C427.133 4.65097 428.792 4.49232 430.453 4.33766L430.638 6.32904ZM420.659 7.30857C418.988 7.48107 417.318 7.65762 415.649 7.8382L415.434 5.84982C417.106 5.66888 418.779 5.49198 420.454 5.31914L420.659 7.30857ZM410.651 8.39199C408.986 8.58061 407.323 8.77323 405.663 8.96984L405.427 6.98371C407.091 6.78671 408.757 6.5937 410.425 6.40471L410.651 8.39199ZM400.686 9.57158C399.029 9.77613 397.375 9.98465 395.722 10.1971L395.467 8.21342C397.123 8.00054 398.781 7.79161 400.441 7.58665L400.686 9.57158ZM390.77 10.8463C389.121 11.0666 387.475 11.2908 385.831 11.5189L385.556 9.53788C387.203 9.3093 388.853 9.08462 390.505 8.86387L390.77 10.8463ZM380.871 12.2198C379.203 12.4597 377.537 12.7037 375.874 12.9517L375.579 10.9736C377.246 10.7251 378.915 10.4806 380.586 10.2401L380.871 12.2198ZM370.892 13.7076C369.234 13.9635 367.578 14.2233 365.924 14.4872L365.609 12.5121C367.266 12.2478 368.925 11.9874 370.587 11.731L370.892 13.7076ZM360.972 15.2904C359.324 15.562 357.679 15.8376 356.036 16.117L355.701 14.1453C357.347 13.8653 358.996 13.5892 360.647 13.317L360.972 15.2904ZM351.116 16.967C349.478 17.2542 347.844 17.5453 346.212 17.8402L345.856 15.8721C347.492 15.5766 349.13 15.2849 350.77 14.9971L351.116 16.967ZM341.318 18.7377C339.657 19.0469 337.998 19.3601 336.343 19.6772L335.966 17.7129C337.625 17.3951 339.287 17.0813 340.952 16.7715L341.318 18.7377ZM331.386 20.6405C329.737 20.9655 328.091 21.2944 326.448 21.6273L326.051 19.6671C327.697 19.3336 329.346 19.0039 330.999 18.6782L331.386 20.6405ZM321.53 22.6376C319.894 22.9783 318.261 23.3228 316.631 23.6712L316.213 21.7154C317.846 21.3662 319.482 21.021 321.122 20.6796L321.53 22.6376ZM311.753 24.7279C310.131 25.084 308.512 25.4439 306.896 25.8077L306.457 23.8565C308.076 23.492 309.699 23.1313 311.325 22.7744L311.753 24.7279ZM302.061 26.9103C300.413 27.2907 298.769 27.6751 297.129 28.0634L296.668 26.1172C298.312 25.728 299.959 25.3428 301.611 24.9615L302.061 26.9103ZM292.209 29.2429C290.573 29.64 288.941 30.0411 287.313 30.4461L286.831 28.5052C288.462 28.0993 290.098 27.6974 291.737 27.2994L292.209 29.2429ZM282.442 31.6726C280.822 32.0854 279.207 32.502 277.596 32.9225L277.091 30.9873C278.706 30.5658 280.325 30.1483 281.948 29.7346L282.442 31.6726ZM272.775 34.1954C271.172 34.6235 269.573 35.0555 267.979 35.4913L267.452 33.5621C269.05 33.1253 270.652 32.6923 272.258 32.2631L272.775 34.1954ZM263.211 36.8099C261.576 37.2671 259.946 37.7283 258.32 38.1935L257.77 36.2708C259.399 35.8044 261.033 35.3421 262.672 34.8838L263.211 36.8099ZM253.455 39.6023C251.838 40.0758 250.227 40.5533 248.62 41.0347L248.046 39.1189C249.656 38.6363 251.272 38.1576 252.893 37.6829L253.455 39.6023ZM243.814 42.4907C242.218 42.98 240.626 43.4731 239.04 43.9701L238.442 42.0616C240.032 41.5633 241.628 41.069 243.228 40.5785L243.814 42.4907ZM234.296 45.4727C232.721 45.9773 231.15 46.4859 229.585 46.9982L228.963 45.0974C230.532 44.5838 232.106 44.0739 233.686 43.568L234.296 45.4727ZM224.856 48.5631C223.243 49.1028 221.636 49.6465 220.035 50.1943L219.387 48.302C220.993 47.7527 222.604 47.2075 224.222 46.6664L224.856 48.5631ZM215.249 51.8498C213.66 52.4056 212.077 52.9654 210.5 53.5292L209.827 51.646C211.408 51.0807 212.996 50.5193 214.589 49.962L215.249 51.8498ZM205.789 55.2324C204.225 55.8041 202.667 56.3797 201.115 56.9592L200.415 55.0856C201.971 54.5045 203.534 53.9272 205.102 53.3539L205.789 55.2324ZM196.48 58.7093C194.941 59.2966 193.409 59.8877 191.883 60.4826L191.157 58.6193C192.687 58.0226 194.223 57.4297 195.767 56.8408L196.48 58.7093ZM187.154 62.3478C185.575 62.9772 184.005 63.6107 182.441 64.2483L181.686 62.3963C183.254 61.7568 184.83 61.1214 186.413 60.4901L187.154 62.3478ZM177.773 66.1732C176.224 66.819 174.683 67.4688 173.15 68.1226L172.366 66.2828C173.904 65.6269 175.45 64.9751 177.003 64.3273L177.773 66.1732ZM168.573 70.0959C167.055 70.7577 165.545 71.4235 164.043 72.0932L163.229 70.2665C164.736 69.5945 166.251 68.9265 167.774 68.2626L168.573 70.0959ZM159.56 74.114C158.016 74.8177 156.481 75.5257 154.954 76.2378L154.109 74.4253C155.641 73.7107 157.181 73.0003 158.73 72.2941L159.56 74.114ZM150.35 78.4108C148.825 79.1394 147.308 79.8721 145.801 80.6091L144.922 78.8123C146.435 78.0726 147.957 77.3372 149.488 76.606L150.35 78.4108ZM141.307 82.8323C139.818 83.5775 138.338 84.3269 136.868 85.0803L135.956 83.3004C137.432 82.5441 138.917 81.7919 140.411 81.0439L141.307 82.8323ZM132.487 87.3527C131.036 88.1146 129.594 88.8805 128.161 89.6504L127.214 87.8888C128.652 87.1158 130.1 86.3467 131.558 85.5818L132.487 87.3527ZM123.655 92.1035C122.164 92.9257 120.685 93.7522 119.216 94.583L118.231 92.8422C119.706 92.0078 121.192 91.1777 122.69 90.3521L123.655 92.1035ZM114.843 97.0885C113.397 97.9279 111.962 98.7717 110.539 99.6197L109.515 97.9015C110.945 97.0496 112.387 96.202 113.839 95.3588L114.843 97.0885ZM106.303 102.176C104.903 103.033 103.515 103.893 102.138 104.758L101.074 103.064C102.458 102.195 103.853 101.331 105.26 100.47L106.303 102.176ZM97.8859 107.466C96.4484 108.394 95.0245 109.327 93.6143 110.265L92.507 108.599C93.9247 107.657 95.356 106.719 96.8008 105.786L97.8859 107.466ZM89.425 113.091C88.0424 114.037 86.6738 114.988 85.3192 115.943L84.1665 114.309C85.5288 113.348 86.9051 112.392 88.2952 111.44L89.425 113.091ZM81.298 118.823C79.9717 119.787 78.6598 120.755 77.3624 121.728L76.1627 120.127C77.4681 119.149 78.7879 118.175 80.1219 117.205L81.298 118.823ZM73.3572 124.78C72.003 125.828 70.6655 126.882 69.3451 127.941L68.0942 126.38C69.4235 125.315 70.7697 124.254 72.1324 123.198L73.3572 124.78ZM65.4348 131.13C64.1486 132.197 62.8795 133.27 61.6277 134.347L60.3234 132.831C61.5841 131.746 62.8622 130.666 64.1574 129.591L65.4348 131.13ZM57.9252 137.591C56.7086 138.677 55.5096 139.767 54.3286 140.862L52.969 139.395C54.1594 138.292 55.3676 137.193 56.5934 136.099L57.9252 137.591ZM50.5988 144.391C49.3737 145.575 48.1695 146.764 46.9863 147.957L45.566 146.549C46.7593 145.345 47.9738 144.147 49.209 142.953L50.5988 144.391ZM43.5005 151.552C42.3598 152.755 41.2405 153.963 40.1429 155.176L38.6603 153.833C39.7684 152.609 40.8981 151.39 42.0491 150.176L43.5005 151.552ZM36.9153 158.827C35.8068 160.111 34.7225 161.401 33.6628 162.696L32.1152 161.429C33.186 160.121 34.2814 158.818 35.4011 157.52L36.9153 158.827ZM30.5001 166.669C29.4716 167.998 28.4689 169.332 27.4924 170.671L25.8764 169.493C26.8643 168.138 27.8784 166.789 28.9183 165.445L30.5001 166.669ZM24.6418 174.703C23.7181 176.051 22.8209 177.404 21.9504 178.762L20.2667 177.683C21.1483 176.308 22.0568 174.937 22.9919 173.572L24.6418 174.703ZM19.2909 183.066C18.4251 184.521 17.5901 185.982 16.7863 187.447L15.0328 186.485C15.848 184.999 16.6946 183.518 17.5721 182.044L19.2909 183.066ZM14.4689 191.857C13.7279 193.331 13.0185 194.811 12.3411 196.295L10.5216 195.465C11.2096 193.957 11.9298 192.455 12.6818 190.959L14.4689 191.857ZM10.3862 200.807C9.74518 202.37 9.13965 203.938 8.57007 205.51L6.68958 204.829C7.2688 203.23 7.8844 201.636 8.53577 200.048L10.3862 200.807ZM6.96924 210.242C6.47192 211.824 6.01086 213.41 5.58667 215.001L3.65417 214.486C4.08606 212.866 4.5553 211.252 5.0614 209.642L6.96924 210.242ZM4.4248 219.787C4.06958 221.41 3.75269 223.037 3.47461 224.668L1.50305 224.332C1.78638 222.67 2.10925 221.012 2.47107 219.36L4.4248 219.787ZM2.75525 229.59C2.55481 231.235 2.39392 232.884 2.27283 234.537L0.278198 234.391C0.401611 232.706 0.565674 231.025 0.769897 229.348L2.75525 229.59ZM2.0304 239.509C2.01013 240.338 2 241.169 2 242H0C0 241.152 0.010376 240.306 0.0310059 239.46L2.0304 239.509Z" fill="#4C4EF8"/>
</svg>
