<svg width="700" height="443" viewBox="0 0 700 443" fill="none" xmlns="http://www.w3.org/2000/svg">
<path d="M1.44336 129.231C1.31573 129.476 1.01373 129.571 0.76886 129.443C0.523987 129.316 0.428955 129.014 0.556641 128.769L1.44336 129.231ZM698.445 440.433L698.433 439.933L699.433 439.909L699.445 440.409L698.445 440.433ZM699.303 435.308L699.319 435.808L698.32 435.84L698.304 435.34L699.303 435.308ZM698.121 430.279L698.101 429.78L699.101 429.739L699.121 430.239L698.121 430.279ZM698.897 425.202L698.921 425.702L697.923 425.75L697.898 425.251L698.897 425.202ZM697.635 420.255L697.606 419.755L698.605 419.699L698.633 420.198L697.635 420.255ZM698.329 415.225L698.361 415.724L697.363 415.789L697.331 415.291L698.329 415.225ZM696.987 410.359L696.95 409.86L697.947 409.786L697.984 410.285L696.987 410.359ZM697.6 405.376L697.641 405.875L696.644 405.957L696.603 405.459L697.6 405.376ZM696.18 400.591L696.134 400.093L697.13 400.002L697.175 400.5L696.18 400.591ZM696.697 395.505L696.747 396.002L695.752 396.102L695.702 395.605L696.697 395.505ZM695.172 390.549L695.117 390.052L696.111 389.943L696.166 390.44L695.172 390.549ZM695.592 385.411L695.651 385.907L694.658 386.025L694.599 385.529L695.592 385.411ZM693.983 380.544L693.919 380.048L694.911 379.921L694.975 380.417L693.983 380.544ZM694.316 375.458L694.384 375.953L693.393 376.089L693.325 375.594L694.316 375.458ZM692.625 370.679L692.552 370.185L693.542 370.039L693.614 370.534L692.625 370.679ZM692.871 365.645L692.949 366.139L691.961 366.294L691.883 365.8L692.871 365.645ZM691.101 360.955L691.018 360.462L692.005 360.298L692.087 360.791L691.101 360.955ZM691.256 355.943L691.343 356.435L690.358 356.609L690.271 356.116L691.256 355.943ZM689.363 351.11L689.272 350.619L690.255 350.435L690.346 350.927L689.363 351.11ZM689.392 345.95L689.489 346.44L688.508 346.633L688.411 346.143L689.392 345.95ZM687.414 341.214L687.313 340.724L688.292 340.521L688.393 341.01L687.414 341.214ZM687.351 336.11L687.458 336.598L686.481 336.811L686.374 336.323L687.351 336.11ZM685.29 331.47L685.179 330.982L686.154 330.759L686.265 331.247L685.29 331.47ZM685.136 326.422L685.253 326.909L684.28 327.141L684.164 326.655L685.136 326.422ZM682.994 321.879L682.873 321.394L683.843 321.151L683.965 321.636L682.994 321.879ZM682.747 316.876L682.874 317.36L681.906 317.612L681.78 317.128L682.747 316.876ZM680.47 312.221L680.338 311.739L681.303 311.476L681.435 311.958L680.47 312.221ZM680.076 307.082L680.213 307.563L679.251 307.836L679.115 307.356L680.076 307.082ZM677.714 302.531L677.572 302.052L678.531 301.768L678.673 302.247L677.714 302.531ZM677.225 297.453L677.373 297.931L676.417 298.225L676.27 297.748L677.225 297.453ZM674.781 293.005L674.629 292.529L675.581 292.224L675.733 292.701L674.781 293.005ZM674.197 287.989L674.355 288.464L673.406 288.779L673.248 288.304L674.197 287.989ZM671.673 283.644L671.51 283.171L672.455 282.846L672.618 283.319L671.673 283.644ZM670.975 278.63L671.143 279.101L670.201 279.437L670.033 278.966L670.975 278.63ZM668.305 274.209L668.132 273.74L669.069 273.394L669.243 273.863L668.305 274.209ZM667.466 269.139L667.644 269.606L666.71 269.964L666.532 269.497L667.466 269.139ZM664.713 264.828L664.529 264.363L665.459 263.995L665.643 264.46L664.713 264.828ZM663.776 259.825L663.966 260.287L663.04 260.666L662.851 260.204L663.776 259.825ZM660.944 255.623L660.749 255.162L661.67 254.773L661.865 255.233L660.944 255.623ZM659.91 250.686L660.11 251.144L659.193 251.544L658.993 251.086L659.91 250.686ZM657 246.592L656.794 246.137L657.706 245.726L657.911 246.182L657 246.592ZM655.807 241.587L656.018 242.04L655.112 242.462L654.901 242.008L655.807 241.587ZM652.749 237.454L652.533 237.003L653.434 236.57L653.651 237.021L652.749 237.454ZM651.449 232.502L651.671 232.95L650.774 233.394L650.553 232.946L651.449 232.502ZM648.312 228.484L648.085 228.039L648.976 227.584L649.203 228.03L648.312 228.484ZM646.913 223.604L647.146 224.047L646.26 224.511L646.028 224.069L646.913 223.604ZM643.7 219.7L643.463 219.26L644.342 218.784L644.58 219.224L643.7 219.7ZM642.204 214.891L642.447 215.328L641.573 215.814L641.33 215.377L642.204 214.891ZM638.868 211.013L638.62 210.579L639.488 210.083L639.736 210.517L638.868 211.013ZM637.203 206.154L637.457 206.585L636.595 207.092L636.342 206.661L637.203 206.154ZM633.771 202.357L633.512 201.93L634.367 201.412L634.626 201.839L633.771 202.357ZM632.006 197.574L632.271 197.998L631.422 198.527L631.158 198.102L632.006 197.574ZM628.502 193.896L628.232 193.474L629.074 192.935L629.344 193.356L628.502 193.896ZM626.639 189.188L626.914 189.605L626.078 190.155L625.804 189.737L626.639 189.188ZM623.064 185.627L622.784 185.213L623.613 184.653L623.893 185.067L623.064 185.627ZM621.057 180.925L621.342 181.336L620.521 181.906L620.236 181.495L621.057 180.925ZM617.346 177.386L617.055 176.978L617.87 176.398L618.16 176.805L617.346 177.386ZM615.221 172.736L615.516 173.139L614.709 173.73L614.414 173.326L615.221 172.736ZM611.441 169.317L611.14 168.917L611.94 168.316L612.24 168.716L611.441 169.317ZM609.219 164.747L609.524 165.143L608.732 165.754L608.427 165.358L609.219 164.747ZM605.374 161.448L605.063 161.056L605.848 160.436L606.158 160.828L605.374 161.448ZM603.057 156.959L603.372 157.347L602.596 157.978L602.281 157.589L603.057 156.959ZM599.094 153.713L598.774 153.329L599.542 152.689L599.862 153.073L599.094 153.713ZM596.62 149.231L596.945 149.611L596.184 150.261L595.86 149.88L596.62 149.231ZM592.587 146.099L592.257 145.723L593.009 145.064L593.339 145.44L592.587 146.099ZM590.019 141.701L590.353 142.073L589.609 142.741L589.275 142.37L590.019 141.701ZM585.926 138.691L585.587 138.324L586.322 137.646L586.661 138.013L585.926 138.691ZM583.266 134.377L583.609 134.741L582.883 135.428L582.539 135.064L583.266 134.377ZM579.105 131.478L578.757 131.119L579.475 130.423L579.823 130.782L579.105 131.478ZM576.299 127.192L576.651 127.547L575.942 128.252L575.59 127.897L576.299 127.192ZM572.038 124.369L571.681 124.019L572.381 123.305L572.738 123.655L572.038 124.369ZM569.142 120.171L569.503 120.517L568.812 121.239L568.45 120.894L569.142 120.171ZM564.828 117.471L564.462 117.13L565.144 116.399L565.51 116.74L564.828 117.471ZM561.843 113.361L562.213 113.698L561.54 114.437L561.17 114.101L561.843 113.361ZM557.479 110.782L557.105 110.45L557.769 109.703L558.143 110.035L557.479 110.782ZM554.379 106.735L554.757 107.062L554.103 107.818L553.725 107.491L554.379 106.735ZM549.919 104.236L549.537 103.913L550.182 103.149L550.564 103.472L549.919 104.236ZM546.715 100.263L547.101 100.58L546.466 101.352L546.08 101.034L546.715 100.263ZM542.208 97.8861L541.819 97.573L542.445 96.7934L542.835 97.1065L542.208 97.8861ZM538.922 94.0037L539.316 94.312L538.699 95.0992L538.306 94.7909L538.922 94.0037ZM534.373 91.7487L533.975 91.4452L534.582 90.6505L534.98 90.954L534.373 91.7487ZM531.002 87.9538L531.403 88.2525L530.805 89.0545L530.404 88.7558L531.002 87.9538ZM526.369 85.7885L525.965 85.4948L526.552 84.6856L526.957 84.9793L526.369 85.7885ZM522.882 82.0587L523.291 82.3475L522.713 83.1638L522.305 82.875L522.882 82.0587ZM518.212 80.0151L517.8 79.7312L518.368 78.908L518.779 79.1919L518.212 80.0151ZM514.649 76.3789L515.064 76.6578L514.506 77.4877L514.091 77.2088L514.649 76.3789ZM509.942 74.4559L509.524 74.1819L510.072 73.3454L510.49 73.6194L509.942 74.4559ZM506.306 70.9134L506.727 71.1824L506.189 72.0253L505.768 71.7563L506.306 70.9134ZM501.542 69.094L501.117 68.83L501.645 67.9808L502.07 68.2448L501.542 69.094ZM497.796 65.6227L498.223 65.8816L497.706 66.7371L497.278 66.4781L497.796 65.6227ZM492.989 63.9162L492.558 63.6623L493.066 62.8008L493.497 63.0547L492.989 63.9162ZM489.174 60.5407L489.608 60.7895L489.11 61.6569L488.677 61.4081L489.174 60.5407ZM484.34 58.9536L483.904 58.7099L484.391 57.8368L484.828 58.0805L484.34 58.9536ZM480.459 55.6741L480.898 55.9128L480.421 56.7915L479.982 56.5528L480.459 55.6741ZM475.59 54.1998L475.148 53.9662L475.615 53.0821L476.057 53.3156L475.59 54.1998ZM471.61 50.9983L472.054 51.2268L471.597 52.1163L471.153 51.8878L471.61 50.9983ZM466.694 49.6299L466.247 49.4065L466.694 48.5118L467.141 48.7352L466.694 49.6299ZM462.652 46.5262L463.102 46.7444L462.666 47.6441L462.216 47.4259L462.652 46.5262ZM457.718 45.2759L457.266 45.0628L457.692 44.1582L458.144 44.3712L457.718 45.2759ZM453.618 42.2702L454.072 42.4781L453.657 43.3875L453.202 43.1796L453.618 42.2702ZM448.668 41.1369L448.211 40.9341L448.616 40.0201L449.073 40.2229L448.668 41.1369ZM444.477 38.2143L444.936 38.4119L444.541 39.3305L444.081 39.1329L444.477 38.2143ZM439.478 37.1827L439.016 36.9903L439.401 36.0673L439.863 36.2598L439.478 37.1827ZM435.233 34.3595L435.697 34.5467L435.322 35.474L434.859 35.2867L435.233 34.3595ZM430.224 33.4447L429.758 33.2626L430.123 32.3313L430.588 32.5133L430.224 33.4447ZM425.929 30.7212L426.397 30.8981L426.043 31.8334L425.575 31.6565L425.929 30.7212ZM420.912 29.9221L420.443 29.7503L420.786 28.8112L421.256 28.9829L420.912 29.9221ZM416.543 27.289L417.015 27.4555L416.682 28.3984L416.21 28.2319L416.543 27.289ZM411.485 26.592L411.011 26.4307L411.334 25.4842L411.807 25.6455L411.485 26.592ZM407.06 24.0564L407.535 24.2125L407.223 25.1625L406.748 25.0064L407.06 24.0564ZM402 23.4749L401.523 23.324L401.825 22.3706L402.301 22.5215L402 23.4749ZM397.533 21.0407L398.011 21.1864L397.72 22.143L397.242 21.9973L397.533 21.0407ZM392.474 20.5737L391.995 20.4332L392.275 19.4735L392.755 19.6139L392.474 20.5737ZM387.949 18.2353L388.43 18.3706L388.16 19.3333L387.678 19.198L387.949 18.2353ZM382.852 17.8706L382.37 17.7406L382.63 16.775L383.112 16.9049L382.852 17.8706ZM378.269 15.6291L378.753 15.7538L378.504 16.7222L378.019 16.5975L378.269 15.6291ZM373.18 15.3788L372.695 15.2593L372.934 14.2883L373.419 14.4077L373.18 15.3788ZM368.564 13.2407L369.051 13.3549L368.822 14.3285L368.335 14.2142L368.564 13.2407ZM363.486 13.1038L362.998 12.9948L363.216 12.0188L363.704 12.1278L363.486 13.1038ZM358.825 11.0658L359.314 11.1695L359.107 12.1478L358.618 12.044L358.825 11.0658ZM353.712 11.0316L353.222 10.9332L353.419 9.95277L353.909 10.0512L353.712 11.0316ZM348.99 9.09147L349.482 9.18457L349.295 10.1671L348.804 10.074L348.99 9.09147ZM343.895 9.17097L343.402 9.08318L343.578 8.09872L344.07 8.18651L343.895 9.17097ZM339.149 7.33619L339.643 7.41867L339.478 8.40497L338.984 8.32249L339.149 7.33619ZM334.074 7.52839L333.58 7.45122L333.735 6.4632L334.229 6.54037L334.074 7.52839ZM329.298 5.79725L329.792 5.86909L329.649 6.85871L329.154 6.78687L329.298 5.79725ZM324.189 6.09353L323.693 6.02707L323.826 5.03595L324.322 5.1024L324.189 6.09353ZM319.349 4.46295L319.845 4.52402L319.723 5.51653L319.227 5.45546L319.349 4.46295ZM314.268 4.87251L313.771 4.81683L313.882 3.82305L314.379 3.87873L314.268 4.87251ZM309.414 3.34962L309.911 3.3999L309.811 4.39483L309.313 4.34455L309.414 3.34962ZM304.364 3.87144L303.866 3.82657L303.956 2.8306L304.454 2.87548L304.364 3.87144ZM299.489 2.45531L299.987 2.49476L299.909 3.49164L299.41 3.45219L299.489 2.45531ZM294.406 3.08392L293.908 3.04996L293.976 2.05227L294.474 2.08622L294.406 3.08392ZM289.468 1.77319L289.967 1.80164L289.91 2.80002L289.411 2.77157L289.468 1.77319ZM284.424 2.51503L283.924 2.4921L283.97 1.49316L284.47 1.51608L284.424 2.51503ZM279.482 1.31474L279.981 1.33214L279.947 2.33154L279.447 2.31414L279.482 1.31474ZM274.48 2.16876L273.98 2.1569L274.004 1.15718L274.504 1.16904L274.48 2.16876ZM269.522 1.07863L270.022 1.08491L270.009 2.08483L269.509 2.07855L269.522 1.07863ZM264.489 2.04383L263.989 2.04321L263.99 1.04321L264.49 1.04383L264.489 2.04383ZM259.472 1.066L259.972 1.06095L259.982 2.0609L259.482 2.06595L259.472 1.066ZM254.49 2.14475L253.99 2.15548L253.969 1.15572L254.469 1.14498L254.49 2.14475ZM249.481 1.28061L249.981 1.26416L250.014 2.26362L249.514 2.28007L249.481 1.28061ZM244.554 2.47178L244.054 2.49396L244.01 1.49494L244.509 1.47276L244.554 2.47178ZM239.525 1.72297L240.024 1.69501L240.08 2.69344L239.581 2.72141L239.525 1.72297ZM234.568 3.03175L234.07 3.06559L234.002 2.06788L234.501 2.03405L234.568 3.03175ZM229.496 2.40322L229.995 2.36348L230.074 3.36032L229.576 3.40006L229.496 2.40322ZM224.604 3.82616L224.106 3.87182L224.015 2.876L224.513 2.83034L224.604 3.82616ZM219.551 3.31525L220.049 3.26364L220.152 4.25829L219.655 4.30991L219.551 3.31525ZM214.728 4.85113L214.231 4.90872L214.116 3.91538L214.612 3.85779L214.728 4.85113ZM209.64 4.46516L210.136 4.4015L210.263 5.39336L209.767 5.45702L209.64 4.46516ZM204.791 6.12726L204.296 6.19709L204.157 5.20689L204.652 5.13706L204.791 6.12726ZM199.69 5.86846L200.184 5.79244L200.336 6.78082L199.842 6.85683L199.69 5.86846ZM194.921 7.64556L194.428 7.7278L194.263 6.74142L194.756 6.65918L194.921 7.64556ZM189.851 7.50908L190.344 7.42058L190.521 8.40479L190.028 8.49329L189.851 7.50908ZM185.166 9.39983L184.675 9.49463L184.486 8.51276L184.977 8.41797L185.166 9.39983ZM180.032 9.40647L180.522 9.30521L180.724 10.2845L180.235 10.3857L180.032 9.40647ZM175.329 11.4342L174.841 11.542L174.626 10.5655L175.114 10.4577L175.329 11.4342ZM170.23 11.5701L170.717 11.4558L170.946 12.4293L170.459 12.5436L170.23 11.5701ZM165.624 13.7138L165.139 13.8347L164.897 12.8644L165.382 12.7434L165.624 13.7138ZM160.571 13.9776L161.054 13.85L161.31 14.8169L160.826 14.9445L160.571 13.9776ZM156.019 16.2487L155.538 16.383L155.269 15.4197L155.751 15.2854L156.019 16.2487ZM150.903 16.6748L151.383 16.5336L151.665 17.4929L151.185 17.6341L150.903 16.6748ZM146.393 19.0824L145.916 19.2305L145.62 18.2754L146.097 18.1273L146.393 19.0824ZM141.335 19.6428L141.81 19.4877L142.12 20.4384L141.645 20.5935L141.335 19.6428ZM136.941 22.1672L136.468 22.3293L136.144 21.3834L136.617 21.2212L136.941 22.1672ZM131.943 22.8629L132.413 22.6937L132.752 23.6346L132.281 23.8039L131.943 22.8629ZM127.553 25.5463L127.086 25.7228L126.732 24.7872L127.2 24.6107L127.553 25.5463ZM122.508 26.4239L122.973 26.24L123.341 27.1699L122.876 27.3538L122.508 26.4239ZM118.251 29.2263L117.789 29.4177L117.406 28.4938L117.868 28.3024L118.251 29.2263ZM113.281 30.2461L113.74 30.0472L114.137 30.9648L113.679 31.1636L113.281 30.2461ZM109.161 33.1655L108.706 33.3718L108.293 32.4609L108.748 32.2546L109.161 33.1655ZM104.184 34.3692L104.636 34.1552L105.064 35.0589L104.612 35.2729L104.184 34.3692ZM100.095 37.4608L99.6465 37.6827L99.2028 36.7865L99.6509 36.5647L100.095 37.4608ZM95.1793 38.8278L95.6234 38.5981L96.0828 39.4863L95.6387 39.716L95.1793 38.8278ZM91.2457 42.0382L90.8057 42.2758L90.3304 41.396L90.7704 41.1583L91.2457 42.0382ZM86.4257 43.5561L86.8613 43.3106L87.3524 44.1816L86.9169 44.4272L86.4257 43.5561ZM82.5859 46.9227L82.1551 47.1764L81.6477 46.3147L82.0786 46.061L82.5859 46.9227ZM77.7614 48.6589L78.1873 48.397L78.7111 49.2488L78.2852 49.5107L77.7614 48.6589ZM74.0565 52.1682L73.6357 52.4384L73.0954 51.5969L73.5161 51.3268L74.0565 52.1682ZM69.3443 54.0644L69.7596 53.7859L70.3165 54.6165L69.9012 54.895L69.3443 54.0644ZM65.8209 57.6908L65.4113 57.9775L64.8377 57.1584L65.2473 56.8716L65.8209 57.6908ZM61.1683 59.7908L61.5719 59.4956L62.1623 60.3027L61.7587 60.5979L61.1683 59.7908ZM57.7438 63.6009L57.3466 63.9047L56.7391 63.1103L57.1363 62.8066L57.7438 63.6009ZM53.1875 65.8944L53.578 65.5822L54.2025 66.3632L53.812 66.6755L53.1875 65.8944ZM49.965 69.8212L49.5814 70.1419L48.9399 69.3748L49.3235 69.0541L49.965 69.8212ZM45.5459 72.2853L45.9222 71.956L46.5807 72.7086L46.2044 73.0379L45.5459 72.2853ZM42.4801 76.3725L42.1115 76.7103L41.4359 75.9731L41.8045 75.6353L42.4801 76.3725ZM38.1383 79.0747L38.4989 78.7283L39.1917 79.4495L38.8311 79.7959L38.1383 79.0747ZM35.2767 83.2921L34.9244 83.647L34.2147 82.9425L34.567 82.5876L35.2767 83.2921ZM31.0921 86.1738L31.4357 85.8105L32.1622 86.4977L31.8187 86.8609L31.0921 86.1738ZM28.4587 90.502L28.1241 90.8736L27.381 90.2046L27.7155 89.833L28.4587 90.502ZM24.4005 93.6095L24.7256 93.2296L25.4854 93.8798L25.1603 94.2597L24.4005 93.6095ZM21.964 98.093L21.6487 98.4811L20.8726 97.8506L21.1878 97.4625L21.964 98.093ZM18.0812 101.389L18.3862 100.993L19.1785 101.604L18.8734 102L18.0812 101.389ZM15.8902 105.979L15.5956 106.383L14.7877 105.794L15.0823 105.39L15.8902 105.979ZM12.1909 109.467L12.4746 109.055L13.2979 109.623L13.0142 110.035L12.1909 109.467ZM10.242 114.173L9.96936 114.593L9.1311 114.047L9.40369 113.628L10.242 114.173ZM6.73047 117.863L6.99164 117.436L7.84442 117.958L7.58325 118.385L6.73047 117.863ZM5.03967 122.669L4.79034 123.102L3.92358 122.603L4.17291 122.17L5.03967 122.669ZM1.73285 126.55L1.97009 126.11L2.85034 126.584L2.61304 127.025L1.73285 126.55ZM698.5 442.991C698.483 442.137 698.465 441.284 698.445 440.433L699.445 440.409C699.465 441.262 699.483 442.116 699.5 442.972L698.5 442.991ZM698.304 435.34C698.25 433.648 698.189 431.961 698.121 430.279L699.121 430.239C699.188 431.923 699.249 433.613 699.303 435.308L698.304 435.34ZM697.898 425.251C697.817 423.58 697.729 421.915 697.635 420.255L698.633 420.198C698.728 421.861 698.816 423.529 698.897 425.202L697.898 425.251ZM697.331 415.291C697.223 413.641 697.108 411.997 696.987 410.359L697.984 410.285C698.105 411.926 698.22 413.573 698.329 415.225L697.331 415.291ZM696.603 405.459C696.468 403.831 696.327 402.208 696.18 400.591L697.175 400.5C697.323 402.12 697.465 403.745 697.6 405.376L696.603 405.459ZM695.702 395.605C695.533 393.914 695.356 392.228 695.172 390.549L696.166 390.44C696.35 392.123 696.527 393.811 696.697 395.505L695.702 395.605ZM694.599 385.529C694.401 383.861 694.195 382.2 693.983 380.544L694.975 380.417C695.188 382.076 695.393 383.74 695.592 385.411L694.599 385.529ZM693.325 375.594C693.099 373.95 692.865 372.312 692.625 370.679L693.614 370.534C693.855 372.169 694.089 373.81 694.316 375.458L693.325 375.594ZM691.883 365.8C691.629 364.179 691.368 362.564 691.101 360.955L692.087 360.791C692.355 362.403 692.617 364.021 692.871 365.645L691.883 365.8ZM690.271 356.116C689.976 354.441 689.673 352.773 689.363 351.11L690.346 350.927C690.657 352.593 690.96 354.264 691.256 355.943L690.271 356.116ZM688.411 346.143C688.086 344.493 687.754 342.85 687.414 341.214L688.393 341.01C688.734 342.65 689.067 344.297 689.392 345.95L688.411 346.143ZM686.374 336.323C686.02 334.699 685.659 333.081 685.29 331.47L686.265 331.247C686.634 332.861 686.996 334.482 687.351 336.11L686.374 336.323ZM684.164 326.655C683.781 325.057 683.391 323.464 682.994 321.879L683.965 321.636C684.362 323.225 684.753 324.82 685.136 326.422L684.164 326.655ZM681.78 317.128C681.351 315.486 680.914 313.85 680.47 312.221L681.435 311.958C681.88 313.59 682.317 315.23 682.747 316.876L681.78 317.128ZM679.115 307.356C678.655 305.74 678.189 304.132 677.714 302.531L678.673 302.247C679.148 303.852 679.616 305.463 680.076 307.082L679.115 307.356ZM676.27 297.748C675.781 296.16 675.284 294.579 674.781 293.005L675.733 292.701C676.238 294.278 676.735 295.862 677.225 297.453L676.27 297.748ZM673.248 288.304C672.73 286.744 672.205 285.191 671.673 283.644L672.618 283.319C673.152 284.869 673.678 286.425 674.197 287.989L673.248 288.304ZM670.033 278.966C669.464 277.373 668.888 275.788 668.305 274.209L669.243 273.863C669.828 275.444 670.405 277.034 670.975 278.63L670.033 278.966ZM666.532 269.497C665.933 267.933 665.327 266.377 664.713 264.828L665.643 264.46C666.258 266.012 666.866 267.572 667.466 269.139L666.532 269.497ZM662.851 260.204C662.222 258.669 661.587 257.142 660.944 255.623L661.865 255.233C662.509 256.756 663.146 258.287 663.776 259.825L662.851 260.204ZM658.993 251.086C658.336 249.581 657.671 248.083 657 246.592L657.911 246.182C658.585 247.676 659.251 249.177 659.91 250.686L658.993 251.086ZM654.901 242.008C654.191 240.482 653.474 238.964 652.749 237.454L653.651 237.021C654.377 238.535 655.096 240.057 655.807 241.587L654.901 242.008ZM650.553 232.946C649.813 231.451 649.066 229.964 648.312 228.484L649.203 228.03C649.959 229.513 650.708 231.004 651.449 232.502L650.553 232.946ZM646.028 224.069C645.259 222.605 644.483 221.148 643.7 219.7L644.58 219.224C645.365 220.676 646.143 222.136 646.913 223.604L646.028 224.069ZM641.33 215.377C640.517 213.914 639.696 212.46 638.868 211.013L639.736 210.517C640.566 211.967 641.389 213.425 642.204 214.891L641.33 215.377ZM636.342 206.661C635.492 205.218 634.635 203.784 633.771 202.357L634.626 201.839C635.493 203.269 636.352 204.707 637.203 206.154L636.342 206.661ZM631.158 198.102C630.279 196.692 629.394 195.29 628.502 193.896L629.344 193.356C630.238 194.754 631.126 196.16 632.006 197.574L631.158 198.102ZM625.804 189.737C624.897 188.359 623.984 186.989 623.064 185.627L623.893 185.067C624.815 186.433 625.731 187.806 626.639 189.188L625.804 189.737ZM620.236 181.495C619.279 180.117 618.316 178.747 617.346 177.386L618.16 176.805C619.133 178.17 620.099 179.544 621.057 180.925L620.236 181.495ZM614.414 173.326C613.43 171.981 612.438 170.645 611.441 169.317L612.24 168.716C613.24 170.048 614.234 171.387 615.221 172.736L614.414 173.326ZM608.427 165.358C607.416 164.046 606.398 162.743 605.374 161.448L606.158 160.828C607.185 162.126 608.205 163.432 609.219 164.747L608.427 165.358ZM602.281 157.589C601.225 156.289 600.163 154.997 599.094 153.713L599.862 153.073C600.934 154.36 601.999 155.655 603.057 156.959L602.281 157.589ZM595.86 149.88C594.775 148.611 593.684 147.351 592.587 146.099L593.339 145.44C594.439 146.695 595.533 147.959 596.62 149.231L595.86 149.88ZM589.275 142.37C588.165 141.135 587.048 139.909 585.926 138.691L586.661 138.013C587.786 139.234 588.906 140.463 590.019 141.701L589.275 142.37ZM582.539 135.064C581.4 133.86 580.256 132.665 579.105 131.478L579.823 130.782C580.977 131.972 582.124 133.17 583.266 134.377L582.539 135.064ZM575.59 127.897C574.412 126.712 573.228 125.536 572.038 124.369L572.738 123.655C573.931 124.825 575.118 126.004 576.299 127.192L575.59 127.897ZM568.45 120.894C567.249 119.744 566.041 118.603 564.828 117.471L565.51 116.74C566.726 117.875 567.937 119.019 569.142 120.171L568.45 120.894ZM561.17 114.101C559.945 112.986 558.715 111.88 557.479 110.782L558.143 110.035C559.382 111.135 560.616 112.243 561.843 113.361L561.17 114.101ZM553.725 107.491C552.462 106.397 551.193 105.312 549.919 104.236L550.564 103.472C551.841 104.551 553.113 105.638 554.379 106.735L553.725 107.491ZM546.08 101.034C544.794 99.9762 543.504 98.9267 542.208 97.8861L542.835 97.1065C544.133 98.1496 545.427 99.2016 546.715 100.263L546.08 101.034ZM538.306 94.7909C537 93.768 535.689 92.754 534.373 91.7487L534.98 90.954C536.299 91.9617 537.613 92.9782 538.922 94.0037L538.306 94.7909ZM530.404 88.7558C529.064 87.7578 527.719 86.7687 526.369 85.7885L526.957 84.9793C528.31 85.9618 529.658 86.9533 531.002 87.9538L530.404 88.7558ZM522.305 82.875C520.945 81.9127 519.581 80.9594 518.212 80.0151L518.779 79.1919C520.152 80.1386 521.52 81.0941 522.882 82.0587L522.305 82.875ZM514.091 77.2088C512.712 76.2822 511.33 75.3646 509.942 74.4559L510.49 73.6194C511.881 74.5303 513.267 75.4501 514.649 76.3789L514.091 77.2088ZM505.768 71.7563C504.363 70.8599 502.955 69.9725 501.542 69.094L502.07 68.2448C503.486 69.1253 504.898 70.0148 506.306 70.9134L505.768 71.7563ZM497.278 66.4781C495.852 65.6152 494.423 64.7612 492.989 63.9162L493.497 63.0547C494.934 63.9017 496.367 64.7577 497.796 65.6227L497.278 66.4781ZM488.677 61.4081C487.235 60.581 485.79 59.7628 484.34 58.9536L484.828 58.0805C486.281 58.8916 487.729 59.7117 489.174 60.5407L488.677 61.4081ZM479.982 56.5528C478.521 55.7595 477.058 54.9752 475.59 54.1998L476.057 53.3156C477.528 54.0928 478.995 54.879 480.459 55.6741L479.982 56.5528ZM471.153 51.8878C469.67 51.1261 468.184 50.3735 466.694 49.6299L467.141 48.7352C468.634 49.4805 470.124 50.2349 471.61 50.9983L471.153 51.8878ZM462.216 47.4259C460.72 46.7003 459.221 45.9836 457.718 45.2759L458.144 44.3712C459.65 45.0806 461.153 45.7989 462.652 46.5262L462.216 47.4259ZM453.202 43.1796C451.693 42.4898 450.182 41.8089 448.668 41.1369L449.073 40.2229C450.591 40.8963 452.106 41.5788 453.618 42.2702L453.202 43.1796ZM444.081 39.1329C442.55 38.4738 441.015 37.8237 439.478 37.1827L439.863 36.2598C441.403 36.9022 442.941 37.5537 444.477 38.2143L444.081 39.1329ZM434.859 35.2867C433.316 34.6637 431.771 34.0497 430.224 33.4447L430.588 32.5133C432.139 33.1197 433.687 33.7351 435.233 34.3595L434.859 35.2867ZM425.575 31.6565C424.023 31.0694 422.469 30.4913 420.912 29.9221L421.256 28.9829C422.816 29.5534 424.373 30.1328 425.929 30.7212L425.575 31.6565ZM416.21 28.2319C414.637 27.6762 413.062 27.1296 411.485 26.592L411.807 25.6455C413.388 26.1842 414.967 26.7321 416.543 27.289L416.21 28.2319ZM406.748 25.0064C405.167 24.4869 403.584 23.9764 402 23.4749L402.301 22.5215C403.889 23.0241 405.475 23.5357 407.06 24.0564L406.748 25.0064ZM397.242 21.9973C395.654 21.5138 394.065 21.0392 392.474 20.5737L392.755 19.6139C394.349 20.0805 395.942 20.5561 397.533 21.0407L397.242 21.9973ZM387.678 19.198C386.071 18.7465 384.462 18.304 382.852 17.8706L383.112 16.9049C384.726 17.3393 386.338 17.7827 387.949 18.2353L387.678 19.198ZM378.019 16.5975C376.407 16.1822 374.794 15.776 373.18 15.3788L373.419 14.4077C375.037 14.8058 376.653 15.2129 378.269 15.6291L378.019 16.5975ZM368.335 14.2142C366.72 13.8351 365.103 13.4649 363.486 13.1038L363.704 12.1278C365.325 12.4898 366.945 12.8607 368.564 13.2407L368.335 14.2142ZM358.618 12.044C356.983 11.6974 355.348 11.36 353.712 11.0316L353.909 10.0512C355.548 10.3802 357.187 10.7184 358.825 11.0658L358.618 12.044ZM348.804 10.074C347.168 9.76388 345.531 9.46288 343.895 9.17097L344.07 8.18651C345.71 8.47905 347.35 8.78069 348.99 9.09147L348.804 10.074ZM338.984 8.32249C337.348 8.04873 335.711 7.78404 334.074 7.52839L334.229 6.54037C335.869 6.79657 337.509 7.06184 339.149 7.33619L338.984 8.32249ZM329.154 6.78687C327.499 6.54653 325.844 6.31543 324.189 6.09353L324.322 5.1024C325.98 5.32478 327.639 5.55639 329.298 5.79725L329.154 6.78687ZM319.227 5.45546C317.573 5.25196 315.92 5.05765 314.268 4.87251L314.379 3.87873C316.035 4.06428 317.692 4.25901 319.349 4.46295L319.227 5.45546ZM309.313 4.34455C307.663 4.17771 306.013 4.02002 304.364 3.87144L304.454 2.87548C306.106 3.02438 307.76 3.18242 309.414 3.34962L309.313 4.34455ZM299.41 3.45219C297.741 3.32009 296.073 3.19734 294.406 3.08392L294.474 2.08622C296.145 2.1999 297.816 2.32292 299.489 2.45531L299.41 3.45219ZM289.411 2.77157C287.747 2.67677 286.085 2.59126 284.424 2.51503L284.47 1.51608C286.134 1.59248 287.8 1.67818 289.468 1.77319L289.411 2.77157ZM279.447 2.31414C277.79 2.25643 276.134 2.20798 274.48 2.16876L274.504 1.16904C276.161 1.20835 277.821 1.25691 279.482 1.31474L279.447 2.31414ZM269.509 2.07855C267.834 2.05749 266.16 2.04592 264.489 2.04383L264.49 1.04383C266.165 1.04593 267.843 1.05752 269.522 1.07863L269.509 2.07855ZM259.482 2.06595C257.816 2.08278 256.152 2.10905 254.49 2.14475L254.469 1.14498C256.134 1.1092 257.802 1.08287 259.472 1.066L259.482 2.06595ZM249.514 2.28007C247.858 2.33459 246.204 2.3985 244.554 2.47178L244.509 1.47276C246.164 1.39931 247.821 1.33525 249.481 1.28061L249.514 2.28007ZM239.581 2.72141C237.907 2.81518 236.236 2.91864 234.568 3.03175L234.501 2.03405C236.172 1.92066 237.847 1.81696 239.525 1.72297L239.581 2.72141ZM229.576 3.40006C227.915 3.53247 226.258 3.67451 224.604 3.82616L224.513 2.83034C226.171 2.67832 227.832 2.53594 229.496 2.40322L229.576 3.40006ZM219.655 4.30991C218.008 4.48074 216.366 4.66116 214.728 4.85113L214.612 3.85779C216.255 3.66735 217.901 3.4865 219.551 3.31525L219.655 4.30991ZM209.767 5.45702C208.104 5.67053 206.446 5.89395 204.791 6.12726L204.652 5.13706C206.31 4.90317 207.973 4.67919 209.64 4.46516L209.767 5.45702ZM199.842 6.85683C198.197 7.10989 196.556 7.37281 194.921 7.64556L194.756 6.65918C196.396 6.38574 198.041 6.12215 199.69 5.86846L199.842 6.85683ZM190.028 8.49329C188.403 8.78567 186.782 9.08787 185.166 9.39983L184.977 8.41797C186.596 8.10519 188.221 7.80222 189.851 7.50908L190.028 8.49329ZM180.235 10.3857C178.594 10.7251 176.959 11.0745 175.329 11.4342L175.114 10.4577C176.748 10.0971 178.387 9.74667 180.032 9.40647L180.235 10.3857ZM170.459 12.5436C168.841 12.9235 167.23 13.3136 165.624 13.7138L165.382 12.7434C166.992 12.3422 168.608 11.9511 170.23 11.5701L170.459 12.5436ZM160.826 14.9445C159.217 15.369 157.615 15.8037 156.019 16.2487L155.751 15.2854C157.351 14.8392 158.958 14.4032 160.571 13.9776L160.826 14.9445ZM151.185 17.6341C149.581 18.1063 147.984 18.5891 146.393 19.0824L146.097 18.1273C147.692 17.6326 149.294 17.1484 150.903 16.6748L151.185 17.6341ZM141.645 20.5935C140.07 21.1076 138.502 21.6322 136.941 22.1672L136.617 21.2212C138.182 20.6846 139.755 20.1585 141.335 19.6428L141.645 20.5935ZM132.281 23.8039C130.697 24.3738 129.121 24.9546 127.553 25.5463L127.2 24.6107C128.773 24.0172 130.354 23.4346 131.943 22.8629L132.281 23.8039ZM122.876 27.3538C121.326 27.9672 119.784 28.5913 118.251 29.2263L117.868 28.3024C119.406 27.6654 120.953 27.0392 122.508 26.4239L122.876 27.3538ZM113.679 31.1636C112.164 31.8201 110.658 32.4874 109.161 33.1655L108.748 32.2546C110.25 31.5743 111.761 30.9048 113.281 30.2461L113.679 31.1636ZM104.612 35.2729C103.096 35.991 101.59 36.7203 100.095 37.4608L99.6509 36.5647C101.152 35.8216 102.663 35.0897 104.184 34.3692L104.612 35.2729ZM95.6387 39.716C94.1638 40.4789 92.6993 41.253 91.2457 42.0382L90.7704 41.1583C92.2294 40.3703 93.6991 39.5934 95.1793 38.8278L95.6387 39.716ZM86.9169 44.4272C85.4619 45.2476 84.0181 46.0794 82.5859 46.9227L82.0786 46.061C83.5162 45.2145 84.9653 44.3796 86.4257 43.5561L86.9169 44.4272ZM78.2852 49.5107C76.8635 50.385 75.4539 51.2708 74.0565 52.1682L73.5161 51.3268C74.919 50.4258 76.3342 49.5365 77.7614 48.6589L78.2852 49.5107ZM69.9012 54.895C68.5285 55.8154 67.1683 56.7473 65.8209 57.6908L65.2473 56.8716C66.6003 55.9243 67.9661 54.9885 69.3443 54.0644L69.9012 54.895ZM61.7587 60.5979C60.4067 61.587 59.0683 62.588 57.7438 63.6009L57.1363 62.8066C58.4666 61.7893 59.8106 60.784 61.1683 59.7908L61.7587 60.5979ZM53.812 66.6755C52.5154 67.7122 51.233 68.7608 49.965 69.8212L49.3235 69.0541C50.5972 67.9889 51.8853 66.9357 53.1875 65.8944L53.812 66.6755ZM46.2044 73.0379C44.9478 74.1373 43.7063 75.2489 42.4801 76.3725L41.8045 75.6353C43.0364 74.5064 44.2836 73.3897 45.5459 72.2853L46.2044 73.0379ZM38.8311 79.7959C37.6304 80.9492 36.4455 82.1146 35.2767 83.2921L34.567 82.5876C35.7414 81.4044 36.9319 80.2334 38.1383 79.0747L38.8311 79.7959ZM31.8187 86.8609C30.6823 88.0626 29.5621 89.2763 28.4587 90.502L27.7155 89.833C28.8245 88.6011 29.9501 87.3814 31.0921 86.1738L31.8187 86.8609ZM25.1603 94.2597C24.0775 95.5252 23.0119 96.803 21.964 98.093L21.1878 97.4625C22.2411 96.1659 23.3121 94.8815 24.4005 93.6095L25.1603 94.2597ZM18.8734 102C17.861 103.314 16.8665 104.641 15.8902 105.979L15.0823 105.39C16.0637 104.044 17.0635 102.711 18.0812 101.389L18.8734 102ZM13.0142 110.035C12.0714 111.402 11.1472 112.782 10.242 114.173L9.40369 113.628C10.3138 112.229 11.243 110.842 12.1909 109.467L13.0142 110.035ZM7.58325 118.385C6.71613 119.801 5.86816 121.229 5.03967 122.669L4.17291 122.17C5.00598 120.722 5.85858 119.286 6.73047 117.863L7.58325 118.385ZM2.61304 127.025C2.2182 127.757 1.82831 128.493 1.44336 129.231L0.556641 128.769C0.943665 128.026 1.33575 127.287 1.73285 126.55L2.61304 127.025ZM1.88678 129.462C1.63147 129.952 1.02753 130.142 0.537781 129.887C0.0480347 129.631 -0.142029 129.027 0.11322 128.538L1.88678 129.462ZM697.945 440.444L697.922 439.445L699.921 439.397L699.945 440.397L697.945 440.444ZM699.803 435.292L699.835 436.291L697.836 436.355L697.804 435.356L699.803 435.292ZM697.622 430.299L697.582 429.3L699.58 429.22L699.62 430.219L697.622 430.299ZM699.397 425.178L699.445 426.177L697.447 426.274L697.399 425.275L699.397 425.178ZM697.135 420.283L697.079 419.285L699.075 419.171L699.132 420.169L697.135 420.283ZM698.827 415.193L698.893 416.19L696.897 416.321L696.832 415.323L698.827 415.193ZM696.488 410.395L696.414 409.398L698.409 409.251L698.483 410.248L696.488 410.395ZM698.098 405.335L698.18 406.332L696.187 406.496L696.105 405.5L698.098 405.335ZM695.682 400.636L695.591 399.64L697.583 399.458L697.673 400.454L695.682 400.636ZM697.195 395.455L697.294 396.45L695.304 396.65L695.205 395.655L697.195 395.455ZM694.675 390.604L694.566 389.609L696.554 389.392L696.663 390.386L694.675 390.604ZM696.088 385.352L696.206 386.345L694.22 386.581L694.102 385.588L696.088 385.352ZM693.487 380.607L693.36 379.616L695.344 379.361L695.471 380.353L693.487 380.607ZM694.811 375.389L694.947 376.38L692.966 376.653L692.83 375.662L694.811 375.389ZM692.13 370.752L691.985 369.763L693.963 369.472L694.109 370.461L692.13 370.752ZM693.365 365.567L693.52 366.555L691.544 366.865L691.39 365.877L693.365 365.567ZM690.607 361.037L690.443 360.051L692.416 359.723L692.58 360.709L690.607 361.037ZM691.749 355.856L691.922 356.841L689.953 357.188L689.779 356.203L691.749 355.856ZM688.872 351.202L688.688 350.219L690.655 349.852L690.838 350.835L688.872 351.202ZM689.883 345.853L690.076 346.834L688.114 347.221L687.92 346.239L689.883 345.853ZM686.925 341.315L686.722 340.336L688.68 339.93L688.883 340.909L686.925 341.315ZM687.84 336.003L688.053 336.98L686.099 337.406L685.886 336.429L687.84 336.003ZM684.803 331.581L684.58 330.606L686.53 330.161L686.753 331.135L684.803 331.581ZM685.623 326.306L685.855 327.278L683.91 327.744L683.678 326.772L685.623 326.306ZM682.509 322L682.267 321.03L684.207 320.544L684.45 321.514L682.509 322ZM683.231 316.749L683.484 317.717L681.549 318.222L681.296 317.255L683.231 316.749ZM679.988 312.353L679.724 311.388L681.654 310.862L681.917 311.827L679.988 312.353ZM680.557 306.945L680.831 307.907L678.907 308.454L678.634 307.492L680.557 306.945ZM677.235 302.673L676.951 301.714L678.869 301.146L679.153 302.105L677.235 302.673ZM677.703 297.306L677.998 298.262L676.086 298.85L675.792 297.895L677.703 297.306ZM674.305 293.158L674 292.205L675.905 291.596L676.21 292.548L674.305 293.158ZM674.672 287.832L674.987 288.781L673.089 289.411L672.774 288.462L674.672 287.832ZM671.2 283.807L670.874 282.861L672.765 282.21L673.091 283.156L671.2 283.807ZM671.446 278.462L671.782 279.404L669.898 280.076L669.562 279.134L671.446 278.462ZM667.836 274.383L667.489 273.445L669.365 272.751L669.712 273.689L667.836 274.383ZM667.933 268.961L668.29 269.894L666.422 270.61L666.065 269.676L667.933 268.961ZM664.249 265.012L663.88 264.083L665.74 263.346L666.108 264.276L664.249 265.012ZM664.239 259.635L664.618 260.561L662.767 261.319L662.388 260.393L664.239 259.635ZM660.483 255.818L660.094 254.897L661.936 254.117L662.325 255.038L660.483 255.818ZM660.368 250.485L660.768 251.402L658.935 252.202L658.535 251.286L660.368 250.485ZM656.544 246.798L656.133 245.886L657.956 245.064L658.367 245.976L656.544 246.798ZM656.261 241.376L656.682 242.282L654.869 243.126L654.447 242.219L656.261 241.376ZM652.298 237.67L651.866 236.768L653.669 235.903L654.101 236.805L652.298 237.67ZM651.897 232.281L652.34 233.177L650.548 234.064L650.104 233.167L651.897 232.281ZM647.867 228.711L647.412 227.82L649.194 226.912L649.648 227.803L647.867 228.711ZM647.356 223.371L647.821 224.257L646.05 225.186L645.585 224.301L647.356 223.371ZM643.26 219.937L642.785 219.058L644.544 218.107L645.02 218.986L643.26 219.937ZM642.641 214.648L643.127 215.521L641.379 216.494L640.893 215.62L642.641 214.648ZM638.434 211.262L637.938 210.394L639.674 209.4L640.17 210.268L638.434 211.262ZM637.634 205.9L638.142 206.762L636.418 207.777L635.911 206.915L637.634 205.9ZM633.343 202.617L632.825 201.761L634.536 200.725L635.054 201.58L633.343 202.617ZM632.431 197.309L632.96 198.158L631.262 199.215L630.733 198.367L632.431 197.309ZM628.08 194.165L627.541 193.323L629.226 192.245L629.765 193.087L628.08 194.165ZM627.057 188.913L627.606 189.748L625.935 190.847L625.386 190.012L627.057 188.913ZM622.65 185.907L622.09 185.078L623.748 183.959L624.307 184.787L622.65 185.907ZM621.468 180.64L622.038 181.462L620.395 182.602L619.825 181.781L621.468 180.64ZM616.938 177.676L616.358 176.861L617.987 175.701L618.567 176.515L616.938 177.676ZM615.624 172.44L616.215 173.247L614.601 174.428L614.01 173.621L615.624 172.44ZM611.041 169.617L610.44 168.818L612.039 167.616L612.64 168.416L611.041 169.617ZM609.615 164.442L610.226 165.234L608.642 166.455L608.031 165.663L609.615 164.442ZM604.981 161.759L604.361 160.975L605.929 159.734L606.55 160.518L604.981 161.759ZM603.445 156.644L604.076 157.42L602.523 158.681L601.892 157.904L603.445 156.644ZM598.709 154.033L598.069 153.265L599.606 151.985L600.246 152.753L598.709 154.033ZM597 148.906L597.65 149.666L596.129 150.966L595.479 150.205L597 148.906ZM592.211 146.429L591.551 145.677L593.055 144.358L593.714 145.11L592.211 146.429ZM590.39 141.367L591.059 142.11L589.572 143.447L588.903 142.704L590.39 141.367ZM585.558 139.03L584.88 138.295L586.35 136.939L587.028 137.674L585.558 139.03ZM583.629 134.034L584.316 134.76L582.863 136.135L582.176 135.408L583.629 134.034ZM578.746 131.826L578.05 131.108L579.486 129.716L580.182 130.434L578.746 131.826ZM576.654 126.839L577.359 127.549L575.94 128.959L575.235 128.25L576.654 126.839ZM571.688 124.726L570.974 124.026L572.375 122.598L573.088 123.298L571.688 124.726ZM569.487 119.81L570.21 120.501L568.827 121.946L568.105 121.255L569.487 119.81ZM564.487 117.837L563.755 117.154L565.12 115.692L565.851 116.374L564.487 117.837ZM562.18 112.991L562.92 113.664L561.573 115.143L560.834 114.47L562.18 112.991ZM557.147 111.156L556.399 110.492L557.727 108.997L558.475 109.661L557.147 111.156ZM554.707 106.357L555.463 107.011L554.154 108.523L553.398 107.869L554.707 106.357ZM549.596 104.618L548.832 103.973L550.122 102.445L550.886 103.09L549.596 104.618ZM547.033 99.8766L547.805 100.512L546.534 102.056L545.762 101.42L547.033 99.8766ZM541.895 98.276L541.116 97.6498L542.368 96.0904L543.148 96.7166L541.895 98.276ZM539.231 93.61L540.018 94.2266L538.785 95.8012L537.998 95.1846L539.231 93.61ZM534.069 92.1461L533.274 91.5391L534.488 89.9496L535.283 90.5566L534.069 92.1461ZM531.3 87.5528L532.102 88.1502L530.908 89.7542L530.106 89.1568L531.3 87.5528ZM526.076 86.1931L525.266 85.6056L526.441 83.9872L527.251 84.5747L526.076 86.1931ZM523.171 81.6506L523.988 82.2283L522.832 83.8608L522.016 83.2831L523.171 81.6506ZM517.928 80.4267L517.105 79.8589L518.24 78.2125L519.063 78.7803L517.928 80.4267ZM514.928 75.9639L515.757 76.5218L514.642 78.1816L513.812 77.6237L514.928 75.9639ZM509.668 74.8741L508.832 74.3261L509.928 72.6531L510.764 73.2011L509.668 74.8741ZM506.575 70.4919L507.418 71.0299L506.342 72.7158L505.499 72.1778L506.575 70.4919ZM501.278 69.5186L500.428 68.9906L501.484 67.2921L502.333 67.8201L501.278 69.5186ZM498.055 65.195L498.91 65.7129L497.874 67.4237L497.019 66.9059L498.055 65.195ZM492.735 64.3469L491.874 63.8391L492.889 62.1162L493.751 62.624L492.735 64.3469ZM489.423 60.107L490.29 60.6047L489.295 62.3394L488.428 61.8417L489.423 60.107ZM484.097 59.3902L483.224 58.9027L484.199 57.1564L485.072 57.644L484.097 59.3902ZM480.698 55.2348L481.576 55.7121L480.622 57.4695L479.743 56.9922L480.698 55.2348ZM475.357 54.6419L474.472 54.1747L475.407 52.4064L476.291 52.8736L475.357 54.6419ZM471.838 50.5535L472.728 51.0105L471.814 52.7895L470.924 52.3325L471.838 50.5535ZM466.471 50.0772L465.576 49.6305L466.47 47.8411L467.364 48.2878L466.471 50.0772ZM462.871 46.0763L463.77 46.5127L462.898 48.3122L461.998 47.8758L462.871 46.0763ZM457.505 45.7282L456.601 45.3021L457.453 43.4928L458.357 43.9189L457.505 45.7282ZM453.826 41.8154L454.735 42.2313L453.903 44.0502L452.994 43.6343L453.826 41.8154ZM448.465 41.5939L447.551 41.1883L448.362 39.3602L449.276 39.7658L448.465 41.5939ZM444.674 37.755L445.593 38.1502L444.802 39.9874L443.884 39.5921L444.674 37.755ZM439.286 37.6442L438.363 37.2593L439.132 35.4134L440.055 35.7983L439.286 37.6442ZM435.42 33.8959L436.348 34.2704L435.599 36.1248L434.671 35.7503L435.42 33.8959ZM430.042 33.9103L429.111 33.5462L429.839 31.6835L430.77 32.0477L430.042 33.9103ZM426.106 30.2535L427.041 30.6073L426.333 32.478L425.398 32.1242L426.106 30.2535ZM420.741 30.3917L419.801 30.0482L420.488 28.1699L421.428 28.5133L420.741 30.3917ZM416.71 26.8175L417.653 27.1506L416.987 29.0364L416.044 28.7033L416.71 26.8175ZM411.323 27.0653L410.377 26.7426L411.022 24.8496L411.969 25.1722L411.323 27.0653ZM407.216 23.5813L408.166 23.8935L407.542 25.7936L406.591 25.4814L407.216 23.5813ZM401.849 23.9515L400.895 23.6498L401.499 21.743L402.452 22.0448L401.849 23.9515ZM397.679 20.5624L398.635 20.8537L398.053 22.767L397.096 22.4756L397.679 20.5624ZM392.334 21.0535L391.374 20.7726L391.936 18.8531L392.896 19.1341L392.334 21.0535ZM388.084 17.754L389.047 18.0244L388.506 19.9499L387.543 19.6794L388.084 17.754ZM382.722 18.3534L381.757 18.0934L382.277 16.1622L383.242 16.4221L382.722 18.3534ZM378.394 15.1449L379.362 15.3944L378.863 17.3312L377.895 17.0817L378.394 15.1449ZM373.061 15.8643L372.09 15.6253L372.568 13.6833L373.539 13.9222L373.061 15.8643ZM368.678 12.7539L369.652 12.9824L369.195 14.9295L368.221 14.701L368.678 12.7539ZM363.377 13.5918L362.401 13.3738L362.837 11.4219L363.813 11.6398L363.377 13.5918ZM358.929 10.5767L359.907 10.7841L359.492 12.7406L358.514 12.5332L358.929 10.5767ZM353.614 11.5218L352.633 11.325L353.027 9.36414L354.007 9.56095L353.614 11.5218ZM349.083 8.60021L350.066 8.78641L349.693 10.7514L348.711 10.5652L349.083 8.60021ZM343.807 9.66321L342.822 9.48762L343.174 7.51869L344.158 7.69428L343.807 9.66321ZM339.232 6.84304L340.218 7.008L339.888 8.9806L338.902 8.81564L339.232 6.84304ZM333.997 8.0224L333.009 7.86806L333.318 5.89202L334.306 6.04636L333.997 8.0224ZM329.369 5.30244L330.359 5.44612L330.072 7.42537L329.082 7.28168L329.369 5.30244ZM324.122 6.58909L323.131 6.45618L323.397 4.47392L324.388 4.60684L324.122 6.58909ZM319.41 3.96669L320.402 4.08884L320.158 6.07386L319.166 5.95172L319.41 3.96669ZM314.212 5.3694L313.218 5.25804L313.441 3.27048L314.435 3.38184L314.212 5.3694ZM309.464 2.85215L310.459 2.95271L310.258 4.94258L309.263 4.84202L309.464 2.85215ZM304.319 4.36942L303.323 4.27967L303.503 2.28775L304.499 2.37749L304.319 4.36942ZM299.528 1.95687L300.525 2.03576L300.368 4.02953L299.371 3.95063L299.528 1.95687ZM294.373 3.58276L293.375 3.51486L293.511 1.51948L294.508 1.58738L294.373 3.58276ZM289.496 1.274L290.495 1.33089L290.381 3.32765L289.382 3.27076L289.496 1.274ZM284.401 3.01451L283.402 2.96865L283.494 0.970754L284.493 1.01661L284.401 3.01451ZM279.499 0.815047L280.498 0.849844L280.429 2.84863L279.429 2.81384L279.499 0.815047ZM274.468 2.66862L273.469 2.6449L273.516 0.645467L274.516 0.669181L274.468 2.66862ZM269.528 0.578665L270.528 0.591232L270.503 2.59107L269.503 2.57851L269.528 0.578665ZM264.488 2.54383L263.488 2.54258L263.491 0.542583L264.491 0.543834L264.488 2.54383ZM259.467 0.566025L260.467 0.555929L260.487 2.55583L259.487 2.56592L259.467 0.566025ZM254.501 2.64463L253.501 2.66611L253.458 0.66657L254.458 0.645091L254.501 2.64463ZM249.464 0.780884L250.464 0.747986L250.53 2.7469L249.53 2.7798L249.464 0.780884ZM244.576 2.97129L243.577 3.01564L243.488 1.01761L244.487 0.973257L244.576 2.97129ZM239.497 1.22375L240.496 1.16783L240.607 3.1647L239.609 3.22062L239.497 1.22375ZM234.602 3.53061L233.605 3.59828L233.469 1.60287L234.467 1.53519L234.602 3.53061ZM229.457 1.9048L230.454 1.82532L230.612 3.819L229.616 3.89847L229.457 1.9048ZM224.65 4.32407L223.654 4.41539L223.471 2.42375L224.467 2.33243L224.65 4.32407ZM219.5 2.81792L220.494 2.71469L220.701 4.70401L219.706 4.80724L219.5 2.81792ZM214.785 5.3478L213.792 5.46298L213.562 3.4763L214.555 3.36111L214.785 5.3478ZM209.576 3.96923L210.568 3.8419L210.823 5.82562L209.831 5.95295L209.576 3.96923ZM204.861 6.62236L203.871 6.76202L203.592 4.78161L204.582 4.64196L204.861 6.62236ZM199.614 5.37427L200.602 5.22224L200.906 7.19899L199.918 7.35102L199.614 5.37427ZM195.003 8.13875L194.017 8.30324L193.688 6.33048L194.674 6.16599L195.003 8.13875ZM189.763 7.01697L190.747 6.83997L191.101 8.80839L190.117 8.98539L189.763 7.01697ZM185.261 9.89076L184.279 10.0804L183.9 8.11663L184.882 7.92704L185.261 9.89076ZM179.931 8.91683L180.91 8.71431L181.315 10.6729L180.336 10.8754L179.931 8.91683ZM175.437 11.9224L174.461 12.138L174.03 10.185L175.006 9.96946L175.437 11.9224ZM170.116 11.0833L171.089 10.8547L171.547 12.8017L170.573 13.0304L170.116 11.0833ZM165.745 14.1989L164.775 14.4408L164.291 12.5001L165.261 12.2583L165.745 14.1989ZM160.443 13.4941L161.41 13.239L161.921 15.1728L160.954 15.4279L160.443 13.4941ZM156.154 16.7303L155.19 16.9989L154.653 15.0724L155.616 14.8038L156.154 16.7303ZM150.762 16.1951L151.721 15.9127L152.286 17.8313L151.327 18.1137L150.762 16.1951ZM146.542 19.5599L145.587 19.8562L144.994 17.946L145.949 17.6497L146.542 19.5599ZM141.18 19.1675L142.13 18.8573L142.751 20.7586L141.8 21.0688L141.18 19.1675ZM137.103 22.6401L136.157 22.9644L135.509 21.0725L136.455 20.7482L137.103 22.6401ZM131.774 22.3924L132.715 22.0539L133.392 23.9359L132.451 24.2744L131.774 22.3924ZM127.73 26.014L126.794 26.3672L126.088 24.496L127.024 24.1429L127.73 26.014ZM122.324 25.959L123.254 25.5911L123.99 27.4509L123.06 27.8187L122.324 25.959ZM118.442 29.6883L117.518 30.0709L116.753 28.2232L117.677 27.8405L118.442 29.6883ZM113.082 29.7873L114 29.3897L114.795 31.2248L113.878 31.6224L113.082 29.7873ZM109.367 33.6209L108.456 34.0336L107.631 32.2118L108.542 31.7991L109.367 33.6209ZM103.97 33.9173L104.874 33.4893L105.73 35.2967L104.826 35.7248L103.97 33.9173ZM100.316 37.9089L99.4203 38.3526L98.5328 36.5603L99.429 36.1166L100.316 37.9089ZM94.9495 38.3837L95.8377 37.9242L96.7566 39.7007L95.8684 40.1601L94.9495 38.3837ZM91.4833 42.4781L90.6034 42.9534L89.6529 41.1937L90.5328 40.7184L91.4833 42.4781ZM86.1802 43.1206L87.0512 42.6294L88.0335 44.3716L87.1625 44.8627L86.1802 43.1206ZM82.8397 47.3536L81.9779 47.8609L80.9631 46.1375L81.8249 45.6301L82.8397 47.3536ZM77.4995 48.233L78.3513 47.7091L79.3989 49.4128L78.5471 49.9366L77.4995 48.233ZM74.3267 52.5889L73.4852 53.1293L72.4045 51.4464L73.2459 50.906L74.3267 52.5889ZM69.0658 53.6491L69.8964 53.0922L71.0103 54.7533L70.1797 55.3102L69.0658 53.6491ZM66.1076 58.1003L65.2885 58.6739L64.1414 57.0355L64.9606 56.462L66.1076 58.1003ZM60.8731 59.3873L61.6802 58.7968L62.8611 60.411L62.054 61.0015L60.8731 59.3873ZM58.0475 63.9981L57.2532 64.6056L56.0382 63.0169L56.8326 62.4094L58.0475 63.9981ZM52.8752 65.5039L53.6562 64.8794L54.9053 66.4415L54.1243 67.066L52.8752 65.5039ZM50.2858 70.2047L49.5186 70.8463L48.2356 69.312L49.0027 68.6705L50.2858 70.2047ZM45.2167 71.909L45.9692 71.2505L47.2863 72.7557L46.5336 73.4142L45.2167 71.909ZM42.8179 76.7411L42.0807 77.4167L40.7294 75.9422L41.4667 75.2666L42.8179 76.7411ZM37.7919 78.7141L38.5132 78.0214L39.8986 79.4638L39.1774 80.1565L37.7919 78.7141ZM35.6315 83.6443L34.9271 84.3541L33.5076 82.9451L34.2121 82.2354L35.6315 83.6443ZM30.7288 85.8303L31.4159 85.1037L32.869 86.4779L32.1819 87.2045L30.7288 85.8303ZM28.8303 90.8366L28.1612 91.5798L26.6748 90.2416L27.3439 89.4984L28.8303 90.8366ZM24.0206 93.2845L24.6708 92.5247L26.1904 93.8249L25.5402 94.5848L24.0206 93.2845ZM22.3521 98.4083L21.7216 99.1845L20.1693 97.9234L20.7997 97.1473L22.3521 98.4083ZM17.6851 101.084L18.2952 100.292L19.8797 101.513L19.2695 102.305L17.6851 101.084ZM16.2942 106.274L15.705 107.082L14.0891 105.903L14.6783 105.095L16.2942 106.274ZM11.7792 109.183L12.3468 108.36L13.9934 109.495L13.4258 110.318L11.7792 109.183ZM10.6611 114.446L10.1158 115.284L8.43933 114.194L8.98456 113.356L10.6611 114.446ZM6.30408 117.601L6.82635 116.749L8.53192 117.793L8.00964 118.646L6.30408 117.601ZM5.47308 122.918L4.97443 123.785L3.24084 122.787L3.7395 121.921L5.47308 122.918ZM1.29272 126.313L1.76721 125.433L3.52771 126.382L3.05316 127.262L1.29272 126.313ZM698 443.001C697.984 442.147 697.965 441.295 697.945 440.444L699.945 440.397C699.965 441.251 699.983 442.106 700 442.962L698 443.001ZM697.804 435.356C697.75 433.665 697.689 431.979 697.622 430.299L699.62 430.219C699.688 431.905 699.749 433.596 699.803 435.292L697.804 435.356ZM697.399 425.275C697.318 423.606 697.23 421.942 697.135 420.283L699.132 420.169C699.227 421.834 699.315 423.503 699.397 425.178L697.399 425.275ZM696.832 415.323C696.724 413.675 696.609 412.033 696.488 410.395L698.483 410.248C698.604 411.891 698.719 413.539 698.827 415.193L696.832 415.323ZM696.105 405.5C695.97 403.873 695.829 402.252 695.682 400.636L697.673 400.454C697.821 402.076 697.963 403.703 698.098 405.335L696.105 405.5ZM695.205 395.655C695.035 393.965 694.859 392.281 694.675 390.604L696.663 390.386C696.847 392.07 697.025 393.759 697.195 395.455L695.205 395.655ZM694.102 385.588C693.904 383.922 693.699 382.262 693.487 380.607L695.471 380.353C695.684 382.013 695.889 383.68 696.088 385.352L694.102 385.588ZM692.83 375.662C692.604 374.02 692.37 372.383 692.13 370.752L694.109 370.461C694.35 372.098 694.584 373.741 694.811 375.389L692.83 375.662ZM691.39 365.877C691.136 364.258 690.875 362.645 690.607 361.037L692.58 360.709C692.849 362.323 693.111 363.942 693.365 365.567L691.39 365.877ZM689.779 356.203C689.484 354.53 689.182 352.863 688.872 351.202L690.838 350.835C691.149 352.502 691.453 354.176 691.749 355.856L689.779 356.203ZM687.92 346.239C687.596 344.592 687.264 342.95 686.925 341.315L688.883 340.909C689.224 342.551 689.557 344.199 689.883 345.853L687.92 346.239ZM685.886 336.429C685.532 334.807 685.171 333.191 684.803 331.581L686.753 331.135C687.122 332.752 687.485 334.374 687.84 336.003L685.886 336.429ZM683.678 326.772C683.295 325.175 682.906 323.584 682.509 322L684.45 321.514C684.848 323.105 685.239 324.702 685.623 326.306L683.678 326.772ZM681.296 317.255C680.867 315.614 680.431 313.98 679.988 312.353L681.917 311.827C682.363 313.461 682.801 315.102 683.231 316.749L681.296 317.255ZM678.634 307.492C678.175 305.879 677.709 304.273 677.235 302.673L679.153 302.105C679.628 303.712 680.097 305.325 680.557 306.945L678.634 307.492ZM675.792 297.895C675.303 296.309 674.808 294.73 674.305 293.158L676.21 292.548C676.715 294.127 677.213 295.713 677.703 297.306L675.792 297.895ZM672.774 288.462C672.256 286.903 671.732 285.352 671.2 283.807L673.091 283.156C673.625 284.708 674.152 286.266 674.672 287.832L672.774 288.462ZM669.562 279.134C668.994 277.543 668.419 275.959 667.836 274.383L669.712 273.689C670.297 275.273 670.875 276.864 671.446 278.462L669.562 279.134ZM666.065 269.676C665.467 268.114 664.861 266.56 664.249 265.012L666.108 264.276C666.724 265.83 667.332 267.392 667.933 268.961L666.065 269.676ZM662.388 260.393C661.76 258.861 661.125 257.335 660.483 255.818L662.325 255.038C662.97 256.563 663.608 258.096 664.239 259.635L662.388 260.393ZM658.535 251.286C657.878 249.783 657.215 248.287 656.544 246.798L658.367 245.976C659.041 247.472 659.708 248.975 660.368 250.485L658.535 251.286ZM654.447 242.219C653.738 240.695 653.022 239.179 652.298 237.67L654.101 236.805C654.829 238.321 655.549 239.844 656.261 241.376L654.447 242.219ZM650.104 233.167C649.366 231.674 648.62 230.189 647.867 228.711L649.648 227.803C650.405 229.288 651.155 230.78 651.897 232.281L650.104 233.167ZM645.585 224.301C644.817 222.839 644.042 221.384 643.26 219.937L645.02 218.986C645.806 220.44 646.584 221.902 647.356 223.371L645.585 224.301ZM640.893 215.62C640.081 214.159 639.261 212.706 638.434 211.262L640.17 210.268C641.001 211.72 641.825 213.18 642.641 214.648L640.893 215.62ZM635.911 206.915C635.062 205.474 634.206 204.041 633.343 202.617L635.054 201.58C635.921 203.012 636.781 204.452 637.634 205.9L635.911 206.915ZM630.733 198.367C629.856 196.958 628.972 195.558 628.08 194.165L629.765 193.087C630.661 194.486 631.549 195.894 632.431 197.309L630.733 198.367ZM625.386 190.012C624.481 188.635 623.569 187.267 622.65 185.907L624.307 184.787C625.231 186.154 626.147 187.53 627.057 188.913L625.386 190.012ZM619.825 181.781C618.87 180.404 617.908 179.036 616.938 177.676L618.567 176.515C619.541 177.882 620.508 179.257 621.468 180.64L619.825 181.781ZM614.01 173.621C613.027 172.278 612.037 170.944 611.041 169.617L612.64 168.416C613.641 169.749 614.636 171.09 615.624 172.44L614.01 173.621ZM608.031 165.663C607.021 164.353 606.005 163.052 604.981 161.759L606.55 160.518C607.578 161.817 608.6 163.125 609.615 164.442L608.031 165.663ZM601.892 157.904C600.838 156.605 599.777 155.315 598.709 154.033L600.246 152.753C601.319 154.042 602.386 155.338 603.445 156.644L601.892 157.904ZM595.479 150.205C594.396 148.938 593.307 147.679 592.211 146.429L593.714 145.11C594.816 146.367 595.911 147.632 597 148.906L595.479 150.205ZM588.903 142.704C587.794 141.471 586.679 140.246 585.558 139.03L587.028 137.674C588.155 138.897 589.276 140.127 590.39 141.367L588.903 142.704ZM582.176 135.408C581.039 134.205 579.895 133.011 578.746 131.826L580.182 130.434C581.337 131.625 582.486 132.825 583.629 134.034L582.176 135.408ZM575.235 128.25C574.059 127.066 572.876 125.892 571.688 124.726L573.088 123.298C574.283 124.47 575.471 125.65 576.654 126.839L575.235 128.25ZM568.105 121.255C566.905 120.107 565.698 118.967 564.487 117.837L565.851 116.374C567.069 117.511 568.281 118.656 569.487 119.81L568.105 121.255ZM560.834 114.47C559.61 113.357 558.382 112.252 557.147 111.156L558.475 109.661C559.716 110.762 560.951 111.872 562.18 112.991L560.834 114.47ZM553.398 107.869C552.136 106.776 550.869 105.693 549.596 104.618L550.886 103.09C552.165 104.17 553.439 105.259 554.707 106.357L553.398 107.869ZM545.762 101.42C544.478 100.363 543.189 99.3153 541.895 98.276L543.148 96.7166C544.448 97.761 545.743 98.8143 547.033 99.8766L545.762 101.42ZM537.998 95.1846C536.693 94.1629 535.384 93.1501 534.069 92.1461L535.283 90.5566C536.604 91.5656 537.92 92.5834 539.231 93.61L537.998 95.1846ZM530.106 89.1568C528.767 88.16 527.424 87.1721 526.076 86.1931L527.251 84.5747C528.605 85.5584 529.955 86.5511 531.3 87.5528L530.106 89.1568ZM522.016 83.2831C520.658 82.322 519.295 81.3699 517.928 80.4267L519.063 78.7803C520.437 79.7281 521.807 80.6849 523.171 81.6506L522.016 83.2831ZM513.812 77.6237C512.435 76.6983 511.054 75.7818 509.668 74.8741L510.764 73.2011C512.157 74.1131 513.544 75.034 514.928 75.9639L513.812 77.6237ZM505.499 72.1778C504.096 71.2824 502.689 70.3961 501.278 69.5186L502.333 67.8201C503.752 68.7017 505.165 69.5923 506.575 70.4919L505.499 72.1778ZM497.019 66.9059C495.595 66.0439 494.167 65.1909 492.735 64.3469L493.751 62.624C495.19 63.4719 496.624 64.3289 498.055 65.195L497.019 66.9059ZM488.428 61.8417C486.988 61.0156 485.544 60.1984 484.097 59.3902L485.072 57.644C486.526 58.456 487.976 59.277 489.423 60.107L488.428 61.8417ZM479.743 56.9922C478.284 56.1998 476.822 55.4164 475.357 54.6419L476.291 52.8736C477.763 53.6517 479.232 54.4387 480.698 55.2348L479.743 56.9922ZM470.924 52.3325C469.443 51.5718 467.959 50.82 466.471 50.0772L467.364 48.2878C468.859 49.034 470.35 49.7893 471.838 50.5535L470.924 52.3325ZM461.998 47.8758C460.503 47.151 459.006 46.4351 457.505 45.7282L458.357 43.9189C459.865 44.629 461.369 45.3482 462.871 46.0763L461.998 47.8758ZM452.994 43.6343C451.487 42.9453 449.977 42.2651 448.465 41.5939L449.276 39.7658C450.795 40.4401 452.312 41.1233 453.826 41.8154L452.994 43.6343ZM443.884 39.5921C442.354 38.9338 440.821 38.2845 439.286 37.6442L440.055 35.7983C441.598 36.4415 443.137 37.0937 444.674 37.755L443.884 39.5921ZM434.671 35.7503C433.131 35.128 431.587 34.5147 430.042 33.9103L430.77 32.0477C432.323 32.6547 433.873 33.2708 435.42 33.8959L434.671 35.7503ZM425.398 32.1242C423.848 31.5377 422.295 30.9602 420.741 30.3917L421.428 28.5133C422.989 29.0844 424.549 29.6645 426.106 30.2535L425.398 32.1242ZM416.044 28.7033C414.472 28.1483 412.899 27.6023 411.323 27.0653L411.969 25.1722C413.551 25.7116 415.132 26.26 416.71 26.8175L416.044 28.7033ZM406.591 25.4814C405.012 24.9624 403.431 24.4525 401.849 23.9515L402.452 22.0448C404.042 22.5479 405.63 23.0601 407.216 23.5813L406.591 25.4814ZM397.096 22.4756C395.51 21.9926 393.923 21.5186 392.334 21.0535L392.896 19.1341C394.492 19.6012 396.086 20.0773 397.679 20.5624L397.096 22.4756ZM387.543 19.6794C385.938 19.2283 384.331 18.7863 382.722 18.3534L383.242 16.4221C384.858 16.857 386.471 17.3009 388.084 17.754L387.543 19.6794ZM377.895 17.0817C376.284 16.6669 374.673 16.2611 373.061 15.8643L373.539 13.9222C375.158 14.3207 376.776 14.7283 378.394 15.1449L377.895 17.0817ZM368.221 14.701C366.607 14.3223 364.992 13.9525 363.377 13.5918L363.813 11.6398C365.435 12.0022 367.057 12.3735 368.678 12.7539L368.221 14.701ZM358.514 12.5332C356.881 12.1869 355.247 11.8498 353.614 11.5218L354.007 9.56095C355.648 9.89036 357.289 10.2289 358.929 10.5767L358.514 12.5332ZM348.711 10.5652C347.076 10.2555 345.442 9.9548 343.807 9.66321L344.158 7.69428C345.8 7.98713 347.442 8.2891 349.083 8.60021L348.711 10.5652ZM338.902 8.81564C337.267 8.54218 335.632 8.27777 333.997 8.0224L334.306 6.04636C335.948 6.30284 337.59 6.56839 339.232 6.84304L338.902 8.81564ZM329.082 7.28168C327.429 7.0416 325.775 6.81075 324.122 6.58909L324.388 4.60684C326.048 4.82946 327.709 5.06132 329.369 5.30244L329.082 7.28168ZM319.166 5.95172C317.514 5.74844 315.863 5.55434 314.212 5.3694L314.435 3.38184C316.093 3.56759 317.751 3.76253 319.41 3.96669L319.166 5.95172ZM309.263 4.84202C307.614 4.67536 305.966 4.51784 304.319 4.36942L304.499 2.37749C306.153 2.52656 307.808 2.68477 309.464 2.85215L309.263 4.84202ZM299.371 3.95063C297.703 3.81868 296.037 3.69607 294.373 3.58276L294.508 1.58738C296.18 1.70118 297.854 1.82434 299.528 1.95687L299.371 3.95063ZM289.382 3.27076C287.72 3.17606 286.06 3.09065 284.401 3.01451L284.493 1.01661C286.159 1.09309 287.827 1.17888 289.496 1.274L289.382 3.27076ZM279.429 2.81384C277.774 2.7562 276.12 2.7078 274.468 2.66862L274.516 0.669181C276.175 0.708536 277.836 0.757151 279.499 0.815047L279.429 2.81384ZM269.503 2.57851C267.829 2.55747 266.158 2.54592 264.488 2.54383L264.491 0.543834C266.168 0.545932 267.847 0.557534 269.528 0.578665L269.503 2.57851ZM259.487 2.56592C257.823 2.58273 256.161 2.60898 254.501 2.64463L254.458 0.645091C256.125 0.609273 257.795 0.58291 259.467 0.566025L259.487 2.56592ZM249.53 2.7798C247.876 2.83425 246.225 2.89809 244.576 2.97129L244.487 0.973257C246.143 0.899719 247.803 0.835586 249.464 0.780884L249.53 2.7798ZM239.609 3.22062C237.937 3.31429 236.268 3.41762 234.602 3.53061L234.467 1.53519C236.14 1.42168 237.817 1.31785 239.497 1.22375L239.609 3.22062ZM229.616 3.89847C227.957 4.03073 226.302 4.1726 224.65 4.32407L224.467 2.33243C226.127 2.18023 227.79 2.03768 229.457 1.9048L229.616 3.89847ZM219.706 4.80724C218.062 4.97787 216.422 5.15806 214.785 5.3478L214.555 3.36111C216.199 3.17045 217.848 2.98937 219.5 2.81792L219.706 4.80724ZM209.831 5.95295C208.17 6.1662 206.513 6.38934 204.861 6.62236L204.582 4.64196C206.242 4.40778 207.907 4.18353 209.576 3.96923L209.831 5.95295ZM199.918 7.35102C198.275 7.60376 196.637 7.86635 195.003 8.13875L194.674 6.16599C196.316 5.8922 197.963 5.62828 199.614 5.37427L199.918 7.35102ZM190.117 8.98539C188.493 9.2774 186.875 9.5792 185.261 9.89076L184.882 7.92704C186.504 7.61385 188.131 7.31049 189.763 7.01697L190.117 8.98539ZM180.336 10.8754C178.697 11.2142 177.064 11.5633 175.437 11.9224L175.006 9.96946C176.642 9.60836 178.284 9.25748 179.931 8.91683L180.336 10.8754ZM170.573 13.0304C168.958 13.4098 167.348 13.7993 165.745 14.1989L165.261 12.2583C166.873 11.8565 168.492 11.4648 170.116 11.0833L170.573 13.0304ZM160.954 15.4279C159.347 15.8518 157.747 16.286 156.154 16.7303L155.616 14.8038C157.219 14.3569 158.828 13.9204 160.443 13.4941L160.954 15.4279ZM151.327 18.1137C149.724 18.5853 148.129 19.0674 146.542 19.5599L145.949 17.6497C147.546 17.1543 149.15 16.6694 150.762 16.1951L151.327 18.1137ZM141.8 21.0688C140.227 21.5822 138.661 22.106 137.103 22.6401L136.455 20.7482C138.022 20.2109 139.597 19.6839 141.18 19.1675L141.8 21.0688ZM132.451 24.2744C130.869 24.8434 129.295 25.4233 127.73 26.014L127.024 24.1429C128.599 23.5485 130.182 22.965 131.774 22.3924L132.451 24.2744ZM123.06 27.8187C121.512 28.4311 119.973 29.0543 118.442 29.6883L117.677 27.8405C119.217 27.2024 120.766 26.5753 122.324 25.959L123.06 27.8187ZM113.878 31.6224C112.365 32.2778 110.862 32.944 109.367 33.6209L108.542 31.7991C110.046 31.1177 111.56 30.4471 113.082 29.7873L113.878 31.6224ZM104.826 35.7248C103.313 36.4416 101.809 37.1697 100.316 37.9089L99.429 36.1166C100.932 35.3722 102.446 34.6391 103.97 33.9173L104.826 35.7248ZM95.8684 40.1601C94.3961 40.9216 92.9343 41.6943 91.4833 42.4781L90.5328 40.7184C91.9944 39.9289 93.4667 39.1507 94.9495 38.3837L95.8684 40.1601ZM87.1625 44.8627C85.7101 45.6816 84.2691 46.5119 82.8397 47.3536L81.8249 45.6301C83.2652 44.7821 84.717 43.9455 86.1802 43.1206L87.1625 44.8627ZM78.5471 49.9366C77.1282 50.8092 75.7213 51.6933 74.3267 52.5889L73.2459 50.906C74.6516 50.0033 76.0695 49.1123 77.4995 48.233L78.5471 49.9366ZM70.1797 55.3102C68.8098 56.2288 67.4523 57.1589 66.1076 58.1003L64.9606 56.462C66.3163 55.5128 67.6848 54.5751 69.0658 53.6491L70.1797 55.3102ZM62.054 61.0015C60.7048 61.9884 59.3692 62.9873 58.0475 63.9981L56.8326 62.4094C58.1656 61.39 59.5126 60.3826 60.8731 59.3873L62.054 61.0015ZM54.1243 67.066C52.8305 68.1004 51.551 69.1467 50.2858 70.2047L49.0027 68.6705C50.2792 67.603 51.5702 66.5475 52.8752 65.5039L54.1243 67.066ZM46.5336 73.4142C45.2799 74.5111 44.0413 75.6201 42.8179 76.7411L41.4667 75.2666C42.7014 74.1352 43.9515 73.0159 45.2167 71.909L46.5336 73.4142ZM39.1774 80.1565C37.9796 81.307 36.7975 82.4697 35.6315 83.6443L34.2121 82.2354C35.3894 81.0493 36.5828 79.8756 37.7919 78.7141L39.1774 80.1565ZM32.1819 87.2045C31.0483 88.4032 29.931 89.6139 28.8303 90.8366L27.3439 89.4984C28.4556 88.2635 29.584 87.0408 30.7288 85.8303L32.1819 87.2045ZM25.5402 94.5848C24.4601 95.8471 23.3973 97.1216 22.3521 98.4083L20.7997 97.1473C21.8558 95.8473 22.9295 94.5597 24.0206 93.2845L25.5402 94.5848ZM19.2695 102.305C18.2598 103.616 17.2679 104.939 16.2942 106.274L14.6783 105.095C15.6624 103.746 16.6647 102.409 17.6851 101.084L19.2695 102.305ZM13.4258 110.318C12.4855 111.682 11.5639 113.058 10.6611 114.446L8.98456 113.356C9.89722 111.952 10.8289 110.562 11.7792 109.183L13.4258 110.318ZM8.00964 118.646C7.1449 120.058 6.29926 121.482 5.47308 122.918L3.7395 121.921C4.57489 120.469 5.42981 119.029 6.30408 117.601L8.00964 118.646ZM3.05316 127.262C2.65942 127.992 2.27063 128.726 1.88678 129.462L0.11322 128.538C0.501404 127.793 0.894531 127.051 1.29272 126.313L3.05316 127.262Z" fill="#4C4EF8"/>
</svg>
