<svg width="657" height="274" viewBox="0 0 657 274" fill="none" xmlns="http://www.w3.org/2000/svg">
<path d="M1.5 273C1.5 273.276 1.27612 273.5 1 273.5C0.723877 273.5 0.5 273.276 0.5 273H1.5ZM654.214 133.628L653.943 133.207L654.784 132.666L655.054 133.087L654.214 133.628ZM652.275 128.851L652.553 129.267L651.722 129.823L651.444 129.407L652.275 128.851ZM648.619 125.263L648.334 124.852L649.156 124.281L649.441 124.692L648.619 125.263ZM646.551 120.609L646.844 121.015L646.033 121.599L645.74 121.194L646.551 120.609ZM642.807 117.201L642.507 116.8L643.308 116.201L643.608 116.602L642.807 117.201ZM640.611 112.669L640.917 113.064L640.127 113.678L639.821 113.283L640.611 112.669ZM636.71 109.35L636.397 108.961L637.175 108.333L637.489 108.723L636.71 109.35ZM634.287 104.823L634.608 105.206L633.841 105.848L633.52 105.465L634.287 104.823ZM630.276 101.658L629.948 101.28L630.704 100.625L631.031 101.002L630.276 101.658ZM627.722 97.2602L628.057 97.6317L627.314 98.301L626.979 97.9296L627.722 97.2602ZM623.63 94.2792L623.288 93.9139L624.019 93.2311L624.36 93.5964L623.63 94.2792ZM620.934 89.9974L621.282 90.3564L620.564 91.0525L620.216 90.6935L620.934 89.9974ZM616.683 87.1173L616.328 86.7649L617.033 86.0555L617.388 86.4079L616.683 87.1173ZM613.789 82.899L614.15 83.2447L613.459 83.9672L613.098 83.6215L613.789 82.899ZM609.461 80.2056L609.094 79.8667L609.772 79.1315L610.139 79.4704L609.461 80.2056ZM606.439 76.1217L606.813 76.4537L606.149 77.2014L605.775 76.8693L606.439 76.1217ZM602.039 73.6122L601.659 73.2871L602.309 72.5273L602.689 72.8524L602.039 73.6122ZM598.848 69.6276L599.234 69.9455L598.598 70.7173L598.213 70.3994L598.848 69.6276ZM594.32 67.2523L593.928 66.9416L594.549 66.1581L594.941 66.4688L594.32 67.2523ZM590.986 63.3906L591.383 63.694L590.776 64.4889L590.379 64.1855L590.986 63.3906ZM586.391 61.1985L585.988 60.9025L586.58 60.0966L586.983 60.3927L586.391 61.1985ZM582.934 57.4744L583.342 57.7631L582.765 58.5796L582.357 58.291L582.934 57.4744ZM578.266 55.4544L577.852 55.1733L578.414 54.3464L578.828 54.6275L578.266 55.4544ZM574.653 51.844L575.071 52.1176L574.524 52.9546L574.106 52.681L574.653 51.844ZM569.902 49.9871L569.478 49.7211L570.01 48.8743L570.434 49.1403L569.902 49.9871ZM566.171 46.5159L566.599 46.7743L566.083 47.6305L565.655 47.3721L566.171 46.5159ZM561.365 44.8357L560.933 44.585L561.434 43.7198L561.867 43.9705L561.365 44.8357ZM557.521 41.5034L557.958 41.7464L557.472 42.6203L557.035 42.3773L557.521 41.5034ZM552.652 39.9897L552.21 39.7544L552.681 38.8721L553.122 39.1074L552.652 39.9897ZM548.684 36.7894L549.129 37.017L548.674 37.9073L548.229 37.6797L548.684 36.7894ZM543.767 35.4469L543.318 35.227L543.758 34.3289L544.207 34.5489L543.767 35.4469ZM539.693 32.3854L540.145 32.5977L539.721 33.5031L539.268 33.2908L539.693 32.3854ZM534.733 31.211L534.277 31.0064L534.686 30.094L535.142 30.2986L534.733 31.211ZM530.561 28.2899L531.02 28.4869L530.626 29.406L530.167 29.2091L530.561 28.2899ZM525.569 27.2832L525.106 27.0939L525.484 26.1684L525.947 26.3577L525.569 27.2832ZM521.3 24.5005L521.766 24.6822L521.403 25.6138L520.937 25.432L521.3 24.5005ZM516.273 23.6551L515.804 23.4808L516.152 22.5435L516.621 22.7178L516.273 23.6551ZM511.91 21.0091L512.382 21.1759L512.048 22.1186L511.577 21.9519L511.91 21.0091ZM506.859 20.3248L506.385 20.1655L506.704 19.2176L507.178 19.3769L506.859 20.3248ZM502.43 17.8221L502.906 17.974L502.602 18.9267L502.126 18.7748L502.43 17.8221ZM497.364 17.2966L496.886 17.152L497.175 16.1947L497.654 16.3393L497.364 17.2966ZM492.85 14.9281L493.331 15.0654L493.056 16.0269L492.576 15.8896L492.85 14.9281ZM487.76 14.5535L487.278 14.4234L487.538 13.4578L488.021 13.5879L487.76 14.5535ZM483.167 12.3187L483.652 12.4416L483.406 13.4109L482.921 13.288L483.167 12.3187ZM478.089 12.1L477.602 11.9842L477.834 11.0114L478.321 11.1272L478.089 12.1ZM473.451 10.0045L473.939 10.1134L473.722 11.0894L473.234 10.9806L473.451 10.0045ZM468.356 9.92926L467.867 9.82738L468.07 8.84836L468.56 8.95024L468.356 9.92926ZM463.647 7.96388L464.138 8.05887L463.948 9.04066L463.457 8.94567L463.647 7.96388ZM458.538 8.02934L458.046 7.94119L458.223 6.95685L458.715 7.04501L458.538 8.02934ZM453.788 6.19728L454.281 6.2787L454.118 7.26535L453.625 7.18393L453.788 6.19728ZM448.706 6.40623L448.212 6.33147L448.361 5.34271L448.856 5.41747L448.706 6.40623ZM443.907 4.70283L444.402 4.77099L444.266 5.76166L443.77 5.69349L443.907 4.70283ZM438.818 5.04529L438.322 4.98366L438.445 3.99128L438.941 4.05292L438.818 5.04529ZM433.961 3.4673L434.458 3.52246L434.348 4.51635L433.851 4.46119L433.961 3.4673ZM428.878 3.94165L428.38 3.89289L428.478 2.89766L428.975 2.94642L428.878 3.94165ZM424.006 2.49125L424.504 2.53371L424.419 3.5301L423.921 3.48764L424.006 2.49125ZM418.952 3.0955L418.453 3.05928L418.526 2.06191L419.024 2.09813L418.952 3.0955ZM414.031 1.76662L414.53 1.79666L414.47 2.79486L413.971 2.76482L414.031 1.76662ZM408.98 2.49516L408.481 2.47125L408.528 1.47239L409.028 1.49631L408.98 2.49516ZM404.015 1.28677L404.515 1.30463L404.479 2.30399L403.979 2.28613L404.015 1.28677ZM398.997 2.13794L398.497 2.12605L398.521 1.12633L399.021 1.13822L398.997 2.13794ZM394.027 1.04905L394.527 1.05503L394.515 2.05496L394.015 2.04898L394.027 1.04905ZM389.026 2.01857L388.526 2.01844L388.526 1.01844L389.026 1.01857L389.026 2.01857ZM384.019 1.04636L384.519 1.04069L384.531 2.04063L384.031 2.0463L384.019 1.04636ZM379.031 2.13175L378.531 2.14316L378.508 1.14342L379.008 1.13201L379.031 2.13175ZM374 1.27484L374.5 1.25775L374.534 2.25717L374.034 2.27426L374 1.27484ZM369.055 2.47256L368.556 2.49525L368.51 1.49628L369.01 1.47359L369.055 2.47256ZM364.018 1.72832L364.517 1.70007L364.573 2.69847L364.074 2.72672L364.018 1.72832ZM359.091 3.03635L358.593 3.07011L358.525 2.07239L359.024 2.03863L359.091 3.03635ZM354.03 2.40411L354.528 2.36489L354.607 3.36181L354.108 3.40103L354.03 2.40411ZM349.125 3.82037L348.627 3.865L348.538 2.86899L349.036 2.82436L349.125 3.82037ZM344.058 3.29753L344.555 3.24755L344.655 4.24254L344.158 4.29252L344.058 3.29753ZM339.197 4.81766L338.7 4.87294L338.59 3.87907L339.087 3.82379L339.197 4.81766ZM334.119 4.40318L334.615 4.34263L334.736 5.33528L334.24 5.39582L334.119 4.40318ZM329.286 6.02662L328.79 6.09239L328.659 5.10108L329.155 5.03531L329.286 6.02662ZM324.195 5.71978L324.69 5.64883L324.832 6.63872L324.337 6.70966L324.195 5.71978ZM319.395 7.44429L318.901 7.52038L318.749 6.53202L319.243 6.45594L319.395 7.44429ZM314.304 7.24246L314.797 7.16128L314.96 8.14802L314.466 8.2292L314.304 7.24246ZM309.545 9.06496L309.052 9.1512L308.88 8.16618L309.372 8.07995L309.545 9.06496ZM304.449 8.96799L304.94 8.87673L305.123 9.85993L304.631 9.95119L304.449 8.96799ZM299.727 10.8875L299.236 10.9837L299.044 10.0025L299.534 9.9062L299.727 10.8875ZM294.63 10.8942L295.119 10.793L295.322 11.7723L294.832 11.8735L294.63 10.8942ZM289.946 12.9092L289.457 13.0154L289.245 12.0381L289.734 11.932L289.946 12.9092ZM284.848 13.0191L285.335 12.9081L285.557 13.8831L285.07 13.9942L284.848 13.0191ZM280.206 15.1277L279.72 15.2436L279.488 14.2709L279.974 14.1549L280.206 15.1277ZM275.114 15.339L275.6 15.2182L275.841 16.1886L275.356 16.3093L275.114 15.339ZM270.52 17.5388L270.036 17.6644L269.785 16.6964L270.269 16.5708L270.52 17.5388ZM265.437 17.8504L265.919 17.72L266.18 18.6854L265.697 18.8158L265.437 17.8504ZM260.876 20.1442L260.394 20.2794L260.124 19.3166L260.605 19.1814L260.876 20.1442ZM255.791 20.5594L256.271 20.4194L256.551 21.3794L256.071 21.5194L255.791 20.5594ZM251.284 22.9411L250.805 23.0858L250.516 22.1286L250.994 21.9839L251.284 22.9411ZM246.216 23.4546L246.693 23.3051L246.992 24.2594L246.515 24.4088L246.216 23.4546ZM241.766 25.9223L241.29 26.0764L240.982 25.1252L241.458 24.971L241.766 25.9223ZM236.704 26.538L237.178 26.3791L237.496 27.3272L237.022 27.4861L236.704 26.538ZM232.285 29.1L231.812 29.2636L231.485 28.3187L231.958 28.155L232.285 29.1ZM227.234 29.8172L227.705 29.6489L228.041 30.5906L227.57 30.7589L227.234 29.8172ZM222.879 32.4624L222.41 32.6354L222.064 31.6971L222.533 31.5241L222.879 32.4624ZM217.857 33.2753L218.324 33.0976L218.679 34.0324L218.212 34.2101L217.857 33.2753ZM213.569 36.0018L213.104 36.1842L212.739 35.253L213.204 35.0707L213.569 36.0018ZM208.536 36.9264L209 36.7393L209.374 37.6667L208.91 37.8538L208.536 36.9264ZM204.279 39.7495L203.817 39.9413L203.434 39.0177L203.896 38.826L204.279 39.7495ZM199.283 40.769L199.743 40.5725L200.136 41.4921L199.676 41.6885L199.283 40.769ZM195.102 43.6705L194.644 43.8716L194.242 42.9561L194.7 42.755L195.102 43.6705ZM190.146 44.7836L190.602 44.5778L191.014 45.4891L190.558 45.6949L190.146 44.7836ZM186.014 47.7758L185.561 47.9864L185.139 47.0793L185.593 46.8688L186.014 47.7758ZM181.048 49.0078L181.499 48.7925L181.93 49.6951L181.478 49.9104L181.048 49.0078ZM176.977 52.0871L176.528 52.3071L176.087 51.4091L176.536 51.1891L176.977 52.0871ZM172.06 53.4123L172.506 53.1876L172.956 54.0808L172.509 54.3056L172.06 53.4123ZM168.077 56.5654L167.633 56.795L167.174 55.9065L167.618 55.677L168.077 56.5654ZM163.202 57.989L163.643 57.7547L164.112 58.6382L163.67 58.8724L163.202 57.989ZM159.246 61.2499L158.807 61.489L158.329 60.6107L158.768 60.3716L159.246 61.2499ZM154.373 62.7957L154.81 62.5518L155.298 63.4247L154.861 63.6686L154.373 62.7957ZM150.517 66.1281L150.083 66.3769L149.586 65.5094L150.02 65.2607L150.517 66.1281ZM145.707 67.7661L146.138 67.5125L146.646 68.3743L146.215 68.628L145.707 67.7661ZM141.955 71.1676L141.527 71.4261L141.01 70.5701L141.438 70.3116L141.955 71.1676ZM137.145 72.938L137.57 72.6745L138.097 73.5245L137.672 73.7879L137.145 72.938ZM133.425 76.4548L133.003 76.7232L132.466 75.8794L132.888 75.6111L133.425 76.4548ZM128.678 78.3242L129.097 78.0509L129.643 78.8882L129.225 79.1616L128.678 78.3242ZM125.073 81.9077L124.658 82.1861L124.101 81.3554L124.517 81.077L125.073 81.9077ZM120.404 83.8689L120.816 83.5855L121.383 84.4094L120.971 84.6928L120.404 83.8689ZM116.864 87.5555L116.455 87.8439L115.878 87.0271L116.287 86.7387L116.864 87.5555ZM112.193 89.6687L112.598 89.3751L113.185 90.1846L112.78 90.4782L112.193 89.6687ZM108.752 93.4399L108.351 93.7386L107.753 92.9367L108.154 92.638L108.752 93.4399ZM104.171 95.646L104.568 95.342L105.176 96.1361L104.779 96.44L104.171 95.646ZM100.863 99.4782L100.47 99.7873L99.852 99.0013L100.245 98.6922L100.863 99.4782ZM96.3271 101.816L96.716 101.502L97.3447 102.28L96.9559 102.594L96.3271 101.816ZM93.0695 105.781L92.6851 106.1L92.0456 105.332L92.4301 105.012L93.0695 105.781ZM88.5961 108.246L88.976 107.921L89.6261 108.681L89.2462 109.006L88.5961 108.246ZM85.4874 112.268L85.1121 112.599L84.4513 111.848L84.8265 111.518L85.4874 112.268ZM81.1225 114.827L81.493 114.491L82.1646 115.232L81.7941 115.568L81.1225 114.827ZM78.1162 118.952L77.7508 119.293L77.0682 118.563L77.4337 118.221L78.1162 118.952ZM73.7753 121.691L74.1354 121.344L74.829 122.064L74.4689 122.411L73.7753 121.691ZM70.8944 125.907L70.5397 126.26L69.835 125.55L70.1896 125.198L70.8944 125.907ZM66.6782 128.742L67.0272 128.384L67.7432 129.082L67.394 129.44L66.6782 128.742ZM63.969 133.009L63.6257 133.372L62.8987 132.686L63.2419 132.322L63.969 133.009ZM59.8205 136.006L60.1577 135.637L60.8961 136.311L60.5589 136.68L59.8205 136.006ZM57.2037 140.418L56.8729 140.793L56.1231 140.131L56.4539 139.756L57.2037 140.418ZM53.1709 143.542L53.4951 143.162L54.2563 143.81L53.9321 144.191L53.1709 143.542ZM50.7455 147.999L50.4281 148.386L49.6555 147.751L49.9729 147.364L50.7455 147.999ZM46.8613 151.222L47.1716 150.83L47.9556 151.45L47.6452 151.842L46.8613 151.222ZM44.5562 155.82L44.2533 156.218L43.4577 155.612L43.7606 155.214L44.5562 155.82ZM40.7509 159.246L41.0461 158.843L41.8533 159.433L41.558 159.837L40.7509 159.246ZM38.6554 163.888L38.3682 164.297L37.5496 163.723L37.8368 163.314L38.6554 163.888ZM35.0198 167.415L35.2988 167L36.1287 167.558L35.8499 167.973L35.0198 167.415ZM33.1192 172.128L32.8489 172.548L32.0076 172.008L32.2779 171.587L33.1192 172.128ZM29.5955 175.862L29.8567 175.435L30.7094 175.958L30.4482 176.384L29.5955 175.862ZM27.884 180.674L27.6321 181.105L26.7682 180.602L27.0201 180.17L27.884 180.674ZM24.5532 184.511L24.7953 184.074L25.6703 184.558L25.4282 184.996L24.5532 184.511ZM23.0823 189.35L22.8502 189.792L21.9645 189.328L22.1966 188.885L23.0823 189.35ZM19.9111 193.373L20.1326 192.925L21.0291 193.368L20.8075 193.816L19.9111 193.373ZM18.6434 198.329L18.4327 198.783L17.5258 198.361L17.7365 197.908L18.6434 198.329ZM15.6823 202.474L15.8818 202.016L16.7988 202.414L16.5992 202.873L15.6823 202.474ZM14.6769 207.447L14.489 207.91L13.5623 207.534L13.7502 207.071L14.6769 207.447ZM11.9293 211.731L12.1053 211.263L13.0413 211.615L12.8654 212.083L11.9293 211.731ZM11.1666 216.789L11.0031 217.261L10.058 216.934L10.2216 216.462L11.1666 216.789ZM8.64526 221.222L8.79608 220.745L9.74951 221.047L9.59875 221.523L8.64526 221.222ZM8.16376 226.286L8.02606 226.766L7.0647 226.491L7.20239 226.01L8.16376 226.286ZM5.89368 230.83L6.01801 230.346L6.98663 230.594L6.8623 231.079L5.89368 230.83ZM5.69012 235.93L5.57965 236.418L4.60437 236.197L4.71484 235.709L5.69012 235.93ZM3.67712 240.615L3.77356 240.124L4.75476 240.317L4.65833 240.808L3.67712 240.615ZM3.76874 245.71L3.68665 246.203L2.7002 246.039L2.78229 245.545L3.76874 245.71ZM2.03229 250.5L2.09985 250.005L3.09064 250.14L3.02313 250.635L2.03229 250.5ZM2.42493 255.57L2.37213 256.067L1.37769 255.962L1.43048 255.465L2.42493 255.57ZM0.976685 260.448L1.01459 259.95L2.01172 260.025L1.97382 260.524L0.976685 260.448ZM1.67126 265.499L1.6485 265.998L0.649536 265.953L0.672302 265.453L1.67126 265.499ZM0.519226 270.479L0.526855 269.979L1.52673 269.994L1.5191 270.494L0.519226 270.479ZM655.577 135.767C655.125 135.051 654.67 134.338 654.214 133.628L655.054 133.087C655.513 133.799 655.969 134.514 656.423 135.233L655.577 135.767ZM651.444 129.407C650.512 128.013 649.57 126.631 648.619 125.263L649.441 124.692C650.395 126.066 651.34 127.452 652.275 128.851L651.444 129.407ZM645.74 121.194C644.771 119.85 643.794 118.519 642.807 117.201L643.608 116.602C644.598 117.925 645.579 119.261 646.551 120.609L645.74 121.194ZM639.821 113.283C638.793 111.959 637.756 110.648 636.71 109.35L637.489 108.723C638.539 110.025 639.579 111.341 640.611 112.669L639.821 113.283ZM633.52 105.465C632.448 104.183 631.366 102.914 630.276 101.658L631.031 101.002C632.126 102.263 633.211 103.536 634.287 104.823L633.52 105.465ZM626.979 97.9296C625.871 96.6998 624.755 95.483 623.63 94.2792L624.36 93.5964C625.489 94.8047 626.61 96.0259 627.722 97.2602L626.979 97.9296ZM620.216 90.6935C619.047 89.488 617.869 88.2959 616.683 87.1173L617.388 86.4079C618.579 87.5909 619.761 88.7874 620.934 89.9974L620.216 90.6935ZM613.098 83.6215C611.894 82.4695 610.682 81.3309 609.461 80.2056L610.139 79.4704C611.364 80.5999 612.581 81.7428 613.789 82.899L613.098 83.6215ZM605.775 76.8693C604.538 75.7704 603.292 74.6847 602.039 73.6122L602.689 72.8524C603.947 73.9289 605.197 75.0187 606.439 76.1217L605.775 76.8693ZM598.213 70.3994C596.923 69.3369 595.625 68.2879 594.32 67.2523L594.941 66.4688C596.252 67.5083 597.554 68.5612 598.848 69.6276L598.213 70.3994ZM590.379 64.1855C589.057 63.1765 587.728 62.1809 586.391 61.1985L586.983 60.3927C588.325 61.3787 589.659 62.378 590.986 63.3906L590.379 64.1855ZM582.357 58.291C581.001 57.3323 579.637 56.3868 578.266 55.4544L578.828 54.6275C580.204 55.5632 581.573 56.5122 582.934 57.4744L582.357 58.291ZM574.106 52.681C572.712 51.7698 571.31 50.8719 569.902 49.9871L570.434 49.1403C571.847 50.0283 573.254 50.9295 574.653 51.844L574.106 52.681ZM565.655 47.3721C564.232 46.5136 562.802 45.6681 561.365 44.8357L561.867 43.9705C563.309 44.8058 564.744 45.6543 566.171 46.5159L565.655 47.3721ZM557.035 42.3773C555.581 41.5685 554.119 40.7726 552.652 39.9897L553.122 39.1074C554.595 39.893 556.061 40.6917 557.521 41.5034L557.035 42.3773ZM548.229 37.6797C546.748 36.9226 545.261 36.1784 543.767 35.4469L544.207 34.5489C545.706 35.2828 547.198 36.0296 548.684 36.7894L548.229 37.6797ZM539.268 33.2908C537.763 32.5849 536.251 31.8916 534.733 31.211L535.142 30.2986C536.665 30.9815 538.182 31.677 539.693 32.3854L539.268 33.2908ZM530.167 29.2091C528.64 28.5546 527.107 27.9127 525.569 27.2832L525.947 26.3577C527.491 26.9893 529.029 27.6333 530.561 28.2899L530.167 29.2091ZM520.937 25.432C519.387 24.8274 517.833 24.2351 516.273 23.6551L516.621 22.7178C518.186 23.2996 519.746 23.8938 521.3 24.5005L520.937 25.432ZM511.577 21.9519C510.009 21.3974 508.437 20.855 506.859 20.3248L507.178 19.3769C508.76 19.9088 510.338 20.4529 511.91 21.0091L511.577 21.9519ZM502.126 18.7748C500.543 18.2701 498.956 17.7774 497.364 17.2966L497.654 16.3393C499.25 16.8216 500.842 17.3159 502.43 17.8221L502.126 18.7748ZM492.576 15.8896C490.975 15.4324 489.37 14.9871 487.76 14.5535L488.021 13.5879C489.635 14.0228 491.245 14.4695 492.85 14.9281L492.576 15.8896ZM482.921 13.288C481.314 12.8805 479.704 12.4846 478.089 12.1L478.321 11.1272C479.94 11.5129 481.555 11.91 483.167 12.3187L482.921 13.288ZM473.234 10.9806C471.611 10.6188 469.985 10.2684 468.356 9.92926L468.56 8.95024C470.194 9.29033 471.824 9.64173 473.451 10.0045L473.234 10.9806ZM463.457 8.94567C461.821 8.62904 460.181 8.32362 458.538 8.02934L458.715 7.04501C460.362 7.3401 462.006 7.64637 463.647 7.96388L463.457 8.94567ZM453.625 7.18393C451.988 6.91382 450.349 6.65461 448.706 6.40623L448.856 5.41747C450.503 5.66652 452.147 5.92643 453.788 6.19728L453.625 7.18393ZM443.77 5.69349C442.122 5.46669 440.471 5.25065 438.818 5.04529L438.941 4.05292C440.599 4.25881 442.254 4.47543 443.907 4.70283L443.77 5.69349ZM433.851 4.46119C432.195 4.27746 430.538 4.1043 428.878 3.94165L428.975 2.94642C430.64 3.10949 432.301 3.28309 433.961 3.4673L433.851 4.46119ZM423.921 3.48764C422.267 3.34664 420.61 3.21595 418.952 3.0955L419.024 2.09813C420.687 2.21888 422.347 2.3499 424.006 2.49125L423.921 3.48764ZM413.971 2.76482C412.309 2.66478 410.645 2.57492 408.98 2.49516L409.028 1.49631C410.697 1.57626 412.365 1.66634 414.031 1.76662L413.971 2.76482ZM403.979 2.28613C402.32 2.22683 400.659 2.17745 398.997 2.13794L399.021 1.13822C400.687 1.17783 402.352 1.22732 404.015 1.28677L403.979 2.28613ZM394.015 2.04898C392.353 2.02911 390.69 2.01899 389.026 2.01857L389.026 1.01857C390.694 1.019 392.361 1.02913 394.027 1.04905L394.015 2.04898ZM384.031 2.0463C382.365 2.06518 380.698 2.09369 379.031 2.13175L379.008 1.13201C380.679 1.09386 382.35 1.06529 384.019 1.04636L384.031 2.0463ZM374.034 2.27426C372.375 2.331 370.715 2.39712 369.055 2.47256L369.01 1.47359C370.674 1.39799 372.337 1.33171 374 1.27484L374.034 2.27426ZM364.074 2.72672C362.413 2.82071 360.752 2.92394 359.091 3.03635L359.024 2.03863C360.689 1.92598 362.353 1.82252 364.018 1.72832L364.074 2.72672ZM354.108 3.40103C352.447 3.53172 350.786 3.67152 349.125 3.82037L349.036 2.82436C350.7 2.67519 352.365 2.53509 354.03 2.40411L354.108 3.40103ZM344.158 4.29252C342.504 4.45868 340.85 4.63375 339.197 4.81766L339.087 3.82379C340.743 3.63949 342.4 3.46405 344.058 3.29753L344.158 4.29252ZM334.24 5.39582C332.588 5.59734 330.937 5.80763 329.286 6.02662L329.155 5.03531C330.808 4.81586 332.463 4.60512 334.119 4.40318L334.24 5.39582ZM324.337 6.70966C322.689 6.94593 321.041 7.19083 319.395 7.44429L319.243 6.45594C320.893 6.20195 322.543 5.95654 324.195 5.71978L324.337 6.70966ZM314.466 8.2292C312.824 8.49933 311.184 8.77794 309.545 9.06496L309.372 8.07995C311.015 7.79234 312.659 7.51315 314.304 7.24246L314.466 8.2292ZM304.631 9.95119C302.995 10.255 301.36 10.5671 299.727 10.8875L299.534 9.9062C301.171 9.58515 302.809 9.27239 304.449 8.96799L304.631 9.95119ZM294.832 11.8735C293.202 12.2105 291.573 12.5558 289.946 12.9092L289.734 11.932C291.364 11.5779 292.996 11.2319 294.63 10.8942L294.832 11.8735ZM285.07 13.9942C283.447 14.3639 281.825 14.7418 280.206 15.1277L279.974 14.1549C281.597 13.7683 283.221 13.3897 284.848 13.0191L285.07 13.9942ZM275.356 16.3093C273.741 16.7112 272.129 17.121 270.52 17.5388L270.269 16.5708C271.881 16.1523 273.497 15.7416 275.114 15.339L275.356 16.3093ZM265.697 18.8158C264.088 19.2508 262.48 19.6936 260.876 20.1442L260.605 19.1814C262.213 18.7299 263.824 18.2862 265.437 17.8504L265.697 18.8158ZM256.071 21.5194C254.472 21.9856 252.876 22.4595 251.284 22.9411L250.994 21.9839C252.59 21.5013 254.189 21.0265 255.791 20.5594L256.071 21.5194ZM246.515 24.4088C244.929 24.9057 243.346 25.4102 241.766 25.9223L241.458 24.971C243.041 24.4579 244.627 23.9524 246.216 23.4546L246.515 24.4088ZM237.022 27.4861C235.439 28.0165 233.86 28.5545 232.285 29.1L231.958 28.155C233.536 27.6085 235.118 27.0694 236.704 26.538L237.022 27.4861ZM227.57 30.7589C226.003 31.3193 224.439 31.8872 222.879 32.4624L222.533 31.5241C224.096 30.9478 225.663 30.3788 227.234 29.8172L227.57 30.7589ZM218.212 34.2101C216.66 34.8 215.112 35.3973 213.569 36.0018L213.204 35.0707C214.751 34.465 216.302 33.8665 217.857 33.2753L218.212 34.2101ZM208.91 37.8538C207.362 38.4784 205.818 39.1104 204.279 39.7495L203.896 38.826C205.438 38.1855 206.985 37.5523 208.536 36.9264L208.91 37.8538ZM199.676 41.6885C198.146 42.3421 196.622 43.0027 195.102 43.6705L194.7 42.755C196.223 42.0858 197.75 41.4238 199.283 40.769L199.676 41.6885ZM190.558 45.6949C189.038 46.3815 187.523 47.0751 186.014 47.7758L185.593 46.8688C187.105 46.1666 188.623 45.4715 190.146 44.7836L190.558 45.6949ZM181.478 49.9104C179.972 50.6289 178.471 51.3545 176.977 52.0871L176.536 51.1891C178.035 50.455 179.538 49.7279 181.048 49.0078L181.478 49.9104ZM172.509 54.3056C171.026 55.052 169.549 55.8053 168.077 56.5654L167.618 55.677C169.093 54.9153 170.573 54.1603 172.06 53.4123L172.509 54.3056ZM163.67 58.8724C162.189 59.658 160.714 60.4505 159.246 61.2499L158.768 60.3716C160.239 59.5705 161.717 58.7762 163.202 57.989L163.67 58.8724ZM154.861 63.6686C153.406 64.4817 151.958 65.3015 150.517 66.1281L150.02 65.2607C151.464 64.4322 152.915 63.6105 154.373 62.7957L154.861 63.6686ZM146.215 68.628C144.787 69.4679 143.367 70.3145 141.955 71.1676L141.438 70.3116C142.854 69.4565 144.277 68.608 145.707 67.7661L146.215 68.628ZM137.672 73.7879C136.248 74.6702 134.833 75.5592 133.425 76.4548L132.888 75.6111C134.299 74.7133 135.718 73.8223 137.145 72.938L137.672 73.7879ZM129.225 79.1616C127.833 80.0704 126.449 80.9858 125.073 81.9077L124.517 81.077C125.896 80.1529 127.283 79.2353 128.678 78.3242L129.225 79.1616ZM120.971 84.6928C119.593 85.6405 118.224 86.5947 116.864 87.5555L116.287 86.7387C117.651 85.7755 119.023 84.8189 120.404 83.8689L120.971 84.6928ZM112.78 90.4782C111.428 91.4589 110.085 92.4462 108.752 93.4399L108.154 92.638C109.491 91.6417 110.838 90.6519 112.193 89.6687L112.78 90.4782ZM104.779 96.44C103.464 97.4465 102.159 98.4592 100.863 99.4782L100.245 98.6922C101.544 97.6705 102.853 96.655 104.171 95.646L104.779 96.44ZM96.9559 102.594C95.65 103.65 94.3545 104.712 93.0695 105.781L92.4301 105.012C93.7186 103.94 95.0178 102.875 96.3271 101.816L96.9559 102.594ZM89.2462 109.006C87.9825 110.087 86.7295 111.175 85.4874 112.268L84.8265 111.518C86.0722 110.421 87.3288 109.33 88.5961 108.246L89.2462 109.006ZM81.7941 115.568C80.5566 116.69 79.3306 117.818 78.1162 118.952L77.4337 118.221C78.6517 117.084 79.8813 115.952 81.1225 114.827L81.7941 115.568ZM74.4689 122.411C73.2652 123.57 72.0737 124.736 70.8944 125.907L70.1896 125.198C71.3726 124.023 72.5679 122.854 73.7753 121.691L74.4689 122.411ZM67.394 129.44C66.2397 130.624 65.098 131.813 63.969 133.009L63.2419 132.322C64.3746 131.123 65.5201 129.929 66.6782 128.742L67.394 129.44ZM60.5589 136.68C59.4268 137.92 58.3083 139.166 57.2037 140.418L56.4539 139.756C57.5623 138.5 58.6846 137.25 59.8205 136.006L60.5589 136.68ZM53.9321 144.191C52.8557 145.454 51.7934 146.724 50.7455 147.999L49.9729 147.364C51.0245 146.085 52.0906 144.81 53.1709 143.542L53.9321 144.191ZM47.6452 151.842C46.6001 153.162 45.5703 154.488 44.5562 155.82L43.7606 155.214C44.7786 153.877 45.8122 152.547 46.8613 151.222L47.6452 151.842ZM41.558 159.837C40.5745 161.182 39.6069 162.532 38.6554 163.888L37.8368 163.314C38.7921 161.952 39.7635 160.596 40.7509 159.246L41.558 159.837ZM35.8499 167.973C34.9229 169.352 34.0125 170.737 33.1192 172.128L32.2779 171.587C33.175 170.191 34.0891 168.8 35.0198 167.415L35.8499 167.973ZM30.4482 176.384C29.5756 177.808 28.7208 179.238 27.884 180.674L27.0201 180.17C27.8605 178.728 28.7191 177.292 29.5955 175.862L30.4482 176.384ZM25.4282 184.996C24.6277 186.442 23.8457 187.893 23.0823 189.35L22.1966 188.885C22.9636 187.422 23.7492 185.964 24.5532 184.511L25.4282 184.996ZM20.8075 193.816C20.0663 195.316 19.3448 196.82 18.6434 198.329L17.7365 197.908C18.4414 196.391 19.1663 194.879 19.9111 193.373L20.8075 193.816ZM16.5992 202.873C15.938 204.393 15.2972 205.917 14.6769 207.447L13.7502 207.071C14.3737 205.533 15.0178 204.001 15.6823 202.474L16.5992 202.873ZM12.8654 212.083C12.2775 213.646 11.7111 215.215 11.1666 216.789L10.2216 216.462C10.769 214.88 11.3384 213.303 11.9293 211.731L12.8654 212.083ZM9.59875 221.523C9.09821 223.106 8.61975 224.694 8.16376 226.286L7.20239 226.01C7.66095 224.409 8.14197 222.813 8.64526 221.222L9.59875 221.523ZM6.8623 231.079C6.44843 232.692 6.05756 234.309 5.69012 235.93L4.71484 235.709C5.08441 234.079 5.47748 232.452 5.89368 230.83L6.8623 231.079ZM4.65833 240.808C4.33801 242.438 4.04138 244.072 3.76874 245.71L2.78229 245.545C3.05652 243.898 3.35492 242.254 3.67712 240.615L4.65833 240.808ZM3.02313 250.635C2.79944 252.277 2.59991 253.922 2.42493 255.57L1.43048 255.465C1.60657 253.806 1.80731 252.151 2.03229 250.5L3.02313 250.635ZM1.97382 260.524C1.84814 262.179 1.74719 263.837 1.67126 265.499L0.672302 265.453C0.748657 263.781 0.85022 262.113 0.976685 260.448L1.97382 260.524ZM1.5191 270.494C1.50641 271.329 1.5 272.164 1.5 273H0.5C0.5 272.159 0.506409 271.319 0.519226 270.479L1.5191 270.494ZM2 273C2 273.552 1.55231 274 1 274C0.447693 274 0 273.552 0 273H2ZM653.793 133.898L653.252 133.058L654.934 131.975L655.475 132.816L653.793 133.898ZM652.691 128.573L653.247 129.404L651.584 130.516L651.029 129.685L652.691 128.573ZM648.209 125.548L647.638 124.726L649.281 123.586L649.851 124.407L648.209 125.548ZM646.957 120.317L647.542 121.128L645.919 122.297L645.335 121.486L646.957 120.317ZM642.407 117.5L641.808 116.7L643.409 115.501L644.008 116.302L642.407 117.5ZM641.006 112.363L641.619 113.153L640.039 114.379L639.426 113.589L641.006 112.363ZM636.321 109.664L635.694 108.885L637.251 107.63L637.878 108.409L636.321 109.664ZM634.671 104.502L635.312 105.269L633.778 106.552L633.137 105.785L634.671 104.502ZM629.899 101.986L629.243 101.231L630.753 99.9194L631.409 100.674L629.899 101.986ZM628.093 96.9256L628.763 97.6686L627.277 99.0072L626.608 98.2642L628.093 96.9256ZM623.264 94.6206L622.581 93.89L624.043 92.5244L624.725 93.255L623.264 94.6206ZM621.293 89.6493L621.989 90.3673L620.553 91.7595L619.857 91.0416L621.293 89.6493ZM616.331 87.472L615.621 86.7672L617.031 85.3484L617.74 86.0531L616.331 87.472ZM614.135 82.5378L614.857 83.2292L613.474 84.6741L612.752 83.9827L614.135 82.5378ZM609.122 80.5732L608.387 79.8954L609.743 78.4249L610.478 79.1028L609.122 80.5732ZM606.771 75.7478L607.518 76.4119L606.19 77.9072L605.443 77.2431L606.771 75.7478ZM601.714 73.9921L600.954 73.3419L602.254 71.8223L603.014 72.4725L601.714 73.9921ZM599.166 69.2417L599.938 69.8776L598.666 71.4211L597.895 70.7852L599.166 69.2417ZM594.009 67.644L593.226 67.0226L594.468 65.4556L595.252 66.0771L594.009 67.644ZM591.289 62.9932L592.084 63.6L590.87 65.1897L590.076 64.5829L591.289 62.9932ZM586.095 61.6015L585.289 61.0094L586.473 59.3976L587.279 59.9897L586.095 61.6015ZM583.223 57.0661L584.039 57.6434L582.885 59.2765L582.068 58.6993L583.223 57.0661ZM577.985 55.8679L577.158 55.3056L578.282 53.6517L579.109 54.214L577.985 55.8679ZM574.926 51.4255L575.764 51.9726L574.669 53.6467L573.832 53.0996L574.926 51.4255ZM569.636 50.4105L568.789 49.8786L569.853 48.185L570.7 48.7169L569.636 50.4105ZM566.43 46.0878L567.286 46.6045L566.253 48.3169L565.396 47.8002L566.43 46.0878ZM561.115 45.2683L560.25 44.767L561.252 43.0365L562.118 43.5378L561.115 45.2683ZM557.764 41.0664L558.638 41.5524L557.666 43.3003L556.792 42.8143L557.764 41.0664ZM552.416 40.4309L551.534 39.9603L552.475 38.1956L553.357 38.6662L552.416 40.4309ZM548.911 36.3442L549.802 36.7994L548.891 38.5802L548.001 38.1249L548.911 36.3442ZM543.547 35.896L542.649 35.4561L543.529 33.66L544.427 34.0998L543.547 35.896ZM539.905 31.9327L540.81 32.3572L539.961 34.168L539.056 33.7435L539.905 31.9327ZM534.528 31.6672L533.616 31.2581L534.434 29.4332L535.347 29.8423L534.528 31.6672ZM530.758 27.8304L531.677 28.2243L530.889 30.0626L529.97 29.6687L530.758 27.8304ZM525.379 27.746L524.454 27.3673L525.211 25.5162L526.137 25.8949L525.379 27.746ZM521.482 24.0347L522.414 24.3982L521.687 26.2614L520.755 25.8978L521.482 24.0347ZM516.098 24.1237L515.161 23.7753L515.858 21.9006L516.795 22.2491L516.098 24.1237ZM512.077 20.5377L513.02 20.8712L512.353 22.7567L511.41 22.4233L512.077 20.5377ZM506.7 20.7988L505.752 20.4802L506.389 18.5844L507.337 18.903L506.7 20.7988ZM502.582 17.3457L503.534 17.6496L502.927 19.555L501.974 19.2512L502.582 17.3457ZM497.22 17.7752L496.262 17.486L496.841 15.5715L497.798 15.8607L497.22 17.7752ZM492.988 14.4473L493.949 14.7219L493.4 16.645L492.438 16.3704L492.988 14.4473ZM487.63 15.0363L486.665 14.7761L487.185 12.845L488.151 13.1051L487.63 15.0363ZM483.29 11.834L484.259 12.0799L483.767 14.0185L482.798 13.7727L483.29 11.834ZM477.973 12.5864L477 12.3547L477.464 10.4091L478.436 10.6408L477.973 12.5864ZM473.56 9.51652L474.536 9.73419L474.101 11.6862L473.125 11.4686L473.56 9.51652ZM468.254 10.4188L467.275 10.215L467.683 8.25697L468.662 8.46073L468.254 10.4188ZM463.742 7.47299L464.724 7.66296L464.344 9.62654L463.362 9.43656L463.742 7.47299ZM458.45 8.52151L457.466 8.3452L457.819 6.37653L458.803 6.55284L458.45 8.52151ZM453.869 5.70395L454.856 5.86679L454.53 7.84009L453.543 7.67725L453.869 5.70395ZM448.631 6.90061L447.643 6.75108L447.942 4.77357L448.93 4.92309L448.631 6.90061ZM443.975 4.2075L444.965 4.34383L444.693 6.32516L443.702 6.18882L443.975 4.2075ZM438.757 5.54148L437.764 5.41821L438.011 3.43346L439.003 3.55673L438.757 5.54148ZM434.016 2.97035L435.01 3.08067L434.789 5.06846L433.796 4.95814L434.016 2.97035ZM428.829 4.43927L427.834 4.34175L428.029 2.35128L429.024 2.4488L428.829 4.43927ZM424.048 1.99306L425.045 2.07798L424.875 4.07076L423.879 3.98584L424.048 1.99306ZM418.916 3.59419L417.918 3.52175L418.063 1.527L419.06 1.59944L418.916 3.59419ZM414.061 1.26753L415.06 1.3276L414.939 3.32399L413.941 3.26391L414.061 1.26753ZM408.956 2.99459L407.957 2.94675L408.053 0.949044L409.052 0.996882L408.956 2.99459ZM404.033 0.787089L405.032 0.822801L404.961 2.82153L403.962 2.78581L404.033 0.787089ZM398.985 2.63779L397.985 2.61403L398.033 0.614591L399.032 0.638359L398.985 2.63779ZM394.033 0.549087L395.032 0.561044L395.009 2.5609L394.009 2.54894L394.033 0.549087ZM389.025 2.51857L388.025 2.51832L388.026 0.518315L389.026 0.51857L389.025 2.51857ZM384.014 0.546393L385.014 0.535056L385.036 2.53493L384.036 2.54626L384.014 0.546393ZM379.042 2.63162L378.042 2.65444L377.997 0.65496L378.996 0.63214L379.042 2.63162ZM373.983 0.775133L374.982 0.740952L375.051 2.73978L374.051 2.77396L373.983 0.775133ZM369.078 2.97204L368.079 3.01743L367.988 1.0195L368.987 0.974104L369.078 2.97204ZM363.989 1.22912L364.988 1.17262L365.101 3.16942L364.102 3.22592L363.989 1.22912ZM359.125 3.53521L358.127 3.60273L357.992 1.60729L358.99 1.53977L359.125 3.53521ZM353.99 1.90565L354.987 1.82722L355.144 3.82105L354.147 3.89949L353.99 1.90565ZM349.17 4.31837L348.174 4.40763L347.995 2.41562L348.991 2.32635L349.17 4.31837ZM344.008 2.80004L345.003 2.70007L345.203 4.69005L344.208 4.79002L344.008 2.80004ZM339.253 5.31459L338.259 5.42516L338.038 3.43743L339.031 3.32685L339.253 5.31459ZM334.058 3.90686L335.051 3.78577L335.293 5.77105L334.3 5.89214L334.058 3.90686ZM329.352 6.52228L328.36 6.65381L328.097 4.67119L329.089 4.53966L329.352 6.52228ZM324.124 5.22484L325.114 5.08295L325.398 7.06271L324.408 7.2046L324.124 5.22484ZM319.471 7.93847L318.483 8.09064L318.178 6.11393L319.167 5.96176L319.471 7.93847ZM314.223 6.7491L315.209 6.58674L315.534 8.5602L314.547 8.72256L314.223 6.7491ZM309.631 9.55747L308.646 9.72994L308.301 7.75991L309.286 7.58744L309.631 9.55747ZM304.358 8.47639L305.341 8.29387L305.706 10.2603L304.723 10.4428L304.358 8.47639ZM299.823 11.3781L298.842 11.5706L298.457 9.60806L299.438 9.41555L299.823 11.3781ZM294.529 10.4045L295.508 10.2021L295.913 12.1607L294.933 12.3631L294.529 10.4045ZM290.052 13.3978L289.075 13.6101L288.65 11.6557L289.628 11.4434L290.052 13.3978ZM284.737 12.5316L285.712 12.3095L286.156 14.2596L285.181 14.4817L284.737 12.5316ZM280.322 15.6141L279.349 15.8459L278.886 13.9004L279.859 13.6686L280.322 15.6141ZM274.994 14.8538L275.964 14.6122L276.447 16.553L275.477 16.7945L274.994 14.8538ZM270.645 18.0227L269.677 18.2739L269.175 16.3381L270.143 16.0869L270.645 18.0227ZM265.306 17.3677L266.272 17.1069L266.793 19.0377L265.828 19.2985L265.306 17.3677ZM261.011 20.6255L260.048 20.8959L259.507 18.9704L260.47 18.7L261.011 20.6255ZM255.651 20.0794L256.611 19.7994L257.171 21.7195L256.211 21.9994L255.651 20.0794ZM251.428 23.4197L250.471 23.7091L249.892 21.7947L250.85 21.5053L251.428 23.4197ZM246.067 22.9774L247.021 22.6785L247.619 24.5871L246.665 24.886L246.067 22.9774ZM241.92 26.3979L240.969 26.7062L240.352 24.8037L241.304 24.4953L241.92 26.3979ZM236.545 26.0639L237.493 25.7461L238.129 27.6424L237.181 27.9602L236.545 26.0639ZM232.449 29.5725L231.504 29.8997L230.849 28.0098L231.794 27.6826L232.449 29.5725ZM227.065 29.3464L228.007 29.0098L228.68 30.8931L227.739 31.2297L227.065 29.3464ZM223.052 32.9315L222.114 33.2775L221.422 31.401L222.36 31.055L223.052 32.9315ZM217.679 32.808L218.614 32.4526L219.324 34.3221L218.39 34.6774L217.679 32.808ZM213.751 36.4674L212.82 36.8321L212.091 34.9698L213.022 34.6051L213.751 36.4674ZM208.349 36.4627L209.277 36.0886L210.025 37.9433L209.097 38.3175L208.349 36.4627ZM204.471 40.2113L203.547 40.5948L202.78 38.7477L203.704 38.3642L204.471 40.2113ZM199.087 40.3092L200.006 39.9163L200.792 41.7554L199.872 42.1483L199.087 40.3092ZM195.303 44.1282L194.388 44.5305L193.583 42.6995L194.499 42.2972L195.303 44.1282ZM189.941 44.3279L190.852 43.9163L191.675 45.7389L190.764 46.1506L189.941 44.3279ZM186.225 48.2293L185.318 48.6504L184.475 46.8364L185.382 46.4153L186.225 48.2293ZM180.833 48.5565L181.735 48.126L182.596 49.9311L181.694 50.3616L180.833 48.5565ZM177.197 52.5361L176.299 52.9761L175.418 51.1802L176.316 50.7401L177.197 52.5361ZM171.835 52.9657L172.728 52.5162L173.627 54.3027L172.734 54.7522L171.835 52.9657ZM168.307 57.0097L167.418 57.4687L166.5 55.6918L167.389 55.2328L168.307 57.0097ZM162.967 57.5473L163.851 57.0787L164.788 58.8456L163.904 59.3141L162.967 57.5473ZM159.485 61.689L158.607 62.1672L157.65 60.4107L158.529 59.9325L159.485 61.689ZM154.13 62.3592L155.002 61.8714L155.978 63.6172L155.105 64.1051L154.13 62.3592ZM150.766 66.5618L149.899 67.0594L148.903 65.3245L149.771 64.8269L150.766 66.5618ZM145.454 67.3352L146.316 66.828L147.33 68.5516L146.468 69.0589L145.454 67.3352ZM142.213 71.5957L141.357 72.1126L140.323 70.4006L141.179 69.8836L142.213 71.5957ZM136.881 72.513L137.731 71.9861L138.785 73.6861L137.935 74.2129L136.881 72.513ZM133.693 76.8767L132.849 77.4134L131.776 75.726L132.62 75.1892L133.693 76.8767ZM128.405 77.9056L129.242 77.3589L130.336 79.0335L129.498 79.5802L128.405 77.9056ZM125.352 82.3231L124.521 82.8798L123.408 81.2183L124.238 80.6617L125.352 82.3231ZM120.121 83.4569L120.945 82.8902L122.078 84.538L121.255 85.1048L120.121 83.4569ZM117.152 87.9639L116.335 88.5408L115.182 86.9072L115.998 86.3303L117.152 87.9639ZM111.9 89.264L112.709 88.6768L113.883 90.2957L113.074 90.8829L111.9 89.264ZM109.051 93.8408L108.249 94.4383L107.054 92.8345L107.856 92.237L109.051 93.8408ZM103.867 95.2489L104.661 94.6411L105.877 96.2293L105.083 96.8371L103.867 95.2489ZM101.172 99.8712L100.386 100.489L99.1499 98.9174L99.9359 98.2992L101.172 99.8712ZM96.0128 101.428L96.7904 100.799L98.0479 102.354L97.2703 102.983L96.0128 101.428ZM93.3892 106.165L92.6203 106.805L91.3415 105.267L92.1104 104.627L93.3892 106.165ZM88.271 107.866L89.0308 107.216L90.3311 108.736L89.5713 109.386L88.271 107.866ZM85.8178 112.644L85.0673 113.304L83.7456 111.803L84.4961 111.143L85.8178 112.644ZM80.7867 114.457L81.5276 113.785L82.8708 115.267L82.13 115.938L80.7867 114.457ZM78.4575 119.318L77.7267 120L76.3615 118.538L77.0923 117.856L78.4575 119.318ZM73.4284 121.331L74.1487 120.637L75.5361 122.078L74.8157 122.771L73.4284 121.331ZM71.2468 126.262L70.5374 126.967L69.1279 125.548L69.8373 124.843L71.2468 126.262ZM66.3202 128.393L67.0184 127.677L68.4502 129.073L67.752 129.789L66.3202 128.393ZM64.3325 133.352L63.6459 134.079L62.1918 132.706L62.8784 131.979L64.3325 133.352ZM59.4514 135.669L60.1257 134.931L61.6025 136.279L60.9281 137.018L59.4514 135.669ZM57.5786 140.748L56.917 141.498L55.4174 140.175L56.079 139.425L57.5786 140.748ZM52.7903 143.218L53.4387 142.457L54.9612 143.754L54.3127 144.515L52.7903 143.218ZM51.1318 148.317L50.4969 149.089L48.9517 147.82L49.5865 147.047L51.1318 148.317ZM46.4692 150.911L47.09 150.127L48.658 151.369L48.0372 152.153L46.4692 150.911ZM44.954 156.123L44.3481 156.919L42.757 155.707L43.3629 154.911L44.954 156.123ZM40.3474 158.951L40.9377 158.144L42.552 159.325L41.9616 160.132L40.3474 158.951ZM39.0647 164.175L38.4904 164.994L36.8531 163.845L37.4275 163.026L39.0647 164.175ZM34.6049 167.136L35.1627 166.306L36.8226 167.422L36.2648 168.252L34.6049 167.136ZM33.5399 172.398L32.9993 173.239L31.3167 172.158L31.8572 171.317L33.5399 172.398ZM29.1691 175.6L29.6915 174.748L31.397 175.792L30.8746 176.645L29.1691 175.6ZM28.3159 180.925L27.8123 181.789L26.0845 180.782L26.5881 179.918L28.3159 180.925ZM24.1157 184.269L24.6 183.394L26.3499 184.363L25.8656 185.238L24.1157 184.269ZM23.5251 189.582L23.0609 190.467L21.2895 189.539L21.7537 188.653L23.5251 189.582ZM19.4628 193.152L19.9061 192.255L21.6989 193.142L21.2557 194.038L19.4628 193.152ZM19.0968 198.54L18.6754 199.447L16.8616 198.604L17.2831 197.697L19.0968 198.54ZM15.2238 202.274L15.6228 201.358L17.4567 202.155L17.0577 203.072L15.2238 202.274ZM15.1402 207.634L14.7643 208.561L12.911 207.809L13.2869 206.883L15.1402 207.634ZM11.4613 211.555L11.8132 210.619L13.6853 211.322L13.3334 212.259L11.4613 211.555ZM11.639 216.952L11.312 217.897L9.422 217.243L9.74902 216.298L11.639 216.952ZM8.16858 221.071L8.47009 220.118L10.377 220.721L10.0755 221.674L8.16858 221.071ZM8.64441 226.423L8.36908 227.385L6.44635 226.834L6.72174 225.873L8.64441 226.423ZM5.40942 230.706L5.65796 229.737L7.59521 230.234L7.34662 231.203L5.40942 230.706ZM6.1778 236.041L5.95679 237.016L4.00623 236.574L4.22723 235.599L6.1778 236.041ZM3.18652 240.518L3.37933 239.537L5.3418 239.923L5.14893 240.904L3.18652 240.518ZM4.26196 245.792L4.09772 246.778L2.12488 246.45L2.28906 245.463L4.26196 245.792ZM1.53687 250.433L1.67194 249.442L3.65363 249.712L3.51855 250.703L1.53687 250.433ZM2.92212 255.623L2.81653 256.617L0.827698 256.406L0.933289 255.412L2.92212 255.623ZM0.478149 260.41L0.553894 259.413L2.54816 259.565L2.47241 260.562L0.478149 260.41ZM2.17078 265.522L2.12512 266.521L0.127197 266.429L0.172852 265.43L2.17078 265.522ZM0.0192871 270.471L0.0345459 269.471L2.0343 269.502L2.01904 270.502L0.0192871 270.471ZM655.154 136.034C654.703 135.319 654.249 134.607 653.793 133.898L655.475 132.816C655.934 133.529 656.391 134.246 656.846 134.966L655.154 136.034ZM651.029 129.685C650.098 128.293 649.158 126.914 648.209 125.548L649.851 124.407C650.807 125.783 651.754 127.172 652.691 128.573L651.029 129.685ZM645.335 121.486C644.368 120.145 643.392 118.816 642.407 117.5L644.008 116.302C645 117.628 645.983 118.966 646.957 120.317L645.335 121.486ZM639.426 113.589C638.4 112.268 637.365 110.959 636.321 109.664L637.878 108.409C638.93 109.714 639.972 111.032 641.006 112.363L639.426 113.589ZM633.137 105.785C632.066 104.506 630.987 103.239 629.899 101.986L631.409 100.674C632.505 101.937 633.593 103.213 634.671 104.502L633.137 105.785ZM626.608 98.2642C625.502 97.0367 624.387 95.8222 623.264 94.6206L624.725 93.255C625.857 94.4655 626.98 95.689 628.093 96.9256L626.608 98.2642ZM619.857 91.0416C618.69 89.8383 617.515 88.6485 616.331 87.472L617.74 86.0531C618.933 87.2384 620.117 88.4371 621.293 89.6493L619.857 91.0416ZM612.752 83.9827C611.551 82.8329 610.341 81.6964 609.122 80.5732L610.478 79.1028C611.705 80.2344 612.924 81.3794 614.135 82.5378L612.752 83.9827ZM605.443 77.2431C604.208 76.1463 602.965 75.0626 601.714 73.9921L603.014 72.4725C604.274 73.551 605.527 74.6428 606.771 75.7478L605.443 77.2431ZM597.895 70.7852C596.608 69.7248 595.312 68.6777 594.009 67.644L595.252 66.0771C596.565 67.1185 597.87 68.1733 599.166 69.2417L597.895 70.7852ZM590.076 64.5829C588.756 63.5758 587.43 62.582 586.095 61.6015L587.279 59.9897C588.624 60.9775 589.96 61.9787 591.289 62.9932L590.076 64.5829ZM582.068 58.6993C580.715 57.7423 579.353 56.7985 577.985 55.8679L579.109 54.214C580.488 55.1515 581.859 56.1021 583.223 57.0661L582.068 58.6993ZM573.832 53.0996C572.441 52.19 571.042 51.2937 569.636 50.4105L570.7 48.7169C572.116 49.6065 573.525 50.5093 574.926 51.4255L573.832 53.0996ZM565.396 47.8002C563.976 46.9432 562.549 46.0993 561.115 45.2683L562.118 43.5378C563.562 44.3747 564.999 45.2247 566.43 46.0878L565.396 47.8002ZM556.792 42.8143C555.34 42.0069 553.881 41.2124 552.416 40.4309L553.357 38.6662C554.833 39.4532 556.302 40.2533 557.764 41.0664L556.792 42.8143ZM548.001 38.1249C546.523 37.3691 545.038 36.6262 543.547 35.896L544.427 34.0998C545.928 34.835 547.423 35.5831 548.911 36.3442L548.001 38.1249ZM539.056 33.7435C537.553 33.0388 536.044 32.3467 534.528 31.6672L535.347 29.8423C536.872 30.5264 538.392 31.2231 539.905 31.9327L539.056 33.7435ZM529.97 29.6687C528.445 29.0153 526.915 28.3744 525.379 27.746L526.137 25.8949C527.683 26.5275 529.223 27.1726 530.758 27.8304L529.97 29.6687ZM520.755 25.8978C519.208 25.2941 517.656 24.7028 516.098 24.1237L516.795 22.2491C518.363 22.8319 519.925 23.4271 521.482 24.0347L520.755 25.8978ZM511.41 22.4233C509.845 21.8696 508.275 21.3282 506.7 20.7988L507.337 18.903C508.922 19.4357 510.502 19.9806 512.077 20.5377L511.41 22.4233ZM501.974 19.2512C500.394 18.7473 498.809 18.2553 497.22 17.7752L497.798 15.8607C499.397 16.3437 500.992 16.8387 502.582 17.3457L501.974 19.2512ZM492.438 16.3704C490.84 15.9139 489.237 15.4692 487.63 15.0363L488.151 13.1051C489.767 13.5407 491.38 13.988 492.988 14.4473L492.438 16.3704ZM482.798 13.7727C481.194 13.3658 479.585 12.9704 477.973 12.5864L478.436 10.6408C480.058 11.027 481.676 11.4248 483.29 11.834L482.798 13.7727ZM473.125 11.4686C471.505 11.1073 469.881 10.7574 468.254 10.4188L468.662 8.46073C470.298 8.80129 471.931 9.1532 473.56 9.51652L473.125 11.4686ZM463.362 9.43656C461.728 9.12038 460.091 8.81538 458.45 8.52151L458.803 6.55284C460.453 6.84834 462.099 7.15503 463.742 7.47299L463.362 9.43656ZM453.543 7.67725C451.909 7.40752 450.272 7.14866 448.631 6.90061L448.93 4.92309C450.579 5.17248 452.226 5.43274 453.869 5.70395L453.543 7.67725ZM443.702 6.18882C442.056 5.96232 440.408 5.74657 438.757 5.54148L439.003 3.55673C440.663 3.7629 442.32 3.97979 443.975 4.2075L443.702 6.18882ZM433.796 4.95814C432.142 4.77465 430.487 4.60171 428.829 4.43927L429.024 2.4488C430.69 2.61208 432.355 2.7859 434.016 2.97035L433.796 4.95814ZM423.879 3.98584C422.226 3.84501 420.572 3.71449 418.916 3.59419L419.06 1.59944C420.725 1.72034 422.388 1.85152 424.048 1.99306L423.879 3.98584ZM413.941 3.26391C412.281 3.164 410.619 3.07425 408.956 2.99459L409.052 0.996882C410.723 1.07693 412.393 1.16712 414.061 1.26753L413.941 3.26391ZM403.962 2.78581C402.304 2.72658 400.645 2.67727 398.985 2.63779L399.032 0.638359C400.701 0.678019 402.367 0.727572 404.033 0.787089L403.962 2.78581ZM394.009 2.54894C392.349 2.5291 390.688 2.51899 389.025 2.51857L389.026 0.51857C390.696 0.518996 392.365 0.529146 394.033 0.549087L394.009 2.54894ZM384.036 2.54626C382.372 2.56513 380.708 2.5936 379.042 2.63162L378.996 0.63214C380.67 0.593949 382.342 0.565344 384.014 0.546393L384.036 2.54626ZM374.051 2.77396C372.394 2.83065 370.736 2.89669 369.078 2.97204L368.987 0.974104C370.653 0.898417 372.318 0.832071 373.983 0.775133L374.051 2.77396ZM364.102 3.22592C362.443 3.31981 360.784 3.42292 359.125 3.53521L358.99 1.53977C360.657 1.42699 362.323 1.32342 363.989 1.22912L364.102 3.22592ZM354.147 3.89949C352.488 4.03004 350.829 4.16969 349.17 4.31837L348.991 2.32635C350.658 2.17703 352.324 2.03677 353.99 1.90565L354.147 3.89949ZM344.208 4.79002C342.556 4.956 340.904 5.13088 339.253 5.31459L339.031 3.32685C340.69 3.14236 342.349 2.96673 344.008 2.80004L344.208 4.79002ZM334.3 5.89214C332.65 6.09345 331.001 6.30351 329.352 6.52228L329.089 4.53966C330.744 4.31997 332.401 4.10902 334.058 3.90686L334.3 5.89214ZM324.408 7.2046C322.761 7.44062 321.116 7.68527 319.471 7.93847L319.167 5.96176C320.818 5.70751 322.471 5.46184 324.124 5.22484L324.408 7.2046ZM314.547 8.72256C312.907 8.99242 311.269 9.27074 309.631 9.55747L309.286 7.58744C310.93 7.29954 312.576 7.02007 314.223 6.7491L314.547 8.72256ZM304.723 10.4428C303.088 10.7463 301.455 11.0581 299.823 11.3781L299.438 9.41555C301.076 9.09417 302.716 8.7811 304.358 8.47639L304.723 10.4428ZM294.933 12.3631C293.305 12.6998 291.677 13.0447 290.052 13.3978L289.628 11.4434C291.259 11.0889 292.893 10.7426 294.529 10.4045L294.933 12.3631ZM285.181 14.4817C283.559 14.8511 281.94 15.2286 280.322 15.6141L279.859 13.6686C281.482 13.2815 283.109 12.9025 284.737 12.5316L285.181 14.4817ZM275.477 16.7945C273.864 17.196 272.253 17.6054 270.645 18.0227L270.143 16.0869C271.757 15.6679 273.374 15.2568 274.994 14.8538L275.477 16.7945ZM265.828 19.2985C264.22 19.733 262.614 20.1754 261.011 20.6255L260.47 18.7C262.079 18.2481 263.692 17.804 265.306 17.3677L265.828 19.2985ZM256.211 21.9994C254.614 22.4651 253.02 22.9386 251.428 23.4197L250.85 21.5053C252.447 21.0223 254.047 20.5469 255.651 20.0794L256.211 21.9994ZM246.665 24.886C245.08 25.3824 243.498 25.8864 241.92 26.3979L241.304 24.4953C242.888 23.9818 244.476 23.4758 246.067 22.9774L246.665 24.886ZM237.181 27.9602C235.6 28.4901 234.022 29.0275 232.449 29.5725L231.794 27.6826C233.374 27.1355 234.958 26.5959 236.545 26.0639L237.181 27.9602ZM227.739 31.2297C226.173 31.7896 224.61 32.3568 223.052 32.9315L222.36 31.055C223.925 30.4781 225.493 29.9085 227.065 29.3464L227.739 31.2297ZM218.39 34.6774C216.839 35.2668 215.293 35.8635 213.751 36.4674L213.022 34.6051C214.57 33.9988 216.122 33.3997 217.679 32.808L218.39 34.6774ZM209.097 38.3175C207.551 38.9415 206.008 39.5728 204.471 40.2113L203.704 38.3642C205.248 37.7231 206.796 37.0892 208.349 36.4627L209.097 38.3175ZM199.872 42.1483C198.344 42.8012 196.821 43.4612 195.303 44.1282L194.499 42.2972C196.023 41.6274 197.552 40.9647 199.087 40.3092L199.872 42.1483ZM190.764 46.1506C189.245 46.8364 187.732 47.5294 186.225 48.2293L185.382 46.4153C186.896 45.7124 188.416 45.0166 189.941 44.3279L190.764 46.1506ZM181.694 50.3616C180.189 51.0794 178.69 51.8043 177.197 52.5361L176.316 50.7401C177.816 50.0052 179.322 49.2773 180.833 48.5565L181.694 50.3616ZM172.734 54.7522C171.252 55.4979 169.776 56.2504 168.307 57.0097L167.389 55.2328C168.865 54.4702 170.347 53.7145 171.835 52.9657L172.734 54.7522ZM163.904 59.3141C162.425 60.0989 160.952 60.8905 159.485 61.689L158.529 59.9325C160.002 59.1305 161.481 58.3354 162.967 57.5473L163.904 59.3141ZM155.105 64.1051C153.652 64.9172 152.206 65.7362 150.766 66.5618L149.771 64.8269C151.217 63.9976 152.67 63.175 154.13 62.3592L155.105 64.1051ZM146.468 69.0589C145.043 69.8979 143.624 70.7435 142.213 71.5957L141.179 69.8836C142.597 69.0275 144.022 68.178 145.454 67.3352L146.468 69.0589ZM137.935 74.2129C136.513 75.0941 135.099 75.9821 133.693 76.8767L132.62 75.1892C134.032 74.2904 135.453 73.3983 136.881 72.513L137.935 74.2129ZM129.498 79.5802C128.108 80.488 126.726 81.4023 125.352 82.3231L124.238 80.6617C125.619 79.7364 127.008 78.8177 128.405 77.9056L129.498 79.5802ZM121.255 85.1048C119.878 86.0513 118.511 87.0044 117.152 87.9639L115.998 86.3303C117.364 85.3659 118.738 84.4081 120.121 83.4569L121.255 85.1048ZM113.074 90.8829C111.724 91.8624 110.382 92.8484 109.051 93.8408L107.856 92.237C109.194 91.2395 110.542 90.2485 111.9 89.264L113.074 90.8829ZM105.083 96.8371C103.77 97.8422 102.466 98.8536 101.172 99.8712L99.9359 98.2992C101.237 97.2761 102.547 96.2593 103.867 95.2489L105.083 96.8371ZM97.2703 102.983C95.9662 104.037 94.6724 105.098 93.3892 106.165L92.1104 104.627C93.4007 103.554 94.7016 102.488 96.0128 101.428L97.2703 102.983ZM89.5713 109.386C88.3093 110.465 87.0581 111.551 85.8178 112.644L84.4961 111.143C85.7435 110.044 87.0019 108.952 88.271 107.866L89.5713 109.386ZM82.13 115.938C80.8943 117.059 79.67 118.185 78.4575 119.318L77.0923 117.856C78.3122 116.717 79.5438 115.583 80.7867 114.457L82.13 115.938ZM74.8157 122.771C73.6139 123.929 72.4242 125.092 71.2468 126.262L69.8373 124.843C71.022 123.666 72.2192 122.495 73.4284 121.331L74.8157 122.771ZM67.752 129.789C66.5995 130.971 65.4597 132.159 64.3325 133.352L62.8784 131.979C64.0129 130.778 65.1603 129.582 66.3202 128.393L67.752 129.789ZM60.9281 137.018C59.7979 138.255 58.6813 139.499 57.5786 140.748L56.079 139.425C57.1893 138.167 58.3134 136.915 59.4514 135.669L60.9281 137.018ZM54.3127 144.515C53.2382 145.776 52.1778 147.044 51.1318 148.317L49.5865 147.047C50.6401 145.765 51.7081 144.488 52.7903 143.218L54.3127 144.515ZM48.0372 152.153C46.994 153.47 45.9662 154.794 44.954 156.123L43.3629 154.911C44.3828 153.572 45.4183 152.239 46.4692 150.911L48.0372 152.153ZM41.9616 160.132C40.98 161.474 40.0143 162.822 39.0647 164.175L37.4275 163.026C38.3847 161.662 39.358 160.304 40.3474 158.951L41.9616 160.132ZM36.2648 168.252C35.3397 169.628 34.4313 171.01 33.5399 172.398L31.8572 171.317C32.7562 169.918 33.6722 168.524 34.6049 167.136L36.2648 168.252ZM30.8746 176.645C30.0038 178.066 29.1509 179.493 28.3159 180.925L26.5881 179.918C27.4304 178.473 28.2909 177.034 29.1691 175.6L30.8746 176.645ZM25.8656 185.238C25.067 186.681 24.2868 188.129 23.5251 189.582L21.7537 188.653C22.5225 187.186 23.3099 185.725 24.1157 184.269L25.8656 185.238ZM21.2557 194.038C20.5163 195.534 19.7966 197.034 19.0968 198.54L17.2831 197.697C17.9897 196.177 18.7164 194.661 19.4628 193.152L21.2557 194.038ZM17.0577 203.072C16.3982 204.588 15.7589 206.109 15.1402 207.634L13.2869 206.883C13.9119 205.342 14.5577 203.805 15.2238 202.274L17.0577 203.072ZM13.3334 212.259C12.747 213.818 12.1821 215.383 11.639 216.952L9.74902 216.298C10.2979 214.712 10.8688 213.131 11.4613 211.555L13.3334 212.259ZM10.0755 221.674C9.57629 223.253 9.09912 224.836 8.64441 226.423L6.72174 225.873C7.18152 224.267 7.66388 222.667 8.16858 221.071L10.0755 221.674ZM7.34662 231.203C6.9339 232.811 6.54419 234.424 6.1778 236.041L4.22723 235.599C4.59784 233.964 4.992 232.332 5.40942 230.706L7.34662 231.203ZM5.14893 240.904C4.82953 242.529 4.53375 244.159 4.26196 245.792L2.28906 245.463C2.56415 243.811 2.86334 242.163 3.18652 240.518L5.14893 240.904ZM3.51855 250.703C3.29553 252.339 3.09662 253.979 2.92212 255.623L0.933289 255.412C1.10992 253.748 1.31122 252.089 1.53687 250.433L3.51855 250.703ZM2.47241 260.562C2.34705 262.212 2.2464 263.865 2.17078 265.522L0.172852 265.43C0.24939 263.754 0.351257 262.08 0.478149 260.41L2.47241 260.562ZM2.01904 270.502C2.00635 271.334 2 272.167 2 273H0C0 272.156 0.00646973 271.313 0.0192871 270.471L2.01904 270.502Z" fill="#4C4EF8"/>
</svg>
