<svg width="147" height="148" viewBox="0 0 147 148" fill="none" xmlns="http://www.w3.org/2000/svg">
<path d="M66.1245 65.9681V85.8381H124.638C124.638 85.8381 121.574 124.523 77.275 147.447C122.931 144.33 152.465 105.922 145.03 65.9681H66.1245Z" fill="url(#paint0_linear_4728_18459)"/>
<path d="M121.574 92.4968C121.574 92.4968 114.091 118.488 81.0425 126.632C47.993 134.777 20.9711 119.896 11.73 113.461C17.7576 123.817 38.5504 148.35 75.317 147.445C94.6754 136.15 116.903 117.784 121.574 92.4968Z" fill="#19ACDC"/>
<path d="M8.71046 41.1212C8.71046 41.1212 -3.12489 54.0255 1.0257 84.7065C2.98502 99.1853 9.61433 110.497 9.61433 110.497C9.61433 110.497 42.7637 135.683 80.8852 125.427C52.1055 126.333 8.10788 109.14 8.71046 41.1212Z" fill="url(#paint1_linear_4728_18459)"/>
<path d="M33.5186 106.925C33.5186 106.925 14.7333 89.983 11.7204 62.4841C9.3008 40.4033 10.5152 36.1416 10.5152 36.1416C10.5152 36.1416 27.089 3.93338 69.5811 0.934387C30.5547 25.4333 5.39143 66.7569 33.5186 106.925Z" fill="#19ACDC"/>
<path d="M25.7368 54.8433C25.7368 54.8433 38.4437 21.9653 76.214 22.87C101.329 23.4713 113.884 42.1739 113.884 42.1739H139.348C139.348 42.1739 122.02 0.934387 74.105 0.934387C66.9729 4.2701 37.6406 18.9487 25.7368 54.8433Z" fill="url(#paint2_linear_4728_18459)"/>
<defs>
<linearGradient id="paint0_linear_4728_18459" x1="105.036" y1="147.564" x2="106.244" y2="66.1228" gradientUnits="userSpaceOnUse">
<stop stop-color="#0C619B"/>
<stop offset="1" stop-color="#13A0D2"/>
</linearGradient>
<linearGradient id="paint1_linear_4728_18459" x1="60.782" y1="139.213" x2="-4.99252" y2="49.3831" gradientUnits="userSpaceOnUse">
<stop stop-color="#0C619B"/>
<stop offset="1" stop-color="#13A0D2"/>
</linearGradient>
<linearGradient id="paint2_linear_4728_18459" x1="82.2923" y1="43.4085" x2="80.4809" y2="6.60984" gradientUnits="userSpaceOnUse">
<stop stop-color="#0C619B"/>
<stop offset="1" stop-color="#13A0D2"/>
</linearGradient>
</defs>
</svg>
