<svg width="39" height="40" viewBox="0 0 39 40" fill="none" xmlns="http://www.w3.org/2000/svg">
<path d="M32.5871 32.2L26.6665 25.9833C28.349 23.7667 29.3649 20.95 29.3649 17.9167C29.3649 10.8 23.8411 5 17.0633 5C10.2855 5 4.76172 10.8 4.76172 17.9167C4.76172 25.0333 10.2855 30.8333 17.0633 30.8333C20.0792 30.8333 22.857 29.6833 25.0157 27.7833L30.9046 33.9667C31.1427 34.2167 31.4443 34.3333 31.7458 34.3333C32.0474 34.3333 32.349 34.2167 32.5871 33.9667C33.0474 33.4833 33.0474 32.6833 32.5871 32.2ZM7.14267 17.9167C7.14267 12.1667 11.5871 7.5 17.0633 7.5C22.5395 7.5 26.9839 12.1667 26.9839 17.9167C26.9839 20.7333 25.9363 23.2667 24.2062 25.1333L24.1903 25.15C24.1744 25.1667 24.1744 25.1667 24.1744 25.1833C22.3649 27.1333 19.8411 28.3333 17.0633 28.3333C11.5871 28.3333 7.14267 23.6667 7.14267 17.9167Z" fill="#9C9C9C"/>
</svg>
