<svg width="190" height="191" viewBox="0 0 190 191" fill="none" xmlns="http://www.w3.org/2000/svg">
<path d="M161.587 110.284H86.3359V85.5602H187.571C196.732 136.116 159.947 184.682 102.649 189.853C130.052 175.088 144.887 155.66 152.882 139.759C156.981 131.605 159.281 124.381 160.557 119.192C161.195 116.597 161.576 114.511 161.799 113.07C161.91 112.35 161.981 111.791 162.025 111.411C162.047 111.221 162.062 111.075 162.072 110.977C162.074 110.955 162.075 110.936 162.077 110.919C162.079 110.897 162.081 110.879 162.082 110.864L162.085 110.835L162.085 110.827L162.085 110.824C162.085 110.824 162.085 110.823 161.587 110.784L162.085 110.823L162.128 110.284H161.587Z" fill="url(#paint0_linear_1286_5317)" stroke="black"/>
<path d="M155.718 125.399C147.519 154.746 121.014 176.359 97.5949 190.044C52.5083 191.098 26.1037 162.441 17.0414 148.246C30.5742 157.129 64.3654 174.161 105.268 164.081C126.781 158.78 139.99 147.662 147.819 137.858C151.594 133.131 154.117 128.711 155.718 125.399Z" fill="#19ACDC" stroke="black"/>
<path d="M10.9997 54.3354C10.9259 97.6398 24.91 124.944 43.6327 141.302C61.128 156.587 82.7054 162.266 100.663 162.566C77.696 167.605 56.3688 162.986 40.4834 156.884C32.0661 153.65 25.185 150.002 20.4096 147.164C18.0221 145.745 16.1617 144.529 14.8995 143.669C14.2685 143.239 13.787 142.897 13.4641 142.664C13.3027 142.548 13.1809 142.458 13.0998 142.398C13.085 142.387 13.0715 142.377 13.0593 142.368C13.0469 142.347 13.0322 142.321 13.0153 142.291C12.953 142.181 12.8608 142.017 12.7422 141.801C12.505 141.368 12.1624 140.728 11.7429 139.9C10.9038 138.244 9.75747 135.84 8.53188 132.852C6.07985 126.874 3.31505 118.569 2.05416 109.252C-0.62242 89.4666 1.85823 75.4393 4.99059 66.3745C6.55722 61.8408 8.28819 58.5446 9.62249 56.3872C10.1572 55.5225 10.6284 54.8407 10.9997 54.3354Z" fill="url(#paint1_linear_1286_5317)" stroke="black"/>
<path d="M15.901 80.4953L15.4048 80.5497L15.901 80.4953C14.336 66.2132 13.9477 57.7069 13.9492 52.7787C13.95 50.315 14.0481 48.7495 14.1445 47.8063C14.1926 47.3349 14.2402 47.0202 14.2746 46.8274C14.2917 46.7311 14.3056 46.6655 14.3145 46.6263C14.3146 46.6259 14.3147 46.6255 14.3147 46.6251C14.3236 46.6085 14.3346 46.5877 14.3479 46.5629C14.3888 46.4863 14.4511 46.3714 14.535 46.2208C14.7028 45.9194 14.9572 45.4748 15.301 44.9063C15.9887 43.7692 17.0342 42.1368 18.461 40.164C21.3148 36.218 25.6923 30.9129 31.7809 25.4863C43.6556 14.9028 62.0396 3.85553 88.3415 1.52567C63.7921 17.3015 43.6395 38.2522 33.9041 61.6763C24.5017 84.2992 24.8303 109.204 40.251 133.895C40.2127 133.852 40.1742 133.809 40.1355 133.766C37.8081 131.169 34.6619 127.334 31.3937 122.391C24.8563 112.503 17.8402 98.1945 15.901 80.4953Z" fill="#19ACDC" stroke="black"/>
<path d="M179.098 52.1868C179.43 52.8457 179.682 53.3753 179.858 53.7561H147.925C147.911 53.7363 147.896 53.7153 147.88 53.6931C147.75 53.5113 147.556 53.2465 147.299 52.9103C146.784 52.2378 146.014 51.2793 144.99 50.1282C142.94 47.8265 139.869 44.7522 135.775 41.6539C127.585 35.4564 115.294 29.1577 98.9086 28.7655C74.2936 28.1759 57.829 38.6007 47.528 49.1735C42.748 54.0796 39.2954 59.0168 36.9675 62.899C53.6705 22.5185 87.462 5.49939 96.2774 1.36755C127.072 1.39938 148.032 14.6562 161.306 27.9155C167.954 34.5556 172.673 41.1962 175.73 46.1757C177.258 48.665 178.369 50.7381 179.098 52.1868Z" fill="url(#paint2_linear_1286_5317)" stroke="black"/>
<defs>
<linearGradient id="paint0_linear_1286_5317" x1="136.211" y1="190.694" x2="137.774" y2="85.2604" gradientUnits="userSpaceOnUse">
<stop stop-color="#0C619B"/>
<stop offset="1" stop-color="#13A0D2"/>
</linearGradient>
<linearGradient id="paint1_linear_1286_5317" x1="78.9191" y1="179.883" x2="-6.23252" y2="63.5892" gradientUnits="userSpaceOnUse">
<stop stop-color="#0C619B"/>
<stop offset="1" stop-color="#13A0D2"/>
</linearGradient>
<linearGradient id="paint2_linear_1286_5317" x1="106.765" y1="55.8545" x2="104.42" y2="8.21492" gradientUnits="userSpaceOnUse">
<stop stop-color="#0C619B"/>
<stop offset="1" stop-color="#13A0D2"/>
</linearGradient>
</defs>
</svg>
